<svg width="94" height="24" viewBox="0 0 94 24" fill="none" xmlns="http://www.w3.org/2000/svg">
<path d="M56.0156 17.0156V12H51V17.0156H56.0156Z" fill="#0190FE"/>
<path d="M4.79261 9.36364H3.20668V8.76207C3.20668 8.16548 3.45526 7.83239 4.12642 7.83239C4.4098 7.83239 4.64844 7.89702 4.79759 7.94176L5.16051 6.54972C4.92685 6.47017 4.41477 6.34091 3.79332 6.34091C2.46591 6.34091 1.40696 7.10156 1.40696 8.64276V9.36364H0.278409V10.7557H1.40696V17H3.20668V10.7557H4.79261V9.36364ZM6.20206 17H8.00178V9.36364H6.20206V17ZM7.10689 8.27983C7.67862 8.27983 8.14595 7.84233 8.14595 7.3054C8.14595 6.76349 7.67862 6.32599 7.10689 6.32599C6.53018 6.32599 6.06286 6.76349 6.06286 7.3054C6.06286 7.84233 6.53018 8.27983 7.10689 8.27983ZM11.6522 6.81818H9.85245V17H11.6522V6.81818ZM16.8835 17.1491C18.6634 17.1491 19.8864 16.2791 20.2045 14.9517L18.5241 14.7628C18.2805 15.4091 17.6839 15.7472 16.9084 15.7472C15.745 15.7472 14.9744 14.9815 14.9595 13.674H20.2791V13.1222C20.2791 10.4425 18.6683 9.2642 16.7891 9.2642C14.6016 9.2642 13.1747 10.87 13.1747 13.2266C13.1747 15.6229 14.5817 17.1491 16.8835 17.1491ZM14.9645 12.4609C15.0192 11.4865 15.7401 10.6662 16.8139 10.6662C17.848 10.6662 18.544 11.4219 18.554 12.4609H14.9645ZM25.1326 17.1491C27.0517 17.1491 28.2747 16.0107 28.4039 14.3899H26.6838C26.5297 15.2102 25.938 15.6825 25.1475 15.6825C24.024 15.6825 23.2981 14.7429 23.2981 13.1818C23.2981 11.6406 24.0389 10.7159 25.1475 10.7159C26.0126 10.7159 26.5446 11.2727 26.6838 12.0085H28.4039C28.2797 10.353 26.987 9.2642 25.1227 9.2642C22.8855 9.2642 21.4735 10.88 21.4735 13.2116C21.4735 15.5234 22.8507 17.1491 25.1326 17.1491ZM33.2127 17.1491C35.4499 17.1491 36.8718 15.5732 36.8718 13.2116C36.8718 10.8452 35.4499 9.2642 33.2127 9.2642C30.9755 9.2642 29.5536 10.8452 29.5536 13.2116C29.5536 15.5732 30.9755 17.1491 33.2127 17.1491ZM33.2227 15.7074C31.9847 15.7074 31.3782 14.6037 31.3782 13.2067C31.3782 11.8097 31.9847 10.6911 33.2227 10.6911C34.4407 10.6911 35.0472 11.8097 35.0472 13.2067C35.0472 14.6037 34.4407 15.7074 33.2227 15.7074ZM38.3993 17H40.199V9.36364H38.3993V17ZM39.3042 8.27983C39.8759 8.27983 40.3432 7.84233 40.3432 7.3054C40.3432 6.76349 39.8759 6.32599 39.3042 6.32599C38.7275 6.32599 38.2601 6.76349 38.2601 7.3054C38.2601 7.84233 38.7275 8.27983 39.3042 8.27983ZM43.8494 12.5256C43.8494 11.4219 44.5156 10.7855 45.4652 10.7855C46.3949 10.7855 46.9517 11.397 46.9517 12.4162V17H48.7514V12.1378C48.7564 10.3082 47.7124 9.2642 46.1364 9.2642C44.9929 9.2642 44.2074 9.81108 43.8594 10.6612H43.7699V9.36364H42.0497V17H43.8494V12.5256Z" fill="black"/>
<path d="M59.7244 6.81818H57.9247V17H59.7244V6.81818ZM64.9061 17.1491C67.1433 17.1491 68.5652 15.5732 68.5652 13.2116C68.5652 10.8452 67.1433 9.2642 64.9061 9.2642C62.6689 9.2642 61.247 10.8452 61.247 13.2116C61.247 15.5732 62.6689 17.1491 64.9061 17.1491ZM64.916 15.7074C63.6781 15.7074 63.0716 14.6037 63.0716 13.2067C63.0716 11.8097 63.6781 10.6911 64.916 10.6911C66.1341 10.6911 66.7406 11.8097 66.7406 13.2067C66.7406 14.6037 66.1341 15.7074 64.916 15.7074ZM72.2901 17.1541C73.4883 17.1541 74.2042 16.5923 74.5323 15.951H74.592V17H76.3221V11.8892C76.3221 9.87074 74.6765 9.2642 73.2198 9.2642C71.614 9.2642 70.381 9.98011 69.9833 11.3722L71.6637 11.6108C71.8427 11.0888 72.3498 10.6413 73.2298 10.6413C74.065 10.6413 74.5224 11.0689 74.5224 11.8196V11.8494C74.5224 12.3665 73.9805 12.3913 72.6332 12.5355C71.1516 12.6946 69.7347 13.1371 69.7347 14.8572C69.7347 16.3587 70.8335 17.1541 72.2901 17.1541ZM72.7575 15.8317C72.0067 15.8317 71.4698 15.4886 71.4698 14.8274C71.4698 14.1364 72.0714 13.848 72.8768 13.7337C73.3491 13.669 74.2937 13.5497 74.5273 13.3608V14.2607C74.5273 15.1108 73.8413 15.8317 72.7575 15.8317ZM79.9315 12.5256C79.9315 11.4219 80.5977 10.7855 81.5472 10.7855C82.4769 10.7855 83.0337 11.397 83.0337 12.4162V17H84.8335V12.1378C84.8384 10.3082 83.7944 9.2642 82.2184 9.2642C81.0749 9.2642 80.2894 9.81108 79.9414 10.6612H79.8519V9.36364H78.1317V17H79.9315V12.5256ZM92.6985 11.3821C92.4499 10.0895 91.4158 9.2642 89.6261 9.2642C87.7866 9.2642 86.5337 10.169 86.5387 11.581C86.5337 12.6946 87.2198 13.4304 88.6864 13.7337L89.989 14.0071C90.69 14.1612 91.0181 14.4446 91.0181 14.8771C91.0181 15.3991 90.4513 15.7919 89.5962 15.7919C88.771 15.7919 88.234 15.4339 88.0799 14.7479L86.3249 14.9169C86.5487 16.3189 87.7269 17.1491 89.6012 17.1491C91.5103 17.1491 92.8576 16.1598 92.8626 14.7131C92.8576 13.6243 92.1566 12.9581 90.7148 12.6449L89.4123 12.3665C88.6367 12.1925 88.3285 11.924 88.3335 11.4815C88.3285 10.9645 88.9002 10.6065 89.6509 10.6065C90.4812 10.6065 90.9187 11.0589 91.0579 11.5611L92.6985 11.3821Z" fill="black"/>
</svg>
