<svg width="24" height="24" viewBox="0 0 24 24" fill="none" xmlns="http://www.w3.org/2000/svg">
<path fill-rule="evenodd" clip-rule="evenodd" d="M15.2 4V3C15.2 2.44772 15.6477 2 16.2 2C16.7523 2 17.2 2.44772 17.2 3V4.00491C19.3162 4.10912 21 5.85793 21 8V17C21 19.2091 19.2091 21 17 21H7C4.79086 21 3 19.2091 3 17V8C3 5.79086 4.79086 4 7 4H7.2V3C7.2 2.44772 7.64772 2 8.2 2C8.75228 2 9.2 2.44772 9.2 3V4H11.2V3C11.2 2.44772 11.6477 2 12.2 2C12.7523 2 13.2 2.44772 13.2 3V4H15.2ZM15.2 6H13.2C13.2 6.55228 12.7523 7 12.2 7C11.6477 7 11.2 6.55228 11.2 6H9.2C9.2 6.55228 8.75229 7 8.2 7C7.64772 7 7.2 6.55228 7.2 6H7C5.89543 6 5 6.89543 5 8V17C5 18.1046 5.89543 19 7 19H17C18.1046 19 19 18.1046 19 17V8C19 6.96291 18.2106 6.11019 17.2 6.00987C17.1947 6.55761 16.749 7 16.2 7C15.6477 7 15.2 6.55228 15.2 6ZM9 12C8.44772 12 8 11.5523 8 11C8 10.4477 8.44772 10 9 10H16C16.5523 10 17 10.4477 17 11C17 11.5523 16.5523 12 16 12H9ZM9 16C8.44772 16 8 15.5523 8 15C8 14.4477 8.44772 14 9 14H14C14.5523 14 15 14.4477 15 15C15 15.5523 14.5523 16 14 16H9Z" fill="#50B5FF"/>
</svg>
