<svg width="20" height="21" viewBox="0 0 20 21" fill="none" xmlns="http://www.w3.org/2000/svg">
<path fill-rule="evenodd" clip-rule="evenodd" d="M3.7815 3.5H3C2.44772 3.5 2 3.94772 2 4.5V7H18V4.5C18 3.94772 17.5523 3.5 17 3.5H16.9685C16.8575 3.93131 16.466 4.25 16 4.25C15.534 4.25 15.1425 3.93131 15.0315 3.5H5.7185C5.60748 3.93131 5.21596 4.25 4.75 4.25C4.28404 4.25 3.89252 3.93131 3.7815 3.5ZM5.75 1.5H15V1C15 0.447715 15.4477 0 16 0C16.5523 0 17 0.447715 17 1V1.5C18.6569 1.5 20 2.84315 20 4.5V15.25C20 18.0114 17.7614 20.25 15 20.25H5C2.23858 20.25 0 18.0114 0 15.25V4.5C0 2.84315 1.34315 1.5 3 1.5H3.75V1C3.75 0.447715 4.19772 0 4.75 0C5.30228 0 5.75 0.447715 5.75 1V1.5ZM2 9V15.25C2 16.9069 3.34315 18.25 5 18.25H15C16.6569 18.25 18 16.9069 18 15.25V9H2Z" fill="#82C43C"/>
</svg>
