<svg width="37" height="40" viewBox="0 0 37 40" fill="none" xmlns="http://www.w3.org/2000/svg">
<path d="M0.636814 28.9226C0.212271 25.9017 0 22.8979 0 19.9113C0 16.9251 0.212214 13.9217 0.636642 10.9012C0.73113 10.2287 1.08653 9.61915 1.62751 9.20164C4.04382 7.33678 6.56609 5.65353 9.19432 4.15191C11.8233 2.64988 14.5582 1.32956 17.3992 0.190965C18.034 -0.0634525 18.7439 -0.0636621 19.3788 0.19038C22.2044 1.32087 24.9391 2.64138 27.5829 4.15191C30.2264 5.66223 32.749 7.34541 35.1509 9.20145C35.6911 9.61894 36.046 10.2281 36.1404 10.9C36.565 13.9209 36.7773 16.9247 36.7773 19.9113C36.7773 22.8975 36.5651 25.9009 36.1406 28.9214C36.0461 29.5938 35.6907 30.2034 35.1498 30.6209C32.7334 32.4858 30.2112 34.169 27.5829 35.6707C24.954 37.1727 22.2191 38.493 19.3781 39.6316C18.7433 39.886 18.0334 39.8862 17.3984 39.6322C14.5728 38.5017 11.8381 37.1812 9.19432 35.6707C6.55087 34.1603 4.02823 32.4772 1.6264 30.6211C1.08614 30.2036 0.731235 29.5945 0.636814 28.9226Z" fill="#50B5FF"/>
<mask id="mask0" mask-type="alpha" maskUnits="userSpaceOnUse" x="0" y="0" width="37" height="40">
<path d="M0.636814 28.9226C0.212271 25.9017 0 22.8979 0 19.9113C0 16.9251 0.212214 13.9217 0.636642 10.9012C0.73113 10.2287 1.08653 9.61915 1.62751 9.20164C4.04382 7.33678 6.56609 5.65353 9.19432 4.15191C11.8233 2.64988 14.5582 1.32956 17.3992 0.190965C18.034 -0.0634525 18.7439 -0.0636621 19.3788 0.19038C22.2044 1.32087 24.9391 2.64138 27.5829 4.15191C30.2264 5.66223 32.749 7.34541 35.1509 9.20145C35.6911 9.61894 36.046 10.2281 36.1404 10.9C36.565 13.9209 36.7773 16.9247 36.7773 19.9113C36.7773 22.8975 36.5651 25.9009 36.1406 28.9214C36.0461 29.5938 35.6907 30.2034 35.1498 30.6209C32.7334 32.4858 30.2112 34.169 27.5829 35.6707C24.954 37.1727 22.2191 38.493 19.3781 39.6316C18.7433 39.886 18.0334 39.8862 17.3984 39.6322C14.5728 38.5017 11.8381 37.1812 9.19432 35.6707C6.55087 34.1603 4.02823 32.4772 1.6264 30.6211C1.08614 30.2036 0.731235 29.5945 0.636814 28.9226Z" fill="white"/>
</mask>
<g mask="url(#mask0)">
<path d="M14.2166 11.5566H22.1104L27.6787 6.29514C28.1719 5.82917 27.8421 5 27.1636 5H22.6469C21.6891 5 20.7676 5.3665 20.0714 6.02432L14.2166 11.5566Z" fill="#F1543F"/>
<path fill-rule="evenodd" clip-rule="evenodd" d="M12.3704 10.9951V15.0534H23.5746V10.9951C23.5746 10.5809 23.2388 10.2451 22.8246 10.2451H13.1204C12.7061 10.2451 12.3704 10.5809 12.3704 10.9951ZM22.3014 13.8045H13.6436V11.4941H22.3014V13.8045Z" fill="#C5C0B9"/>
<path d="M22.1104 11.5566H14.2165L8.59961 6.29748C8.10313 5.83262 8.43208 5 9.11222 5H13.68C14.6378 5 15.5593 5.3665 16.2555 6.02431L22.1104 11.5566Z" fill="#FF7058"/>
<path d="M17.9725 34.973C24.4768 34.973 29.7496 29.8009 29.7496 23.4208C29.7496 17.0407 24.4768 11.8687 17.9725 11.8687C11.4681 11.8687 6.19531 17.0407 6.19531 23.4208C6.19531 29.8009 11.4681 34.973 17.9725 34.973Z" fill="#EFEDE8"/>
<path d="M17.9427 32.1655C13.0409 32.1655 9.03027 28.2315 9.03027 23.4233C9.03027 18.6152 13.0409 14.6812 17.9427 14.6812C22.8446 14.6812 26.8552 18.6152 26.8552 23.4233C26.8552 28.2315 22.8446 32.1655 17.9427 32.1655Z" fill="#C5C0B9"/>
<path d="M17.9253 17.6694L19.4025 22.0633H24.1396L20.2684 24.8094L21.7456 29.2033L17.9253 26.4572L14.105 29.2033L15.5822 24.8094L11.7109 22.0633H16.4481L17.9253 17.6694Z" fill="#EFEDE8"/>
</g>
</svg>
