<svg width="230" height="137" viewBox="0 0 230 137" fill="none" xmlns="http://www.w3.org/2000/svg">
<path fill-rule="evenodd" clip-rule="evenodd" d="M0 29.5254C0 45.8313 13.2274 59.0508 29.5453 59.0508C45.8631 59.0508 59.0905 45.8313 59.0905 29.5254C59.0905 13.2195 45.8631 0 29.5453 0C13.2274 0 0 13.2195 0 29.5254ZM45.0981 29.5254C45.0981 38.1116 38.1344 45.0712 29.5453 45.0712C20.9561 45.0712 13.9924 38.1116 13.9924 29.5254C13.9924 20.9392 20.9561 13.9796 29.5453 13.9796C38.1344 13.9796 45.0981 20.9392 45.0981 29.5254Z" fill="url(#paint0_linear)"/>
<path d="M122.084 11.0089H163.011V19.2219C163.011 28.8728 155.181 36.6964 145.521 36.6964H104.593V28.4834C104.593 18.8325 112.424 11.0089 122.084 11.0089Z" fill="url(#paint1_linear)"/>
<path d="M172.718 34.3991C176.909 18.1296 187.093 12.4115 203.27 17.2449C201.894 24.6017 198.618 30.2706 193.443 34.2516C188.267 38.2327 181.359 38.2818 172.718 34.3991Z" fill="url(#paint2_linear)"/>
<path d="M185.208 27.1413L185.781 21.5311C185.805 21.2994 186.153 21.3348 186.129 21.5666L185.581 26.9306C189.827 24.5336 195.131 21.5592 201.494 18.0071C201.579 17.96 201.685 17.9902 201.732 18.0744C201.779 18.1587 201.749 18.2651 201.665 18.3122C198.18 20.2576 195.013 22.0297 192.163 23.6286L197.091 24.8034C197.185 24.8258 197.243 24.92 197.221 25.0139C197.198 25.1078 197.104 25.1657 197.01 25.1433L191.714 23.8808C189.43 25.1622 187.356 26.3298 185.49 27.3834C185.474 27.3978 185.455 27.4082 185.434 27.415C183.325 28.6064 181.484 29.6515 179.911 30.5502L184.496 32.223C184.586 32.2561 184.633 32.3564 184.6 32.4471C184.567 32.5377 184.466 32.5844 184.376 32.5513L179.535 30.7853C179.528 30.7827 179.522 30.7798 179.515 30.7764C177.054 32.1844 175.29 33.2125 174.222 33.8605C174.139 33.9106 174.031 33.8844 173.981 33.8019C173.931 33.7194 173.957 33.6119 174.04 33.5618C175.825 32.4787 179.547 30.3387 185.208 27.1413Z" fill="white"/>
<path d="M174.606 39.3054C166.055 24.8407 169.209 13.6029 184.069 5.59186C188.302 11.7663 189.998 18.0891 189.156 24.5604C188.314 31.0316 183.464 35.9466 174.606 39.3054Z" fill="url(#paint3_linear)"/>
<path d="M178.301 25.35L174.736 20.9782C174.588 20.7976 174.86 20.5768 175.007 20.7574L178.416 24.9374C179.722 20.243 181.367 14.3925 183.353 7.38555C183.379 7.29269 183.476 7.23873 183.568 7.26501C183.661 7.2913 183.715 7.38789 183.689 7.48075C182.602 11.3183 181.616 14.809 180.733 17.9527L185.049 15.3018C185.131 15.2513 185.239 15.277 185.29 15.3592C185.34 15.4414 185.315 15.549 185.232 15.5996L180.594 18.4485C179.886 20.9677 179.246 23.2588 178.672 25.3218C178.671 25.3436 178.664 25.3645 178.655 25.3837C178.007 27.7163 177.444 29.756 176.968 31.5027L181.394 29.4466C181.482 29.4059 181.586 29.4439 181.626 29.5314C181.667 29.6189 181.629 29.7228 181.542 29.7635L176.869 31.9342C176.862 31.9373 176.855 31.94 176.848 31.9422C176.105 34.6763 175.585 36.6499 175.288 37.8627C175.265 37.9564 175.171 38.0139 175.077 37.991C174.983 37.9681 174.925 37.8735 174.948 37.7797C175.444 35.7529 176.562 31.6099 178.301 25.35Z" fill="white"/>
<path d="M165.81 45.3156C174.072 30.684 185.391 27.7942 199.765 36.6461C196.529 43.3963 191.897 48.0249 185.866 50.532C179.836 53.0392 173.15 51.3003 165.81 45.3156Z" fill="url(#paint4_linear)"/>
<path d="M179.754 41.5348L181.761 36.2639C181.844 36.0462 182.171 36.1704 182.088 36.3882L180.169 41.4277C184.891 40.2103 190.785 38.7088 197.852 36.9231C197.945 36.8995 198.041 36.9561 198.064 37.0497C198.088 37.1432 198.031 37.2383 197.938 37.2619C194.067 38.2399 190.549 39.1327 187.382 39.9402L191.838 42.3493C191.923 42.3952 191.955 42.5012 191.909 42.5861C191.863 42.671 191.757 42.7026 191.672 42.6566L186.883 40.0675C184.345 40.7149 182.039 41.3063 179.964 41.8416C179.944 41.8512 179.923 41.8564 179.902 41.8577C177.556 42.463 175.507 42.9964 173.754 43.4577L177.75 46.2591C177.829 46.3145 177.848 46.4235 177.792 46.5025C177.737 46.5815 177.628 46.6006 177.549 46.5452L173.331 43.5877C173.325 43.5834 173.319 43.5788 173.314 43.5739C170.572 44.2976 168.601 44.8343 167.401 45.1842C167.309 45.2112 167.212 45.158 167.185 45.0654C167.157 44.9727 167.211 44.8757 167.303 44.8487C169.308 44.264 173.458 43.1595 179.754 41.5348Z" fill="white"/>
<path d="M153.566 136.833C171.448 136.833 194.056 136.833 205.734 136.833C205.734 122.352 194.056 110.614 179.65 110.614C165.245 110.614 153.566 122.352 153.566 136.833Z" fill="#4BC4FC"/>
<path fill-rule="evenodd" clip-rule="evenodd" d="M178.649 85.9425C179.075 85.9425 179.421 85.5976 179.421 85.1722C179.421 84.7467 179.075 84.4018 178.649 84.4018C178.224 84.4018 177.878 84.7467 177.878 85.1722C177.878 85.5976 178.224 85.9425 178.649 85.9425ZM179.421 88.2536C179.421 88.6791 179.075 89.024 178.649 89.024C178.224 89.024 177.878 88.6791 177.878 88.2536C177.878 87.8282 178.224 87.4833 178.649 87.4833C179.075 87.4833 179.421 87.8282 179.421 88.2536ZM178.649 92.1055C179.075 92.1055 179.421 91.7606 179.421 91.3351C179.421 90.9097 179.075 90.5648 178.649 90.5648C178.224 90.5648 177.878 90.9097 177.878 91.3351C177.878 91.7606 178.224 92.1055 178.649 92.1055ZM179.421 94.4166C179.421 94.8421 179.075 95.187 178.649 95.187C178.224 95.187 177.878 94.8421 177.878 94.4166C177.878 93.9911 178.224 93.6462 178.649 93.6462C179.075 93.6462 179.421 93.9911 179.421 94.4166ZM178.649 98.2685C179.075 98.2685 179.421 97.9236 179.421 97.4981C179.421 97.0726 179.075 96.7277 178.649 96.7277C178.224 96.7277 177.878 97.0726 177.878 97.4981C177.878 97.9236 178.224 98.2685 178.649 98.2685ZM178.649 101.35C179.075 101.35 179.421 101.005 179.421 100.58C179.421 100.154 179.075 99.8092 178.649 99.8092C178.224 99.8092 177.878 100.154 177.878 100.58C177.878 101.005 178.224 101.35 178.649 101.35ZM182.505 100.58C182.505 101.005 182.16 101.35 181.734 101.35C181.308 101.35 180.963 101.005 180.963 100.58C180.963 100.154 181.308 99.8092 181.734 99.8092C182.16 99.8092 182.505 100.154 182.505 100.58ZM181.734 98.2685C182.16 98.2685 182.505 97.9236 182.505 97.4981C182.505 97.0726 182.16 96.7277 181.734 96.7277C181.308 96.7277 180.963 97.0726 180.963 97.4981C180.963 97.9236 181.308 98.2685 181.734 98.2685ZM182.505 94.4166C182.505 94.8421 182.16 95.187 181.734 95.187C181.308 95.187 180.963 94.8421 180.963 94.4166C180.963 93.9911 181.308 93.6462 181.734 93.6462C182.16 93.6462 182.505 93.9911 182.505 94.4166ZM181.734 92.1055C182.16 92.1055 182.505 91.7606 182.505 91.3351C182.505 90.9097 182.16 90.5648 181.734 90.5648C181.308 90.5648 180.963 90.9097 180.963 91.3351C180.963 91.7606 181.308 92.1055 181.734 92.1055ZM182.505 88.2536C182.505 88.6791 182.16 89.024 181.734 89.024C181.308 89.024 180.963 88.6791 180.963 88.2536C180.963 87.8282 181.308 87.4833 181.734 87.4833C182.16 87.4833 182.505 87.8282 182.505 88.2536ZM181.734 85.9425C182.16 85.9425 182.505 85.5976 182.505 85.1722C182.505 84.7467 182.16 84.4018 181.734 84.4018C181.308 84.4018 180.963 84.7467 180.963 85.1722C180.963 85.5976 181.308 85.9425 181.734 85.9425ZM185.59 100.58C185.59 101.005 185.244 101.35 184.818 101.35C184.393 101.35 184.047 101.005 184.047 100.58C184.047 100.154 184.393 99.8092 184.818 99.8092C185.244 99.8092 185.59 100.154 185.59 100.58ZM184.818 98.2685C185.244 98.2685 185.59 97.9236 185.59 97.4981C185.59 97.0726 185.244 96.7277 184.818 96.7277C184.393 96.7277 184.047 97.0726 184.047 97.4981C184.047 97.9236 184.393 98.2685 184.818 98.2685ZM185.59 94.4166C185.59 94.8421 185.244 95.187 184.818 95.187C184.393 95.187 184.047 94.8421 184.047 94.4166C184.047 93.9911 184.393 93.6462 184.818 93.6462C185.244 93.6462 185.59 93.9911 185.59 94.4166ZM184.818 92.1055C185.244 92.1055 185.59 91.7606 185.59 91.3351C185.59 90.9097 185.244 90.5648 184.818 90.5648C184.393 90.5648 184.047 90.9097 184.047 91.3351C184.047 91.7606 184.393 92.1055 184.818 92.1055ZM185.59 88.2536C185.59 88.6791 185.244 89.024 184.818 89.024C184.393 89.024 184.047 88.6791 184.047 88.2536C184.047 87.8282 184.393 87.4833 184.818 87.4833C185.244 87.4833 185.59 87.8282 185.59 88.2536ZM184.818 85.9425C185.244 85.9425 185.59 85.5976 185.59 85.1722C185.59 84.7467 185.244 84.4018 184.818 84.4018C184.393 84.4018 184.047 84.7467 184.047 85.1722C184.047 85.5976 184.393 85.9425 184.818 85.9425ZM188.674 100.58C188.674 101.005 188.329 101.35 187.903 101.35C187.477 101.35 187.132 101.005 187.132 100.58C187.132 100.154 187.477 99.8092 187.903 99.8092C188.329 99.8092 188.674 100.154 188.674 100.58ZM187.903 98.2685C188.329 98.2685 188.674 97.9236 188.674 97.4981C188.674 97.0726 188.329 96.7277 187.903 96.7277C187.477 96.7277 187.132 97.0726 187.132 97.4981C187.132 97.9236 187.477 98.2685 187.903 98.2685ZM188.674 94.4166C188.674 94.8421 188.329 95.187 187.903 95.187C187.477 95.187 187.132 94.8421 187.132 94.4166C187.132 93.9911 187.477 93.6462 187.903 93.6462C188.329 93.6462 188.674 93.9911 188.674 94.4166ZM187.903 92.1055C188.329 92.1055 188.674 91.7606 188.674 91.3351C188.674 90.9097 188.329 90.5648 187.903 90.5648C187.477 90.5648 187.132 90.9097 187.132 91.3351C187.132 91.7606 187.477 92.1055 187.903 92.1055ZM188.674 88.2536C188.674 88.6791 188.329 89.024 187.903 89.024C187.477 89.024 187.132 88.6791 187.132 88.2536C187.132 87.8282 187.477 87.4833 187.903 87.4833C188.329 87.4833 188.674 87.8282 188.674 88.2536ZM187.903 85.9425C188.329 85.9425 188.674 85.5976 188.674 85.1722C188.674 84.7467 188.329 84.4018 187.903 84.4018C187.477 84.4018 187.132 84.7467 187.132 85.1722C187.132 85.5976 187.477 85.9425 187.903 85.9425ZM191.758 100.58C191.758 101.005 191.413 101.35 190.987 101.35C190.561 101.35 190.216 101.005 190.216 100.58C190.216 100.154 190.561 99.8092 190.987 99.8092C191.413 99.8092 191.758 100.154 191.758 100.58ZM190.987 98.2685C191.413 98.2685 191.758 97.9236 191.758 97.4981C191.758 97.0726 191.413 96.7277 190.987 96.7277C190.561 96.7277 190.216 97.0726 190.216 97.4981C190.216 97.9236 190.561 98.2685 190.987 98.2685ZM191.758 94.4166C191.758 94.8421 191.413 95.187 190.987 95.187C190.561 95.187 190.216 94.8421 190.216 94.4166C190.216 93.9911 190.561 93.6462 190.987 93.6462C191.413 93.6462 191.758 93.9911 191.758 94.4166ZM190.987 92.1055C191.413 92.1055 191.758 91.7606 191.758 91.3351C191.758 90.9097 191.413 90.5648 190.987 90.5648C190.561 90.5648 190.216 90.9097 190.216 91.3351C190.216 91.7606 190.561 92.1055 190.987 92.1055ZM191.758 88.2536C191.758 88.6791 191.413 89.024 190.987 89.024C190.561 89.024 190.216 88.6791 190.216 88.2536C190.216 87.8282 190.561 87.4833 190.987 87.4833C191.413 87.4833 191.758 87.8282 191.758 88.2536ZM190.987 85.9425C191.413 85.9425 191.758 85.5976 191.758 85.1722C191.758 84.7467 191.413 84.4018 190.987 84.4018C190.561 84.4018 190.216 84.7467 190.216 85.1722C190.216 85.5976 190.561 85.9425 190.987 85.9425ZM194.843 100.58C194.843 101.005 194.498 101.35 194.072 101.35C193.646 101.35 193.301 101.005 193.301 100.58C193.301 100.154 193.646 99.8092 194.072 99.8092C194.498 99.8092 194.843 100.154 194.843 100.58ZM194.072 98.2685C194.498 98.2685 194.843 97.9236 194.843 97.4981C194.843 97.0726 194.498 96.7277 194.072 96.7277C193.646 96.7277 193.301 97.0726 193.301 97.4981C193.301 97.9236 193.646 98.2685 194.072 98.2685ZM194.843 94.4166C194.843 94.8421 194.498 95.187 194.072 95.187C193.646 95.187 193.301 94.8421 193.301 94.4166C193.301 93.9911 193.646 93.6462 194.072 93.6462C194.498 93.6462 194.843 93.9911 194.843 94.4166ZM194.072 92.1055C194.498 92.1055 194.843 91.7606 194.843 91.3351C194.843 90.9097 194.498 90.5648 194.072 90.5648C193.646 90.5648 193.301 90.9097 193.301 91.3351C193.301 91.7606 193.646 92.1055 194.072 92.1055ZM194.843 88.2536C194.843 88.6791 194.498 89.024 194.072 89.024C193.646 89.024 193.301 88.6791 193.301 88.2536C193.301 87.8282 193.646 87.4833 194.072 87.4833C194.498 87.4833 194.843 87.8282 194.843 88.2536ZM194.072 85.9425C194.498 85.9425 194.843 85.5976 194.843 85.1722C194.843 84.7467 194.498 84.4018 194.072 84.4018C193.646 84.4018 193.301 84.7467 193.301 85.1722C193.301 85.5976 193.646 85.9425 194.072 85.9425Z" fill="#CDCBDF"/>
<path d="M10.3193 130.884H185.224C185.224 134.165 182.562 136.825 179.278 136.825H16.2661C12.9818 136.825 10.3193 134.165 10.3193 130.884Z" fill="#1056BF"/>
<path d="M22.5627 23.2411H172.981C174.913 23.2411 176.479 24.8058 176.479 26.736V128.088H19.0646V26.736C19.0646 24.8058 20.6307 23.2411 22.5627 23.2411Z" fill="url(#paint5_linear)"/>
<path d="M26.4106 30.2167H168.783C169.17 30.2167 169.483 30.5297 169.483 30.9157V40.2851C169.483 40.6712 169.17 40.9841 168.783 40.9841H26.4106C26.0242 40.9841 25.7109 40.6712 25.7109 40.2851V30.9157C25.7109 30.5297 26.0242 30.2167 26.4106 30.2167Z" fill="#FEF3F4"/>
<path fill-rule="evenodd" clip-rule="evenodd" d="M31.8327 38.2691C30.3837 38.2691 29.2091 37.0956 29.2091 35.648C29.2091 34.2003 30.3837 33.0268 31.8327 33.0268C33.2816 33.0268 34.4563 34.2003 34.4563 35.648C34.4563 37.0956 33.2816 38.2691 31.8327 38.2691ZM42.327 38.2691C40.878 38.2691 39.7034 37.0956 39.7034 35.648C39.7034 34.2003 40.878 33.0268 42.327 33.0268C43.7759 33.0268 44.9506 34.2003 44.9506 35.648C44.9506 37.0956 43.7759 38.2691 42.327 38.2691ZM50.1977 35.648C50.1977 37.0956 51.3723 38.2691 52.8213 38.2691C54.2702 38.2691 55.4448 37.0956 55.4448 35.648C55.4448 34.2003 54.2702 33.0268 52.8213 33.0268C51.3723 33.0268 50.1977 34.2003 50.1977 35.648Z" fill="#00ADFF"/>
<path d="M26.4106 44.1963H168.783C169.17 44.1963 169.483 44.5092 169.483 44.8953V125.467C169.483 125.853 169.17 126.166 168.783 126.166H26.4106C26.0242 126.166 25.7109 125.853 25.7109 125.467V44.8953C25.7109 44.5092 26.0242 44.1963 26.4106 44.1963Z" fill="white"/>
<path fill-rule="evenodd" clip-rule="evenodd" d="M97.422 51.2003H32.7072V77.5867H97.422V51.2003ZM104.418 51.2003H162.312V77.5867H104.418V51.2003ZM104.418 88.3647H162.312V115.856H104.418V88.3647Z" fill="url(#paint6_linear)"/>
<path fill-rule="evenodd" clip-rule="evenodd" d="M109.49 64.4809C109.49 68.5343 112.779 71.8202 116.836 71.8202C120.894 71.8202 124.182 68.5343 124.182 64.4809C124.182 60.4275 120.894 57.1416 116.836 57.1416C112.779 57.1416 109.49 60.4275 109.49 64.4809ZM147.62 57.1416H131.179V60.287H147.62V57.1416ZM131.179 68.6748H147.62V71.8202H131.179V68.6748ZM147.62 62.9082H131.179V66.0536H147.62V62.9082Z" fill="white"/>
<path fill-rule="evenodd" clip-rule="evenodd" d="M147.62 94.1312H131.179V97.2766H147.62V94.1312ZM147.62 105.664H131.179V108.81H147.62V105.664ZM131.179 99.8978H147.62V103.043H131.179V99.8978ZM109.49 101.527C109.49 105.58 112.779 108.866 116.836 108.866C120.894 108.866 124.182 105.58 124.182 101.527C124.182 97.4734 120.894 94.1875 116.836 94.1875C112.779 94.1875 109.49 97.4734 109.49 101.527Z" fill="white"/>
<path d="M118.149 62.7823C118.412 62.4993 118.854 62.4827 119.138 62.7453C119.421 63.0079 119.437 63.4502 119.175 63.7331L117.065 66.0048C116.823 66.2649 116.425 66.3029 116.138 66.0933L114.674 65.0217C114.362 64.7936 114.295 64.3563 114.523 64.0448C114.751 63.7334 115.189 63.6658 115.501 63.8939L116.463 64.5978L118.149 62.7823Z" fill="#00ADFF"/>
<path d="M115.034 130.884C114.45 132.611 112.815 133.855 110.89 133.855H84.8288C82.9033 133.855 81.2684 132.611 80.6849 130.884H10.3193V128.088H185.224V130.884H115.034Z" fill="#1E1539"/>
<path d="M95.4981 63.4324V99.2551H52.8213V63.4324H95.4981Z" fill="url(#paint7_linear)"/>
<path d="M78.1825 63.4324V99.2551H45.8251V63.4324H78.1825Z" fill="#00ADFF"/>
<path d="M64.7148 63.4324V74.9655H58.7681V63.4324H64.7148Z" fill="white"/>
<path d="M83.4296 89.4694V128.088H33.7566V89.4694H83.4296Z" fill="#D64F53"/>
<path d="M64.7148 89.4694V128.088H26.2357V89.4694H64.7148Z" fill="url(#paint8_linear)"/>
<path d="M46.6997 89.4694V101.876H40.4031V89.4694H46.6997Z" fill="white"/>
<path d="M207.087 54.3456V83.1786H172.627V54.3456H207.087Z" fill="url(#paint9_linear)"/>
<path d="M193.106 54.3456V83.1786H167.034V54.3456H193.106Z" fill="#00ADFF"/>
<path d="M182.271 54.3456V63.5834H177.518V54.3456H182.271Z" fill="white"/>
<path d="M207.087 65.9513L211.209 54.7319L212.386 52.7991L211.209 69.6944L207.087 72.9858V65.9513Z" fill="#211D41"/>
<path d="M217.692 129.486V133.263H213.909V129.486H217.692Z" fill="#F4B696"/>
<path d="M217.838 132.981V133.766C217.838 134.401 217.838 135.037 217.838 135.673C217.838 136.136 217.462 136.512 216.998 136.512H209.546C209.251 136.512 209.011 136.219 209.011 135.858C209.011 134.452 210.08 134.269 211.348 133.82L213.865 132.981H217.838Z" fill="#021038"/>
<path d="M229.266 129.486V133.263H225.483V129.486H229.266Z" fill="#F4B696"/>
<path d="M213.239 131.789L211.46 81.5627L223.852 81.2564L218.159 131.789H213.239Z" fill="#211D41"/>
<path d="M229.412 132.981V133.766C229.412 134.401 229.412 135.037 229.412 135.673C229.412 136.136 229.036 136.512 228.573 136.512H221.121C220.825 136.512 220.586 136.219 220.586 135.858C220.586 134.452 221.654 134.269 222.922 133.82L225.439 132.981H229.412Z" fill="#021038"/>
<path d="M224.814 131.789L215.658 81.5627L228.05 81.2564L229.733 131.789H224.814Z" fill="url(#paint10_linear)"/>
<path d="M216.127 50.5114L218.396 50.313C222.437 49.9598 226 52.9468 226.354 56.9847C226.355 56.9933 226.356 57.0018 226.356 57.0104L228.435 81.7451L211.427 83.2317L210.188 64.8889C210.188 64.8889 208.834 62.0832 209.205 59.3632C209.485 57.3175 211.787 50.8907 216.127 50.5114Z" fill="url(#paint11_linear)"/>
<path d="M213.668 51.9579C213.017 49.9248 212.321 48.8524 211.58 48.7408C210.468 48.5733 209.769 48.5247 209.637 47.433C209.504 46.3412 209.13 46.0555 208.639 45.9551C208.148 45.8546 207.627 45.2696 208.7 44.237C209.415 43.5485 209.607 42.2758 209.274 40.4188C213.422 37.8195 216.137 38.0411 217.419 41.0833C218.7 44.1256 218.533 46.6702 217.813 48.7408L218.297 50.6815C217.974 51.814 217.219 52.6402 216.031 53.16C214.843 53.6799 214.056 53.2791 213.668 51.9579Z" fill="#F4B696"/>
<path d="M210.389 69.1248L210.746 66.638L215.218 59.8586L223.071 60.9481L211.433 83.2349L210.389 69.1248Z" fill="#221E41"/>
<path d="M214.582 60.8883L220.363 64.3966L217.177 69.3274C216.339 70.6237 214.856 71.3557 213.317 71.2331C207.741 70.7893 202.127 70.4863 196.475 70.3242C196.048 70.5991 195.337 70.7787 194.343 70.863C191.861 70.8038 190.484 70.2282 190.21 69.1362C189.936 68.0442 191 67.4356 193.403 67.3105L193.319 66.8252C193.315 66.8004 193.312 66.7754 193.31 66.7502C193.281 66.3411 193.59 65.9863 193.999 65.9576L194.525 67.1174C195.187 67.428 195.958 67.5526 196.839 67.491C200.442 67.2928 205.7 66.7469 212.616 65.8535L214.582 60.8883Z" fill="#F4B696"/>
<path d="M215.407 58.1524L223.239 60.7994L217.194 69.4595C216.341 70.6817 214.903 71.3598 213.416 71.241C207.808 70.7929 202.161 70.4873 196.475 70.3242L196.839 67.491C200.442 67.2928 205.7 66.7469 212.616 65.8535L215.407 58.1524Z" fill="url(#paint12_linear)"/>
<path fill-rule="evenodd" clip-rule="evenodd" d="M222.627 83.3904L222.705 84.1523L222.531 84.17L222.453 83.4081L222.627 83.3904ZM222.754 86.3635L222.928 86.3459L223.006 87.1077L222.832 87.1254L222.754 86.3635ZM222.708 85.9085L222.882 85.8908L222.804 85.1289L222.63 85.1466L222.708 85.9085ZM223.229 89.3013L223.055 89.3189L223.133 90.0808L223.307 90.0631L223.229 89.3013ZM223.183 88.8462L223.009 88.8639L222.931 88.102L223.105 88.0843L223.183 88.8462ZM223.356 92.2744L223.53 92.2567L223.608 93.0185L223.434 93.0362L223.356 92.2744ZM223.31 91.8193L223.484 91.8016L223.406 91.0397L223.232 91.0574L223.31 91.8193ZM223.831 95.2121L223.657 95.2298L223.735 95.9916L223.909 95.974L223.831 95.2121ZM223.785 94.757L223.611 94.7747L223.533 94.0128L223.707 93.9952L223.785 94.757ZM223.958 98.1852L224.132 98.1675L224.21 98.9294L224.036 98.947L223.958 98.1852ZM223.912 97.7301L224.086 97.7124L224.008 96.9506L223.834 96.9682L223.912 97.7301ZM224.433 101.123L224.259 101.141L224.336 101.902L224.51 101.885L224.433 101.123ZM224.387 100.668L224.213 100.686L224.135 99.9237L224.309 99.906L224.387 100.668ZM224.56 104.096L224.734 104.078L224.811 104.84L224.637 104.858L224.56 104.096ZM224.513 103.641L224.687 103.623L224.61 102.861L224.436 102.879L224.513 103.641ZM225.035 107.034L224.861 107.051L224.938 107.813L225.112 107.796L225.035 107.034ZM224.988 106.579L224.814 106.596L224.737 105.834L224.911 105.817L224.988 106.579ZM225.162 110.007L225.336 109.989L225.413 110.751L225.239 110.769L225.162 110.007ZM225.115 109.552L225.289 109.534L225.212 108.772L225.038 108.79L225.115 109.552ZM225.637 112.945L225.463 112.962L225.54 113.724L225.714 113.706L225.637 112.945ZM225.59 112.489L225.416 112.507L225.339 111.745L225.513 111.728L225.59 112.489ZM225.763 115.918L225.938 115.9L226.015 116.662L225.841 116.68L225.763 115.918ZM225.717 115.463L225.891 115.445L225.814 114.683L225.64 114.701L225.717 115.463ZM226.238 118.855L226.064 118.873L226.142 119.635L226.316 119.617L226.238 118.855ZM226.192 118.4L226.018 118.418L225.941 117.656L226.115 117.638L226.192 118.4ZM226.365 121.828L226.539 121.811L226.617 122.573L226.443 122.59L226.365 121.828ZM226.319 121.373L226.493 121.356L226.415 120.594L226.241 120.612L226.319 121.373ZM226.84 124.766L226.666 124.784L226.744 125.546L226.918 125.528L226.84 124.766ZM226.794 124.311L226.62 124.329L226.542 123.567L226.716 123.549L226.794 124.311ZM226.967 127.739L227.141 127.722L227.219 128.483L227.045 128.501L226.967 127.739ZM226.921 127.284L227.095 127.267L227.017 126.505L226.843 126.522L226.921 127.284ZM227.396 130.222L227.222 130.24L227.144 129.478L227.318 129.46L227.396 130.222Z" fill="#A587FF"/>
<path d="M209.131 37.7229C208.065 40.0363 208.843 41.3669 211.463 41.7148C215.395 42.2365 213.033 47.1527 215.832 48.3839C218.632 49.6152 215.229 52.9234 220.38 52.9234C223.815 52.9234 225.855 54.7525 226.502 58.4107C226.393 53.489 225.171 50.1467 222.834 48.3839C219.328 45.7398 221.078 39.4339 218.686 37.7229C216.294 36.0118 213.735 36.0329 211.985 36.0329C210.818 36.0329 209.867 36.5962 209.131 37.7229Z" fill="url(#paint13_linear)"/>
<path d="M152.932 129.661H156.715V133.438H152.932V129.661Z" fill="#F4B696"/>
<path d="M152.786 133.156H156.759L159.276 133.995C160.544 134.444 161.612 134.627 161.612 136.033C161.612 136.394 161.373 136.687 161.077 136.687H153.625C153.161 136.687 152.786 136.311 152.786 135.848V133.156Z" fill="#021038"/>
<path d="M141.358 129.661H145.141V133.438H141.358V129.661Z" fill="#F4B696"/>
<path d="M157.384 131.963H152.464L146.771 81.4312L159.164 81.7374L157.384 131.963Z" fill="#211D41"/>
<path d="M167.034 63.0324V67.5418C165.451 67.6869 163.897 67.8533 162.373 68.0409C160.897 68.2227 159.434 67.6102 158.529 66.4308L154.326 60.9558L160.734 55.0447L162.884 62.5169C164.34 62.705 165.723 62.8769 167.034 63.0324Z" fill="#211D41"/>
<path d="M141.211 133.156H145.185L147.702 133.995C148.97 134.444 150.038 134.627 150.038 136.033C150.038 136.394 149.799 136.687 149.503 136.687H142.051C141.587 136.687 141.211 136.311 141.211 135.848V133.156Z" fill="#021038"/>
<path d="M145.81 131.963H140.89L142.573 81.4312L154.966 81.7374L145.81 131.963Z" fill="url(#paint14_linear)"/>
<path d="M154.497 50.6861C159.426 51.117 161.643 54.17 161.146 59.8451L159.196 83.4064L142.189 81.9198L144.267 57.1851C144.268 57.1766 144.269 57.168 144.269 57.1595C144.623 53.1215 148.186 50.1345 152.228 50.4878C152.984 50.5539 153.74 50.62 154.497 50.6861Z" fill="url(#paint15_linear)"/>
<path d="M174.282 74.4931C173.386 74.5558 172.232 74.0163 171.631 73.9693C169.618 73.8121 165.51 73.5346 159.306 73.1367C158.275 73.0565 156.844 72.5932 156.057 71.9755L150.669 67.7472L154.992 62.5497L159.707 67.9343C164.866 69.617 169.328 69.9859 172.134 70.5478C172.833 70.1824 173.391 69.9188 173.807 69.7569C174.432 69.514 175.173 69.8373 175.523 70.008C176.138 70.3077 175.737 70.4893 174.318 70.5531C175.215 70.5862 175.833 70.6098 176.171 70.624C176.678 70.6451 177.23 71.4244 176.895 72.7911C176.672 73.7022 175.801 74.2695 174.282 74.4931Z" fill="#F4B696"/>
<path d="M156.955 52.1326C156.568 53.4539 155.78 53.8546 154.592 53.3348C153.405 52.8149 152.649 51.9887 152.327 50.8562L152.811 48.9155C152.091 46.845 151.924 44.3004 153.205 41.2581C154.486 38.2158 157.201 37.9943 161.349 40.5935C161.017 42.4505 161.208 43.7233 161.923 44.4117C162.996 45.4443 162.476 46.0293 161.985 46.1298C161.494 46.2303 161.12 46.5159 160.987 47.6077C160.854 48.6995 160.155 48.7481 159.043 48.9155C158.302 49.0272 157.606 50.0995 156.955 52.1326Z" fill="#F4B696"/>
<path d="M152.305 48.8695C151.867 48.6497 151.634 48.3368 151.608 47.9311C151.568 47.3224 151.945 47.0817 150.898 45.7285C149.85 44.3753 149.077 42.6512 150.125 39.9026C151.173 37.154 152.896 37.1026 154.605 37.1368C156.314 37.171 156.981 37.4408 159.389 36.9256C161.797 36.4105 162.809 38.0472 162.055 40.3037C161.302 42.5601 157.812 42.1037 157.207 41.9528C156.601 41.802 156.807 42.7567 156.768 43.7116C156.728 44.6664 156.1 44.8068 155.892 44.649C155.684 44.4913 155.23 44.2844 154.745 44.761C154.26 45.2375 154.589 46.1141 154.922 46.197C155.255 46.2798 155.715 46.2302 155.689 46.616C155.663 47.0018 155.332 48.1619 154.87 48.7438C154.562 49.1316 153.707 49.1736 152.305 48.8695Z" fill="url(#paint16_linear)"/>
<path d="M156.833 64.076L150.809 69.442C146.392 64.8262 145.036 61.556 146.74 59.6313C149.296 56.7442 151.49 58.1303 153.086 59.8016C154.149 60.9158 155.398 62.3406 156.833 64.076Z" fill="url(#paint17_linear)"/>
<path fill-rule="evenodd" clip-rule="evenodd" d="M148.536 85.8141L148.469 86.4245L148.295 86.4052L148.362 85.7948L148.536 85.8141ZM147.967 89.3578L148.141 89.3771L148.141 89.372L147.968 89.3527L147.967 89.3578ZM148.276 88.1613L148.276 88.1562L148.103 88.1369L148.102 88.142L148.276 88.1613ZM147.813 92.3296L147.639 92.3104L147.64 92.3053L147.814 92.3245L147.813 92.3296ZM147.949 91.1088L147.948 91.1139L147.774 91.0946L147.775 91.0895L147.949 91.1088ZM147.312 95.2629L147.486 95.2822L147.486 95.2771L147.312 95.2579L147.312 95.2629ZM147.621 94.0664L147.621 94.0614L147.447 94.0421L147.447 94.0472L147.621 94.0664ZM147.158 98.2348L146.984 98.2155L146.985 98.2104L147.159 98.2297L147.158 98.2348ZM147.293 97.0139L147.293 97.019L147.119 96.9998L147.12 96.9947L147.293 97.0139ZM146.657 101.168L146.83 101.187L146.831 101.182L146.657 101.163L146.657 101.168ZM146.965 99.9716L146.966 99.9665L146.792 99.9472L146.791 99.9523L146.965 99.9716ZM146.503 104.14L146.329 104.121L146.329 104.116L146.503 104.135L146.503 104.14ZM146.638 102.919L146.638 102.924L146.464 102.905L146.464 102.9L146.638 102.919ZM146.001 107.073L146.175 107.093L146.176 107.087L146.002 107.068L146.001 107.073ZM146.31 105.877L146.311 105.872L146.137 105.852L146.136 105.857L146.31 105.877ZM145.847 110.045L145.674 110.026L145.674 110.021L145.848 110.04L145.847 110.045ZM145.983 108.824L145.982 108.829L145.809 108.81L145.809 108.805L145.983 108.824ZM145.346 112.978L145.52 112.998L145.52 112.993L145.347 112.973L145.346 112.978ZM145.655 111.782L145.655 111.777L145.481 111.758L145.481 111.763L145.655 111.782ZM145.192 115.95L145.018 115.931L145.019 115.926L145.193 115.945L145.192 115.95ZM145.328 114.729L145.327 114.734L145.153 114.715L145.154 114.71L145.328 114.729ZM144.691 118.884L144.865 118.903L144.865 118.898L144.691 118.878L144.691 118.884ZM145 117.687L145 117.682L144.826 117.663L144.826 117.668L145 117.687ZM144.537 121.855L144.363 121.836L144.364 121.831L144.538 121.85L144.537 121.855ZM144.672 120.635L144.672 120.64L144.498 120.62L144.499 120.615L144.672 120.635ZM144.036 124.789L144.209 124.808L144.21 124.803L144.036 124.784L144.036 124.789ZM144.344 123.592L144.345 123.587L144.171 123.568L144.17 123.573L144.344 123.592ZM143.882 127.761L143.708 127.741L143.708 127.736L143.882 127.755L143.882 127.761ZM144.017 126.54L144.017 126.545L143.843 126.526L143.843 126.52L144.017 126.54ZM143.554 130.713L143.38 130.694L143.381 130.689L143.555 130.708L143.554 130.713ZM143.689 129.497L143.69 129.492L143.516 129.473L143.515 129.478L143.689 129.497Z" fill="#A587FF"/>
<path d="M123.483 99.2551V128.088H89.0223V99.2551H123.483Z" fill="url(#paint18_linear)"/>
<path d="M109.501 99.2551V128.088H83.4297V99.2551H109.501Z" fill="#0737A3"/>
<path d="M98.667 99.2551V108.493H93.9132V99.2551H98.667Z" fill="white"/>
<defs>
<linearGradient id="paint0_linear" x1="-5.93812" y1="21.986" x2="22.5226" y2="43.7717" gradientUnits="userSpaceOnUse">
<stop stop-color="#CFE49F"/>
<stop offset="1" stop-color="#A9D386"/>
</linearGradient>
<linearGradient id="paint1_linear" x1="91.8015" y1="12.875" x2="91.8015" y2="49.8119" gradientUnits="userSpaceOnUse">
<stop stop-color="#D0F6FF"/>
<stop offset="1" stop-color="#8BE2F7"/>
</linearGradient>
<linearGradient id="paint2_linear" x1="165.642" y1="31.2405" x2="188.884" y2="50.4412" gradientUnits="userSpaceOnUse">
<stop stop-color="#6EAE7C"/>
<stop offset="1" stop-color="#0F575D"/>
</linearGradient>
<linearGradient id="paint3_linear" x1="167.967" y1="18.1442" x2="180.4" y2="23.6297" gradientUnits="userSpaceOnUse">
<stop stop-color="#CFE49F"/>
<stop offset="1" stop-color="#A9D386"/>
</linearGradient>
<linearGradient id="paint4_linear" x1="168.388" y1="35.4895" x2="172.718" y2="48.18" gradientUnits="userSpaceOnUse">
<stop stop-color="#77D791"/>
<stop offset="1" stop-color="#4FA67E"/>
</linearGradient>
<linearGradient id="paint5_linear" x1="167.123" y1="143.273" x2="167.776" y2="50.8829" gradientUnits="userSpaceOnUse">
<stop stop-color="#2B3389"/>
<stop offset="1" stop-color="#444FB7"/>
</linearGradient>
<linearGradient id="paint6_linear" x1="4.32801" y1="55.8971" x2="4.32801" y2="148.868" gradientUnits="userSpaceOnUse">
<stop stop-color="#D0F6FF"/>
<stop offset="1" stop-color="#8BE2F7"/>
</linearGradient>
<linearGradient id="paint7_linear" x1="52.8213" y1="63.4324" x2="52.8213" y2="99.2551" gradientUnits="userSpaceOnUse">
<stop stop-color="#4DBCFA"/>
<stop offset="1" stop-color="#1486DB"/>
</linearGradient>
<linearGradient id="paint8_linear" x1="26.2357" y1="89.4694" x2="26.2357" y2="128.088" gradientUnits="userSpaceOnUse">
<stop stop-color="#FF9485"/>
<stop offset="1" stop-color="#FF676E"/>
</linearGradient>
<linearGradient id="paint9_linear" x1="172.627" y1="54.3456" x2="172.627" y2="83.1786" gradientUnits="userSpaceOnUse">
<stop stop-color="#4DBCFA"/>
<stop offset="1" stop-color="#1486DB"/>
</linearGradient>
<linearGradient id="paint10_linear" x1="210.417" y1="54.4989" x2="210.417" y2="175.582" gradientUnits="userSpaceOnUse">
<stop stop-color="#1533B6"/>
<stop offset="1" stop-color="#356BE9"/>
</linearGradient>
<linearGradient id="paint11_linear" x1="206.501" y1="41.269" x2="206.501" y2="83.2317" gradientUnits="userSpaceOnUse">
<stop stop-color="#C0E4FD"/>
<stop offset="1" stop-color="#72B9FE"/>
</linearGradient>
<linearGradient id="paint12_linear" x1="192.813" y1="54.5671" x2="192.813" y2="71.2544" gradientUnits="userSpaceOnUse">
<stop stop-color="#C0E4FD"/>
<stop offset="1" stop-color="#72B9FE"/>
</linearGradient>
<linearGradient id="paint13_linear" x1="208.669" y1="36.0329" x2="208.669" y2="58.4107" gradientUnits="userSpaceOnUse">
<stop stop-color="#1D2A78"/>
<stop offset="1" stop-color="#12033B"/>
</linearGradient>
<linearGradient id="paint14_linear" x1="135.649" y1="54.6736" x2="135.649" y2="175.757" gradientUnits="userSpaceOnUse">
<stop stop-color="#1533B6"/>
<stop offset="1" stop-color="#356BE9"/>
</linearGradient>
<linearGradient id="paint15_linear" x1="142.189" y1="50.4594" x2="142.189" y2="83.4064" gradientUnits="userSpaceOnUse">
<stop stop-color="#FF9485"/>
<stop offset="1" stop-color="#FF676E"/>
</linearGradient>
<linearGradient id="paint16_linear" x1="149.627" y1="36.8303" x2="149.627" y2="49.0699" gradientUnits="userSpaceOnUse">
<stop stop-color="#1D2A78"/>
<stop offset="1" stop-color="#12033B"/>
</linearGradient>
<linearGradient id="paint17_linear" x1="146.028" y1="57.9595" x2="146.028" y2="69.442" gradientUnits="userSpaceOnUse">
<stop stop-color="#FF9485"/>
<stop offset="1" stop-color="#FF676E"/>
</linearGradient>
<linearGradient id="paint18_linear" x1="76.1922" y1="83.9877" x2="76.1922" y2="153.076" gradientUnits="userSpaceOnUse">
<stop stop-color="#1533B6"/>
<stop offset="1" stop-color="#356BE9"/>
</linearGradient>
</defs>
</svg>
