<svg width="230" height="156" viewBox="0 0 230 156" fill="none" xmlns="http://www.w3.org/2000/svg">
<path fill-rule="evenodd" clip-rule="evenodd" d="M205.758 94.7005C206.204 94.7005 206.564 94.3395 206.564 93.8942C206.564 93.4489 206.204 93.088 205.758 93.088C205.313 93.088 204.952 93.4489 204.952 93.8942C204.952 94.3395 205.313 94.7005 205.758 94.7005ZM206.564 97.1192C206.564 97.5645 206.204 97.9255 205.758 97.9255C205.313 97.9255 204.952 97.5645 204.952 97.1192C204.952 96.6739 205.313 96.313 205.758 96.313C206.204 96.313 206.564 96.6739 206.564 97.1192ZM205.758 101.15C206.204 101.15 206.564 100.789 206.564 100.344C206.564 99.8989 206.204 99.538 205.758 99.538C205.313 99.538 204.952 99.8989 204.952 100.344C204.952 100.789 205.313 101.15 205.758 101.15ZM206.564 103.569C206.564 104.015 206.204 104.375 205.758 104.375C205.313 104.375 204.952 104.015 204.952 103.569C204.952 103.124 205.313 102.763 205.758 102.763C206.204 102.763 206.564 103.124 206.564 103.569ZM205.758 107.6C206.204 107.6 206.564 107.24 206.564 106.794C206.564 106.349 206.204 105.988 205.758 105.988C205.313 105.988 204.952 106.349 204.952 106.794C204.952 107.24 205.313 107.6 205.758 107.6ZM205.758 110.825C206.204 110.825 206.564 110.465 206.564 110.019C206.564 109.574 206.204 109.213 205.758 109.213C205.313 109.213 204.952 109.574 204.952 110.019C204.952 110.465 205.313 110.825 205.758 110.825ZM209.789 110.019C209.789 110.465 209.428 110.825 208.983 110.825C208.537 110.825 208.177 110.465 208.177 110.019C208.177 109.574 208.537 109.213 208.983 109.213C209.428 109.213 209.789 109.574 209.789 110.019ZM208.983 107.6C209.428 107.6 209.789 107.24 209.789 106.794C209.789 106.349 209.428 105.988 208.983 105.988C208.537 105.988 208.177 106.349 208.177 106.794C208.177 107.24 208.537 107.6 208.983 107.6ZM209.789 103.569C209.789 104.015 209.428 104.375 208.983 104.375C208.537 104.375 208.177 104.015 208.177 103.569C208.177 103.124 208.537 102.763 208.983 102.763C209.428 102.763 209.789 103.124 209.789 103.569ZM208.983 101.15C209.428 101.15 209.789 100.789 209.789 100.344C209.789 99.8989 209.428 99.538 208.983 99.538C208.537 99.538 208.177 99.8989 208.177 100.344C208.177 100.789 208.537 101.15 208.983 101.15ZM209.789 97.1192C209.789 97.5645 209.428 97.9255 208.983 97.9255C208.537 97.9255 208.177 97.5645 208.177 97.1192C208.177 96.6739 208.537 96.313 208.983 96.313C209.428 96.313 209.789 96.6739 209.789 97.1192ZM208.983 94.7005C209.428 94.7005 209.789 94.3395 209.789 93.8942C209.789 93.4489 209.428 93.088 208.983 93.088C208.537 93.088 208.177 93.4489 208.177 93.8942C208.177 94.3395 208.537 94.7005 208.983 94.7005ZM213.013 110.019C213.013 110.465 212.652 110.825 212.207 110.825C211.762 110.825 211.401 110.465 211.401 110.019C211.401 109.574 211.762 109.213 212.207 109.213C212.652 109.213 213.013 109.574 213.013 110.019ZM212.207 107.6C212.652 107.6 213.013 107.24 213.013 106.794C213.013 106.349 212.652 105.988 212.207 105.988C211.762 105.988 211.401 106.349 211.401 106.794C211.401 107.24 211.762 107.6 212.207 107.6ZM213.013 103.569C213.013 104.015 212.652 104.375 212.207 104.375C211.762 104.375 211.401 104.015 211.401 103.569C211.401 103.124 211.762 102.763 212.207 102.763C212.652 102.763 213.013 103.124 213.013 103.569ZM212.207 101.15C212.652 101.15 213.013 100.789 213.013 100.344C213.013 99.8989 212.652 99.538 212.207 99.538C211.762 99.538 211.401 99.8989 211.401 100.344C211.401 100.789 211.762 101.15 212.207 101.15ZM213.013 97.1192C213.013 97.5645 212.652 97.9255 212.207 97.9255C211.762 97.9255 211.401 97.5645 211.401 97.1192C211.401 96.6739 211.762 96.313 212.207 96.313C212.652 96.313 213.013 96.6739 213.013 97.1192ZM212.207 94.7005C212.652 94.7005 213.013 94.3395 213.013 93.8942C213.013 93.4489 212.652 93.088 212.207 93.088C211.762 93.088 211.401 93.4489 211.401 93.8942C211.401 94.3395 211.762 94.7005 212.207 94.7005ZM216.237 110.019C216.237 110.465 215.876 110.825 215.431 110.825C214.986 110.825 214.625 110.465 214.625 110.019C214.625 109.574 214.986 109.213 215.431 109.213C215.876 109.213 216.237 109.574 216.237 110.019ZM215.431 107.6C215.876 107.6 216.237 107.24 216.237 106.794C216.237 106.349 215.876 105.988 215.431 105.988C214.986 105.988 214.625 106.349 214.625 106.794C214.625 107.24 214.986 107.6 215.431 107.6ZM216.237 103.569C216.237 104.015 215.876 104.375 215.431 104.375C214.986 104.375 214.625 104.015 214.625 103.569C214.625 103.124 214.986 102.763 215.431 102.763C215.876 102.763 216.237 103.124 216.237 103.569ZM215.431 101.15C215.876 101.15 216.237 100.789 216.237 100.344C216.237 99.8989 215.876 99.538 215.431 99.538C214.986 99.538 214.625 99.8989 214.625 100.344C214.625 100.789 214.986 101.15 215.431 101.15ZM216.237 97.1192C216.237 97.5645 215.876 97.9255 215.431 97.9255C214.986 97.9255 214.625 97.5645 214.625 97.1192C214.625 96.6739 214.986 96.313 215.431 96.313C215.876 96.313 216.237 96.6739 216.237 97.1192ZM215.431 94.7005C215.876 94.7005 216.237 94.3395 216.237 93.8942C216.237 93.4489 215.876 93.088 215.431 93.088C214.986 93.088 214.625 93.4489 214.625 93.8942C214.625 94.3395 214.986 94.7005 215.431 94.7005ZM219.461 110.019C219.461 110.465 219.1 110.825 218.655 110.825C218.21 110.825 217.849 110.465 217.849 110.019C217.849 109.574 218.21 109.213 218.655 109.213C219.1 109.213 219.461 109.574 219.461 110.019ZM218.655 107.6C219.1 107.6 219.461 107.24 219.461 106.794C219.461 106.349 219.1 105.988 218.655 105.988C218.21 105.988 217.849 106.349 217.849 106.794C217.849 107.24 218.21 107.6 218.655 107.6ZM219.461 103.569C219.461 104.015 219.1 104.375 218.655 104.375C218.21 104.375 217.849 104.015 217.849 103.569C217.849 103.124 218.21 102.763 218.655 102.763C219.1 102.763 219.461 103.124 219.461 103.569ZM218.655 101.15C219.1 101.15 219.461 100.789 219.461 100.344C219.461 99.8989 219.1 99.538 218.655 99.538C218.21 99.538 217.849 99.8989 217.849 100.344C217.849 100.789 218.21 101.15 218.655 101.15ZM219.461 97.1192C219.461 97.5645 219.1 97.9255 218.655 97.9255C218.21 97.9255 217.849 97.5645 217.849 97.1192C217.849 96.6739 218.21 96.313 218.655 96.313C219.1 96.313 219.461 96.6739 219.461 97.1192ZM218.655 94.7005C219.1 94.7005 219.461 94.3395 219.461 93.8942C219.461 93.4489 219.1 93.088 218.655 93.088C218.21 93.088 217.849 93.4489 217.849 93.8942C217.849 94.3395 218.21 94.7005 218.655 94.7005ZM222.686 110.019C222.686 110.465 222.325 110.825 221.88 110.825C221.434 110.825 221.074 110.465 221.074 110.019C221.074 109.574 221.434 109.213 221.88 109.213C222.325 109.213 222.686 109.574 222.686 110.019ZM221.88 107.6C222.325 107.6 222.686 107.24 222.686 106.794C222.686 106.349 222.325 105.988 221.88 105.988C221.434 105.988 221.074 106.349 221.074 106.794C221.074 107.24 221.434 107.6 221.88 107.6ZM222.686 103.569C222.686 104.015 222.325 104.375 221.88 104.375C221.434 104.375 221.074 104.015 221.074 103.569C221.074 103.124 221.434 102.763 221.88 102.763C222.325 102.763 222.686 103.124 222.686 103.569ZM221.88 101.15C222.325 101.15 222.686 100.789 222.686 100.344C222.686 99.8989 222.325 99.538 221.88 99.538C221.434 99.538 221.074 99.8989 221.074 100.344C221.074 100.789 221.434 101.15 221.88 101.15ZM222.686 97.1192C222.686 97.5645 222.325 97.9255 221.88 97.9255C221.434 97.9255 221.074 97.5645 221.074 97.1192C221.074 96.6739 221.434 96.313 221.88 96.313C222.325 96.313 222.686 96.6739 222.686 97.1192ZM221.88 94.7005C222.325 94.7005 222.686 94.3395 222.686 93.8942C222.686 93.4489 222.325 93.088 221.88 93.088C221.434 93.088 221.074 93.4489 221.074 93.8942C221.074 94.3395 221.434 94.7005 221.88 94.7005Z" fill="#CDCBDF"/>
<path fill-rule="evenodd" clip-rule="evenodd" d="M20.2941 30.992C20.2941 48.1079 34.1617 61.9841 51.2694 61.9841C68.3772 61.9841 82.2448 48.1079 82.2448 30.992C82.2448 13.8761 68.3772 0 51.2694 0C34.1617 0 20.2941 13.8761 20.2941 30.992ZM67.6184 30.992C67.6184 40.0287 60.2982 47.3533 51.2694 47.3533C42.2407 47.3533 34.9205 40.0287 34.9205 30.992C34.9205 21.9554 42.2407 14.6307 51.2694 14.6307C60.2982 14.6307 67.6184 21.9554 67.6184 30.992Z" fill="url(#paint0_linear)"/>
<path d="M36.3831 132.44C26.0933 137.089 17.8668 137.03 11.7036 132.263C5.54033 127.497 1.63915 120.71 0 111.901C19.2652 106.114 31.3929 112.961 36.3831 132.44Z" fill="url(#paint1_linear)"/>
<path d="M21.1897 124.081C18.9688 122.821 16.4993 121.425 13.7812 119.892L7.47623 121.402C7.36438 121.429 7.25207 121.359 7.22538 121.247C7.19869 121.135 7.26773 121.022 7.37959 120.995L13.2463 119.59C9.85394 117.678 6.08347 115.558 1.93494 113.231C1.83455 113.175 1.79864 113.047 1.85473 112.947C1.91082 112.846 2.03767 112.81 2.13806 112.866C9.71281 117.115 16.0271 120.673 21.0814 123.54L20.4292 117.124C20.401 116.846 20.8153 116.804 20.8435 117.081L21.5256 123.792C28.2641 127.616 32.6954 130.176 34.8203 131.472C34.9186 131.532 34.9499 131.66 34.8902 131.759C34.8305 131.857 34.7024 131.889 34.6041 131.829C33.3327 131.054 31.2321 129.824 28.3026 128.14C28.2949 128.144 28.2869 128.147 28.2785 128.151L22.5165 130.263C22.4085 130.302 22.289 130.247 22.2495 130.138C22.2101 130.03 22.2657 129.91 22.3737 129.87L27.8316 127.869C25.9591 126.794 23.7673 125.544 21.2563 124.119C21.232 124.111 21.2093 124.099 21.1897 124.081Z" fill="white"/>
<path d="M34.079 138.26C23.5017 134.252 17.7103 128.386 16.7049 120.663C15.6995 112.94 17.7244 105.394 22.7796 98.0258C40.5243 107.586 44.2907 120.998 34.079 138.26Z" fill="url(#paint2_linear)"/>
<path d="M29.7215 121.674C31.7876 129.16 33.1148 134.115 33.7034 136.539C33.7306 136.651 33.6623 136.764 33.5509 136.791C33.4395 136.819 33.327 136.75 33.2998 136.638C32.9476 135.187 32.33 132.827 31.4468 129.557C31.4386 129.555 31.4304 129.552 31.4224 129.548L25.8733 126.952C25.7693 126.903 25.7242 126.779 25.7726 126.674C25.8209 126.57 25.9445 126.524 26.0485 126.573L31.3047 129.032C30.7392 126.943 30.0715 124.504 29.3015 121.714C29.2901 121.691 29.2829 121.666 29.2811 121.64C28.6 119.173 27.8393 116.433 26.999 113.42L21.4901 110.013C21.3923 109.953 21.3618 109.824 21.4219 109.725C21.482 109.627 21.6099 109.596 21.7076 109.657L26.8336 112.827C25.7845 109.067 24.6142 104.893 23.3229 100.303C23.2916 100.192 23.3558 100.077 23.4662 100.045C23.5765 100.014 23.6913 100.079 23.7226 100.19C26.0804 108.569 28.0346 115.566 29.5853 121.18L33.6338 116.181C33.8088 115.965 34.1308 116.229 33.9559 116.445L29.7215 121.674Z" fill="white"/>
<path d="M44.6105 145.496C35.8756 152.664 27.9201 154.747 20.7441 151.744C13.5681 148.741 8.05506 143.197 4.20508 135.111C21.3099 124.508 34.7784 127.97 44.6105 145.496Z" fill="url(#paint3_linear)"/>
<path d="M28.0039 140.842C35.4936 142.78 40.4304 144.097 42.8152 144.795C42.9255 144.827 42.9888 144.943 42.9566 145.053C42.9244 145.164 42.8089 145.227 42.6986 145.195C41.2716 144.778 38.9272 144.137 35.6656 143.274C35.6592 143.28 35.6524 143.286 35.6451 143.291L30.6276 146.818C30.5336 146.884 30.4038 146.861 30.3378 146.767C30.2718 146.673 30.2945 146.543 30.3886 146.477L35.1413 143.136C33.0569 142.585 30.6192 141.949 27.8283 141.227C27.8028 141.226 27.7777 141.219 27.7543 141.208C25.2859 140.57 22.5424 139.864 19.5239 139.092L13.8271 142.18C13.7261 142.235 13.5998 142.197 13.5451 142.096C13.4904 141.995 13.528 141.868 13.6291 141.814L18.9298 138.94C15.1627 137.977 10.9771 136.912 6.37328 135.746C6.26188 135.718 6.19441 135.604 6.22259 135.493C6.25077 135.381 6.36392 135.314 6.47532 135.342C14.8815 137.472 21.893 139.262 27.5102 140.714L25.2277 134.704C25.1291 134.444 25.518 134.296 25.6166 134.556L28.0039 140.842Z" fill="white"/>
<path d="M18.4658 30.992H36.7488C36.7488 39.0187 43.2506 45.5245 51.2695 45.5245V63.8129C33.1519 63.8129 18.4658 49.1178 18.4658 30.992Z" fill="url(#paint4_linear)"/>
<path d="M12.981 141.552H216.105C223.779 141.552 230 147.775 230 155.451H26.876C19.202 155.451 12.981 149.228 12.981 141.552Z" fill="url(#paint5_linear)"/>
<path d="M6.21626 155.459C20.6469 155.459 38.8911 155.459 48.3153 155.459C48.3153 143.839 38.8911 134.42 27.2658 134.42C15.6404 134.42 6.21626 143.839 6.21626 155.459Z" fill="url(#paint6_linear)"/>
<path fill-rule="evenodd" clip-rule="evenodd" d="M117.513 111.905L97.4552 141.237L97.3928 141.236L97.3926 141.328L87.7467 155.433L87.7728 155.451H92.1647L99.3816 144.898L137.742 144.973L144.908 155.451H149.338L139.913 141.669L139.914 141.319L139.674 141.319L119.617 111.99L118.627 112.667L117.513 111.905ZM135.238 141.31L101.88 141.245L118.536 116.888L135.238 141.31Z" fill="#1E1539"/>
<path d="M48.5158 20.6659H188.615C190.166 20.6659 191.423 21.9236 191.423 23.475V129.599C191.423 131.15 190.166 132.408 188.615 132.408H48.5158C46.9648 132.408 45.7075 131.15 45.7075 129.599V23.475C45.7075 21.9236 46.9648 20.6659 48.5158 20.6659Z" fill="url(#paint7_linear)"/>
<path d="M56.4945 42.7949H180.27V78.823H56.4945V42.7949Z" fill="url(#paint8_linear)"/>
<path d="M48.5158 20.6659H188.615C190.166 20.6659 191.423 21.9236 191.423 23.475V35.5648H45.7075V23.475C45.7075 21.9236 46.9648 20.6659 48.5158 20.6659Z" fill="url(#paint9_linear)"/>
<path d="M56.8856 123.081C61.3794 114.302 67.2064 109.517 74.3668 108.724C85.1074 107.536 88.1241 111.683 92.169 107.536C96.214 103.388 102.293 99.484 109.698 104.244C117.103 109.004 120.911 100.952 127.457 99.3317C134.004 97.7115 138.295 104.311 144.801 107.536C151.308 110.761 153.029 98.5521 162.901 99.3317C172.774 100.111 169.666 91.0762 180.232 91.0762V123.269L56.8856 123.081Z" fill="#78BCFE"/>
<path d="M74.8689 74.068C81.3818 74.068 86.6615 68.7867 86.6615 62.272C86.6615 55.7572 81.3818 50.476 74.8689 50.476C68.3561 50.476 63.0764 55.7572 63.0764 62.272C63.0764 68.7867 68.3561 74.068 74.8689 74.068Z" fill="#00ADFF"/>
<path d="M74.7775 74.068C74.7775 71.6599 74.7775 67.7291 74.7775 62.2757C69.0216 56.9696 66.1436 54.3165 66.1436 54.3165C64.2387 56.4141 63.0764 59.2081 63.0764 62.2757C63.0764 68.7884 68.3152 74.068 74.7775 74.068Z" fill="#52D7FD"/>
<path d="M74.7775 62.1805C74.7775 62.1805 74.7775 66.143 74.7775 74.068C81.3408 74.068 86.6614 68.7569 86.6614 62.2053C86.6614 62.2053 82.7001 62.1971 74.7775 62.1805Z" fill="#1056BF"/>
<path d="M93.7552 50.6589H172.957V54.8286H93.7552V50.6589Z" fill="white"/>
<path d="M93.7552 50.6589H125.421V54.8286H93.7552V50.6589Z" fill="#52D7FD"/>
<path d="M93.7917 68.3986H172.994V72.7513H93.7917V68.3986Z" fill="white"/>
<path d="M93.7917 68.3986H133.421V72.7513H93.7917V68.3986Z" fill="#1056BF"/>
<path d="M93.7917 59.803H172.994V64.1557H93.7917V59.803Z" fill="white"/>
<path d="M93.7917 59.803H142.525V64.1557H93.7917V59.803Z" fill="#00ADFF"/>
<path d="M56.8856 123.081C59.6608 116.322 65.4878 113.29 74.3668 113.986C87.6853 115.03 89.3215 111.962 92.169 107.536C95.0166 103.11 102.293 99.484 109.698 104.244C117.103 109.004 123.099 113.245 127.457 110.864C131.816 108.483 138.295 104.311 144.801 107.536C151.308 110.761 157.965 108.153 162.901 104.929C167.838 101.704 174.709 100.996 180.049 106.34V123.269L56.8856 123.081Z" fill="#BDDEFF"/>
<path fill-rule="evenodd" clip-rule="evenodd" d="M56.8602 86.5041H56.4945V123.264H56.8602V86.5041ZM74.4118 86.5041H74.0462V123.264H74.4118V86.5041ZM91.9635 86.5041H92.3292V123.264H91.9635V86.5041ZM109.881 86.5041H109.515V123.264H109.881V86.5041ZM127.25 86.5041H127.615V123.264H127.25V86.5041ZM145.167 86.5041H144.801V123.264H145.167V86.5041ZM162.536 86.5041H162.902V123.264H162.536V86.5041ZM180.453 86.5041H180.088V123.264H180.453V86.5041Z" fill="white"/>
<path d="M166.192 5.48651H209.889C210.898 5.48651 211.717 6.30531 211.717 7.31535V39.5029C211.717 40.513 210.898 41.3318 209.889 41.3318H166.192C165.183 41.3318 164.364 40.513 164.364 39.5029V7.31535C164.364 6.30531 165.183 5.48651 166.192 5.48651Z" fill="url(#paint10_linear)"/>
<path d="M178.808 14.265L197.273 23.5006L178.808 32.7362V14.265Z" fill="white"/>
<path d="M210.685 151.494C211.099 150.76 211.521 150.136 211.952 149.623C212.598 148.853 212.827 149.128 213.03 149.479C213.233 149.83 213.687 150.618 214.055 151.255C214.422 151.891 214.265 152.075 213.1 152.647C211.934 153.218 211.737 153.193 210.664 154.053C209.592 154.913 207.197 156.25 206.203 155.722C205.208 155.195 206.682 153.891 208.028 152.849C208.925 152.155 209.811 151.703 210.685 151.494Z" fill="#221E41"/>
<path d="M211.534 145.722L213.166 149.714L212.593 150.43C211.553 151.732 210.026 152.551 208.366 152.697L209.95 151.263L208.116 148.087L211.534 145.722Z" fill="#F4B696"/>
<path d="M208.195 150.003L198.72 129.396L202.793 101.351L207.073 128.952L213.019 147.618L208.195 150.003Z" fill="#211D41"/>
<path d="M176.466 60.9941L174.875 59.2177C175.143 57.9048 174.845 56.9366 173.979 56.3133L173.513 57.2483C172.666 56.625 171.946 55.9269 171.356 55.1541C170.47 53.9949 168.695 56.5745 169.209 58.4587C169.723 60.3429 171.662 60.8057 172.761 61.8703C172.936 62.0405 173.562 62.5939 174.638 63.5304L176.466 60.9941Z" fill="#F4B696"/>
<path d="M192.956 153.102C193.681 152.673 194.359 152.344 194.988 152.115C195.933 151.772 195.994 152.125 195.994 152.53C195.994 152.936 195.994 153.845 195.994 154.58C195.994 155.315 195.766 155.397 194.471 155.308C193.176 155.22 193.017 155.1 191.659 155.308C190.3 155.516 187.558 155.476 186.96 154.522C186.363 153.568 188.291 153.176 189.977 152.947C191.101 152.795 192.094 152.847 192.956 153.102Z" fill="#221E41"/>
<path d="M195.994 148.868V152.802L195.14 153.136C193.588 153.742 191.857 153.688 190.346 152.985L192.434 152.535V148.868H195.994Z" fill="#F4B696"/>
<path d="M199.044 73.8032L183.866 72.7511C183.032 72.6933 182.252 72.3205 181.683 71.7084L172.796 62.1453L175.954 59.8031L183.614 66.2824C195.1 65.8183 200.963 65.5862 201.201 65.5862C201.439 65.5862 201.439 66.0865 201.201 67.0872L199.044 73.8032Z" fill="#211D41"/>
<path d="M178.624 89.8421L179.755 92.7577C178.384 93.15 177.579 93.3735 177.341 93.4281C175.85 93.7697 174.406 95.1442 172.546 94.5492C170.686 93.9542 169.49 91.0603 170.945 90.9486C171.914 90.8741 172.891 90.651 173.875 90.2793L173.345 89.3792C174.339 88.9927 175.313 89.2696 176.268 90.2099L178.624 89.8421Z" fill="#F4B696"/>
<path d="M196.485 67.3643L195.811 63.2779C193.786 63.5834 192.673 62.9783 192.471 61.4628C192.27 59.9472 192.158 59.0377 192.137 58.7344L191.005 58.5229L192.471 56.4972L193.248 52.8804C195.102 52.1966 197.132 52.8984 199.338 54.9858C202.647 58.1167 200.994 65.2038 200.555 66.9019C200.262 68.0339 198.905 68.188 196.485 67.3643Z" fill="#F4B696"/>
<path d="M196.908 151.179H191.084L186.854 97.7012L202.918 97.6227C203.296 100.557 203.234 103.532 202.734 106.448L199.035 128.033L196.908 151.179Z" fill="#312C74"/>
<path d="M186.854 97.7012L189.723 77.5741C188.539 74.7452 188.582 72.1494 189.85 69.7865C190.442 68.6839 192.141 67.814 193.616 67.0621C196.84 65.418 200.557 64.7728 201.534 64.7728C203.357 65.4383 204.108 67.9187 203.788 72.2139C203.468 76.509 203.187 85.0216 202.944 97.7515L186.854 97.7012Z" fill="url(#paint11_linear)"/>
<path d="M197.493 75.3918L199.654 77.0925L192.182 90.9832C191.808 91.6778 191.154 92.1779 190.386 92.3558L187.434 93.0398L187.949 89.5388L197.493 75.3918Z" fill="#211D41"/>
<path d="M191.594 52.7032C190.528 54.3943 191.763 55.691 195.297 56.5932C200.599 57.9464 195.811 59.5495 197.989 62.6041C200.167 65.6587 195.126 70.3958 199.035 74.7473C201.641 77.6483 203.081 79.3854 203.355 79.9586C205.555 78.5919 206.655 76.6007 206.655 73.9849C206.655 70.0613 202.664 65.4621 203.268 61.5442C203.872 57.6263 204.004 53.6966 199.311 51.3183C196.182 49.7327 193.61 50.1943 191.594 52.7032Z" fill="url(#paint12_linear)"/>
<path d="M200.278 76.4158L191.76 89.0655C191.304 89.7425 190.613 90.2259 189.821 90.422L177.571 93.4537L177.123 89.5467L186.051 86.0226C191.393 75.8398 194.123 70.6453 194.242 70.439C194.361 70.2327 194.794 70.4829 195.542 71.1895L200.278 76.4158Z" fill="url(#paint13_linear)"/>
<path fill-rule="evenodd" clip-rule="evenodd" d="M195.025 102.528L195.208 102.533L195.245 101.254L195.062 101.248L195.025 102.528ZM195.118 105.641L194.936 105.636L194.972 104.356L195.155 104.361L195.118 105.641ZM194.846 108.744L195.029 108.749L195.066 107.469L194.883 107.464L194.846 108.744ZM194.939 111.857L194.757 111.851L194.794 110.572L194.976 110.577L194.939 111.857ZM194.667 114.959L194.85 114.964L194.887 113.685L194.704 113.679L194.667 114.959ZM194.761 118.072L194.578 118.067L194.615 116.787L194.797 116.792L194.761 118.072ZM194.488 121.175L194.671 121.18L194.708 119.9L194.525 119.895L194.488 121.175ZM194.582 124.288L194.399 124.282L194.436 123.003L194.619 123.008L194.582 124.288ZM194.31 127.39L194.492 127.395L194.529 126.116L194.346 126.11L194.31 127.39ZM194.403 130.503L194.22 130.498L194.257 129.218L194.44 129.223L194.403 130.503ZM194.131 133.605L194.314 133.611L194.35 132.331L194.168 132.326L194.131 133.605ZM194.224 136.718L194.041 136.713L194.078 135.434L194.261 135.439L194.224 136.718ZM193.952 139.821L194.135 139.826L194.172 138.547L193.989 138.541L193.952 139.821ZM194.045 142.934L193.863 142.929L193.899 141.649L194.082 141.654L194.045 142.934ZM193.773 146.036L193.956 146.042L193.993 144.762L193.81 144.757L193.773 146.036ZM193.684 149.144L193.866 149.149L193.903 147.87L193.721 147.865L193.684 149.144Z" fill="#A587FF"/>
<path d="M30.7792 77.9355L34.741 81.7764L33.1568 85.73L36.7578 90.7472L34.741 93.5246L29.7186 88.1548C28.1643 86.493 27.797 84.0438 28.7953 81.9988L30.7792 77.9355Z" fill="#F4B696"/>
<path d="M40.3715 65.6299L35.6331 67.7471L29.777 77.883L33.6533 82.8034L40.3715 75.4959V65.6299Z" fill="#221E41"/>
<path d="M36.6481 148.204H40.6023V152.157H36.6481V148.204Z" fill="#F4B696"/>
<path d="M48.2911 148.204H52.2454V152.157H48.2911V148.204Z" fill="#F4B696"/>
<path d="M41.3154 150.606H36.1726L33.8783 97.7202L46.8321 98.0407L41.3154 150.606Z" fill="#211D41"/>
<path d="M53.0543 150.546H47.615L46.0561 122.446L33.8654 97.787L51.3952 98.0759L55.0726 116.209C55.4869 118.252 55.6081 120.344 55.4324 122.422L53.0543 150.546Z" fill="url(#paint14_linear)"/>
<path d="M48.0714 151.718H52.2247L54.8556 152.596C56.1814 153.066 57.2979 153.258 57.2979 154.729C57.2979 155.107 57.0476 155.413 56.7388 155.413H48.949C48.4643 155.413 48.0714 155.02 48.0714 154.536V151.718Z" fill="#211D41"/>
<path d="M54.8489 66.4172H65.9229L81.4504 58.6142L82.9201 56.7551V58.6142H86.6302C86.272 60.5853 85.5641 61.8094 84.5065 62.2864C83.4489 62.7635 81.9214 62.7635 79.924 62.2864L66.1412 72.2763L54.8489 73.8851V66.4172Z" fill="#F4B696"/>
<path d="M36.4285 151.718H40.5817L43.2127 152.596C44.5384 153.066 45.655 153.258 45.655 154.729C45.655 155.107 45.4046 155.413 45.0958 155.413H37.3061C36.8214 155.413 36.4285 155.02 36.4285 154.536V151.718Z" fill="#211D41"/>
<path d="M46.1288 65.9181C46.2743 63.6889 46.7088 62.4239 47.4323 62.123C48.5176 61.6717 49.2142 61.4456 49.0725 60.3033C48.9309 59.161 49.2378 58.7764 49.7105 58.5501C50.1833 58.3238 50.5629 57.5982 49.2134 56.8209C48.3137 56.3027 47.7975 55.0587 47.6648 53.0888C42.7995 51.4986 40.1021 52.4103 39.5725 55.8238C39.0429 59.2374 39.4054 61.9044 40.66 63.8249V65.9181H46.1288Z" fill="#F4B696"/>
<path d="M57.7686 65.2145V74.1576H51.4072V98.1093H33.5613V72.8956C33.5613 68.6534 36.9992 65.2145 41.2401 65.2145C42.0427 65.2145 42.8452 65.2145 43.6478 65.2145C45.3019 65.2145 50.0088 65.2145 57.7686 65.2145Z" fill="url(#paint15_linear)"/>
<path d="M40.5862 63.7808C42.0851 63.7349 42.9417 63.4761 43.1561 63.0042C43.4777 62.2965 43.5198 61.0346 43.4481 60.6364C43.3764 60.2382 42.9226 60.4049 42.5642 60.4049C42.2059 60.4049 41.6495 59.5981 42.0208 58.9915C42.392 58.3849 42.9056 58.4799 43.1561 58.5876C43.4066 58.6953 44.0089 58.3936 43.8071 57.4141C43.6053 56.4345 43.1548 55.5171 43.8071 55.5171C44.4595 55.5171 48.1148 55.0978 48.3076 52.6159C48.5004 50.1339 47.0603 48.7276 44.748 49.86C42.4358 50.9923 41.6913 50.887 39.9492 51.2846C38.2071 51.6822 36.4728 52.1702 36.1058 55.2264C35.7388 58.2826 36.9592 59.8379 38.3639 60.9471C39.7686 62.0563 39.4468 62.3962 39.6413 63.0042C39.7711 63.4096 40.086 63.6684 40.5862 63.7808Z" fill="url(#paint16_linear)"/>
<path fill-rule="evenodd" clip-rule="evenodd" d="M43.6406 99.26L43.812 99.1962L44.2582 100.396L44.0868 100.46L43.6406 99.26ZM44.7242 102.174L44.8956 102.11L45.3418 103.31L45.1704 103.374L44.7242 102.174ZM45.9792 105.024L45.8078 105.088L46.254 106.288L46.4254 106.224L45.9792 105.024ZM46.8914 108.002L47.0628 107.938L47.509 109.138L47.3376 109.202L46.8914 108.002ZM48.1464 110.852L47.975 110.916L48.4212 112.116L48.5926 112.052L48.1464 110.852ZM49.0586 113.83L49.23 113.766L49.6762 114.966L49.5048 115.03L49.0586 113.83ZM50.313 116.681L50.141 116.743C50.2848 117.143 50.4145 117.548 50.53 117.956L50.7059 117.907C50.5893 117.494 50.4583 117.085 50.313 116.681ZM50.937 119.733L51.1171 119.701C51.1918 120.124 51.2518 120.548 51.2968 120.975L51.115 120.994C51.0704 120.572 51.011 120.151 50.937 119.733ZM51.3981 122.813L51.2153 122.814C51.2162 123.01 51.214 123.206 51.2087 123.403L51.1897 124.093L51.3724 124.099L51.3914 123.408C51.3969 123.209 51.3991 123.011 51.3981 122.813ZM51.1394 125.922L51.3221 125.927L51.2869 127.206L51.1042 127.201L51.1394 125.922ZM51.2366 129.035L51.0539 129.029L51.0187 130.309L51.2014 130.314L51.2366 129.035ZM50.9684 132.137L51.1512 132.142L51.1159 133.422L50.9332 133.417L50.9684 132.137ZM51.0657 135.25L50.8829 135.245L50.8477 136.525L51.0305 136.53L51.0657 135.25ZM50.7974 138.353L50.9802 138.358L50.945 139.638L50.7622 139.633L50.7974 138.353ZM50.8947 141.466L50.7119 141.461L50.6767 142.741L50.8595 142.746L50.8947 141.466ZM50.6264 144.569L50.8092 144.574L50.774 145.853L50.5912 145.848L50.6264 144.569ZM50.7237 147.682L50.5409 147.677L50.5057 148.956L50.6885 148.961L50.7237 147.682Z" fill="#A587FF"/>
<defs>
<linearGradient id="paint0_linear" x1="14.0685" y1="23.0781" x2="43.9335" y2="45.9111" gradientUnits="userSpaceOnUse">
<stop stop-color="#CFE49F"/>
<stop offset="1" stop-color="#A9D386"/>
</linearGradient>
<linearGradient id="paint1_linear" x1="-8.42664" y1="128.658" x2="19.3722" y2="151.5" gradientUnits="userSpaceOnUse">
<stop stop-color="#6EAE7C"/>
<stop offset="1" stop-color="#0F575D"/>
</linearGradient>
<linearGradient id="paint2_linear" x1="14.1213" y1="113.006" x2="28.965" y2="119.559" gradientUnits="userSpaceOnUse">
<stop stop-color="#CFE49F"/>
<stop offset="1" stop-color="#A9D386"/>
</linearGradient>
<linearGradient id="paint3_linear" x1="7.27341" y1="133.726" x2="12.4859" y2="148.906" gradientUnits="userSpaceOnUse">
<stop stop-color="#77D791"/>
<stop offset="1" stop-color="#4FA67E"/>
</linearGradient>
<linearGradient id="paint4_linear" x1="10.8682" y1="54.6822" x2="42.1167" y2="72.9999" gradientUnits="userSpaceOnUse">
<stop stop-color="#6EAE7C"/>
<stop offset="1" stop-color="#0F575D"/>
</linearGradient>
<linearGradient id="paint5_linear" x1="-34.5391" y1="142.562" x2="-34.5391" y2="162.548" gradientUnits="userSpaceOnUse">
<stop stop-color="#D0F6FF"/>
<stop offset="1" stop-color="#8BE2F7"/>
</linearGradient>
<linearGradient id="paint6_linear" x1="48.3153" y1="134.42" x2="6.21626" y2="134.42" gradientUnits="userSpaceOnUse">
<stop stop-color="#FF9485"/>
<stop offset="1" stop-color="#FF676E"/>
</linearGradient>
<linearGradient id="paint7_linear" x1="195.839" y1="139.18" x2="195.839" y2="20.6659" gradientUnits="userSpaceOnUse">
<stop stop-color="#CAF6FD"/>
<stop offset="1" stop-color="white"/>
</linearGradient>
<linearGradient id="paint8_linear" x1="29.3917" y1="45.4121" x2="29.3917" y2="97.2182" gradientUnits="userSpaceOnUse">
<stop stop-color="#D0F6FF"/>
<stop offset="1" stop-color="#8BE2F7"/>
</linearGradient>
<linearGradient id="paint9_linear" x1="182.762" y1="37.7226" x2="182.777" y2="24.5932" gradientUnits="userSpaceOnUse">
<stop stop-color="#2B3389"/>
<stop offset="1" stop-color="#444FB7"/>
</linearGradient>
<linearGradient id="paint10_linear" x1="164.364" y1="5.48651" x2="164.364" y2="41.3318" gradientUnits="userSpaceOnUse">
<stop stop-color="#FF9485"/>
<stop offset="1" stop-color="#FF676E"/>
</linearGradient>
<linearGradient id="paint11_linear" x1="184.527" y1="55.7484" x2="184.527" y2="97.7515" gradientUnits="userSpaceOnUse">
<stop stop-color="#C0E4FD"/>
<stop offset="1" stop-color="#72B9FE"/>
</linearGradient>
<linearGradient id="paint12_linear" x1="191.224" y1="50.3972" x2="191.224" y2="79.9586" gradientUnits="userSpaceOnUse">
<stop stop-color="#1D2A78"/>
<stop offset="1" stop-color="#12033B"/>
</linearGradient>
<linearGradient id="paint13_linear" x1="173.955" y1="64.0522" x2="173.955" y2="93.4537" gradientUnits="userSpaceOnUse">
<stop stop-color="#C0E4FD"/>
<stop offset="1" stop-color="#72B9FE"/>
</linearGradient>
<linearGradient id="paint14_linear" x1="25.8066" y1="69.8503" x2="25.8066" y2="196.27" gradientUnits="userSpaceOnUse">
<stop stop-color="#1533B6"/>
<stop offset="1" stop-color="#356BE9"/>
</linearGradient>
<linearGradient id="paint15_linear" x1="33.5613" y1="65.2145" x2="33.5613" y2="98.1093" gradientUnits="userSpaceOnUse">
<stop stop-color="#FF9485"/>
<stop offset="1" stop-color="#FF676E"/>
</linearGradient>
<linearGradient id="paint16_linear" x1="36.0398" y1="49.4631" x2="36.0398" y2="63.7808" gradientUnits="userSpaceOnUse">
<stop stop-color="#1D2A78"/>
<stop offset="1" stop-color="#12033B"/>
</linearGradient>
</defs>
</svg>
