<svg width="230" height="140" viewBox="0 0 230 140" fill="none" xmlns="http://www.w3.org/2000/svg">
<path d="M87.5547 16.0398C97.156 16.0398 104.939 23.8455 104.939 33.4744V41.6687H64.2591C54.6578 41.6687 46.8744 33.8629 46.8744 24.2341V16.0398H87.5547Z" fill="url(#paint0_linear)"/>
<path d="M14.7126 126.575H218.288C224.625 126.575 229.762 131.727 229.762 138.082H26.1866C19.8497 138.082 14.7126 132.93 14.7126 126.575Z" fill="url(#paint1_linear)"/>
<path fill-rule="evenodd" clip-rule="evenodd" d="M114.051 8.68542C114.474 8.68542 114.817 8.3413 114.817 7.91681C114.817 7.49231 114.474 7.14819 114.051 7.14819C113.627 7.14819 113.284 7.49231 113.284 7.91681C113.284 8.3413 113.627 8.68542 114.051 8.68542ZM114.817 10.9913C114.817 11.4158 114.474 11.7599 114.051 11.7599C113.627 11.7599 113.284 11.4158 113.284 10.9913C113.284 10.5668 113.627 10.2226 114.051 10.2226C114.474 10.2226 114.817 10.5668 114.817 10.9913ZM114.051 14.8343C114.474 14.8343 114.817 14.4902 114.817 14.0657C114.817 13.6412 114.474 13.2971 114.051 13.2971C113.627 13.2971 113.284 13.6412 113.284 14.0657C113.284 14.4902 113.627 14.8343 114.051 14.8343ZM114.817 17.1402C114.817 17.5647 114.474 17.9088 114.051 17.9088C113.627 17.9088 113.284 17.5647 113.284 17.1402C113.284 16.7157 113.627 16.3715 114.051 16.3715C114.474 16.3715 114.817 16.7157 114.817 17.1402ZM114.051 20.9832C114.474 20.9832 114.817 20.6391 114.817 20.2146C114.817 19.7901 114.474 19.446 114.051 19.446C113.627 19.446 113.284 19.7901 113.284 20.2146C113.284 20.6391 113.627 20.9832 114.051 20.9832ZM114.051 24.0577C114.474 24.0577 114.817 23.7136 114.817 23.2891C114.817 22.8646 114.474 22.5204 114.051 22.5204C113.627 22.5204 113.284 22.8646 113.284 23.2891C113.284 23.7136 113.627 24.0577 114.051 24.0577ZM117.883 23.2891C117.883 23.7136 117.54 24.0577 117.116 24.0577C116.693 24.0577 116.35 23.7136 116.35 23.2891C116.35 22.8646 116.693 22.5204 117.116 22.5204C117.54 22.5204 117.883 22.8646 117.883 23.2891ZM117.116 20.9832C117.54 20.9832 117.883 20.6391 117.883 20.2146C117.883 19.7901 117.54 19.446 117.116 19.446C116.693 19.446 116.35 19.7901 116.35 20.2146C116.35 20.6391 116.693 20.9832 117.116 20.9832ZM117.883 17.1402C117.883 17.5647 117.54 17.9088 117.116 17.9088C116.693 17.9088 116.35 17.5647 116.35 17.1402C116.35 16.7157 116.693 16.3715 117.116 16.3715C117.54 16.3715 117.883 16.7157 117.883 17.1402ZM117.116 14.8343C117.54 14.8343 117.883 14.4902 117.883 14.0657C117.883 13.6412 117.54 13.2971 117.116 13.2971C116.693 13.2971 116.35 13.6412 116.35 14.0657C116.35 14.4902 116.693 14.8343 117.116 14.8343ZM117.883 10.9913C117.883 11.4158 117.54 11.7599 117.116 11.7599C116.693 11.7599 116.35 11.4158 116.35 10.9913C116.35 10.5668 116.693 10.2226 117.116 10.2226C117.54 10.2226 117.883 10.5668 117.883 10.9913ZM117.116 8.68542C117.54 8.68542 117.883 8.3413 117.883 7.91681C117.883 7.49231 117.54 7.14819 117.116 7.14819C116.693 7.14819 116.35 7.49231 116.35 7.91681C116.35 8.3413 116.693 8.68542 117.116 8.68542ZM120.949 23.2891C120.949 23.7136 120.605 24.0577 120.182 24.0577C119.759 24.0577 119.416 23.7136 119.416 23.2891C119.416 22.8646 119.759 22.5204 120.182 22.5204C120.605 22.5204 120.949 22.8646 120.949 23.2891ZM120.182 20.9832C120.605 20.9832 120.949 20.6391 120.949 20.2146C120.949 19.7901 120.605 19.446 120.182 19.446C119.759 19.446 119.416 19.7901 119.416 20.2146C119.416 20.6391 119.759 20.9832 120.182 20.9832ZM120.949 17.1402C120.949 17.5647 120.605 17.9088 120.182 17.9088C119.759 17.9088 119.416 17.5647 119.416 17.1402C119.416 16.7157 119.759 16.3715 120.182 16.3715C120.605 16.3715 120.949 16.7157 120.949 17.1402ZM120.182 14.8343C120.605 14.8343 120.949 14.4902 120.949 14.0657C120.949 13.6412 120.605 13.2971 120.182 13.2971C119.759 13.2971 119.416 13.6412 119.416 14.0657C119.416 14.4902 119.759 14.8343 120.182 14.8343ZM120.949 10.9913C120.949 11.4158 120.605 11.7599 120.182 11.7599C119.759 11.7599 119.416 11.4158 119.416 10.9913C119.416 10.5668 119.759 10.2226 120.182 10.2226C120.605 10.2226 120.949 10.5668 120.949 10.9913ZM120.182 8.68542C120.605 8.68542 120.949 8.3413 120.949 7.91681C120.949 7.49231 120.605 7.14819 120.182 7.14819C119.759 7.14819 119.416 7.49231 119.416 7.91681C119.416 8.3413 119.759 8.68542 120.182 8.68542ZM124.014 23.2891C124.014 23.7136 123.671 24.0577 123.248 24.0577C122.825 24.0577 122.482 23.7136 122.482 23.2891C122.482 22.8646 122.825 22.5204 123.248 22.5204C123.671 22.5204 124.014 22.8646 124.014 23.2891ZM123.248 20.9832C123.671 20.9832 124.014 20.6391 124.014 20.2146C124.014 19.7901 123.671 19.446 123.248 19.446C122.825 19.446 122.482 19.7901 122.482 20.2146C122.482 20.6391 122.825 20.9832 123.248 20.9832ZM124.014 17.1402C124.014 17.5647 123.671 17.9088 123.248 17.9088C122.825 17.9088 122.482 17.5647 122.482 17.1402C122.482 16.7157 122.825 16.3715 123.248 16.3715C123.671 16.3715 124.014 16.7157 124.014 17.1402ZM123.248 14.8343C123.671 14.8343 124.014 14.4902 124.014 14.0657C124.014 13.6412 123.671 13.2971 123.248 13.2971C122.825 13.2971 122.482 13.6412 122.482 14.0657C122.482 14.4902 122.825 14.8343 123.248 14.8343ZM124.014 10.9913C124.014 11.4158 123.671 11.7599 123.248 11.7599C122.825 11.7599 122.482 11.4158 122.482 10.9913C122.482 10.5668 122.825 10.2226 123.248 10.2226C123.671 10.2226 124.014 10.5668 124.014 10.9913ZM123.248 8.68542C123.671 8.68542 124.014 8.3413 124.014 7.91681C124.014 7.49231 123.671 7.14819 123.248 7.14819C122.825 7.14819 122.482 7.49231 122.482 7.91681C122.482 8.3413 122.825 8.68542 123.248 8.68542ZM127.08 23.2891C127.08 23.7136 126.737 24.0577 126.314 24.0577C125.891 24.0577 125.547 23.7136 125.547 23.2891C125.547 22.8646 125.891 22.5204 126.314 22.5204C126.737 22.5204 127.08 22.8646 127.08 23.2891ZM126.314 20.9832C126.737 20.9832 127.08 20.6391 127.08 20.2146C127.08 19.7901 126.737 19.446 126.314 19.446C125.891 19.446 125.547 19.7901 125.547 20.2146C125.547 20.6391 125.891 20.9832 126.314 20.9832ZM127.08 17.1402C127.08 17.5647 126.737 17.9088 126.314 17.9088C125.891 17.9088 125.547 17.5647 125.547 17.1402C125.547 16.7157 125.891 16.3715 126.314 16.3715C126.737 16.3715 127.08 16.7157 127.08 17.1402ZM126.314 14.8343C126.737 14.8343 127.08 14.4902 127.08 14.0657C127.08 13.6412 126.737 13.2971 126.314 13.2971C125.891 13.2971 125.547 13.6412 125.547 14.0657C125.547 14.4902 125.891 14.8343 126.314 14.8343ZM127.08 10.9913C127.08 11.4158 126.737 11.7599 126.314 11.7599C125.891 11.7599 125.547 11.4158 125.547 10.9913C125.547 10.5668 125.891 10.2226 126.314 10.2226C126.737 10.2226 127.08 10.5668 127.08 10.9913ZM126.314 8.68542C126.737 8.68542 127.08 8.3413 127.08 7.91681C127.08 7.49231 126.737 7.14819 126.314 7.14819C125.891 7.14819 125.547 7.49231 125.547 7.91681C125.547 8.3413 125.891 8.68542 126.314 8.68542ZM130.146 23.2891C130.146 23.7136 129.803 24.0577 129.38 24.0577C128.956 24.0577 128.613 23.7136 128.613 23.2891C128.613 22.8646 128.956 22.5204 129.38 22.5204C129.803 22.5204 130.146 22.8646 130.146 23.2891ZM129.38 20.9832C129.803 20.9832 130.146 20.6391 130.146 20.2146C130.146 19.7901 129.803 19.446 129.38 19.446C128.956 19.446 128.613 19.7901 128.613 20.2146C128.613 20.6391 128.956 20.9832 129.38 20.9832ZM130.146 17.1402C130.146 17.5647 129.803 17.9088 129.38 17.9088C128.956 17.9088 128.613 17.5647 128.613 17.1402C128.613 16.7157 128.956 16.3715 129.38 16.3715C129.803 16.3715 130.146 16.7157 130.146 17.1402ZM129.38 14.8343C129.803 14.8343 130.146 14.4902 130.146 14.0657C130.146 13.6412 129.803 13.2971 129.38 13.2971C128.956 13.2971 128.613 13.6412 128.613 14.0657C128.613 14.4902 128.956 14.8343 129.38 14.8343ZM130.146 10.9913C130.146 11.4158 129.803 11.7599 129.38 11.7599C128.956 11.7599 128.613 11.4158 128.613 10.9913C128.613 10.5668 128.956 10.2226 129.38 10.2226C129.803 10.2226 130.146 10.5668 130.146 10.9913ZM129.38 8.68542C129.803 8.68542 130.146 8.3413 130.146 7.91681C130.146 7.49231 129.803 7.14819 129.38 7.14819C128.956 7.14819 128.613 7.49231 128.613 7.91681C128.613 8.3413 128.956 8.68542 129.38 8.68542Z" fill="url(#paint2_linear)"/>
<path d="M51.9159 32.8075C42.1316 37.2392 34.3093 37.183 28.4489 32.6391C22.5884 28.0952 18.8789 21.6248 17.3203 13.2279C35.639 7.71106 47.1708 14.2376 51.9159 32.8075Z" fill="url(#paint3_linear)"/>
<path d="M37.469 24.8392C35.3572 23.6378 33.009 22.3064 30.4245 20.8452L24.4293 22.2849C24.3229 22.3104 24.2161 22.2443 24.1907 22.1373C24.1654 22.0302 24.231 21.9228 24.3374 21.8972L29.9158 20.5576C26.6902 18.7344 23.1049 16.7137 19.1602 14.4953C19.0648 14.4416 19.0306 14.3202 19.084 14.2242C19.1373 14.1281 19.2579 14.0937 19.3534 14.1474C26.556 18.1979 32.5601 21.5896 37.366 24.3229L36.7459 18.2063C36.7191 17.942 37.113 17.9016 37.1398 18.1659L37.7884 24.5632C44.1958 28.2092 48.4094 30.6494 50.4299 31.8845C50.5234 31.9416 50.5531 32.0642 50.4963 32.1582C50.4396 32.2523 50.3178 32.2822 50.2244 32.2251C49.0154 31.4861 47.018 30.3138 44.2324 28.7083C44.2251 28.7121 44.2175 28.7155 44.2095 28.7184L38.7306 30.7322C38.6279 30.7699 38.5143 30.7167 38.4768 30.6133C38.4393 30.51 38.4921 30.3956 38.5948 30.3578L43.7845 28.4503C42.0041 27.4255 39.92 26.2338 37.5323 24.8753C37.5093 24.8675 37.4876 24.8556 37.469 24.8392Z" fill="white"/>
<path d="M49.7249 38.3562C39.6673 34.5348 34.1605 28.943 33.2044 21.5806C32.2484 14.2182 34.1739 7.02466 38.9807 0C55.8536 9.11417 59.435 21.8996 49.7249 38.3562Z" fill="url(#paint4_linear)"/>
<path d="M45.5816 22.5439C47.5462 29.6807 48.8082 34.4041 49.3678 36.7149C49.3937 36.8218 49.3288 36.9296 49.2228 36.9557C49.1169 36.9818 49.01 36.9163 48.9841 36.8094C48.6492 35.4267 48.0619 33.1767 47.2221 30.0596C47.2143 30.0571 47.2065 30.054 47.1989 30.0504L41.9225 27.5757C41.8236 27.5293 41.7807 27.4108 41.8267 27.311C41.8727 27.2113 41.9901 27.168 42.089 27.2144L47.087 29.5585C46.5493 27.5671 45.9143 25.2417 45.1822 22.5823C45.1714 22.5605 45.1645 22.5366 45.1628 22.5118C44.5152 20.1598 43.7919 17.5477 42.9929 14.6756L37.7546 11.4276C37.6616 11.3699 37.6326 11.2472 37.6897 11.1535C37.7469 11.0598 37.8685 11.0305 37.9614 11.0881L42.8356 14.1104C41.838 10.5262 40.7252 6.54655 39.4973 2.17139C39.4676 2.06552 39.5286 1.9554 39.6336 1.92543C39.7385 1.89546 39.8477 1.95699 39.8774 2.06286C42.1194 10.0514 43.9776 16.7215 45.452 22.0735L49.3017 17.308C49.468 17.102 49.7743 17.3537 49.6079 17.5596L45.5816 22.5439Z" fill="white"/>
<path d="M59.739 45.2538C51.4333 52.0878 43.8687 54.0733 37.0452 51.2104C30.2218 48.3475 24.9796 43.0621 21.3188 35.3541C37.5833 25.2461 50.39 28.546 59.739 45.2538Z" fill="url(#paint5_linear)"/>
<path d="M43.9484 40.8175C51.0701 42.6648 55.7643 43.9207 58.032 44.5855C58.1369 44.6162 58.1971 44.7265 58.1665 44.8319C58.1359 44.9372 58.026 44.9977 57.9211 44.9669C56.5643 44.5692 54.3351 43.9589 51.2337 43.1361C51.2276 43.1416 51.2211 43.1469 51.2142 43.1517L46.4432 46.5144C46.3538 46.5775 46.2304 46.5557 46.1676 46.4659C46.1049 46.3761 46.1265 46.2522 46.2159 46.1891L50.7351 43.0039C48.7531 42.4793 46.4352 41.8729 43.7815 41.1846C43.7572 41.1831 43.7333 41.1772 43.7111 41.1664C41.3639 40.5577 38.7553 39.8853 35.8851 39.1492L30.4682 42.0931C30.3721 42.1453 30.252 42.1094 30.2 42.0129C30.148 41.9164 30.1837 41.7958 30.2798 41.7436L35.3202 39.0044C31.7381 38.0862 27.7582 37.0711 23.3805 35.9592C23.2746 35.9323 23.2104 35.8242 23.2372 35.7178C23.264 35.6114 23.3716 35.547 23.4775 35.5739C31.4707 37.6043 38.1377 39.3115 43.479 40.6958L41.3086 34.9657C41.2148 34.7181 41.5846 34.5768 41.6784 34.8244L43.9484 40.8175Z" fill="white"/>
<path d="M50.3513 25.6289H197.6C199.52 25.6289 201.077 27.1901 201.077 29.1158V134.77C201.077 136.695 199.52 138.257 197.6 138.257H50.3513C48.4311 138.257 46.8744 136.695 46.8744 134.77V29.1158C46.8744 27.1901 48.4311 25.6289 50.3513 25.6289Z" fill="url(#paint6_linear)"/>
<path fill-rule="evenodd" clip-rule="evenodd" d="M71.0392 46.8992H55.2191C54.835 46.8992 54.5237 47.2114 54.5237 47.5966V61.1956C54.5237 61.5807 54.835 61.8929 55.2191 61.8929H71.0392C71.4232 61.8929 71.7346 61.5807 71.7346 61.1956V47.5966C71.7346 47.2114 71.4232 46.8992 71.0392 46.8992ZM71.0392 68.8668H55.2191C54.835 68.8668 54.5237 69.179 54.5237 69.5642V83.1632C54.5237 83.5483 54.835 83.8606 55.2191 83.8606H71.0392C71.4232 83.8606 71.7346 83.5483 71.7346 83.1632V69.5642C71.7346 69.179 71.4232 68.8668 71.0392 68.8668ZM55.2191 90.8344H71.0392C71.4232 90.8344 71.7346 91.1466 71.7346 91.5318V105.131C71.7346 105.516 71.4232 105.828 71.0392 105.828H55.2191C54.835 105.828 54.5237 105.516 54.5237 105.131V91.5318C54.5237 91.1466 54.835 90.8344 55.2191 90.8344ZM71.0392 112.802H55.2191C54.835 112.802 54.5237 113.114 54.5237 113.499V127.098C54.5237 127.484 54.835 127.796 55.2191 127.796H71.0392C71.4232 127.796 71.7346 127.484 71.7346 127.098V113.499C71.7346 113.114 71.4232 112.802 71.0392 112.802Z" fill="url(#paint7_linear)"/>
<path d="M79.3839 46.8992H193.926C194.31 46.8992 194.621 47.2114 194.621 47.5966V127.224C194.621 127.609 194.31 127.921 193.926 127.921H79.3839C78.9998 127.921 78.6885 127.609 78.6885 127.224V47.5966C78.6885 47.2114 78.9998 46.8992 79.3839 46.8992Z" fill="white"/>
<path fill-rule="evenodd" clip-rule="evenodd" d="M83.9039 52.1295H113.806V57.3599H83.9039V52.1295ZM83.9039 62.5903H195.514V67.8207H83.9039V62.5903ZM176.391 73.0511H83.9039V78.2814H176.391V73.0511ZM83.9039 83.5118H195.514V88.7422H83.9039V83.5118ZM186.821 93.9726H83.9039V99.203H186.821V93.9726ZM83.9039 104.433H195.514V109.664H83.9039V104.433ZM136.134 114.894H83.9039V120.125H136.134V114.894Z" fill="#D0F6FF"/>
<path fill-rule="evenodd" clip-rule="evenodd" d="M150.498 102.987L153.162 107.082C152.433 108.361 151.858 109.739 151.463 111.192L146.693 112.199C146.372 112.267 146.141 112.552 146.141 112.882V118.825C146.141 119.154 146.372 119.439 146.693 119.507L151.463 120.514C151.858 121.967 152.433 123.345 153.162 124.624L150.498 128.719C150.319 128.996 150.357 129.36 150.589 129.594L154.779 133.796C155.012 134.029 155.376 134.067 155.651 133.887L159.735 131.216C161.01 131.947 162.384 132.524 163.833 132.919L164.837 137.703C164.905 138.026 165.189 138.257 165.518 138.257H171.444C171.772 138.257 172.056 138.026 172.124 137.703L173.128 132.919C174.577 132.524 175.951 131.947 177.226 131.216L181.31 133.887C181.586 134.067 181.949 134.029 182.182 133.796L186.771 129.193L183.799 124.624C184.529 123.345 185.103 121.967 185.498 120.514L190.268 119.507C190.59 119.439 190.82 119.154 190.82 118.825V112.882C190.82 112.552 190.59 112.267 190.268 112.199L185.498 111.192C185.103 109.739 184.529 108.361 183.799 107.082L186.463 102.987C186.643 102.71 186.605 102.346 186.372 102.113L182.182 97.9102C181.949 97.677 181.586 97.6391 181.31 97.8192L177.226 100.49C175.951 99.759 174.577 99.1826 173.128 98.7867L172.124 94.0033C172.056 93.6806 171.772 93.4496 171.444 93.4496H165.518C165.189 93.4496 164.905 93.6806 164.837 94.0033L163.833 98.7867C162.384 99.1826 161.01 99.759 159.735 100.49L155.651 97.8192C155.376 97.6391 155.012 97.677 154.779 97.9102L150.589 102.113C150.357 102.346 150.319 102.71 150.498 102.987ZM176.738 115.853C176.738 120.427 173.041 124.135 168.481 124.135C163.92 124.135 160.223 120.427 160.223 115.853C160.223 111.279 163.92 107.572 168.481 107.572C173.041 107.572 176.738 111.279 176.738 115.853Z" fill="url(#paint8_linear)"/>
<path d="M50.3513 25.6289H197.6C199.52 25.6289 201.077 27.1901 201.077 29.1158V40.0826H46.8744L46.8744 29.1158C46.8744 27.1901 48.4311 25.6289 50.3513 25.6289Z" fill="url(#paint9_linear)"/>
<path d="M44.0094 77.2797H98.069C99.3671 77.2797 100.419 78.3402 100.419 79.6483V114.389C100.419 115.697 99.3671 116.758 98.069 116.758H44.0094C42.7113 116.758 41.659 115.697 41.659 114.389V79.6483C41.659 78.3402 42.7113 77.2797 44.0094 77.2797Z" fill="url(#paint10_linear)"/>
<path d="M71.0392 95.4395L98.069 116.758H44.0094L71.0392 95.4395Z" fill="url(#paint11_linear)"/>
<path d="M44.0094 77.2797L98.069 77.2797L71.0392 101.181L44.0094 77.2797Z" fill="#52D7FD"/>
<path d="M41.659 84.1938V88.0659L32.9579 83.5607L28.2727 71.5604L35.5454 69.6061L38.6069 81.8141L41.659 84.1938Z" fill="#221E41"/>
<path d="M34.466 69.4223L30.1199 66.0168L31.4192 64.3489C31.6142 62.0374 32.9816 59.6866 35.5213 57.2965C38.061 54.9064 40.7705 55.8597 43.65 60.1564C42.5327 61.8087 42.1707 63.1214 42.5641 64.0945C43.1541 65.5542 42.402 65.896 41.8858 65.7819C41.3697 65.6678 40.887 65.7832 40.2906 66.7816C39.6941 67.7799 39.0001 67.5264 37.8576 67.2102C37.0959 66.9994 35.9653 67.7367 34.466 69.4223Z" fill="#F4B696"/>
<path d="M29.8942 130.468L33.645 130.731L33.3829 134.491L29.6321 134.228L29.8942 130.468Z" fill="#F4B696"/>
<path d="M29.5065 133.937L33.4461 134.213L35.8835 135.223C37.1099 135.758 38.1563 136.015 38.0587 137.414C38.0337 137.773 37.7759 138.048 37.4829 138.028L30.0939 137.509C29.6342 137.477 29.2875 137.077 29.3197 136.616L29.5065 133.937Z" fill="url(#paint12_linear)"/>
<path d="M3.89524 129.451L6.93711 131.667L4.72839 134.716L1.68652 132.499L3.89524 129.451Z" fill="#F4B696"/>
<path d="M1.73379 132.186L4.92877 134.514L6.46185 136.666C7.21925 137.771 7.9711 138.545 7.14901 139.68C6.93783 139.971 6.57404 140.067 6.33647 139.894L0.344039 135.528C-0.0288075 135.256 -0.111461 134.733 0.159428 134.359L1.73379 132.186Z" fill="url(#paint13_linear)"/>
<path d="M31.3879 64.2679C31.0601 63.8669 30.9705 63.4645 31.119 63.0608C31.3418 62.4551 31.8085 62.3847 31.3807 60.6261C30.9529 58.8676 30.9484 56.8684 33.1371 54.6617C35.3258 52.4551 37.0069 53.1462 38.6382 53.9142C40.2694 54.6823 40.7957 55.2298 43.3361 55.7674C45.8765 56.305 46.1481 58.3223 44.4543 60.1798C42.7605 62.0374 39.5954 60.0953 39.077 59.689C38.5586 59.2828 38.3471 60.2944 37.8995 61.2006C37.4518 62.1068 36.7859 61.9721 36.6537 61.7303C36.5215 61.4885 36.1723 61.0929 35.5008 61.3451C34.8292 61.5972 34.7705 62.5865 35.0553 62.8097C35.3401 63.0328 35.8042 63.1826 35.614 63.5446C35.4238 63.9066 34.6071 64.8857 33.9122 65.2494C33.449 65.4919 32.6075 65.1647 31.3879 64.2679Z" fill="url(#paint14_linear)"/>
<path d="M23.9989 104.283L20.008 117.663C19.8518 118.186 19.5818 118.669 19.2174 119.075L6.19537 133.596L2.45404 131.086L12.4838 113.828V95.103L23.3036 96.8906L23.9989 104.283Z" fill="#241F4A"/>
<path d="M12.4053 95.103L26.937 96.3932L37.5581 107.423C38.395 108.292 38.7555 109.517 38.5235 110.702L34.1835 132.883L29.2364 132.57L30.1551 112.214L17.5745 107.005C14.4462 105.71 12.4053 102.651 12.4053 99.2566V95.103Z" fill="url(#paint15_linear)"/>
<path d="M12.4053 95.103C17.7611 81.7166 20.8675 73.7773 21.7244 71.2852C23.0099 67.547 27.4805 64.008 32.604 66.3396C37.7276 68.6712 36.7493 75.9292 34.7961 81.4728C33.4939 85.1685 30.9823 90.3137 27.2612 96.9084L12.4053 95.103Z" fill="#00ADFF"/>
<path d="M29.2363 93.349L25.0312 76.7734L29.6635 75.2572L31.8627 88.3156L29.2363 93.349Z" fill="#221E41"/>
<path d="M33.4381 75.6399L35.4067 86.4591L47.6886 96.5719L49.8827 97.5213L48.2306 97.9653L49.199 101.59C47.2282 101.744 45.8725 101.368 45.1318 100.459C44.3912 99.5508 43.7815 98.0784 43.3029 96.0419L29.7578 88.2057L26.1655 77.5942L33.4381 75.6399Z" fill="#F4B696"/>
<path d="M33.8072 73.1029L35.1939 81.8865L27.8264 84.3259L24.22 75.2545" fill="#00ADFF"/>
<path fill-rule="evenodd" clip-rule="evenodd" d="M18.2309 98.1211L18.0723 98.1926L18.5713 99.3057L18.7299 99.2342L18.2309 98.1211ZM19.4427 100.824L19.2842 100.896L19.5758 101.547C19.6468 101.705 19.7292 101.858 19.8221 102.004L19.9687 101.91C19.8803 101.771 19.8019 101.626 19.7344 101.475L19.4427 100.824ZM21.1162 103.217L21.2012 103.065L22.2629 103.661L22.1779 103.813L21.1162 103.217ZM23.7795 104.514L23.6946 104.666L24.7562 105.262L24.8412 105.11L23.7795 104.514ZM26.2729 106.114L26.3579 105.962L27.4195 106.559L27.3345 106.711L26.2729 106.114ZM28.9362 107.411L28.8512 107.563L29.9129 108.159L29.9978 108.007L28.9362 107.411ZM31.4295 109.012L31.5145 108.859L32.5762 109.456L32.4912 109.608L31.4295 109.012ZM33.879 110.651L33.7335 110.747C33.9517 111.081 34.1098 111.452 34.2 111.841L34.3693 111.802C34.2745 111.392 34.1083 111.003 33.879 110.651ZM34.1991 113.547L34.3717 113.568L34.2252 114.78L34.0526 114.759L34.1991 113.547ZM34.0159 116.51L33.8433 116.489L33.6968 117.701L33.8694 117.722L34.0159 116.51ZM33.4876 119.432L33.6601 119.453L33.5136 120.664L33.3411 120.643L33.4876 119.432ZM33.3043 122.395L33.1318 122.374L32.9853 123.586L33.1578 123.607L33.3043 122.395ZM32.776 125.316L32.9486 125.337L32.8021 126.549L32.6295 126.528L32.776 125.316ZM32.5928 128.28L32.4202 128.259L32.2737 129.47L32.4463 129.491L32.5928 128.28Z" fill="#A587FF"/>
<path d="M135.015 7.19434H200.034C200.802 7.19434 201.425 7.8188 201.425 8.58911V64.0312C201.425 64.8015 200.802 65.426 200.034 65.426H135.015C134.247 65.426 133.624 64.8015 133.624 64.0312V8.58911C133.624 7.8188 134.247 7.19434 135.015 7.19434Z" fill="url(#paint16_linear)"/>
<path fill-rule="evenodd" clip-rule="evenodd" d="M138.84 23.2341H147.532V31.9514H138.84V23.2341ZM138.84 37.1818H147.532V45.8991H138.84V37.1818ZM163.7 23.2341H155.007V31.9514H163.7V23.2341ZM155.007 37.1818H163.7V45.8991H155.007V37.1818ZM180.041 23.2341H171.349V31.9514H180.041V23.2341ZM187.517 23.2341H196.209V31.9514H187.517V23.2341ZM196.209 37.1818H187.517V45.8991H196.209V37.1818ZM138.84 51.1295H147.532V59.8468H138.84V51.1295ZM163.7 51.1295H155.007V59.8468H163.7V51.1295ZM171.349 51.1295H180.041V59.8468H171.349V51.1295ZM196.209 51.1295H187.517V59.8468H196.209V51.1295Z" fill="#77D0E6"/>
<path d="M171.349 37.1819H180.041V45.8992H171.349V37.1819Z" fill="url(#paint17_linear)"/>
<path d="M135.015 7.19434H200.034C200.802 7.19434 201.425 7.8188 201.425 8.58911V18.0605H133.624V8.58911C133.624 7.8188 134.247 7.19434 135.015 7.19434Z" fill="url(#paint18_linear)"/>
<path d="M217.481 135.53C217.874 134.83 218.275 134.235 218.685 133.746C219.3 133.012 219.517 133.275 219.71 133.609C219.903 133.944 220.335 134.695 220.685 135.302C221.034 135.909 220.885 136.084 219.776 136.629C218.668 137.173 218.481 137.15 217.461 137.97C216.441 138.789 214.164 140.064 213.218 139.561C212.272 139.058 213.674 137.815 214.954 136.822C215.807 136.16 216.649 135.73 217.481 135.53Z" fill="url(#paint19_linear)"/>
<path d="M217.969 130.585L219.839 133.834L219.295 134.516C218.305 135.757 216.853 136.537 215.276 136.677L216.781 135.31L215.038 132.283L217.969 130.585Z" fill="#F4B696"/>
<path d="M215.113 134.108L202.626 114.464L205.992 90.66L210.569 114.04L219.7 131.835L215.113 134.108Z" fill="#241F4A"/>
<path d="M200.796 137.063C201.486 136.654 202.13 136.341 202.729 136.122C203.627 135.795 203.685 136.131 203.685 136.518C203.685 136.904 203.685 137.772 203.685 138.472C203.685 139.173 203.468 139.25 202.237 139.166C201.005 139.082 200.855 138.968 199.563 139.166C198.271 139.364 195.664 139.326 195.095 138.417C194.527 137.507 196.361 137.133 197.964 136.916C199.033 136.77 199.977 136.819 200.796 137.063Z" fill="url(#paint20_linear)"/>
<path d="M203.685 133.026V136.777L202.873 137.095C201.398 137.673 199.751 137.621 198.315 136.951L200.3 136.522V133.026H203.685Z" fill="#F4B696"/>
<path d="M177.032 47.4275L175.519 45.734C175.774 44.4824 175.491 43.5594 174.668 42.9652L174.225 43.8565C173.418 43.2623 172.735 42.5968 172.173 41.8601C171.331 40.7551 169.643 43.2142 170.132 45.0104C170.621 46.8067 172.464 47.2479 173.509 48.2628C173.676 48.425 174.271 48.9526 175.294 49.8454L177.032 47.4275Z" fill="#F4B696"/>
<path d="M200.501 55.3278L199.86 51.4322C197.935 51.7234 196.876 51.1466 196.684 49.7018C196.493 48.257 196.387 47.39 196.367 47.1008L195.302 46.7554L196.684 44.9681L197.423 41.52C199.186 40.8682 201.116 41.5373 203.214 43.5272C206.36 46.512 204.788 53.2682 204.371 54.887C204.092 55.9662 202.802 56.1131 200.501 55.3278Z" fill="#F4B696"/>
<path d="M204.728 135.23H198.842L191.343 84.2484L206.618 84.1736C206.977 86.9712 206.918 89.8069 206.443 92.587L202.926 113.164L204.728 135.23Z" fill="url(#paint21_linear)"/>
<path d="M191.343 84.2484L193.791 65.1183C192.673 63.0695 192.394 60.8088 192.953 58.3361C193.396 56.9095 194.335 56.1962 195.771 56.1962C197.924 56.1962 203.987 52.8572 205.302 52.8572C207.035 53.4917 207.75 55.8562 207.445 59.9509C207.141 64.0455 206.874 72.1607 206.643 84.2964L191.343 84.2484Z" fill="url(#paint22_linear)"/>
<path d="M200.583 61.1853L192.994 63.1056C192.743 62.2999 192.618 61.3145 192.618 60.1494C192.618 58.9843 195.273 59.3296 200.583 61.1853Z" fill="#211D41"/>
<path d="M202.635 61.3526L186.114 60.4686C185.327 60.4265 184.585 60.088 184.036 59.521L173.664 48.809L176.668 46.5762L185.884 54.3221C198.433 53.3682 204.821 52.8912 205.047 52.8912C205.273 52.8912 205.273 53.3682 205.047 54.3221L202.635 61.3526Z" fill="url(#paint23_linear)"/>
<path d="M195.921 41.0956C195.061 42.5677 196.211 43.8891 199.371 45.0595C204.112 46.8152 199.86 47.8778 201.931 50.7898C204.002 53.7018 199.209 58.2177 202.926 62.3661C205.404 65.1317 206.622 66.7877 206.58 67.3341C208.534 66.4749 209.67 64.6612 209.988 61.8929C210.465 57.7404 206.376 53.5144 206.95 49.7794C207.525 46.0444 207.8 42.4832 203.337 40.2158C200.362 38.7043 197.89 38.9975 195.921 41.0956Z" fill="url(#paint24_linear)"/>
<path fill-rule="evenodd" clip-rule="evenodd" d="M199.153 88.9662L199.326 88.9682L199.34 87.7478L199.166 87.7458L199.153 88.9662ZM199.293 91.9319L199.119 91.9299L199.133 90.7095L199.307 90.7115L199.293 91.9319ZM199.086 94.8936L199.26 94.8956L199.274 93.6752L199.1 93.6732L199.086 94.8936ZM199.227 97.8593L199.053 97.8573L199.067 96.6369L199.24 96.6389L199.227 97.8593ZM199.02 100.821L199.194 100.823L199.207 99.6026L199.033 99.6006L199.02 100.821ZM199.16 103.787L198.987 103.785L199 102.564L199.174 102.566L199.16 103.787ZM198.953 106.748L199.127 106.75L199.141 105.53L198.967 105.528L198.953 106.748ZM199.094 109.714L198.92 109.712L198.934 108.492L199.108 108.494L199.094 109.714ZM199.068 112.677L199.24 112.658L199.108 111.445L198.935 111.464L199.068 112.677ZM199.561 115.605L199.389 115.624L199.256 114.411L199.429 114.392L199.561 115.605ZM199.71 118.57L199.883 118.551L199.75 117.338L199.578 117.357L199.71 118.57ZM200.204 121.498L200.031 121.516L199.899 120.303L200.071 120.284L200.204 121.498ZM200.352 124.463L200.525 124.444L200.392 123.231L200.22 123.25L200.352 124.463ZM200.846 127.39L200.673 127.409L200.541 126.196L200.713 126.177L200.846 127.39ZM200.994 130.355L201.167 130.337L201.034 129.123L200.862 129.142L200.994 130.355ZM201.315 133.302L201.488 133.283L201.355 132.07L201.183 132.089L201.315 133.302Z" fill="#A587FF"/>
<defs>
<linearGradient id="paint0_linear" x1="34.1601" y1="17.9016" x2="34.1601" y2="54.7542" gradientUnits="userSpaceOnUse">
<stop stop-color="#D0F6FF"/>
<stop offset="1" stop-color="#8BE2F7"/>
</linearGradient>
<linearGradient id="paint1_linear" x1="-32.376" y1="127.411" x2="-32.376" y2="143.957" gradientUnits="userSpaceOnUse">
<stop stop-color="#D0F6FF"/>
<stop offset="1" stop-color="#8BE2F7"/>
</linearGradient>
<linearGradient id="paint2_linear" x1="113.284" y1="7.14819" x2="113.284" y2="24.0577" gradientUnits="userSpaceOnUse">
<stop stop-color="#FF9485"/>
<stop offset="1" stop-color="#FF676E"/>
</linearGradient>
<linearGradient id="paint3_linear" x1="9.30768" y1="29.2023" x2="35.7955" y2="50.911" gradientUnits="userSpaceOnUse">
<stop stop-color="#6EAE7C"/>
<stop offset="1" stop-color="#0F575D"/>
</linearGradient>
<linearGradient id="paint4_linear" x1="30.7478" y1="14.2809" x2="44.874" y2="20.501" gradientUnits="userSpaceOnUse">
<stop stop-color="#CFE49F"/>
<stop offset="1" stop-color="#A9D386"/>
</linearGradient>
<linearGradient id="paint5_linear" x1="24.2364" y1="34.0334" x2="29.2156" y2="48.4968" gradientUnits="userSpaceOnUse">
<stop stop-color="#77D791"/>
<stop offset="1" stop-color="#4FA67E"/>
</linearGradient>
<linearGradient id="paint6_linear" x1="191.912" y1="154.568" x2="192.681" y2="55.323" gradientUnits="userSpaceOnUse">
<stop stop-color="#2B3389"/>
<stop offset="1" stop-color="#444FB7"/>
</linearGradient>
<linearGradient id="paint7_linear" x1="55.4386" y1="67.1233" x2="86.9752" y2="79.1155" gradientUnits="userSpaceOnUse">
<stop stop-color="#0F1752"/>
<stop offset="1" stop-color="#272884"/>
</linearGradient>
<linearGradient id="paint8_linear" x1="146.141" y1="93.4496" x2="146.141" y2="138.257" gradientUnits="userSpaceOnUse">
<stop stop-color="#FF9485"/>
<stop offset="1" stop-color="#FF676E"/>
</linearGradient>
<linearGradient id="paint9_linear" x1="55.0719" y1="29.2423" x2="55.9589" y2="46.1561" gradientUnits="userSpaceOnUse">
<stop stop-color="#0F1752"/>
<stop offset="1" stop-color="#272884"/>
</linearGradient>
<linearGradient id="paint10_linear" x1="41.659" y1="77.2797" x2="41.659" y2="116.758" gradientUnits="userSpaceOnUse">
<stop stop-color="#4DBCFA"/>
<stop offset="1" stop-color="#1486DB"/>
</linearGradient>
<linearGradient id="paint11_linear" x1="52.2211" y1="95.4395" x2="52.2211" y2="110.281" gradientUnits="userSpaceOnUse">
<stop stop-color="#4DBCFA"/>
<stop offset="1" stop-color="#1486DB"/>
</linearGradient>
<linearGradient id="paint12_linear" x1="29.3176" y1="133.937" x2="29.3176" y2="138.029" gradientUnits="userSpaceOnUse">
<stop stop-color="#1D2A78"/>
<stop offset="1" stop-color="#12033B"/>
</linearGradient>
<linearGradient id="paint13_linear" x1="0" y1="132.186" x2="0" y2="139.98" gradientUnits="userSpaceOnUse">
<stop stop-color="#1D2A78"/>
<stop offset="1" stop-color="#12033B"/>
</linearGradient>
<linearGradient id="paint14_linear" x1="31.0496" y1="53.1724" x2="31.0496" y2="65.3269" gradientUnits="userSpaceOnUse">
<stop stop-color="#1D2A78"/>
<stop offset="1" stop-color="#12033B"/>
</linearGradient>
<linearGradient id="paint15_linear" x1="2.65548" y1="75.0978" x2="2.65548" y2="165.626" gradientUnits="userSpaceOnUse">
<stop stop-color="#1533B6"/>
<stop offset="1" stop-color="#356BE9"/>
</linearGradient>
<linearGradient id="paint16_linear" x1="118.778" y1="11.4245" x2="118.778" y2="95.1578" gradientUnits="userSpaceOnUse">
<stop stop-color="#D0F6FF"/>
<stop offset="1" stop-color="#8BE2F7"/>
</linearGradient>
<linearGradient id="paint17_linear" x1="171.349" y1="37.1819" x2="171.349" y2="45.8992" gradientUnits="userSpaceOnUse">
<stop stop-color="#FF9485"/>
<stop offset="1" stop-color="#FF676E"/>
</linearGradient>
<linearGradient id="paint18_linear" x1="133.624" y1="7.19434" x2="133.624" y2="18.0605" gradientUnits="userSpaceOnUse">
<stop stop-color="#FF9485"/>
<stop offset="1" stop-color="#FF676E"/>
</linearGradient>
<linearGradient id="paint19_linear" x1="212.908" y1="133.276" x2="212.908" y2="139.675" gradientUnits="userSpaceOnUse">
<stop stop-color="#1D2A78"/>
<stop offset="1" stop-color="#12033B"/>
</linearGradient>
<linearGradient id="paint20_linear" x1="194.99" y1="135.99" x2="194.99" y2="139.264" gradientUnits="userSpaceOnUse">
<stop stop-color="#1D2A78"/>
<stop offset="1" stop-color="#12033B"/>
</linearGradient>
<linearGradient id="paint21_linear" x1="185.569" y1="57.1385" x2="185.569" y2="179.478" gradientUnits="userSpaceOnUse">
<stop stop-color="#1533B6"/>
<stop offset="1" stop-color="#356BE9"/>
</linearGradient>
<linearGradient id="paint22_linear" x1="191.343" y1="52.8572" x2="191.343" y2="84.2964" gradientUnits="userSpaceOnUse">
<stop stop-color="#FF9485"/>
<stop offset="1" stop-color="#FF676E"/>
</linearGradient>
<linearGradient id="paint23_linear" x1="173.664" y1="46.5762" x2="173.664" y2="61.3526" gradientUnits="userSpaceOnUse">
<stop stop-color="#FF9485"/>
<stop offset="1" stop-color="#FF676E"/>
</linearGradient>
<linearGradient id="paint24_linear" x1="195.645" y1="39.2664" x2="195.645" y2="67.3341" gradientUnits="userSpaceOnUse">
<stop stop-color="#1D2A78"/>
<stop offset="1" stop-color="#12033B"/>
</linearGradient>
</defs>
</svg>
