<svg width="230" height="154" viewBox="0 0 230 154" fill="none" xmlns="http://www.w3.org/2000/svg">
<path d="M66.0503 98.4442C93.2344 98.4442 115.271 76.4067 115.271 49.2221C115.271 22.0375 93.2344 0 66.0503 0C38.8663 0 16.8292 22.0375 16.8292 49.2221C16.8292 76.4067 38.8663 98.4442 66.0503 98.4442Z" fill="url(#paint0_linear)"/>
<path d="M160.33 135.18H188.389C198.083 135.18 205.942 143.039 205.942 152.733H177.884C168.189 152.733 160.33 144.874 160.33 135.18Z" fill="url(#paint1_linear)"/>
<path d="M206.121 152.649C206.121 137.232 206.121 117.741 206.121 107.673C193.624 107.673 183.493 117.741 183.493 130.161C183.493 142.581 193.624 152.649 206.121 152.649Z" fill="url(#paint2_linear)"/>
<path fill-rule="evenodd" clip-rule="evenodd" d="M120.231 128.089C120.672 128.089 121.029 127.732 121.029 127.291C121.029 126.851 120.672 126.494 120.231 126.494C119.791 126.494 119.433 126.851 119.433 127.291C119.433 127.732 119.791 128.089 120.231 128.089ZM121.029 130.482C121.029 130.923 120.672 131.28 120.231 131.28C119.791 131.28 119.433 130.923 119.433 130.482C119.433 130.042 119.791 129.685 120.231 129.685C120.672 129.685 121.029 130.042 121.029 130.482ZM120.231 134.471C120.672 134.471 121.029 134.114 121.029 133.674C121.029 133.233 120.672 132.876 120.231 132.876C119.791 132.876 119.433 133.233 119.433 133.674C119.433 134.114 119.791 134.471 120.231 134.471ZM121.029 136.865C121.029 137.305 120.672 137.663 120.231 137.663C119.791 137.663 119.433 137.305 119.433 136.865C119.433 136.424 119.791 136.067 120.231 136.067C120.672 136.067 121.029 136.424 121.029 136.865ZM120.231 140.854C120.672 140.854 121.029 140.496 121.029 140.056C121.029 139.615 120.672 139.258 120.231 139.258C119.791 139.258 119.433 139.615 119.433 140.056C119.433 140.496 119.791 140.854 120.231 140.854ZM120.231 144.045C120.672 144.045 121.029 143.688 121.029 143.247C121.029 142.806 120.672 142.449 120.231 142.449C119.791 142.449 119.433 142.806 119.433 143.247C119.433 143.688 119.791 144.045 120.231 144.045ZM124.22 143.247C124.22 143.688 123.863 144.045 123.423 144.045C122.982 144.045 122.625 143.688 122.625 143.247C122.625 142.806 122.982 142.449 123.423 142.449C123.863 142.449 124.22 142.806 124.22 143.247ZM123.423 140.854C123.863 140.854 124.22 140.496 124.22 140.056C124.22 139.615 123.863 139.258 123.423 139.258C122.982 139.258 122.625 139.615 122.625 140.056C122.625 140.496 122.982 140.854 123.423 140.854ZM124.22 136.865C124.22 137.305 123.863 137.663 123.423 137.663C122.982 137.663 122.625 137.305 122.625 136.865C122.625 136.424 122.982 136.067 123.423 136.067C123.863 136.067 124.22 136.424 124.22 136.865ZM123.423 134.471C123.863 134.471 124.22 134.114 124.22 133.674C124.22 133.233 123.863 132.876 123.423 132.876C122.982 132.876 122.625 133.233 122.625 133.674C122.625 134.114 122.982 134.471 123.423 134.471ZM124.22 130.482C124.22 130.923 123.863 131.28 123.423 131.28C122.982 131.28 122.625 130.923 122.625 130.482C122.625 130.042 122.982 129.685 123.423 129.685C123.863 129.685 124.22 130.042 124.22 130.482ZM123.423 128.089C123.863 128.089 124.22 127.732 124.22 127.291C124.22 126.851 123.863 126.494 123.423 126.494C122.982 126.494 122.625 126.851 122.625 127.291C122.625 127.732 122.982 128.089 123.423 128.089ZM127.412 143.247C127.412 143.688 127.054 144.045 126.614 144.045C126.173 144.045 125.816 143.688 125.816 143.247C125.816 142.806 126.173 142.449 126.614 142.449C127.054 142.449 127.412 142.806 127.412 143.247ZM126.614 140.854C127.054 140.854 127.412 140.496 127.412 140.056C127.412 139.615 127.054 139.258 126.614 139.258C126.173 139.258 125.816 139.615 125.816 140.056C125.816 140.496 126.173 140.854 126.614 140.854ZM127.412 136.865C127.412 137.305 127.054 137.663 126.614 137.663C126.173 137.663 125.816 137.305 125.816 136.865C125.816 136.424 126.173 136.067 126.614 136.067C127.054 136.067 127.412 136.424 127.412 136.865ZM126.614 134.471C127.054 134.471 127.412 134.114 127.412 133.674C127.412 133.233 127.054 132.876 126.614 132.876C126.173 132.876 125.816 133.233 125.816 133.674C125.816 134.114 126.173 134.471 126.614 134.471ZM127.412 130.482C127.412 130.923 127.054 131.28 126.614 131.28C126.173 131.28 125.816 130.923 125.816 130.482C125.816 130.042 126.173 129.685 126.614 129.685C127.054 129.685 127.412 130.042 127.412 130.482ZM126.614 128.089C127.054 128.089 127.412 127.732 127.412 127.291C127.412 126.851 127.054 126.494 126.614 126.494C126.173 126.494 125.816 126.851 125.816 127.291C125.816 127.732 126.173 128.089 126.614 128.089ZM130.603 143.247C130.603 143.688 130.246 144.045 129.805 144.045C129.364 144.045 129.007 143.688 129.007 143.247C129.007 142.806 129.364 142.449 129.805 142.449C130.246 142.449 130.603 142.806 130.603 143.247ZM129.805 140.854C130.246 140.854 130.603 140.496 130.603 140.056C130.603 139.615 130.246 139.258 129.805 139.258C129.364 139.258 129.007 139.615 129.007 140.056C129.007 140.496 129.364 140.854 129.805 140.854ZM130.603 136.865C130.603 137.305 130.246 137.663 129.805 137.663C129.364 137.663 129.007 137.305 129.007 136.865C129.007 136.424 129.364 136.067 129.805 136.067C130.246 136.067 130.603 136.424 130.603 136.865ZM129.805 134.471C130.246 134.471 130.603 134.114 130.603 133.674C130.603 133.233 130.246 132.876 129.805 132.876C129.364 132.876 129.007 133.233 129.007 133.674C129.007 134.114 129.364 134.471 129.805 134.471ZM130.603 130.482C130.603 130.923 130.246 131.28 129.805 131.28C129.364 131.28 129.007 130.923 129.007 130.482C129.007 130.042 129.364 129.685 129.805 129.685C130.246 129.685 130.603 130.042 130.603 130.482ZM129.805 128.089C130.246 128.089 130.603 127.732 130.603 127.291C130.603 126.851 130.246 126.494 129.805 126.494C129.364 126.494 129.007 126.851 129.007 127.291C129.007 127.732 129.364 128.089 129.805 128.089ZM133.794 143.247C133.794 143.688 133.437 144.045 132.996 144.045C132.556 144.045 132.199 143.688 132.199 143.247C132.199 142.806 132.556 142.449 132.996 142.449C133.437 142.449 133.794 142.806 133.794 143.247ZM132.996 140.854C133.437 140.854 133.794 140.496 133.794 140.056C133.794 139.615 133.437 139.258 132.996 139.258C132.556 139.258 132.199 139.615 132.199 140.056C132.199 140.496 132.556 140.854 132.996 140.854ZM133.794 136.865C133.794 137.305 133.437 137.663 132.996 137.663C132.556 137.663 132.199 137.305 132.199 136.865C132.199 136.424 132.556 136.067 132.996 136.067C133.437 136.067 133.794 136.424 133.794 136.865ZM132.996 134.471C133.437 134.471 133.794 134.114 133.794 133.674C133.794 133.233 133.437 132.876 132.996 132.876C132.556 132.876 132.199 133.233 132.199 133.674C132.199 134.114 132.556 134.471 132.996 134.471ZM133.794 130.482C133.794 130.923 133.437 131.28 132.996 131.28C132.556 131.28 132.199 130.923 132.199 130.482C132.199 130.042 132.556 129.685 132.996 129.685C133.437 129.685 133.794 130.042 133.794 130.482ZM132.996 128.089C133.437 128.089 133.794 127.732 133.794 127.291C133.794 126.851 133.437 126.494 132.996 126.494C132.556 126.494 132.199 126.851 132.199 127.291C132.199 127.732 132.556 128.089 132.996 128.089ZM136.985 143.247C136.985 143.688 136.628 144.045 136.188 144.045C135.747 144.045 135.39 143.688 135.39 143.247C135.39 142.806 135.747 142.449 136.188 142.449C136.628 142.449 136.985 142.806 136.985 143.247ZM136.188 140.854C136.628 140.854 136.985 140.496 136.985 140.056C136.985 139.615 136.628 139.258 136.188 139.258C135.747 139.258 135.39 139.615 135.39 140.056C135.39 140.496 135.747 140.854 136.188 140.854ZM136.985 136.865C136.985 137.305 136.628 137.663 136.188 137.663C135.747 137.663 135.39 137.305 135.39 136.865C135.39 136.424 135.747 136.067 136.188 136.067C136.628 136.067 136.985 136.424 136.985 136.865ZM136.188 134.471C136.628 134.471 136.985 134.114 136.985 133.674C136.985 133.233 136.628 132.876 136.188 132.876C135.747 132.876 135.39 133.233 135.39 133.674C135.39 134.114 135.747 134.471 136.188 134.471ZM136.985 130.482C136.985 130.923 136.628 131.28 136.188 131.28C135.747 131.28 135.39 130.923 135.39 130.482C135.39 130.042 135.747 129.685 136.188 129.685C136.628 129.685 136.985 130.042 136.985 130.482ZM136.188 128.089C136.628 128.089 136.985 127.732 136.985 127.291C136.985 126.851 136.628 126.494 136.188 126.494C135.747 126.494 135.39 126.851 135.39 127.291C135.39 127.732 135.747 128.089 136.188 128.089Z" fill="url(#paint3_linear)"/>
<path d="M36.011 76.3981C25.8264 80.998 17.684 80.9398 11.5838 76.2234C5.48367 71.507 1.62239 64.791 0 56.0754C19.0681 50.3492 31.0718 57.1234 36.011 76.3981Z" fill="url(#paint4_linear)"/>
<path d="M20.973 68.1274C18.7748 66.8804 16.3306 65.4985 13.6403 63.9817L7.39979 65.4761C7.28908 65.5026 7.17792 65.434 7.1515 65.3229C7.12509 65.2118 7.19342 65.1002 7.30413 65.0737L13.1108 63.6833C9.75318 61.7909 6.02128 59.6934 1.91517 57.3909C1.81581 57.3352 1.78027 57.2092 1.83579 57.1095C1.8913 57.0097 2.01685 56.9741 2.11621 57.0298C9.61349 61.234 15.8632 64.7545 20.8658 67.5915L20.2203 61.2428C20.1924 60.9684 20.6024 60.9264 20.6303 61.2008L21.3054 67.8409C27.9751 71.6252 32.361 74.1581 34.4642 75.4401C34.5615 75.4994 34.5924 75.6266 34.5333 75.7242C34.4743 75.8218 34.3475 75.8529 34.2502 75.7936C32.9918 75.0266 30.9127 73.8098 28.0132 72.1433C28.0055 72.1473 27.9976 72.1508 27.9893 72.1538L22.2863 74.244C22.1794 74.2832 22.061 74.228 22.022 74.1207C21.983 74.0134 22.038 73.8946 22.1449 73.8555L27.5469 71.8756C25.6936 70.8118 23.5242 69.5749 21.0389 68.1648C21.0149 68.1568 20.9924 68.1444 20.973 68.1274Z" fill="white"/>
<path d="M33.7304 82.1574C23.2613 78.1911 17.5291 72.387 16.534 64.7451C15.5389 57.1033 17.5431 49.6367 22.5466 42.3455C40.1097 51.8056 43.8377 65.0762 33.7304 82.1574Z" fill="url(#paint5_linear)"/>
<path d="M29.4176 65.745C31.4625 73.1527 32.7761 78.0553 33.3587 80.4538C33.3857 80.5648 33.3181 80.6767 33.2078 80.7038C33.0975 80.7309 32.9862 80.6629 32.9593 80.552C32.6107 79.1168 31.9993 76.7814 31.1252 73.546C31.1171 73.5433 31.109 73.5402 31.101 73.5364L25.6088 70.9677C25.5058 70.9196 25.4611 70.7966 25.509 70.693C25.5569 70.5895 25.6792 70.5446 25.7821 70.5927L30.9846 73.0259C30.4248 70.9589 29.7639 68.5452 29.0018 65.7849C28.9906 65.7622 28.9834 65.7374 28.9816 65.7116C28.3075 63.2704 27.5546 60.5592 26.7229 57.5781L21.2703 54.2067C21.1736 54.1469 21.1434 54.0196 21.2028 53.9223C21.2623 53.825 21.3889 53.7946 21.4857 53.8544L26.5592 56.9914C25.5208 53.2712 24.3625 49.1404 23.0844 44.5992C23.0534 44.4893 23.1169 44.375 23.2262 44.3439C23.3354 44.3128 23.4491 44.3767 23.48 44.4866C25.8137 52.7783 27.7479 59.7016 29.2827 65.2567L33.2899 60.3103C33.463 60.0966 33.7818 60.3578 33.6086 60.5716L29.4176 65.745Z" fill="white"/>
<path d="M44.1542 89.3168C35.5087 96.4101 27.6346 98.4711 20.532 95.4995C13.4293 92.528 7.97272 87.0419 4.16211 79.0414C21.092 68.5497 34.4227 71.9748 44.1542 89.3168Z" fill="url(#paint6_linear)"/>
<path d="M27.7175 84.7121C35.1305 86.6296 40.0168 87.9331 42.3772 88.6231C42.4864 88.655 42.5491 88.7695 42.5172 88.8788C42.4854 88.9882 42.371 89.0509 42.2618 89.019C40.8494 88.6062 38.529 87.9727 35.3008 87.1187C35.2945 87.1245 35.2877 87.1299 35.2805 87.135L30.3143 90.6253C30.2213 90.6907 30.0928 90.6682 30.0275 90.5749C29.9621 90.4817 29.9846 90.3531 30.0777 90.2876L34.7818 86.9815C32.7188 86.437 30.306 85.8076 27.5437 85.0932C27.5184 85.0916 27.4935 85.0855 27.4704 85.0742C25.0273 84.4425 22.3119 83.7445 19.3242 82.9805L13.6857 86.0361C13.5857 86.0903 13.4607 86.0531 13.4066 85.9529C13.3524 85.8527 13.3896 85.7276 13.4897 85.6734L18.7362 82.8302C15.0076 81.8772 10.8649 80.8236 6.30808 79.6694C6.19781 79.6414 6.13104 79.5293 6.15892 79.4189C6.18681 79.3084 6.29881 79.2416 6.40907 79.2695C14.7292 81.3769 21.669 83.149 27.2288 84.5858L24.9696 78.6382C24.872 78.3812 25.257 78.2345 25.3546 78.4915L27.7175 84.7121Z" fill="white"/>
<path d="M11.2019 88.5267H115.452C116.652 88.5267 117.624 89.499 117.624 90.6983V151.533C117.624 152.732 116.652 153.704 115.452 153.704H11.2019C10.0026 153.704 9.0304 152.732 9.0304 151.533V90.6983C9.0304 89.499 10.0026 88.5267 11.2019 88.5267Z" fill="url(#paint7_linear)"/>
<path d="M9.0304 99.3896H117.624V112.425H9.0304V99.3896Z" fill="#211D41"/>
<path fill-rule="evenodd" clip-rule="evenodd" d="M35.0929 130.892H17.7179V135.237H35.0929V130.892ZM30.7491 140.669H17.7179V145.014H30.7491V140.669ZM39.4366 130.892H61.1553V135.237H39.4366V130.892ZM50.2959 140.669H35.0929V145.014H50.2959V140.669Z" fill="white"/>
<path d="M91.7786 145.666C95.8569 145.666 99.163 142.358 99.163 138.279C99.163 134.199 95.8569 130.892 91.7786 130.892C87.7004 130.892 84.3943 134.199 84.3943 138.279C84.3943 142.358 87.7004 145.666 91.7786 145.666Z" fill="#52D7FD"/>
<path d="M99.163 145.666C103.241 145.666 106.547 142.358 106.547 138.279C106.547 134.199 103.241 130.892 99.163 130.892C95.0848 130.892 91.7787 134.199 91.7787 138.279C91.7787 142.358 95.0848 145.666 99.163 145.666Z" fill="white"/>
<path d="M69.6695 15.9248H207.199C209.198 15.9248 210.818 17.5452 210.818 19.5441V120.884C210.818 122.883 209.198 124.503 207.199 124.503H69.6695C67.6707 124.503 66.0503 122.883 66.0503 120.884V19.5441C66.0503 17.5452 67.6707 15.9248 69.6695 15.9248Z" fill="white"/>
<path fill-rule="evenodd" clip-rule="evenodd" d="M134.091 88.3102H73.2887V117.264H134.091V88.3102ZM209.913 88.3102H141.33V117.264H209.913V88.3102Z" fill="#BDDEFF"/>
<path fill-rule="evenodd" clip-rule="evenodd" d="M76.9078 102.244C76.9078 107.242 80.9588 111.293 85.9558 111.293C90.9529 111.293 95.0038 107.242 95.0038 102.244C95.0038 97.2472 90.9529 93.1962 85.9558 93.1962C80.9588 93.1962 76.9078 97.2472 76.9078 102.244ZM112.376 93.1962H99.1659V96.8155H112.376V93.1962ZM99.1659 107.673H130.472V111.293H99.1659V107.673ZM130.472 100.435H99.1659V104.054H130.472V100.435Z" fill="white"/>
<path d="M159.968 111.835C164.965 111.835 169.016 107.784 169.016 102.787C169.016 97.7901 164.965 93.7391 159.968 93.7391C154.971 93.7391 150.92 97.7901 150.92 102.787C150.92 107.784 154.971 111.835 159.968 111.835Z" fill="white"/>
<path d="M159.968 93.7391C154.971 93.7391 150.92 97.7901 150.92 102.787H159.968C159.968 99.0025 159.968 95.9865 159.968 93.7391Z" fill="url(#paint8_linear)"/>
<path d="M185.303 111.835C190.3 111.835 194.351 107.784 194.351 102.787C194.351 97.7901 190.3 93.7391 185.303 93.7391C180.306 93.7391 176.255 97.7901 176.255 102.787C176.255 107.784 180.306 111.835 185.303 111.835Z" fill="white"/>
<path d="M185.303 102.548C185.303 102.708 185.303 105.803 185.303 111.836C190.3 111.836 194.351 107.785 194.351 102.787C194.351 102.787 191.335 102.708 185.303 102.548Z" fill="url(#paint9_linear)"/>
<path fill-rule="evenodd" clip-rule="evenodd" d="M188.922 38.0024H174.445V81.6146H188.922V38.0024ZM152.73 45.2409H167.207V81.6146H152.73V45.2409ZM145.492 56.6416H131.015V81.6146H145.492V56.6416ZM123.776 68.0423H109.3V81.6146H123.776V68.0423Z" fill="url(#paint10_linear)"/>
<path fill-rule="evenodd" clip-rule="evenodd" d="M95.0039 38.1833H73.2887V40.8978H95.0039V38.1833ZM73.2887 46.3267H95.0039V49.0412H73.2887V46.3267ZM95.0039 54.4701H73.2887V57.1845H95.0039V54.4701ZM73.2887 62.6134H95.0039V65.3279H73.2887V62.6134ZM95.0039 70.7568H73.2887V73.4712H95.0039V70.7568ZM95.0039 78.9002H73.2887V81.6146H95.0039V78.9002Z" fill="#BDDEFF"/>
<path d="M69.6695 15.9248H207.199C209.198 15.9248 210.818 17.5452 210.818 19.5441V30.4019H66.0503V19.5441C66.0503 17.5452 67.6707 15.9248 69.6695 15.9248Z" fill="#3B97FC"/>
<path d="M206.682 151.138C207.48 150.666 208.225 150.304 208.917 150.052C209.955 149.674 210.022 150.062 210.022 150.508C210.022 150.954 210.022 151.955 210.022 152.764C210.022 153.573 209.772 153.662 208.348 153.565C206.924 153.468 206.75 153.336 205.256 153.565C203.762 153.794 200.748 153.75 200.09 152.7C199.433 151.65 201.554 151.219 203.407 150.967C204.643 150.8 205.735 150.856 206.682 151.138Z" fill="#021038"/>
<path d="M210.016 146.39V150.719L209.077 151.086C207.371 151.753 205.467 151.693 203.806 150.92L206.102 150.425V146.39H210.016Z" fill="#FE9F9F"/>
<path d="M226.147 148.695C226.735 147.978 227.311 147.383 227.875 146.91C228.722 146.2 228.918 146.542 229.07 146.961C229.223 147.38 229.565 148.321 229.842 149.081C230.118 149.84 229.913 150.01 228.542 150.406C227.171 150.801 226.962 150.737 225.637 151.463C224.312 152.189 221.464 153.179 220.487 152.417C219.51 151.655 221.355 150.525 223.011 149.654C224.115 149.074 225.16 148.754 226.147 148.695Z" fill="#021038"/>
<path d="M199.211 64.4052L204.508 76.6756L195.85 83.0556L189.819 70.2956L199.211 64.4052Z" fill="white"/>
<path d="M227.656 143.093L229.136 147.161L228.38 147.827C227.005 149.037 225.195 149.632 223.37 149.474L225.358 148.223L223.978 144.432L227.656 143.093Z" fill="#FE9F9F"/>
<path d="M215.982 85.7723L218.286 93.3173L223.12 126.963L229.167 145.488L224.333 146.944L214.551 128.412L208.809 100.254L215.982 85.7723Z" fill="#021038"/>
<path d="M195.335 80.3618C194.88 79.753 194.721 78.9984 194.859 78.098C194.996 77.1975 194.871 76.4925 194.486 75.9829L193.328 77.6781L191.713 74.1951C191.19 76.3766 191.19 77.9077 191.713 78.7886C192.236 79.6695 193.16 80.8503 194.486 82.3311L195.335 80.3618Z" fill="#FE9F9F"/>
<path d="M205.461 149.09C202.842 109.777 201.532 88.8706 201.532 86.3702C201.532 82.6197 217.834 75.8404 217.834 86.3702C217.834 88.8119 217.93 91.2209 218.122 93.5973C218.389 96.8997 217.897 100.219 216.684 103.302L213.412 111.615L211.092 149.09H205.461Z" fill="#312C74"/>
<path d="M218.639 94.9578C210.988 95.8581 208.36 96.14 202.002 95.8655C201.743 91.4396 201.532 87.1565 201.532 86.3703C201.532 84.3058 201.163 79.0983 200.424 70.7477C200.41 70.5939 200.403 70.4395 200.403 70.2851C200.403 67.3868 202.753 65.0372 205.651 65.0372L215.031 65.0372C215.075 65.0372 215.118 65.038 215.162 65.0396C217.079 65.112 218.575 66.7252 218.503 68.6427L217.834 86.3703C218.146 89.7449 218.415 92.6074 218.639 94.9578Z" fill="url(#paint11_linear)"/>
<path d="M206.998 71.5115V80.6909C206.998 82.687 206.324 84.6246 205.086 86.1904C203.955 87.6209 202.824 89.0513 201.693 90.4818C201.616 88.9677 201.532 86.7995 201.532 86.3703C201.532 85.614 201.482 84.4359 201.383 82.8361C202.865 82.8361 204.737 79.0612 206.998 71.5115Z" fill="#211D41"/>
<path d="M197.26 46.067C196.857 44.9228 196.406 44.2387 195.904 44.0146C195.152 43.6786 194.28 42.6589 195.352 41.5733L196.091 40.9178L194.351 38.615C194.483 38.4493 195.001 38.5787 195.904 39.0035C197.26 39.6407 198.177 40.521 198.66 41.977C199.143 43.4329 198.903 43.981 200.528 46.3501L197.808 47.1063L197.26 46.067Z" fill="#FE9F9F"/>
<path d="M203.531 62.4599L196.89 45.7357L200.184 44.517L207.756 55.2643L203.531 62.4599Z" fill="url(#paint12_linear)"/>
<path d="M203.611 66.5757C204.198 66.5898 204.958 66.8174 205.892 67.2583C206.825 67.6992 207.275 68.5851 207.239 69.9159L206.36 79.9537C206.249 81.2237 205.791 82.4387 205.035 83.4656L201.899 87.7294C201.74 87.9444 201.55 88.1339 201.334 88.2911C200.171 89.1388 198.541 88.8831 197.694 87.7201L192.98 81.2526L195.268 79.5089L198.714 82.3345L200.222 80.6819C200.362 78.1397 200.431 75.0483 200.431 71.4075C200.431 67.7667 201.491 66.1561 203.611 66.5757Z" fill="url(#paint13_linear)"/>
<path d="M216.278 79.5332C211.995 78.6504 209.678 76.5857 209.325 73.339C208.797 68.469 208.317 67.6674 206.684 67.32C205.05 66.9726 202.961 64.8931 202.961 59.8913V53.3432C202.961 50.225 205.488 47.6971 208.607 47.6971H209.741C212.859 47.6971 215.387 50.225 215.387 53.3432V59.8913C215.54 62.445 216.19 64.3215 217.337 65.5209C219.057 67.32 221.301 69.4475 219.948 74.1354C219.046 77.2606 217.823 79.0599 216.278 79.5332Z" fill="url(#paint14_linear)"/>
<path fill-rule="evenodd" clip-rule="evenodd" d="M208.08 101.153H208.442V99.8859H208.08V101.153ZM208.442 104.229H208.08V102.962H208.442V104.229ZM208.08 107.305H208.442V106.039H208.08V107.305ZM208.442 110.382H208.08V109.115H208.442V110.382ZM208.08 113.458H208.442V112.191H208.08V113.458ZM208.442 116.535H208.08V115.268H208.442V116.535ZM208.08 119.611H208.442V118.344H208.08V119.611ZM208.442 122.687H208.08V121.421H208.442V122.687ZM208.08 125.764H208.442V124.497H208.08V125.764ZM208.442 128.84H208.08V127.573H208.442V128.84ZM208.08 131.916H208.442V130.65H208.08V131.916ZM208.442 134.993H208.08V133.726H208.442V134.993ZM208.08 138.069H208.442V136.802H208.08V138.069ZM208.442 141.146H208.08V139.879H208.442V141.146ZM208.08 144.222H208.442V142.955H208.08V144.222ZM208.08 147.298H208.442V146.032H208.08V147.298Z" fill="#A587FF"/>
<path d="M66.0316 37.3933L45.1877 52.4559L39.4365 46.3267L66.0491 33.0987L66.0316 37.3933Z" fill="#221E41"/>
<path d="M37.582 74.2689L48.9195 81.5883L55.3615 88.5341H35.9963V78.3546L37.582 74.2689Z" fill="#211D41"/>
<path d="M77.3312 106.592L75.7306 104.104L79.2996 102.163L80.6297 105.228L77.3312 106.592Z" fill="#FE9F9F"/>
<path d="M76.7891 106.558L80.3844 104.565L83.0834 104.063C84.4563 103.833 85.5149 103.464 86.2207 104.737C86.402 105.064 86.3323 105.449 86.0649 105.597L79.3215 109.335C78.902 109.568 78.3733 109.416 78.1407 108.997L76.7891 106.558Z" fill="#211D41"/>
<path d="M47.0764 47.0413L41.7162 46.2879L42.0045 44.2368C41.0393 42.1822 41.0512 39.5189 42.0404 36.247C43.0296 32.9752 45.799 32.4534 50.3486 34.6818C50.2074 36.6303 50.5421 37.9204 51.3525 38.5521C52.5682 39.4996 52.0962 40.1584 51.6017 40.315C51.1072 40.4716 50.7534 40.8062 50.7349 41.945C50.7164 43.0838 50.0025 43.2094 48.8767 43.5021C48.1261 43.6973 47.526 44.877 47.0764 47.0413Z" fill="#E9A17C"/>
<path d="M41.9382 44.1835C41.4634 44.0044 41.1904 43.7074 41.119 43.2924C41.0121 42.6698 41.3743 42.3811 40.1503 41.1007C38.9262 39.8203 37.9442 38.1282 38.7248 35.1841C39.5054 32.2399 41.2724 32.0006 43.0347 31.8511C44.7969 31.7015 45.5122 31.9072 47.9344 31.1162C50.3566 30.3251 51.5745 31.9015 51.0437 34.3069C50.513 36.7123 46.8725 36.6196 46.2331 36.5297C45.5938 36.4399 45.909 37.4009 45.9719 38.3886C46.0348 39.3762 45.4029 39.5888 45.1722 39.4488C44.9415 39.3088 44.4512 39.1449 44.0038 39.6881C43.5564 40.2314 43.9906 41.0986 44.3418 41.1479C44.6931 41.1973 45.1608 41.0965 45.1763 41.4966C45.1917 41.8967 44.9766 43.1273 44.564 43.7765C44.2889 44.2093 43.4136 44.345 41.9382 44.1835Z" fill="url(#paint15_linear)"/>
<path d="M38.421 75.7482L53.3983 77.8143L69.1454 83.1262C71.0939 83.7835 72.6823 85.22 73.5314 87.093L80.7283 102.968L75.3444 104.65L64.7745 90.1198L48.3811 89.7478C41.8183 89.977 36.3123 84.8425 36.0831 78.2795L38.421 75.7482Z" fill="url(#paint16_linear)"/>
<path d="M58.269 47.7439H69.2298L84.5984 40.0229L86.0532 38.1833V39.862H89.7253C89.3707 41.7695 88.6701 42.9592 87.6233 43.4313C86.5766 43.9034 85.0647 43.9034 83.0877 43.4313L69.4458 53.5416L58.269 55.1334V47.7439Z" fill="#E9A17C"/>
<path d="M60.0968 46.9667L59.3234 55.5558L52.8327 55.7368L53.6478 77.7498L35.9952 78.3663L35.1245 53.4326C34.978 49.2375 38.2599 45.718 42.4549 45.5715L44.8365 45.4883C46.4727 45.4312 54.9402 46.4832 60.0968 46.9667Z" fill="url(#paint17_linear)"/>
<path fill-rule="evenodd" clip-rule="evenodd" d="M44.2612 79.4711L44.1296 79.5953C44.4304 79.9138 44.7229 80.219 45.0072 80.5107L45.1368 80.3843C44.8532 80.0934 44.5613 79.7889 44.2612 79.4711ZM46.4165 81.66L46.2908 81.7903C46.6122 82.1004 46.9209 82.3897 47.2169 82.6583L47.3385 82.5243C47.0439 82.257 46.7365 81.9689 46.4165 81.66ZM48.6002 83.8352L48.7119 83.6929C49.0801 83.9819 49.4209 84.2263 49.7341 84.4261L49.6368 84.5787C49.3183 84.3755 48.9728 84.1277 48.6002 83.8352ZM51.3545 85.0969L51.3339 85.2767L52.5924 85.421L52.613 85.2412L51.3545 85.0969ZM54.3902 85.6272L54.4108 85.4474L55.6693 85.5917L55.6486 85.7715L54.3902 85.6272ZM57.4671 85.7979L57.4465 85.9776L58.7049 86.122L58.7255 85.9422L57.4671 85.7979ZM60.5027 86.3281L60.5234 86.1483L61.7818 86.2927L61.7612 86.4724L60.5027 86.3281ZM63.5797 86.4988L63.559 86.6786L64.8175 86.8229L64.8381 86.6431L63.5797 86.4988ZM66.5756 87.1548L66.6322 86.9829C67.0404 87.1173 67.4336 87.2923 67.8063 87.5049L67.7166 87.6621C67.3544 87.4554 66.9722 87.2854 66.5756 87.1548ZM69.2507 88.6293L69.1204 88.7548C69.4092 89.0549 69.6677 89.3835 69.892 89.7365L70.0447 89.6395C69.814 89.2762 69.5479 88.9381 69.2507 88.6293ZM70.7771 91.3157L70.9356 91.2283L71.5477 92.3373L71.3892 92.4248L70.7771 91.3157ZM72.4221 93.9217L72.2636 94.0091L72.8757 95.1182L73.0342 95.0307L72.4221 93.9217ZM73.7502 96.7025L73.9086 96.6151L74.5207 97.7241L74.3623 97.8115L73.7502 96.7025ZM75.3951 99.3084L75.2367 99.3959L75.8488 100.505L76.0072 100.417L75.3951 99.3084Z" fill="white"/>
<path d="M86.6798 19.5441H115.09C115.49 19.5441 115.814 19.8681 115.814 20.2679V48.6792C115.814 49.079 115.49 49.4031 115.09 49.4031H86.6798C86.28 49.4031 85.9559 49.079 85.9559 48.6792V20.2679C85.9559 19.8681 86.28 19.5441 86.6798 19.5441Z" fill="#52D7FD"/>
<path fill-rule="evenodd" clip-rule="evenodd" d="M93.9182 30.6126H101.313V32.9354L108.033 28.1398L101.313 23.3443V25.6946H93.9182V30.6126ZM100.638 45.6028V43.28H108.033V38.3621H100.638V36.0117L93.9182 40.8073L100.638 45.6028Z" fill="#2EB3DA"/>
<defs>
<linearGradient id="paint0_linear" x1="-4.72638" y1="7.15137" x2="-4.72638" y2="148.708" gradientUnits="userSpaceOnUse">
<stop stop-color="#D0F6FF"/>
<stop offset="1" stop-color="#8BE2F7"/>
</linearGradient>
<linearGradient id="paint1_linear" x1="155.747" y1="141.715" x2="162.784" y2="155.703" gradientUnits="userSpaceOnUse">
<stop stop-color="#CFE49F"/>
<stop offset="1" stop-color="#A9D386"/>
</linearGradient>
<linearGradient id="paint2_linear" x1="184.315" y1="110.941" x2="184.315" y2="152.649" gradientUnits="userSpaceOnUse">
<stop stop-color="#55D0FF"/>
<stop offset="1" stop-color="#32A2FE"/>
</linearGradient>
<linearGradient id="paint3_linear" x1="119.433" y1="126.494" x2="119.433" y2="144.045" gradientUnits="userSpaceOnUse">
<stop stop-color="#FF9485"/>
<stop offset="1" stop-color="#FF676E"/>
</linearGradient>
<linearGradient id="paint4_linear" x1="-3.61882" y1="63.6756" x2="9.18033" y2="77.3962" gradientUnits="userSpaceOnUse">
<stop stop-color="#CFE49F"/>
<stop offset="1" stop-color="#A9D386"/>
</linearGradient>
<linearGradient id="paint5_linear" x1="18.0316" y1="50.0056" x2="32.1314" y2="64.0601" gradientUnits="userSpaceOnUse">
<stop stop-color="#77D791"/>
<stop offset="1" stop-color="#4FA67E"/>
</linearGradient>
<linearGradient id="paint6_linear" x1="-5.1004" y1="90.2205" x2="20.7652" y2="115.812" gradientUnits="userSpaceOnUse">
<stop stop-color="#6EAE7C"/>
<stop offset="1" stop-color="#0F575D"/>
</linearGradient>
<linearGradient id="paint7_linear" x1="9.0304" y1="88.5267" x2="9.0304" y2="153.704" gradientUnits="userSpaceOnUse">
<stop stop-color="#4DBCFA"/>
<stop offset="1" stop-color="#1486DB"/>
</linearGradient>
<linearGradient id="paint8_linear" x1="147.552" y1="88.948" x2="147.552" y2="110.629" gradientUnits="userSpaceOnUse">
<stop stop-color="#1533B6"/>
<stop offset="1" stop-color="#356BE9"/>
</linearGradient>
<linearGradient id="paint9_linear" x1="181.934" y1="97.6303" x2="181.934" y2="119.884" gradientUnits="userSpaceOnUse">
<stop stop-color="#1533B6"/>
<stop offset="1" stop-color="#356BE9"/>
</linearGradient>
<linearGradient id="paint10_linear" x1="109.3" y1="38.0024" x2="109.3" y2="81.6146" gradientUnits="userSpaceOnUse">
<stop stop-color="#FF9485"/>
<stop offset="1" stop-color="#FF676E"/>
</linearGradient>
<linearGradient id="paint11_linear" x1="197.908" y1="56.5737" x2="197.908" y2="95.9662" gradientUnits="userSpaceOnUse">
<stop stop-color="#C0E4FD"/>
<stop offset="1" stop-color="#72B9FE"/>
</linearGradient>
<linearGradient id="paint12_linear" x1="195.403" y1="39.6071" x2="195.403" y2="62.4599" gradientUnits="userSpaceOnUse">
<stop stop-color="#C0E4FD"/>
<stop offset="1" stop-color="#72B9FE"/>
</linearGradient>
<linearGradient id="paint13_linear" x1="191.029" y1="60.4138" x2="191.029" y2="88.7913" gradientUnits="userSpaceOnUse">
<stop stop-color="#C0E4FD"/>
<stop offset="1" stop-color="#72B9FE"/>
</linearGradient>
<linearGradient id="paint14_linear" x1="202.961" y1="47.6971" x2="202.961" y2="79.5332" gradientUnits="userSpaceOnUse">
<stop stop-color="#1D2A78"/>
<stop offset="1" stop-color="#12033B"/>
</linearGradient>
<linearGradient id="paint15_linear" x1="38.446" y1="30.9101" x2="38.446" y2="44.2493" gradientUnits="userSpaceOnUse">
<stop stop-color="#1D2A78"/>
<stop offset="1" stop-color="#12033B"/>
</linearGradient>
<linearGradient id="paint16_linear" x1="19.4611" y1="60.4442" x2="19.4611" y2="129.698" gradientUnits="userSpaceOnUse">
<stop stop-color="#1533B6"/>
<stop offset="1" stop-color="#356BE9"/>
</linearGradient>
<linearGradient id="paint17_linear" x1="35.1198" y1="45.4861" x2="35.1198" y2="78.3663" gradientUnits="userSpaceOnUse">
<stop stop-color="#FF9485"/>
<stop offset="1" stop-color="#FF676E"/>
</linearGradient>
</defs>
</svg>
