<svg width="24" height="24" viewBox="0 0 24 24" fill="none" xmlns="http://www.w3.org/2000/svg">
<rect x="0.333333" y="0.333333" width="23.3333" height="23.3333" rx="6.33333" stroke="white" stroke-width="0.666667"/>
<path d="M15.8097 6.47635C15.4941 6.47635 15.2383 6.22052 15.2383 5.90492C15.2383 5.58933 15.4941 5.3335 15.8097 5.3335H16.5716C17.7288 5.3335 18.6668 6.27157 18.6668 7.42873V8.19064C18.6668 8.50623 18.411 8.76207 18.0954 8.76207C17.7798 8.76207 17.524 8.50623 17.524 8.19064V7.42873C17.524 6.90275 17.0976 6.47635 16.5716 6.47635H15.8097Z" fill="#92929D"/>
<path d="M9.71445 8.57159H14.2859C14.9171 8.57159 15.4287 9.08327 15.4287 9.71445V14.2859C15.4287 14.9171 14.9171 15.4287 14.2859 15.4287H9.71445C9.08327 15.4287 8.57159 14.9171 8.57159 14.2859V9.71445C8.57159 9.08327 9.08327 8.57159 9.71445 8.57159Z" fill="#92929D"/>
<path d="M18.0954 15.2383C17.7798 15.2383 17.524 15.4941 17.524 15.8097V16.5716C17.524 17.0976 17.0976 17.524 16.5716 17.524H15.8097C15.4941 17.524 15.2383 17.7798 15.2383 18.0954C15.2383 18.411 15.4941 18.6668 15.8097 18.6668H16.5716C17.7288 18.6668 18.6668 17.7288 18.6668 16.5716V15.8097C18.6668 15.4941 18.411 15.2383 18.0954 15.2383Z" fill="#92929D"/>
<path d="M8.18366 17.524C8.49925 17.524 8.75509 17.7798 8.75509 18.0954C8.75509 18.411 8.49925 18.6668 8.18366 18.6668H7.42873C6.27157 18.6668 5.3335 17.7288 5.3335 16.5716V15.8097C5.3335 15.4941 5.58933 15.2383 5.90492 15.2383C6.22052 15.2383 6.47635 15.4941 6.47635 15.8097V16.5716C6.47635 17.0976 6.90275 17.524 7.42873 17.524H8.18366Z" fill="#92929D"/>
<path d="M5.90492 8.7217C6.22052 8.7217 6.47635 8.46587 6.47635 8.15027V7.42873C6.47635 6.90275 6.90275 6.47635 7.42873 6.47635H8.17167C8.48726 6.47635 8.74309 6.22052 8.74309 5.90492C8.74309 5.58933 8.48726 5.3335 8.17167 5.3335H7.42873C6.27157 5.3335 5.3335 6.27157 5.3335 7.42873V8.15027C5.3335 8.46587 5.58933 8.7217 5.90492 8.7217Z" fill="#92929D"/>
</svg>
