<svg xmlns="http://www.w3.org/2000/svg" viewBox="0 0 64 64"><linearGradient id="a" x1="30" x2="30" y1="16.702" y2="40.336" gradientUnits="userSpaceOnUse"><stop offset="0" stop-color="#6dc7ff"/><stop offset="1" stop-color="#e6abff"/></linearGradient><path fill="url(#a)" d="M34 29.001h-8c-.551 0-1-.449-1-1v-4c0-.551.449-1 1-1h10v-2h-4.996L31 18.999l-2 .004.004 1.998H26c-1.654 0-3 1.346-3 3v4c0 1.654 1.346 3 3 3h8c.551 0 1 .449 1 1v3c0 .551-.449 1-1 1H23v2h6v2h2v-2h3c1.654 0 3-1.346 3-3v-3c0-1.654-1.346-3-3-3z"/><linearGradient id="b" x1="32" x2="32" y1="2.277" y2="50.727" gradientUnits="userSpaceOnUse"><stop offset="0" stop-color="#1a6dff"/><stop offset="1" stop-color="#c822ff"/></linearGradient><path fill="url(#b)" d="M52.731 37.629C53.544 35.231 54 32.67 54 30 54 16.767 43.233 6 30 6S6 16.767 6 30s10.767 24 24 24c2.669 0 5.227-.463 7.627-1.272C39.563 55.884 43.034 58 47 58c6.065 0 11-4.935 11-11 0-3.964-2.115-7.435-5.269-9.371zM30 52C17.869 52 8 42.131 8 30S17.869 8 30 8s22 9.869 22 22c0 2.353-.408 4.603-1.101 6.727-.62-.236-1.265-.42-1.933-.541C49.614 34.235 50 32.166 50 30c0-11.028-8.972-20-20-20s-20 8.972-20 20 8.972 20 20 20c2.165 0 4.239-.369 6.189-1.014.123.669.308 1.315.547 1.937C34.61 51.61 32.352 52 30 52zm6.003-5.051C34.123 47.619 32.107 48 30 48c-9.925 0-18-8.075-18-18s8.075-18 18-18 18 8.075 18 18c0 2.115-.411 4.124-1.094 6.005-6.005.051-10.876 4.934-10.903 10.944zM47 56c-4.962 0-9-4.038-9-9s4.038-9 9-9 9 4.038 9 9-4.038 9-9 9z"/><linearGradient id="c" x1="47" x2="47" y1="2.277" y2="50.727" gradientUnits="userSpaceOnUse"><stop offset="0" stop-color="#1a6dff"/><stop offset="1" stop-color="#c822ff"/></linearGradient><path fill="url(#c)" d="M48 42h-2v4h-4v2h4v4h2v-4h4v-2h-4z"/></svg>