<svg xmlns="http://www.w3.org/2000/svg" viewBox="0 0 64 64"><linearGradient id="a" x1="32" x2="32" y1="46.149" y2="54.355" gradientUnits="userSpaceOnUse"><stop offset="0" stop-color="#6dc7ff"/><stop offset="1" stop-color="#e6abff"/></linearGradient><path fill="url(#a)" d="M44 54H20a4 4 0 01-4-4v-4h32v4a4 4 0 01-4 4z"/><linearGradient id="b" x1="32" x2="32" y1="6.234" y2="56.633" gradientUnits="userSpaceOnUse"><stop offset="0" stop-color="#1a6dff"/><stop offset="1" stop-color="#c822ff"/></linearGradient><path fill="url(#b)" d="M52 40H10v2h2v9c0 3.86 3.141 7 7 7h26c3.859 0 7-3.14 7-7v-9h2v-2h-2zm-2 11c0 2.757-2.243 5-5 5H19c-2.757 0-5-2.243-5-5v-9h36v9z"/><linearGradient id="c" x1="32" x2="32" y1="6.234" y2="56.633" gradientUnits="userSpaceOnUse"><stop offset="0" stop-color="#1a6dff"/><stop offset="1" stop-color="#c822ff"/></linearGradient><path fill="url(#c)" d="M17.5 27h22c2.31 0 4.197-1.756 4.449-4H48c2.206 0 4-1.794 4-4a3.992 3.992 0 00-2-3.451V14c0-2.206-1.794-4-4-4-.853 0-1.644.268-2.294.725A5.51 5.51 0 0038.5 7c-2.939 0-5.341 2.32-5.486 5.225A5.483 5.483 0 0031 13.26V13c0-3.86-3.141-7-7-7s-7 3.14-7 7v3.022c-2.8.253-5 2.613-5 5.478 0 3.033 2.468 5.5 5.5 5.5zm21-18c1.93 0 3.5 1.57 3.5 3.5V14h2c0-1.103.897-2 2-2s2 .897 2 2v1h-2v2h2.302l.352.123A1.995 1.995 0 0150 19c0 1.103-.897 2-2 2h-4.269A4.502 4.502 0 0040 18.028V17.5a5.507 5.507 0 00-4.952-5.472C35.281 10.323 36.732 9 38.5 9zm-21 9H21v-2h-2v-3c0-2.757 2.243-5 5-5s5 2.243 5 5v4.5h2c0-1.93 1.57-3.5 3.5-3.5s3.5 1.57 3.5 3.5v.5h-2v2h3.5c1.379 0 2.5 1.122 2.5 2.5S40.879 25 39.5 25h-22c-1.93 0-3.5-1.57-3.5-3.5s1.57-3.5 3.5-3.5z"/><linearGradient id="d" x1="24" x2="24" y1="6.234" y2="56.633" gradientUnits="userSpaceOnUse"><stop offset="0" stop-color="#1a6dff"/><stop offset="1" stop-color="#c822ff"/></linearGradient><path fill="url(#d)" d="M24 12c.552 0 1 .449 1 1h2c0-1.654-1.346-3-3-3s-3 1.346-3 3h2c0-.551.448-1 1-1z"/><linearGradient id="e" x1="26.421" x2="26.421" y1="22.404" y2="31.089" gradientUnits="userSpaceOnUse"><stop offset="0" stop-color="#6dc7ff"/><stop offset="1" stop-color="#e6abff"/></linearGradient><path fill="url(#e)" d="M29.92 28.46c0 1.985-1.613 3.587-3.584 3.539-1.162-.028-2.233-.692-2.869-1.678-1.625-2.52.756-5.549 2.117-6.963a1.156 1.156 0 011.672 0c1.035 1.077 2.664 3.089 2.664 5.102z"/><g><linearGradient id="f" x1="38.017" x2="38.017" y1="28.383" y2="36.69" gradientUnits="userSpaceOnUse"><stop offset="0" stop-color="#6dc7ff"/><stop offset="1" stop-color="#e6abff"/></linearGradient><path fill="url(#f)" d="M41.08 33.777c0 1.737-1.412 3.139-3.136 3.097-1.017-.024-1.954-.605-2.51-1.469-1.422-2.205.662-4.856 1.852-6.092a1.01 1.01 0 011.463 0c.905.942 2.331 2.703 2.331 4.464z"/></g></svg>