<svg xmlns="http://www.w3.org/2000/svg" viewBox="0 0 64 64">
  <defs/>
  <linearGradient id="a" x1="16" x2="59" y1="19.5" y2="19.5" gradientUnits="userSpaceOnUse" spreadMethod="reflect">
    <stop offset="0" stop-color="#1a6dff"/>
    <stop offset="1" stop-color="#c822ff"/>
  </linearGradient>
  <path fill="url(#a)" d="M16 17h43v5H16z"/>
  <linearGradient id="b" x1="37" x2="37" y1="16.75" y2="22.251" gradientUnits="userSpaceOnUse" spreadMethod="reflect">
    <stop offset="0" stop-color="#6dc7ff"/>
    <stop offset="1" stop-color="#e6abff"/>
  </linearGradient>
  <path fill="url(#b)" d="M15 18h44v4H15z"/>
  <linearGradient id="c" x1="14" x2="14" y1="28.375" y2="35.876" gradientUnits="userSpaceOnUse" spreadMethod="reflect">
    <stop offset="0" stop-color="#6dc7ff"/>
    <stop offset="1" stop-color="#e6abff"/>
  </linearGradient>
  <path fill="url(#c)" d="M18 35h-8c-.552 0-1-.448-1-1v-4c0-.552.448-1 1-1h8c.552 0 1 .448 1 1v4c0 .552-.448 1-1 1z"/>
  <linearGradient id="d" x1="32" x2="32" y1="9.667" y2="54.552" gradientUnits="userSpaceOnUse" spreadMethod="reflect">
    <stop offset="0" stop-color="#1a6dff"/>
    <stop offset="1" stop-color="#c822ff"/>
  </linearGradient>
  <path fill="url(#d)" d="M56 10H18c-2.757 0-5 2.243-5 5v5H8c-2.757 0-5 2.243-5 5v24c0 2.757 2.243 5 5 5h38c2.757 0 5-2.243 5-5v-5h5c2.757 0 5-2.243 5-5V15c0-2.757-2.243-5-5-5zm-7 39c0 1.654-1.346 3-3 3H8c-1.654 0-3-1.346-3-3V25c0-1.654 1.346-3 3-3h38c1.654 0 3 1.346 3 3v24zm-3-29H15v-2h44v4h-9v.031C49.088 20.806 47.641 20 46 20zm13 19c0 1.654-1.346 3-3 3h-5v-7h4v-2h-4v-2h4v-2h-4v-4c0-.342-.035-.677-.101-1H59v15zM15 16v-1c0-1.654 1.346-3 3-3h38c1.654 0 3 1.346 3 3v1H15z"/>
  <linearGradient id="e" x1="40" x2="40" y1="9.667" y2="54.552" gradientUnits="userSpaceOnUse" spreadMethod="reflect">
    <stop offset="0" stop-color="#1a6dff"/>
    <stop offset="1" stop-color="#c822ff"/>
  </linearGradient>
  <path fill="url(#e)" d="M35 29h10v2H35z"/>
  <linearGradient id="f" x1="42" x2="42" y1="9.667" y2="54.552" gradientUnits="userSpaceOnUse" spreadMethod="reflect">
    <stop offset="0" stop-color="#1a6dff"/>
    <stop offset="1" stop-color="#c822ff"/>
  </linearGradient>
  <path fill="url(#f)" d="M39 39h6v2h-6z"/>
  <linearGradient id="g" x1="32" x2="32" y1="9.667" y2="54.552" gradientUnits="userSpaceOnUse" spreadMethod="reflect">
    <stop offset="0" stop-color="#1a6dff"/>
    <stop offset="1" stop-color="#c822ff"/>
  </linearGradient>
  <path fill="url(#g)" d="M29 39h6v2h-6z"/>
  <linearGradient id="h" x1="22" x2="22" y1="9.667" y2="54.552" gradientUnits="userSpaceOnUse" spreadMethod="reflect">
    <stop offset="0" stop-color="#1a6dff"/>
    <stop offset="1" stop-color="#c822ff"/>
  </linearGradient>
  <path fill="url(#h)" d="M19 39h6v2h-6z"/>
  <linearGradient id="i" x1="12" x2="12" y1="9.667" y2="54.552" gradientUnits="userSpaceOnUse" spreadMethod="reflect">
    <stop offset="0" stop-color="#1a6dff"/>
    <stop offset="1" stop-color="#c822ff"/>
  </linearGradient>
  <path fill="url(#i)" d="M9 39h6v2H9z"/>
  <linearGradient id="j" x1="17" x2="17" y1="9.667" y2="54.552" gradientUnits="userSpaceOnUse" spreadMethod="reflect">
    <stop offset="0" stop-color="#1a6dff"/>
    <stop offset="1" stop-color="#c822ff"/>
  </linearGradient>
  <path fill="url(#j)" d="M9 45h16v2H9z"/>
  <linearGradient id="k" x1="40" x2="40" y1="9.667" y2="54.552" gradientUnits="userSpaceOnUse" spreadMethod="reflect">
    <stop offset="0" stop-color="#1a6dff"/>
    <stop offset="1" stop-color="#c822ff"/>
  </linearGradient>
  <path fill="url(#k)" d="M35 45h10v2H35z"/>
  <linearGradient id="l" x1="40" x2="40" y1="9.667" y2="54.552" gradientUnits="userSpaceOnUse" spreadMethod="reflect">
    <stop offset="0" stop-color="#1a6dff"/>
    <stop offset="1" stop-color="#c822ff"/>
  </linearGradient>
  <path fill="url(#l)" d="M35 33h10v2H35z"/>
</svg>
