<svg xmlns="http://www.w3.org/2000/svg" viewBox="0 0 64 64"><linearGradient id="a" x1="38" x2="38" y1="20" y2="54" gradientUnits="userSpaceOnUse" spreadMethod="reflect"><stop offset="0" stop-color="#6dc7ff"/><stop offset="1" stop-color="#e6abff"/></linearGradient><path fill="url(#a)" d="M49 54H27c-1.103 0-2-.897-2-2v-5h2v5h22V22h-7v-2h7c1.103 0 2 .897 2 2v30c0 1.103-.897 2-2 2z"/><linearGradient id="b" x1="26" x2="26" y1="9.625" y2="44.375" gradientUnits="userSpaceOnUse" spreadMethod="reflect"><stop offset="0" stop-color="#6dc7ff"/><stop offset="1" stop-color="#e6abff"/></linearGradient><path fill="url(#b)" d="M37 44H15c-1.103 0-2-.897-2-2V12c0-1.103.897-2 2-2h22c1.103 0 2 .897 2 2v30c0 1.103-.897 2-2 2zM15 12v30h22.002L37 12H15z"/><linearGradient id="c" x1="32" x2="32" y1="5" y2="58.895" gradientUnits="userSpaceOnUse" spreadMethod="reflect"><stop offset="0" stop-color="#1a6dff"/><stop offset="1" stop-color="#c822ff"/></linearGradient><path fill="url(#c)" d="M52 16h-9V9c0-1.654-1.346-3-3-3H12c-1.654 0-3 1.346-3 3v36c0 1.654 1.346 3 3 3h9v7c0 1.654 1.346 3 3 3h28c1.654 0 3-1.346 3-3V19c0-1.654-1.346-3-3-3zM11 45V9c0-.552.448-1 1-1h28c.552 0 1 .448 1 1v36c0 .552-.448 1-1 1H12c-.552 0-1-.448-1-1zm42 10c0 .552-.448 1-1 1H24c-.552 0-1-.448-1-1v-7h17c1.654 0 3-1.346 3-3V18h9c.552 0 1 .448 1 1v36z"/><linearGradient id="d" x1="19" x2="19" y1="5" y2="58.895" gradientUnits="userSpaceOnUse" spreadMethod="reflect"><stop offset="0" stop-color="#1a6dff"/><stop offset="1" stop-color="#c822ff"/></linearGradient><path fill="url(#d)" d="M21 16.5v-1c0-.827-.673-1.5-1.5-1.5h-1c-.827 0-1.5.673-1.5 1.5v1c0 .827.673 1.5 1.5 1.5h1c.827 0 1.5-.673 1.5-1.5z"/><linearGradient id="e" x1="33" x2="33" y1="5" y2="58.895" gradientUnits="userSpaceOnUse" spreadMethod="reflect"><stop offset="0" stop-color="#1a6dff"/><stop offset="1" stop-color="#c822ff"/></linearGradient><path fill="url(#e)" d="M33.5 36h-1c-.827 0-1.5.673-1.5 1.5v1c0 .827.673 1.5 1.5 1.5h1c.827 0 1.5-.673 1.5-1.5v-1c0-.827-.673-1.5-1.5-1.5z"/><linearGradient id="f" x1="26" x2="26" y1="5" y2="58.895" gradientUnits="userSpaceOnUse" spreadMethod="reflect"><stop offset="0" stop-color="#1a6dff"/><stop offset="1" stop-color="#c822ff"/></linearGradient><path fill="url(#f)" d="M32.35 25.801l-4.747-6.33c-.764-1.02-2.441-1.02-3.205 0l-4.747 6.33c-.53.706-.53 1.692 0 2.398l4.747 6.33c.382.51.966.802 1.603.802s1.221-.292 1.603-.802l4.747-6.33c.529-.706.529-1.692-.001-2.398zm-6.347-5.131L30 26h-7.999l4.002-5.33zm-.004 12.662l-.002-.002L22 28h8l-4.001 5.332z"/></svg>