<svg xmlns="http://www.w3.org/2000/svg" viewBox="0 0 64 64">
  <defs/>
  <linearGradient id="a" x1="27" x2="27" y1="11" y2="18.849" gradientUnits="userSpaceOnUse" spreadMethod="reflect">
    <stop offset="0" stop-color="#6dc7ff"/>
    <stop offset="1" stop-color="#e6abff"/>
  </linearGradient>
  <path fill="url(#a)" d="M27 12a3 3 0 100 6 3 3 0 100-6z"/>
  <linearGradient id="b" x1="32" x2="32" y1="6.333" y2="57.668" gradientUnits="userSpaceOnUse" spreadMethod="reflect">
    <stop offset="0" stop-color="#1a6dff"/>
    <stop offset="1" stop-color="#c822ff"/>
  </linearGradient>
  <path fill="url(#b)" d="M55 31h-3c0-4.625-3.507-8.441-8-8.941V15h-1c-4.072 0-7.436 3.06-7.931 7H21c-4.963 0-9 4.037-9 9v1H6v3c0 2.757 2.243 5 5 5h1v1c0 4.625 3.506 8.445 8 8.944V54c0 1.103.897 2 2 2h4c1.103 0 2-.897 2-2v-4h8v4c0 1.103.897 2 2 2h4c1.103 0 2-.897 2-2v-4.056c4.494-.499 8-4.319 8-8.944h3c1.654 0 3-1.346 3-3v-4c0-1.654-1.346-3-3-3zM42 17.083V22h-4.909c.423-2.508 2.401-4.494 4.909-4.917zM22 24h10v2H22v-2zM11 38c-1.654 0-3-1.346-3-3v-1h4v4h-1zm11 16v-1h4v1h-4zm4-3h-4v-1h4v1zm12-1h4v1h-4v-1zm0 4v-1h4v1h-4zm11.315-10H46v-1h-2v1c0 1.103.897 2 2 2h1.889c-1.263 1.235-2.988 2-4.889 2H21c-3.859 0-7-3.141-7-7V31c0-3.519 2.614-6.432 6-6.92V26c0 1.103.897 2 2 2h10c1.103 0 2-.897 2-2v-2h9c3.859 0 7 3.141 7 7v10c0 1.074-.25 2.089-.685 3zM56 38c0 .552-.448 1-1 1h-3v-6h3c.552 0 1 .448 1 1v4z"/>
  <linearGradient id="c" x1="43" x2="43" y1="6.333" y2="57.668" gradientUnits="userSpaceOnUse" spreadMethod="reflect">
    <stop offset="0" stop-color="#1a6dff"/>
    <stop offset="1" stop-color="#c822ff"/>
  </linearGradient>
  <path fill="url(#c)" d="M43 29c-1.654 0-3 1.346-3 3s1.346 3 3 3 3-1.346 3-3-1.346-3-3-3zm0 4c-.552 0-1-.448-1-1s.448-1 1-1 1 .448 1 1-.448 1-1 1z"/>
  <linearGradient id="d" x1="27" x2="27" y1="6.333" y2="57.668" gradientUnits="userSpaceOnUse" spreadMethod="reflect">
    <stop offset="0" stop-color="#1a6dff"/>
    <stop offset="1" stop-color="#c822ff"/>
  </linearGradient>
  <path fill="url(#d)" d="M23.273 18.334C22.452 17.417 22 16.232 22 15c0-2.757 2.243-5 5-5s5 2.243 5 5c0 1.232-.452 2.416-1.273 3.333l1.49 1.334C33.367 18.382 34 16.725 34 15c0-3.859-3.141-7-7-7s-7 3.141-7 7c0 1.726.633 3.383 1.783 4.668l1.49-1.334z"/>
</svg>
