<svg xmlns="http://www.w3.org/2000/svg" viewBox="0 0 64 64"><linearGradient id="a" x1="16.238" x2="16.238" y1="18.667" y2="31.948" gradientUnits="userSpaceOnUse" spreadMethod="reflect"><stop offset="0" stop-color="#6dc7ff"/><stop offset="1" stop-color="#e6abff"/></linearGradient><path fill="url(#a)" d="M17.629 25H8v-6h14.697a15.944 15.944 0 013.779-2H8c-1.103 0-2 .897-2 2v6c0 1.103.897 2 2 2h8.808c.227-.69.506-1.355.821-2z"/><linearGradient id="b" x1="50.747" x2="50.747" y1="18.665" y2="31.944" gradientUnits="userSpaceOnUse" spreadMethod="reflect"><stop offset="0" stop-color="#6dc7ff"/><stop offset="1" stop-color="#e6abff"/></linearGradient><path fill="url(#b)" d="M62.893 19.698l-8.535-7.165a1.974 1.974 0 00-2.159-.363A1.973 1.973 0 0051 14.002V17H37.525c1.356.5 2.624 1.172 3.779 2H53v-4.967l8.61 7.199a1.002 1.002 0 01-.003 1.539L53 29.998V25h-6.629c.315.645.594 1.31.821 2H51v2.998c0 .807.459 1.509 1.198 1.832.268.117.546.17.819.17.482 0 .948-.172 1.304-.502l8.568-7.193c.687-.572 1.08-1.412 1.08-2.305s-.393-1.732-1.076-2.302z"/><linearGradient id="c" x1="22.207" x2="22.207" y1="47.332" y2="34.05" gradientTransform="rotate(180 34.985 43)" gradientUnits="userSpaceOnUse" spreadMethod="reflect"><stop offset="0" stop-color="#6dc7ff"/><stop offset="1" stop-color="#e6abff"/></linearGradient><path fill="url(#c)" d="M46.371 39H56v6H41.303a15.944 15.944 0 01-3.779 2H56c1.103 0 2-.897 2-2v-6c0-1.103-.897-2-2-2h-8.808c-.227.69-.506 1.355-.821 2z"/><linearGradient id="d" x1="56.717" x2="56.717" y1="47.331" y2="34.052" gradientTransform="rotate(180 34.985 43)" gradientUnits="userSpaceOnUse" spreadMethod="reflect"><stop offset="0" stop-color="#6dc7ff"/><stop offset="1" stop-color="#e6abff"/></linearGradient><path fill="url(#d)" d="M1.107 44.302l8.535 7.165c.592.548 1.42.686 2.159.363A1.973 1.973 0 0013 49.998V47h13.475a15.944 15.944 0 01-3.779-2H11v4.967l-8.61-7.199a1.002 1.002 0 01.002-1.539L11 34.002V39h6.629a15.836 15.836 0 01-.821-2H13v-2.998c0-.807-.459-1.509-1.198-1.832a2.04 2.04 0 00-.82-.17c-.482 0-.948.172-1.304.502L1.11 39.695C.424 40.268.03 41.107.03 42s.394 1.732 1.077 2.302z"/><linearGradient id="e" x1="32" x2="32" y1="15" y2="49.268" gradientUnits="userSpaceOnUse" spreadMethod="reflect"><stop offset="0" stop-color="#1a6dff"/><stop offset="1" stop-color="#c822ff"/></linearGradient><path fill="url(#e)" d="M32 49c-9.374 0-17-7.626-17-17s7.626-17 17-17 17 7.626 17 17-7.626 17-17 17zm0-32c-8.271 0-15 6.729-15 15s6.729 15 15 15 15-6.729 15-15-6.729-15-15-15z"/><linearGradient id="f" x1="32" x2="32" y1="15" y2="49.268" gradientUnits="userSpaceOnUse" spreadMethod="reflect"><stop offset="0" stop-color="#1a6dff"/><stop offset="1" stop-color="#c822ff"/></linearGradient><path fill="url(#f)" d="M30 27h7v-2h-4v-2h-2v2h-1c-1.654 0-3 1.346-3 3v2c0 1.654 1.346 3 3 3h4a1 1 0 011 1v2a1 1 0 01-1 1h-7v2h4v2h2v-2h1c1.654 0 3-1.346 3-3v-2c0-1.654-1.346-3-3-3h-4a1 1 0 01-1-1v-2a1 1 0 011-1z"/></svg>