<svg xmlns="http://www.w3.org/2000/svg" viewBox="0 0 64 64"><linearGradient id="a" x1="32" x2="32" y1="-77.833" y2="-130.346" gradientTransform="matrix(1 0 0 -1 0 -72)" gradientUnits="userSpaceOnUse" spreadMethod="reflect"><stop offset="0" stop-color="#1a6dff"/><stop offset="1" stop-color="#c822ff"/></linearGradient><path fill="url(#a)" d="M32 58C17.663 58 6 46.337 6 32S17.663 6 32 6s26 11.663 26 26-11.663 26-26 26zm0-50C18.767 8 8 18.767 8 32s10.767 24 24 24 24-10.767 24-24S45.233 8 32 8z"/><linearGradient id="b" x1="32" x2="32" y1="-77.833" y2="-130.346" gradientTransform="matrix(1 0 0 -1 0 -72)" gradientUnits="userSpaceOnUse" spreadMethod="reflect"><stop offset="0" stop-color="#1a6dff"/><stop offset="1" stop-color="#c822ff"/></linearGradient><path fill="url(#b)" d="M32 54c-12.131 0-22-9.869-22-22s9.869-22 22-22 22 9.869 22 22-9.869 22-22 22zm0-42c-11.028 0-20 8.972-20 20s8.972 20 20 20 20-8.972 20-20-8.972-20-20-20z"/><linearGradient id="c" x1="-187.564" x2="-171.605" y1="-125.699" y2="-141.658" gradientTransform="scale(1 -1) rotate(-45 48.705 -339.084)" gradientUnits="userSpaceOnUse" spreadMethod="reflect"><stop offset="0" stop-color="#6dc7ff"/><stop offset="1" stop-color="#e6abff"/></linearGradient><path fill="url(#c)" d="M39.071 21.686L28.464 32.293l-2.761-2.761c-.605-.605-1.619-.334-1.801.483l-2.414 10.83c-.351 1.573 1.093 3.017 2.666 2.666l10.83-2.414c.817-.182 1.088-1.196.483-1.801l-2.761-2.761 10.607-10.607c.39-.39.39-1.024 0-1.414l-2.828-2.828c-.39-.39-1.024-.39-1.414 0z"/></svg>