<svg xmlns="http://www.w3.org/2000/svg" viewBox="0 0 64 64">
  <defs/>
  <linearGradient id="a" x1="32" x2="32" y1="5.625" y2="59.18" gradientUnits="userSpaceOnUse" spreadMethod="reflect">
    <stop offset="0" stop-color="#1a6dff"/>
    <stop offset="1" stop-color="#c822ff"/>
  </linearGradient>
  <path fill="url(#a)" d="M24.028 58h-1.963c-.688 0-1.318-.347-1.688-.927-.369-.582-.416-1.302-.123-1.926L27.011 40H15.999c-1.188 0-2.232-.673-2.726-1.757-.494-1.086-.313-2.32.471-3.219l24.724-28.34c.38-.435.928-.684 1.503-.684h1.964c.687 0 1.316.346 1.686.926.371.581.417 1.302.126 1.926L36.667 24h11.335c1.188 0 2.232.673 2.726 1.757.494 1.086.313 2.32-.471 3.219l-24.726 28.34c-.378.434-.926.684-1.503.684zM39.971 8l-24.72 28.339c-.395.452-.221.938-.157 1.077.063.137.312.584.905.584h14.095l-8.021 17.979 1.955.021 24.721-28.339c.395-.452.221-.938.157-1.077-.063-.137-.312-.584-.905-.584H33.524l8.41-17.995L39.971 8z"/>
  <linearGradient id="b" x1="32" x2="32" y1="18.75" y2="44.809" gradientUnits="userSpaceOnUse" spreadMethod="reflect">
    <stop offset="0" stop-color="#6dc7ff"/>
    <stop offset="1" stop-color="#e6abff"/>
  </linearGradient>
  <path fill="url(#b)" d="M31.226 43.457l4.006-8.011c.332-.664-.151-1.446-.894-1.446H23.093c-.849 0-1.313-.99-.769-1.642l9.974-11.968c.393-.472 1.128.038.823.571l-4.311 7.545c-.382.665.099 1.494.866 1.494h11.231c.833 0 1.302.958.79 1.616l-9.625 12.375c-.372.479-1.118.01-.846-.534z"/>
</svg>
