<svg xmlns="http://www.w3.org/2000/svg" viewBox="0 0 64 64">
  <defs/>
  <linearGradient id="a" x1="32" x2="32" y1="23" y2="57" gradientUnits="userSpaceOnUse" spreadMethod="reflect">
    <stop offset="0" stop-color="#6dc7ff"/>
    <stop offset="1" stop-color="#e6abff"/>
  </linearGradient>
  <path fill="url(#a)" d="M32 57c-9.374 0-17-7.626-17-17s7.626-17 17-17c5.034 0 9.78 2.212 13.022 6.071C47.587 32.125 49 36.006 49 40c0 9.374-7.626 17-17 17zm0-32c-8.271 0-15 6.729-15 15s6.729 15 15 15 15-6.729 15-15c0-3.524-1.246-6.949-3.509-9.643C40.63 26.953 36.442 25 32 25z"/>
  <linearGradient id="b" x1="32" x2="32" y1="2.375" y2="61.627" gradientUnits="userSpaceOnUse" spreadMethod="reflect">
    <stop offset="0" stop-color="#1a6dff"/>
    <stop offset="1" stop-color="#c822ff"/>
  </linearGradient>
  <path fill="url(#b)" d="M43 22.145V18c0-1.103-.897-2-2-2h-1v-5c0-4.411-3.589-8-8-8s-8 3.589-8 8v5h-1c-1.103 0-2 .897-2 2v4.145C15.011 25.849 11 32.456 11 40c0 11.58 9.42 21 21 21s21-9.42 21-21c0-7.544-4.011-14.151-10-17.855zM41 18v3.055c-1.27-.606-2.606-1.086-4-1.428V18h4zm-15-7c0-3.309 2.691-6 6-6s6 2.691 6 6v5h-1c-1.103 0-2 .897-2 2v1.24c-.983-.142-1.979-.24-3-.24s-2.017.098-3 .24V18c0-1.103-.897-2-2-2h-1v-5zm-3 7h4v1.627c-1.394.342-2.73.823-4 1.428V18zm9 41c-10.477 0-19-8.523-19-19s8.523-19 19-19 19 8.523 19 19-8.523 19-19 19z"/>
  <linearGradient id="c" x1="32" x2="32" y1="2.375" y2="61.627" gradientUnits="userSpaceOnUse" spreadMethod="reflect">
    <stop offset="0" stop-color="#1a6dff"/>
    <stop offset="1" stop-color="#c822ff"/>
  </linearGradient>
  <path fill="url(#c)" d="M32 32c-3.309 0-6 2.691-6 6 0 2.215 1.21 4.149 3 5.188V46c0 1.654 1.346 3 3 3s3-1.346 3-3v-2.812c1.79-1.039 3-2.973 3-5.188 0-3.309-2.691-6-6-6zm1 14c0 .551-.449 1-1 1s-1-.449-1-1v-2h2v2zm-1-4c-2.206 0-4-1.794-4-4s1.794-4 4-4 4 1.794 4 4-1.794 4-4 4z"/>
</svg>
