<svg xmlns="http://www.w3.org/2000/svg" viewBox="0 0 64 64"><linearGradient id="a" x1="15" x2="15" y1="5.5" y2="16.345" gradientUnits="userSpaceOnUse"><stop offset="0" stop-color="#6dc7ff"/><stop offset="1" stop-color="#e6abff"/></linearGradient><path fill="url(#a)" d="M15.697 6.544l.33 1.322c.259 1.038 1.069 1.848 2.107 2.107l1.322.33c.725.181.725 1.212 0 1.393l-1.322.33c-1.038.259-1.848 1.069-2.107 2.107l-.33 1.322c-.181.725-1.212.725-1.393 0l-.33-1.322c-.259-1.038-1.069-1.848-2.107-2.107l-1.322-.33c-.725-.181-.725-1.212 0-1.393l1.322-.33c1.038-.259 1.848-1.069 2.107-2.107l.33-1.322c.181-.725 1.211-.725 1.393 0z"/><linearGradient id="b" x1="50" x2="50" y1="13" y2="22.502" gradientUnits="userSpaceOnUse"><stop offset="0" stop-color="#6dc7ff"/><stop offset="1" stop-color="#e6abff"/></linearGradient><path fill="url(#b)" d="M53 17h-1c-.552 0-1-.448-1-1v-1c0-.552-.448-1-1-1s-1 .448-1 1v1c0 .552-.448 1-1 1h-1c-.552 0-1 .448-1 1s.448 1 1 1h1c.552 0 1 .448 1 1v1c0 .552.448 1 1 1s1-.448 1-1v-1c0-.552.448-1 1-1h1c.552 0 1-.448 1-1s-.448-1-1-1z"/><linearGradient id="c" x1="32" x2="32" y1="41.468" y2="54.608" gradientUnits="userSpaceOnUse"><stop offset="0" stop-color="#6dc7ff"/><stop offset="1" stop-color="#e6abff"/></linearGradient><path fill="url(#c)" d="M16 51c0 1.654 1.346 3 3 3h26c1.654 0 3-1.346 3-3v-9H16v9z"/><linearGradient id="d" x1="32" x2="32" y1="6.745" y2="58.234" gradientUnits="userSpaceOnUse"><stop offset="0" stop-color="#1a6dff"/><stop offset="1" stop-color="#c822ff"/></linearGradient><path fill="url(#d)" d="M39.604 23.513c-.367-.152-.604-.509-.604-.912v-5.952c1.178-.564 2-1.758 2-3.149 0-1.93-1.57-3.5-3.5-3.5H37V8c0-1.103-.897-2-2-2h-6c-1.103 0-2 .897-2 2v2h-.5c-1.93 0-3.5 1.57-3.5 3.5 0 1.391.822 2.585 2 3.149v5.952c0 .403-.237.761-.604.912C16.865 26.611 12 33.868 12 42v9c0 3.859 3.14 7 7 7h26c3.86 0 7-3.141 7-7v-9c0-8.132-4.865-15.389-12.396-18.487zM29 8h6v2h-6V8zm-2.5 4h11c.827 0 1.5.673 1.5 1.5s-.673 1.5-1.5 1.5h-11c-.827 0-1.5-.673-1.5-1.5s.673-1.5 1.5-1.5zM50 51c0 2.757-2.243 5-5 5H19c-2.757 0-5-2.243-5-5v-9c0-7.318 4.379-13.849 11.156-16.638 1.12-.461 1.844-1.545 1.844-2.761V17h2v2h2v-2h2v5h2v-5h2v5.601c0 1.217.724 2.301 1.844 2.762C45.621 28.151 50 34.682 50 42v9z"/></svg>