<svg xmlns="http://www.w3.org/2000/svg" viewBox="0 0 64 64"><linearGradient id="a" x1="32" x2="32" y1="34.83" y2="44.805" gradientUnits="userSpaceOnUse"><stop offset="0" stop-color="#6dc7ff"/><stop offset="1" stop-color="#e6abff"/></linearGradient><ellipse cx="32" cy="40" fill="url(#a)" rx="5" ry="4.95"/><linearGradient id="b" x1="32" x2="32" y1="6.83" y2="57.836" gradientUnits="userSpaceOnUse"><stop offset="0" stop-color="#1a6dff"/><stop offset="1" stop-color="#c822ff"/></linearGradient><path fill="url(#b)" d="M51 24c0-1.654-1.346-3-3-3h-.051c-.471-5.665-4.887-10.218-10.489-10.902l1.23-1.954a.991.991 0 01.638-.23H46v-2h-6.671c-.801 0-1.555.313-2.122.879L35.181 10H28c-6.279 0-11.438 4.85-11.949 11H16c-1.654 0-3 1.346-3 3a3.001 3.001 0 002.936 2.994l3.605 26.676A5.017 5.017 0 0024.496 58h15.009a5.017 5.017 0 004.955-4.33l3.605-26.676A3 3 0 0051 24zm-5.05-3H30.596l5.659-8.988c5.06.129 9.2 4.026 9.695 8.988zM28 12h5.918l-5.658 8.956.07.044H18.05c.503-5.046 4.774-9 9.95-9zm14.477 41.402A3.01 3.01 0 0139.504 56h-1.188a2.99 2.99 0 00-2.816-2h-7a2.99 2.99 0 00-2.816 2h-1.188a3.01 3.01 0 01-2.973-2.598L17.955 27H23v2h2v-2h2v2h2v-2h2v2h2v-2h2v2h2v-2h2v2h2v-2h5.045l-3.568 26.402zM48 25H16a1.001 1.001 0 010-2h32a1.001 1.001 0 010 2z"/></svg>