<svg xmlns="http://www.w3.org/2000/svg" viewBox="0 0 64 64">
  <defs/>
  <linearGradient id="a" x1="32" x2="32" y1="5.5" y2="58.373" gradientUnits="userSpaceOnUse" spreadMethod="reflect">
    <stop offset="0" stop-color="#1a6dff"/>
    <stop offset="1" stop-color="#c822ff"/>
  </linearGradient>
  <path fill="url(#a)" d="M52.385 42.923L45.46 26.305c-.681-1.636-1.928-2.909-3.46-3.634V21c0-1.302-.839-2.402-2-2.816V17c0-1.561-1.202-2.832-2.726-2.972l1.386-5.543c.149-.602.017-1.228-.365-1.716C37.913 6.28 37.339 6 36.719 6h-9.438c-.62 0-1.194.28-1.576.769-.382.489-.515 1.114-.364 1.717l1.386 5.542C25.202 14.168 24 15.439 24 17v1.184c-1.161.414-2 1.514-2 2.816v1.671c-1.532.725-2.779 1.998-3.46 3.634l-6.925 16.618C10.543 45.495 10 48.213 10 51c0 3.859 3.141 7 7 7h30c3.859 0 7-3.141 7-7 0-2.787-.543-5.505-1.615-8.077zM36.72 8l-1.5 6h-6.439l-1.499-6h9.438zM26 17c0-.551.448-1 1-1h10c.552 0 1 .449 1 1v1H26v-1zm-2 5v-1c0-.551.448-1 1-1h14c.552 0 1 .449 1 1v1H24zm23 34H17c-2.757 0-5-2.243-5-5 0-2.522.491-4.98 1.461-7.308l6.925-16.619C21.164 25.207 22.974 24 24.997 24h14.006c2.023 0 3.833 1.207 4.611 3.074l6.925 16.618C51.509 46.02 52 48.478 52 51c0 2.757-2.243 5-5 5z"/>
  <linearGradient id="b" x1="32" x2="32" y1="5.5" y2="58.373" gradientUnits="userSpaceOnUse" spreadMethod="reflect">
    <stop offset="0" stop-color="#1a6dff"/>
    <stop offset="1" stop-color="#c822ff"/>
  </linearGradient>
  <path fill="url(#b)" d="M22 52h20v2H22z"/>
  <linearGradient id="c" x1="32" x2="32" y1="30.75" y2="49.338" gradientUnits="userSpaceOnUse" spreadMethod="reflect">
    <stop offset="0" stop-color="#6dc7ff"/>
    <stop offset="1" stop-color="#e6abff"/>
  </linearGradient>
  <path fill="url(#c)" d="M30 35h7v-2h-4v-2h-2v2h-1c-1.654 0-3 1.346-3 3v2c0 1.654 1.346 3 3 3h4c.552 0 1 .448 1 1v2c0 .552-.448 1-1 1h-7v2h4v2h2v-2h1c1.654 0 3-1.346 3-3v-2c0-1.654-1.346-3-3-3h-4c-.552 0-1-.448-1-1v-2c0-.552.448-1 1-1z"/>
</svg>
