<svg xmlns="http://www.w3.org/2000/svg" viewBox="0 0 64 64">
  <defs/>
  <linearGradient id="a" x1="32" x2="32" y1="11.75" y2="52.251" gradientUnits="userSpaceOnUse" spreadMethod="reflect">
    <stop offset="0" stop-color="#1a6dff"/>
    <stop offset="1" stop-color="#c822ff"/>
  </linearGradient>
  <path fill="url(#a)" d="M58 12H16c-1.654 0-3 1.346-3 3v2h-2c-1.654 0-3 1.346-3 3v2H6c-1.654 0-3 1.346-3 3v24c0 1.654 1.346 3 3 3h42c1.654 0 3-1.346 3-3v-2h2c1.654 0 3-1.346 3-3v-2h2c1.654 0 3-1.346 3-3V15c0-1.654-1.346-3-3-3zm-9 37c0 .551-.448 1-1 1H6c-.552 0-1-.449-1-1V25c0-.551.448-1 1-1h42c.552 0 1 .449 1 1v24zm5-5c0 .551-.448 1-1 1h-2V25c0-1.654-1.346-3-3-3H10v-2c0-.551.448-1 1-1h42c.552 0 1 .449 1 1v24zm5-5c0 .551-.448 1-1 1h-2V20c0-1.654-1.346-3-3-3H15v-2c0-.551.448-1 1-1h42c.552 0 1 .449 1 1v24z"/>
  <linearGradient id="b" x1="27" x2="27" y1="11.75" y2="52.251" gradientUnits="userSpaceOnUse" spreadMethod="reflect">
    <stop offset="0" stop-color="#1a6dff"/>
    <stop offset="1" stop-color="#c822ff"/>
  </linearGradient>
  <path fill="url(#b)" d="M27 30c-3.859 0-7 3.14-7 7s3.141 7 7 7 7-3.14 7-7-3.141-7-7-7zm0 12c-2.757 0-5-2.243-5-5s2.243-5 5-5 5 2.243 5 5-2.243 5-5 5z"/>
  <linearGradient id="c" x1="27" x2="27" y1="11.75" y2="52.251" gradientUnits="userSpaceOnUse" spreadMethod="reflect">
    <stop offset="0" stop-color="#1a6dff"/>
    <stop offset="1" stop-color="#c822ff"/>
  </linearGradient>
  <path fill="url(#c)" d="M43 27v-1H11v1c0 1.387-1.311 3-3 3H7v14h1c1.689 0 3 1.613 3 3v1h32v-1c0-1.387 1.311-3 3-3h1V30h-1c-1.689 0-3-1.613-3-3zm2 15.11c-1.896.42-3.47 1.993-3.89 3.89H12.89c-.42-1.897-1.993-3.47-3.89-3.89V31.89c1.896-.42 3.47-1.993 3.89-3.89h28.22c.42 1.897 1.993 3.47 3.89 3.89v10.22z"/>
  <linearGradient id="d" x1="27" x2="27" y1="33.667" y2="40.851" gradientUnits="userSpaceOnUse" spreadMethod="reflect">
    <stop offset="0" stop-color="#6dc7ff"/>
    <stop offset="1" stop-color="#e6abff"/>
  </linearGradient>
  <path fill="url(#d)" d="M27 34a3 3 0 100 6 3 3 0 100-6z"/>
</svg>
