<svg xmlns="http://www.w3.org/2000/svg" viewBox="0 0 64 64">
  <defs/>
  <linearGradient id="a" x1="32" x2="32" y1="5.917" y2="57.136" gradientUnits="userSpaceOnUse" spreadMethod="reflect">
    <stop offset="0" stop-color="#1a6dff"/>
    <stop offset="1" stop-color="#c822ff"/>
  </linearGradient>
  <path fill="url(#a)" d="M22 44h20v2H22z"/>
  <linearGradient id="b" x1="32" x2="32" y1="5.917" y2="57.136" gradientUnits="userSpaceOnUse" spreadMethod="reflect">
    <stop offset="0" stop-color="#1a6dff"/>
    <stop offset="1" stop-color="#c822ff"/>
  </linearGradient>
  <path fill="url(#b)" d="M24 48h16v2H24z"/>
  <linearGradient id="c" x1="32" x2="32" y1="15.833" y2="38.169" gradientUnits="userSpaceOnUse" spreadMethod="reflect">
    <stop offset="0" stop-color="#6dc7ff"/>
    <stop offset="1" stop-color="#e6abff"/>
  </linearGradient>
  <path fill="url(#c)" d="M32 38c-6.065 0-11-4.935-11-11s4.935-11 11-11 11 4.935 11 11-4.935 11-11 11zm0-20c-4.963 0-9 4.037-9 9s4.037 9 9 9 9-4.037 9-9-4.037-9-9-9z"/>
  <linearGradient id="d" x1="32" x2="32" y1="15.833" y2="38.169" gradientUnits="userSpaceOnUse" spreadMethod="reflect">
    <stop offset="0" stop-color="#6dc7ff"/>
    <stop offset="1" stop-color="#e6abff"/>
  </linearGradient>
  <path fill="url(#d)" d="M32 38c-3.421 0-6-4.729-6-11s2.579-11 6-11 6 4.729 6 11-2.579 11-6 11zm0-20c-1.892 0-4 3.696-4 9s2.108 9 4 9 4-3.696 4-9-2.108-9-4-9z"/>
  <linearGradient id="e" x1="32" x2="32" y1="15.833" y2="38.169" gradientUnits="userSpaceOnUse" spreadMethod="reflect">
    <stop offset="0" stop-color="#6dc7ff"/>
    <stop offset="1" stop-color="#e6abff"/>
  </linearGradient>
  <path fill="url(#e)" d="M31 17h2v20h-2z"/>
  <linearGradient id="f" x1="32" x2="32" y1="15.833" y2="38.169" gradientUnits="userSpaceOnUse" spreadMethod="reflect">
    <stop offset="0" stop-color="#6dc7ff"/>
    <stop offset="1" stop-color="#e6abff"/>
  </linearGradient>
  <path fill="url(#f)" d="M22 26h20v2H22z"/>
  <linearGradient id="g" x1="32" x2="32" y1="5.915" y2="58.139" gradientUnits="userSpaceOnUse" spreadMethod="reflect">
    <stop offset="0" stop-color="#1a6dff"/>
    <stop offset="1" stop-color="#c822ff"/>
  </linearGradient>
  <path fill="url(#g)" d="M49 58H15c-2.206 0-4-1.794-4-4V10c0-2.206 1.794-4 4-4h34c2.206 0 4 1.794 4 4v44c0 2.206-1.794 4-4 4zM15 8c-1.103 0-2 .897-2 2v44c0 1.103.897 2 2 2h34c1.103 0 2-.897 2-2V10c0-1.103-.897-2-2-2H15z"/>
</svg>
