<svg xmlns="http://www.w3.org/2000/svg" viewBox="0 0 64 64">
  <defs/>
  <linearGradient id="a" x1="32" x2="32" y1="12.167" y2="52.292" gradientUnits="userSpaceOnUse" spreadMethod="reflect">
    <stop offset="0" stop-color="#6dc7ff"/>
    <stop offset="1" stop-color="#e6abff"/>
  </linearGradient>
  <path fill="url(#a)" d="M42.836 32c6.138-7.359 10.559-15.375 7.548-18.385-3.003-3.005-11.041 1.429-18.383 7.549-7.358-6.14-15.374-10.564-18.386-7.549-3.01 3.01 1.41 11.026 7.548 18.384-6.139 7.358-10.56 15.374-7.548 18.385.667.667 1.579.969 2.675.969 3.854 0 9.981-3.74 15.711-8.519 5.721 4.768 11.863 8.515 15.718 8.515 1.092-.001 2.002-.302 2.665-.965 3.012-3.01-1.409-11.026-7.548-18.384zm6.135 16.971c-1.363 1.363-7.269-.645-15.44-7.447.73-.641 1.452-1.292 2.155-1.953l-1.371-1.457c-.79.743-1.558 1.433-2.315 2.096-.703-.616-1.416-1.255-2.146-1.939l-1.367 1.461c.647.606 1.312 1.203 1.983 1.791-8.168 6.804-14.073 8.817-15.44 7.448-1.369-1.369.644-7.271 7.446-15.438.64.729 1.292 1.449 1.954 2.151l1.457-1.371c-.743-.789-1.432-1.557-2.095-2.313.664-.757 1.353-1.525 2.096-2.314l-1.457-1.371c-.661.703-1.314 1.422-1.954 2.152-6.802-8.167-8.814-14.069-7.446-15.437 1.37-1.367 7.272.646 15.438 7.447-.672.589-1.334 1.188-1.982 1.794l1.367 1.459c.731-.685 1.443-1.324 2.146-1.939.758.665 1.527 1.354 2.317 2.099l1.371-1.457c-.704-.662-1.424-1.316-2.155-1.958 8.169-6.801 14.076-8.81 15.438-7.445 1.368 1.368-.645 7.271-7.446 15.438-.641-.73-1.294-1.451-1.956-2.154l-1.457 1.371c.744.79 1.434 1.559 2.098 2.316-.664.757-1.353 1.525-2.096 2.314l1.457 1.371c.661-.703 1.314-1.422 1.954-2.152 6.802 8.166 8.815 14.068 7.446 15.437z"/>
  <linearGradient id="b" x1="32" x2="32" y1="12.167" y2="52.292" gradientUnits="userSpaceOnUse" spreadMethod="reflect">
    <stop offset="0" stop-color="#6dc7ff"/>
    <stop offset="1" stop-color="#e6abff"/>
  </linearGradient>
  <path fill="url(#b)" d="M32 28a4 4 0 100 8 4 4 0 100-8z"/>
  <linearGradient id="c" x1="32" x2="32" y1="5.667" y2="58.846" gradientUnits="userSpaceOnUse" spreadMethod="reflect">
    <stop offset="0" stop-color="#1a6dff"/>
    <stop offset="1" stop-color="#c822ff"/>
  </linearGradient>
  <path fill="url(#c)" d="M58 32c0-4.141-8.51-6.761-18.345-7.655C38.761 14.51 36.141 6 32 6s-6.761 8.51-7.655 18.345C14.51 25.239 6 27.859 6 32s8.51 6.761 18.345 7.655C25.239 49.49 27.859 58 32 58s6.761-8.51 7.655-18.345C49.49 38.761 58 36.141 58 32zM32 8c2.031 0 4.71 6 5.653 16.188C35.782 24.064 33.883 24 32 24s-3.782.064-5.653.188C27.29 14 29.969 8 32 8zm6 24c0 2.052-.072 3.982-.193 5.807-1.825.121-3.755.193-5.807.193s-3.982-.072-5.807-.193C26.072 35.982 26 34.052 26 32s.072-3.982.193-5.807C28.018 26.072 29.948 26 32 26s3.982.072 5.807.193C37.928 28.018 38 29.948 38 32zM8 32c0-2.031 6-4.71 16.188-5.653C24.064 28.218 24 30.117 24 32s.064 3.782.188 5.653C14 36.71 8 34.031 8 32zm24 24c-2.031 0-4.71-6-5.653-16.188 1.871.124 3.77.188 5.653.188s3.782-.064 5.653-.188C36.71 50 34.031 56 32 56zm7.813-18.347c.123-1.871.187-3.77.187-5.653s-.064-3.782-.188-5.653C50 27.29 56 29.969 56 32s-6 4.71-16.187 5.653z"/>
</svg>
