<svg xmlns="http://www.w3.org/2000/svg" viewBox="0 0 64 64"><linearGradient id="a" x1="32" x2="32" y1="6.138" y2="13.379" gradientUnits="userSpaceOnUse"><stop offset="0" stop-color="#6dc7ff"/><stop offset="1" stop-color="#e6abff"/></linearGradient><circle cx="32" cy="11" r="4" fill="url(#a)"/><linearGradient id="b" x1="34.5" x2="34.5" y1="24.745" y2="35.027" gradientUnits="userSpaceOnUse"><stop offset="0" stop-color="#6dc7ff"/><stop offset="1" stop-color="#e6abff"/></linearGradient><path fill="url(#b)" d="M32 27v7c0 .6.4 1 1 1h3c.6 0 1-.4 1-1v-7c0-.6-.4-1-1-1h-3c-.6 0-1 .4-1 1z"/><linearGradient id="c" x1="32" x2="32" y1="6.064" y2="39.168" gradientUnits="userSpaceOnUse"><stop offset="0" stop-color="#1a6dff"/><stop offset="1" stop-color="#c822ff"/></linearGradient><path fill="url(#c)" d="M57 41h-.2c-.4 0-.8-.3-.8-.8V37c0-6.1-4.9-11-11-11h-4v-2c0-1.1-.9-2-2-2h-1v-1c0-1.7-1.3-3-3-3h-2v-2.1c1.2-.2 2.3-.9 3-1.9h8c1.6 0 3-1.3 3-3 0-1.6-1.3-3-3-3h-8c-.9-1.2-2.3-2-4-2s-3.1.8-4 2h-8c-1.6 0-3 1.3-3 3 0 1.6 1.3 3 3 3h8c.7 1 1.8 1.7 3 1.9V18h-2c-1.7 0-3 1.3-3 3v1h-1c-1.1 0-2 .9-2 2v2h-6v-1c0-2.8-2.2-5-5-5H8v-1H6v24h2v-1h4c2.8 0 5-2.2 5-5v-1h6.4c.8 1.8 2.5 3 4.6 3h8c2 0 3.8-1.2 4.6-3H45c.6 0 1 .4 1 1v3.2c0 .4-.3.8-.8.8H44v2h14v-2h-1zM44 10c.5 0 1 .4 1 1 0 .5-.4 1-1 1h-7.1c.1-.3.1-.7.1-1s0-.7-.1-1H44zm-24 2c-.5 0-1-.4-1-1 0-.5.4-1 1-1h7.1c-.1.3-.1.7-.1 1s0 .7.1 1H20zm9-1c0-1.7 1.3-3 3-3s3 1.3 3 3-1.3 3-3 3-3-1.3-3-3zm-1 10c0-.6.4-1 1-1h6c.6 0 1 .4 1 1v1h-8v-1zM15 37c0 1.7-1.3 3-3 3v-9h-2v9H8V22h4c1.7 0 3 1.3 3 3v12zm2-3v-6h6v6h-6zm19 3h-8c-1.7 0-3-1.3-3-3V24h14v10c0 1.7-1.3 3-3 3zm9-3h-4v-6h4c5 0 9 4 9 9h-6c0-1.7-1.3-3-3-3zm3 7v-2h6v2h-6z"/><linearGradient id="d" x1="51" x2="51" y1="6.064" y2="39.168" gradientUnits="userSpaceOnUse"><stop offset="0" stop-color="#1a6dff"/><stop offset="1" stop-color="#c822ff"/></linearGradient><path fill="url(#d)" d="M51.6 46.2c-.4-.3-.8-.3-1.2 0-.5.3-4.4 3.4-4.4 6.8 0 2.8 2.2 5 5 5s5-2.2 5-5c0-3.4-3.9-6.5-4.4-6.8zM51 56c-1.7 0-3-1.3-3-3s1.8-3.7 3-4.7c1.2 1 3 3 3 4.7 0 1.7-1.3 3-3 3z"/></svg>