<svg xmlns="http://www.w3.org/2000/svg" viewBox="0 0 64 64">
  <defs/>
  <linearGradient id="a" x1="32" x2="32" y1="11.723" y2="52.093" gradientUnits="userSpaceOnUse">
    <stop offset="0" stop-color="#1a6dff"/>
    <stop offset="1" stop-color="#c822ff"/>
  </linearGradient>
  <path fill="url(#a)" d="M62 29v-2H42.525l-8.677-14.823c-.389-.664-1.079-1.06-1.848-1.06s-1.459.396-1.848 1.059L19.134 31H2v2h15.963L8.142 49.777c-.392.67-.396 1.473-.01 2.146C8.519 52.598 9.213 53 9.99 53h44.02c.777 0 1.472-.402 1.858-1.076.386-.674.382-1.476-.01-2.146L48.379 37H56v-2h-8.792l-1.171-2H59v-2H44.866l-1.171-2H62zm-7.868 21.788c.011.017.041.07.001.141-.041.071-.103.071-.123.071H9.99c-.021 0-.082 0-.123-.071-.04-.07-.01-.124.001-.141l22.011-37.601c.01-.017.041-.069.121-.069s.111.052.121.07L46 36.897V37h.061l8.071 13.788z"/>
  <linearGradient id="b" x1="41.013" x2="41.013" y1="17.596" y2="48.203" gradientUnits="userSpaceOnUse">
    <stop offset="0" stop-color="#6dc7ff"/>
    <stop offset="1" stop-color="#e6abff"/>
  </linearGradient>
  <path fill="url(#b)" d="M32 18.521V48c0 .552.448 1 1 1h16.023c.772 0 1.253-.839.863-1.505L32.799 18.304c-.221-.377-.799-.221-.799.217z"/>
</svg>
