<svg xmlns="http://www.w3.org/2000/svg" viewBox="0 0 64 64">
  <defs/>
  <linearGradient id="a" x1="32" x2="32" y1="8.149" y2="54.638" gradientUnits="userSpaceOnUse">
    <stop offset="0" stop-color="#1a6dff"/>
    <stop offset="1" stop-color="#c822ff"/>
  </linearGradient>
  <path fill="url(#a)" d="M57.9 45.7l-2.1-4.1c-.5-1-1.5-1.6-2.7-1.6H53V16c0-.8-.2-1.6-.6-2.3l-2.1-4.1c-.5-1-1.5-1.6-2.7-1.6H16.4c-1.1 0-2.1.6-2.7 1.6l-2.1 4.1c-.4.7-.6 1.5-.6 2.3v24h-.1c-1.1 0-2.1.6-2.7 1.6l-2.1 4.1c-.1.1-.1.3-.1.4V54c0 1.1.9 2 2 2h7c1.1 0 2-.9 2-2v-3h9v3c0 1.1.9 2 2 2h8c1.1 0 2-.9 2-2v-3h9v3c0 1.1.9 2 2 2h7c1.1 0 2-.9 2-2v-7.9c0-.1 0-.3-.1-.4zM53.1 42c.4 0 .7.2.9.5l1.3 2.5h-3.4c.6-.8 1-1.9 1-3h.2zm-40 0V16H25v1c0 1.7 1.3 3 3 3h8c1.7 0 3-1.3 3-3v-1h11.9v26c0 1.7-1.3 3-3 3H16.1c-1.7 0-3-1.3-3-3zm35.4-31.5l1.8 3.5H39v-4h8.6c.3 0 .7.2.9.5zM31 10v6h2v-6h4v7c0 .6-.4 1-1 1h-8c-.6 0-1-.4-1-1v-7h4zm-15.5.5c.2-.3.5-.5.9-.5H25v4H13.7l1.8-3.5zm-5.5 32c.2-.3.5-.5.9-.5h.1c0 1.1.4 2.2 1 3H8.7l1.3-2.5zM56 54h-7v-5H36v5h-8v-5H15v5H8v-6c0-.6.4-1 1-1h46c.6 0 1 .4 1 1v6z"/>
  <linearGradient id="b" x1="23" x2="23" y1="8.149" y2="54.638" gradientUnits="userSpaceOnUse">
    <stop offset="0" stop-color="#1a6dff"/>
    <stop offset="1" stop-color="#c822ff"/>
  </linearGradient>
  <path fill="url(#b)" d="M16 40h14v2H16z"/>
  <linearGradient id="c" x1="21" x2="21" y1="8.149" y2="54.638" gradientUnits="userSpaceOnUse">
    <stop offset="0" stop-color="#1a6dff"/>
    <stop offset="1" stop-color="#c822ff"/>
  </linearGradient>
  <path fill="url(#c)" d="M16 36h10v2H16z"/>
  <linearGradient id="d" x1="43" x2="43" y1="8.149" y2="54.638" gradientUnits="userSpaceOnUse">
    <stop offset="0" stop-color="#1a6dff"/>
    <stop offset="1" stop-color="#c822ff"/>
  </linearGradient>
  <path fill="url(#d)" d="M42 38h2v4h-2z"/>
  <linearGradient id="e" x1="47" x2="47" y1="8.149" y2="54.638" gradientUnits="userSpaceOnUse">
    <stop offset="0" stop-color="#1a6dff"/>
    <stop offset="1" stop-color="#c822ff"/>
  </linearGradient>
  <path fill="url(#e)" d="M46 38h2v4h-2z"/>
  <linearGradient id="f" x1="39" x2="39" y1="8.149" y2="54.638" gradientUnits="userSpaceOnUse">
    <stop offset="0" stop-color="#1a6dff"/>
    <stop offset="1" stop-color="#c822ff"/>
  </linearGradient>
  <path fill="url(#f)" d="M38 38h2v4h-2z"/>
  <linearGradient id="g" x1="19" x2="19" y1="20.957" y2="26.064" gradientUnits="userSpaceOnUse">
    <stop offset="0" stop-color="#6dc7ff"/>
    <stop offset="1" stop-color="#e6abff"/>
  </linearGradient>
  <path fill="url(#g)" d="M20.9 26h-3.8c-.6 0-1.1-.5-1.1-1.1v-2.8c0-.6.5-1.1 1.1-1.1h3.8c.6 0 1.1.5 1.1 1.1v2.8c0 .6-.5 1.1-1.1 1.1z"/>
</svg>
