<svg xmlns="http://www.w3.org/2000/svg" viewBox="0 0 64 64">
  <defs/>
  <linearGradient id="a" x1="47" x2="47" y1="31.833" y2="46.113" gradientUnits="userSpaceOnUse" spreadMethod="reflect">
    <stop offset="0" stop-color="#6dc7ff"/>
    <stop offset="1" stop-color="#e6abff"/>
  </linearGradient>
  <path fill="url(#a)" d="M47 32a7 7 0 100 14 7 7 0 100-14z"/>
  <linearGradient id="b" x1="32" x2="32" y1="6.5" y2="57.72" gradientUnits="userSpaceOnUse" spreadMethod="reflect">
    <stop offset="0" stop-color="#1a6dff"/>
    <stop offset="1" stop-color="#c822ff"/>
  </linearGradient>
  <path fill="url(#b)" d="M56 39c0 4.962-4.037 9-9 9s-9-4.038-9-9 4.037-9 9-9c2.372 0 4.609.914 6.302 2.574l1.4-1.428c-1.334-1.309-2.948-2.232-4.702-2.727v-5.532c0-1.525-1.163-2.808-2.706-2.985-5.997-.685-11.409-5.062-13.469-10.892C33.399 7.808 32.264 7 30.997 7h-5.994c-1.267 0-2.402.808-2.829 2.011-2.059 5.829-7.471 10.206-13.468 10.892C7.163 20.08 6 21.363 6 22.888v11.621c0 12.111 9.624 22.198 21.454 22.485.183.004.363.006.544.006 6.282 0 12.195-2.65 16.384-7.328.841.206 1.714.328 2.618.328 6.065 0 11-4.935 11-11h-2zM27.503 54.994C16.749 54.733 8 45.543 8 34.508v-11.62c0-.516.393-.936.933-.998 6.74-.771 12.819-5.679 15.127-12.213.143-.405.522-.677.943-.677h5.994c.421 0 .8.272.942.677 2.309 6.534 8.388 11.442 15.128 12.213.54.062.933.482.933.998v5.161c-.331-.031-.664-.049-1-.049-6.065 0-11 4.935-11 11 0 4.394 2.596 8.184 6.33 9.945-3.882 3.992-9.222 6.183-14.827 6.049z"/>
  <linearGradient id="c" x1="48.978" x2="48.978" y1="6.5" y2="57.72" gradientUnits="userSpaceOnUse" spreadMethod="reflect">
    <stop offset="0" stop-color="#1a6dff"/>
    <stop offset="1" stop-color="#c822ff"/>
  </linearGradient>
  <path fill="url(#c)" d="M46.371 40.706l-3.664-3.664-1.414 1.414 3.664 3.664c.584.584 1.354.879 2.125.879.712 0 1.425-.251 1.994-.757l7.588-6.745-1.328-1.495-7.588 6.745c-.395.353-1 .336-1.377-.041z"/>
  <linearGradient id="d" x1="19.5" x2="19.5" y1="6.5" y2="57.72" gradientUnits="userSpaceOnUse" spreadMethod="reflect">
    <stop offset="0" stop-color="#1a6dff"/>
    <stop offset="1" stop-color="#c822ff"/>
  </linearGradient>
  <path fill="url(#d)" d="M24.933 14.895c-3.318 4.99-8.729 8.73-14.12 9.76L10 24.81V35c0 9.925 8.075 18 18 18h1V14h-2.406c-.668 0-1.289.335-1.661.895zM27 50.969C18.642 50.451 12 43.487 12 35v-8.555c5.625-1.33 11.158-5.271 14.594-10.446H27v34.97z"/>
</svg>
