<svg xmlns="http://www.w3.org/2000/svg" viewBox="0 0 64 64">
  <defs/>
  <linearGradient id="a" x1="41" x2="41" y1="10.25" y2="54.9" gradientUnits="userSpaceOnUse" spreadMethod="reflect">
    <stop offset="0" stop-color="#1a6dff"/>
    <stop offset="1" stop-color="#c822ff"/>
  </linearGradient>
  <path fill="url(#a)" d="M40 25h2v8h-2z"/>
  <linearGradient id="b" x1="15" x2="15" y1="10.25" y2="54.9" gradientUnits="userSpaceOnUse" spreadMethod="reflect">
    <stop offset="0" stop-color="#1a6dff"/>
    <stop offset="1" stop-color="#c822ff"/>
  </linearGradient>
  <path fill="url(#b)" d="M14 25h2v8h-2z"/>
  <linearGradient id="c" x1="32" x2="32" y1="10.25" y2="54.9" gradientUnits="userSpaceOnUse" spreadMethod="reflect">
    <stop offset="0" stop-color="#1a6dff"/>
    <stop offset="1" stop-color="#c822ff"/>
  </linearGradient>
  <path fill="url(#c)" d="M50 34.202V15c0-1.654-1.346-3-3-3H35.618l-.446-.894C34.83 10.424 34.144 10 33.381 10H22.619c-.763 0-1.449.424-1.791 1.107l-.446.893H9c-1.654 0-3 1.346-3 3v28c0 1.654 1.346 3 3 3h1v1c0 1.654 1.346 3 3 3h6c1.654 0 3-1.346 3-3v-1h12v1c0 1.654 1.346 3 3 3h3.019c1.827 2.423 4.72 4 7.981 4 5.514 0 10-4.486 10-10 0-4.829-3.441-8.869-8-9.798zM8 43V15c0-.551.448-1 1-1h38c.552 0 1 .449 1 1v19c-.685 0-1.354.07-2 .202V16H10v26h28.202c-.132.646-.202 1.315-.202 2H9c-.552 0-1-.449-1-1zm30.841-3H12V18h32v16.841c-2.301 1.009-4.15 2.858-5.159 5.159zM20 47c0 .551-.448 1-1 1h-6c-.552 0-1-.449-1-1v-1h8v1zm17 1c-.552 0-1-.449-1-1v-1h2.202c.142.696.36 1.364.639 2H37zm11 4c-4.411 0-8-3.589-8-8s3.589-8 8-8 8 3.589 8 8-3.589 8-8 8z"/>
  <linearGradient id="d" x1="48" x2="48" y1="39.375" y2="48.152" gradientUnits="userSpaceOnUse" spreadMethod="reflect">
    <stop offset="0" stop-color="#6dc7ff"/>
    <stop offset="1" stop-color="#e6abff"/>
  </linearGradient>
  <path fill="url(#d)" d="M46.5 47.896c-.535 0-1.038-.208-1.416-.587l-2.791-2.791 1.414-1.414 2.792 2.792 5.794-5.792 1.414 1.414-5.792 5.792c-.377.378-.88.586-1.415.586z"/>
  <linearGradient id="e" x1="28" x2="28" y1="21.25" y2="36.5" gradientUnits="userSpaceOnUse" spreadMethod="reflect">
    <stop offset="0" stop-color="#6dc7ff"/>
    <stop offset="1" stop-color="#e6abff"/>
  </linearGradient>
  <path fill="url(#e)" d="M28 22c-3.859 0-7 3.14-7 7s3.141 7 7 7 7-3.14 7-7-3.141-7-7-7zm4.899 6h-2.083c-.302-.847-.969-1.514-1.816-1.816v-2.083c1.956.399 3.5 1.943 3.899 3.899zM27 24.101v2.083c-.847.302-1.514.969-1.816 1.816h-2.083c.399-1.956 1.943-3.5 3.899-3.899zM23.101 30h2.083c.302.847.968 1.514 1.815 1.816v2.083C25.044 33.5 23.5 31.956 23.101 30zM29 33.899v-2.083c.847-.302 1.514-.969 1.816-1.816h2.083c-.399 1.956-1.943 3.5-3.899 3.899z"/>
</svg>
