<svg xmlns="http://www.w3.org/2000/svg" viewBox="0 0 64 64">
  <defs/>
  <linearGradient id="a" x1="32" x2="32" y1="7.833" y2="55.45" gradientUnits="userSpaceOnUse" spreadMethod="reflect">
    <stop offset="0" stop-color="#1a6dff"/>
    <stop offset="1" stop-color="#c822ff"/>
  </linearGradient>
  <path fill="url(#a)" d="M55 11H40.618l-.449-.897C39.83 9.423 39.147 9 38.387 9H25.613c-.761 0-1.443.423-1.782 1.102l-.449.898H9c-1.654 0-3 1.346-3 3v34c0 1.654 1.346 3 3 3h1v1c0 1.654 1.346 3 3 3h8c1.654 0 3-1.346 3-3v-1h16v1c0 1.654 1.346 3 3 3h8c1.654 0 3-1.346 3-3v-1h1c1.654 0 3-1.346 3-3V14c0-1.654-1.346-3-3-3zM22 52c0 .552-.448 1-1 1h-8c-.552 0-1-.448-1-1v-1h10v1zm30 0c0 .552-.448 1-1 1h-8c-.552 0-1-.448-1-1v-1h10v1zm4-4c0 .552-.448 1-1 1H9c-.552 0-1-.448-1-1V14c0-.552.448-1 1-1h46c.552 0 1 .448 1 1v34z"/>
  <linearGradient id="b" x1="32" x2="32" y1="7.833" y2="55.45" gradientUnits="userSpaceOnUse" spreadMethod="reflect">
    <stop offset="0" stop-color="#1a6dff"/>
    <stop offset="1" stop-color="#c822ff"/>
  </linearGradient>
  <path fill="url(#b)" d="M51.492 47.626C52.945 47.383 54 46.138 54 44.665v-27.33c0-1.473-1.055-2.718-2.509-2.961l-7.995-1.333c-.869-.144-1.76.099-2.435.671-.409.347-.696.796-.872 1.288H12c-1.103 0-2 .897-2 2v28c0 1.103.897 2 2 2h28.19c.175.492.462.941.872 1.288.546.464 1.234.712 1.939.712.165 0 .33-.014.495-.041l7.996-1.333zM12 17h28v11h-8v-2.476c0-.552-.286-1.062-.748-1.33-.441-.258-.97-.26-1.413-.009l-8.819 5.003C20.391 29.545 20 30.239 20 31s.391 1.455 1.02 1.812l8.819 5.003c.22.124.46.187.699.187.246 0 .491-.065.714-.195.462-.27.748-.78.748-1.331V34h8v11H12V17zm18 16v2.606l-7.981-4.525c-.024-.031-.024-.131-.013-.152L30 26.394V33zm12.354 13.762c-.228-.194-.354-.465-.354-.765V34c0-1.103-.897-2-2-2h-8v-2h8c1.103 0 2-.895 2-1.995V16.003c0-.3.126-.571.354-.765s.511-.275.813-.225l7.994 1.333c.486.082.839.498.839.989v27.33c0 .491-.353.907-.837.988l-7.995 1.333c-.302.053-.585-.031-.814-.224z"/>
  <linearGradient id="c" x1="47" x2="47" y1="7.833" y2="55.45" gradientUnits="userSpaceOnUse" spreadMethod="reflect">
    <stop offset="0" stop-color="#1a6dff"/>
    <stop offset="1" stop-color="#c822ff"/>
  </linearGradient>
  <path fill="url(#c)" d="M47 23c-1.654 0-3 1.346-3 3v10c0 1.654 1.346 3 3 3s3-1.346 3-3V26c0-1.654-1.346-3-3-3zm1 13c0 .552-.448 1-1 1s-1-.448-1-1V26c0-.552.448-1 1-1s1 .448 1 1v10z"/>
  <linearGradient id="d" x1="47" x2="47" y1="24.833" y2="37.171" gradientUnits="userSpaceOnUse" spreadMethod="reflect">
    <stop offset="0" stop-color="#6dc7ff"/>
    <stop offset="1" stop-color="#e6abff"/>
  </linearGradient>
  <path fill="url(#d)" d="M47 37c-.552 0-1-.448-1-1V26c0-.552.448-1 1-1s1 .448 1 1v10c0 .552-.448 1-1 1z"/>
  <linearGradient id="e" x1="17" x2="17" y1="49.167" y2="55.169" gradientUnits="userSpaceOnUse" spreadMethod="reflect">
    <stop offset="0" stop-color="#6dc7ff"/>
    <stop offset="1" stop-color="#e6abff"/>
  </linearGradient>
  <path fill="url(#e)" d="M21 53h-8c-.552 0-1-.448-1-1v-1h10v1c0 .552-.448 1-1 1z"/>
  <linearGradient id="f" x1="47" x2="47" y1="49.167" y2="55.169" gradientUnits="userSpaceOnUse" spreadMethod="reflect">
    <stop offset="0" stop-color="#6dc7ff"/>
    <stop offset="1" stop-color="#e6abff"/>
  </linearGradient>
  <path fill="url(#f)" d="M51 53h-8c-.552 0-1-.448-1-1v-1h10v1c0 .552-.448 1-1 1z"/>
</svg>
