<svg xmlns="http://www.w3.org/2000/svg" viewBox="0 0 64 64">
  <defs/>
  <linearGradient id="a" x1="48" x2="48" y1="15.75" y2="20.25" gradientUnits="userSpaceOnUse" spreadMethod="reflect">
    <stop offset="0" stop-color="#6dc7ff"/>
    <stop offset="1" stop-color="#e6abff"/>
  </linearGradient>
  <path fill="url(#a)" d="M48 16a2 2 0 100 4 2 2 0 100-4z"/>
  <linearGradient id="b" x1="40" x2="40" y1="15.75" y2="20.25" gradientUnits="userSpaceOnUse" spreadMethod="reflect">
    <stop offset="0" stop-color="#6dc7ff"/>
    <stop offset="1" stop-color="#e6abff"/>
  </linearGradient>
  <path fill="url(#b)" d="M40 16a2 2 0 100 4 2 2 0 100-4z"/>
  <linearGradient id="c" x1="48" x2="48" y1="29.625" y2="34.382" gradientUnits="userSpaceOnUse" spreadMethod="reflect">
    <stop offset="0" stop-color="#6dc7ff"/>
    <stop offset="1" stop-color="#e6abff"/>
  </linearGradient>
  <path fill="url(#c)" d="M48 30a2 2 0 100 4 2 2 0 100-4z"/>
  <linearGradient id="d" x1="40" x2="40" y1="29.625" y2="34.382" gradientUnits="userSpaceOnUse" spreadMethod="reflect">
    <stop offset="0" stop-color="#6dc7ff"/>
    <stop offset="1" stop-color="#e6abff"/>
  </linearGradient>
  <path fill="url(#d)" d="M40 30a2 2 0 100 4 2 2 0 100-4z"/>
  <linearGradient id="e" x1="48" x2="48" y1="43.625" y2="48.502" gradientUnits="userSpaceOnUse" spreadMethod="reflect">
    <stop offset="0" stop-color="#6dc7ff"/>
    <stop offset="1" stop-color="#e6abff"/>
  </linearGradient>
  <path fill="url(#e)" d="M48 44a2 2 0 100 4 2 2 0 100-4z"/>
  <linearGradient id="f" x1="40" x2="40" y1="43.625" y2="48.502" gradientUnits="userSpaceOnUse" spreadMethod="reflect">
    <stop offset="0" stop-color="#6dc7ff"/>
    <stop offset="1" stop-color="#e6abff"/>
  </linearGradient>
  <path fill="url(#f)" d="M40 44a2 2 0 100 4 2 2 0 100-4z"/>
  <linearGradient id="g" x1="32" x2="32" y1="6.833" y2="57.492" gradientUnits="userSpaceOnUse" spreadMethod="reflect">
    <stop offset="0" stop-color="#1a6dff"/>
    <stop offset="1" stop-color="#c822ff"/>
  </linearGradient>
  <path fill="url(#g)" d="M55 13c0-1.654-1.346-3-3-3h-1V9c0-1.654-1.346-3-3-3H16c-1.654 0-3 1.346-3 3v1h-1c-1.654 0-3 1.346-3 3v10c0 .771.301 1.468.78 2-.479.532-.78 1.229-.78 2v10c0 .771.301 1.468.78 2-.479.532-.78 1.229-.78 2v10c0 1.654 1.346 3 3 3h1v1c0 1.654 1.346 3 3 3h8c1.654 0 3-1.346 3-3v-1h10v1c0 1.654 1.346 3 3 3h8c1.654 0 3-1.346 3-3v-1h1c1.654 0 3-1.346 3-3V41c0-.771-.301-1.468-.78-2 .48-.532.78-1.229.78-2V27c0-.771-.301-1.468-.78-2 .48-.532.78-1.229.78-2V13zM15 9c0-.551.448-1 1-1h32c.552 0 1 .449 1 1v1H15V9zm-4 4c0-.551.448-1 1-1h40c.552 0 1 .449 1 1v10c0 .551-.448 1-1 1H33.816c-.414-1.161-1.514-2-2.816-2H19c-1.302 0-2.402.839-2.816 2H12c-.552 0-1-.449-1-1V13zm42 14v10c0 .551-.448 1-1 1H33.816c-.414-1.161-1.514-2-2.816-2H19c-1.302 0-2.402.839-2.816 2H12c-.552 0-1-.449-1-1V27c0-.551.448-1 1-1h40c.552 0 1 .449 1 1zM25 55c0 .551-.448 1-1 1h-8c-.552 0-1-.449-1-1v-1h10v1zm24 0c0 .551-.448 1-1 1h-8c-.552 0-1-.449-1-1v-1h10v1zm4-4c0 .551-.448 1-1 1H33.816c-.414-1.161-1.514-2-2.816-2H19c-1.302 0-2.402.839-2.816 2H12c-.552 0-1-.449-1-1V41c0-.551.448-1 1-1h40c.552 0 1 .449 1 1v10z"/>
  <linearGradient id="h" x1="18" x2="18" y1="6.833" y2="57.492" gradientUnits="userSpaceOnUse" spreadMethod="reflect">
    <stop offset="0" stop-color="#1a6dff"/>
    <stop offset="1" stop-color="#c822ff"/>
  </linearGradient>
  <path fill="url(#h)" d="M16 31h4v2h-4z"/>
  <linearGradient id="i" x1="32" x2="32" y1="6.833" y2="57.492" gradientUnits="userSpaceOnUse" spreadMethod="reflect">
    <stop offset="0" stop-color="#1a6dff"/>
    <stop offset="1" stop-color="#c822ff"/>
  </linearGradient>
  <path fill="url(#i)" d="M30 31h4v2h-4z"/>
  <linearGradient id="j" x1="25" x2="25" y1="6.833" y2="57.492" gradientUnits="userSpaceOnUse" spreadMethod="reflect">
    <stop offset="0" stop-color="#1a6dff"/>
    <stop offset="1" stop-color="#c822ff"/>
  </linearGradient>
  <path fill="url(#j)" d="M22 31h6v2h-6z"/>
  <linearGradient id="k" x1="18" x2="18" y1="6.833" y2="57.492" gradientUnits="userSpaceOnUse" spreadMethod="reflect">
    <stop offset="0" stop-color="#1a6dff"/>
    <stop offset="1" stop-color="#c822ff"/>
  </linearGradient>
  <path fill="url(#k)" d="M16 45h4v2h-4z"/>
  <linearGradient id="l" x1="32" x2="32" y1="6.833" y2="57.492" gradientUnits="userSpaceOnUse" spreadMethod="reflect">
    <stop offset="0" stop-color="#1a6dff"/>
    <stop offset="1" stop-color="#c822ff"/>
  </linearGradient>
  <path fill="url(#l)" d="M30 45h4v2h-4z"/>
  <linearGradient id="m" x1="25" x2="25" y1="6.833" y2="57.492" gradientUnits="userSpaceOnUse" spreadMethod="reflect">
    <stop offset="0" stop-color="#1a6dff"/>
    <stop offset="1" stop-color="#c822ff"/>
  </linearGradient>
  <path fill="url(#m)" d="M22 45h6v2h-6z"/>
  <linearGradient id="n" x1="18" x2="18" y1="6.833" y2="57.492" gradientUnits="userSpaceOnUse" spreadMethod="reflect">
    <stop offset="0" stop-color="#1a6dff"/>
    <stop offset="1" stop-color="#c822ff"/>
  </linearGradient>
  <path fill="url(#n)" d="M16 17h4v2h-4z"/>
  <linearGradient id="o" x1="32" x2="32" y1="6.833" y2="57.492" gradientUnits="userSpaceOnUse" spreadMethod="reflect">
    <stop offset="0" stop-color="#1a6dff"/>
    <stop offset="1" stop-color="#c822ff"/>
  </linearGradient>
  <path fill="url(#o)" d="M30 17h4v2h-4z"/>
  <linearGradient id="p" x1="25" x2="25" y1="6.833" y2="57.492" gradientUnits="userSpaceOnUse" spreadMethod="reflect">
    <stop offset="0" stop-color="#1a6dff"/>
    <stop offset="1" stop-color="#c822ff"/>
  </linearGradient>
  <path fill="url(#p)" d="M22 17h6v2h-6z"/>
</svg>
