<svg xmlns="http://www.w3.org/2000/svg" viewBox="0 0 64 64">
  <defs/>
  <linearGradient id="a" x1="31" x2="31" y1="27.75" y2="38.003" gradientUnits="userSpaceOnUse" spreadMethod="reflect">
    <stop offset="0" stop-color="#6dc7ff"/>
    <stop offset="1" stop-color="#e6abff"/>
  </linearGradient>
  <path fill="url(#a)" d="M31 28a4 4 0 100 8 4 4 0 100-8z"/>
  <linearGradient id="b" x1="29.958" x2="29.958" y1="5.25" y2="58.279" gradientUnits="userSpaceOnUse" spreadMethod="reflect">
    <stop offset="0" stop-color="#1a6dff"/>
    <stop offset="1" stop-color="#c822ff"/>
  </linearGradient>
  <path fill="url(#b)" d="M31 55C18.318 55 8 44.683 8 32S18.318 9 31 9c9.144 0 17.419 5.414 21.084 13.794l1.832-.801C49.934 12.885 40.938 7 31 7 17.215 7 6 18.215 6 32s11.215 25 25 25c9.938 0 18.934-5.885 22.917-14.993l-1.832-.801C48.42 49.586 40.144 55 31 55z"/>
  <linearGradient id="c" x1="29.417" x2="29.417" y1="5.25" y2="58.279" gradientUnits="userSpaceOnUse" spreadMethod="reflect">
    <stop offset="0" stop-color="#1a6dff"/>
    <stop offset="1" stop-color="#c822ff"/>
  </linearGradient>
  <path fill="url(#c)" d="M31 15c5.686 0 10.971 2.825 14.138 7.557l1.662-1.113C43.261 16.156 37.354 13 31 13c-10.477 0-19 8.523-19 19s8.523 19 19 19c6.379 0 12.299-3.176 15.834-8.495l-1.666-1.107C42.005 46.158 36.708 49 31 49c-9.374 0-17-7.626-17-17s7.626-17 17-17z"/>
  <linearGradient id="d" x1="42" x2="42" y1="5.25" y2="58.279" gradientUnits="userSpaceOnUse" spreadMethod="reflect">
    <stop offset="0" stop-color="#1a6dff"/>
    <stop offset="1" stop-color="#c822ff"/>
  </linearGradient>
  <path fill="url(#d)" d="M56.518 29.44l-7.786-4.219c-.569-.31-1.239-.295-1.793.036-.579.346-.939.991-.939 1.684V31H35.899c-.465-2.279-2.484-4-4.899-4-2.757 0-5 2.243-5 5s2.243 5 5 5c2.414 0 4.434-1.721 4.899-4H46v4.059c0 .693.36 1.339.938 1.684.289.171.608.257.929.257.296 0 .592-.073.865-.222l7.786-4.219C57.432 34.064 58 33.084 58 32s-.568-2.064-1.482-2.56zM31 35c-1.654 0-3-1.346-3-3s1.346-3 3-3 3 1.346 3 3-1.346 3-3 3zm24.565-2.198L47.999 36.9l-.05-9.828 7.616 4.126c.404.219.435.669.435.802s-.031.583-.435.802z"/>
</svg>
