<svg xmlns="http://www.w3.org/2000/svg" viewBox="0 0 64 64">
  <defs/>
  <linearGradient id="a" x1="32.002" x2="32.002" y1="7" y2="57.645" gradientUnits="userSpaceOnUse" spreadMethod="reflect">
    <stop offset="0" stop-color="#1a6dff"/>
    <stop offset="1" stop-color="#c822ff"/>
  </linearGradient>
  <path fill="url(#a)" d="M46.1 57c-.512 0-1.026-.125-1.502-.376l-12.132-6.411c-.294-.154-.641-.154-.931 0l-12.134 6.411c-1.087.574-2.381.483-3.378-.237-.996-.721-1.486-1.923-1.279-3.136l2.303-13.501c.065-.387-.063-.781-.342-1.055l-9.739-9.542c-.874-.856-1.182-2.112-.803-3.276.38-1.164 1.368-1.997 2.58-2.174l13.439-1.963c.392-.058.73-.304.905-.66L29.12 8.793C29.665 7.687 30.768 7 32 7h.001c1.231 0 2.334.687 2.877 1.793l6.032 12.285c.176.357.516.604.909.662l13.443 1.964c1.21.176 2.197 1.008 2.577 2.171.379 1.163.072 2.418-.802 3.273l-9.744 9.547c-.28.274-.407.668-.342 1.054l2.304 13.502c.208 1.212-.282 2.414-1.278 3.136-.561.406-1.217.613-1.877.613zM32 48.097c.48 0 .962.116 1.4.349l12.133 6.411c.414.218.89.187 1.271-.09.381-.275.561-.716.481-1.179l-2.304-13.503c-.177-1.032.165-2.086.913-2.818l9.743-9.546c.332-.326.444-.784.301-1.226-.145-.441-.505-.745-.965-.813l-13.442-1.964c-1.045-.151-1.949-.809-2.416-1.759L33.083 9.674C32.875 9.252 32.471 9 32 9s-.876.253-1.084.676l-6.033 12.287c-.466.948-1.367 1.605-2.411 1.757l-13.44 1.962c-.461.067-.823.372-.968.815-.143.443-.031.903.302 1.229l9.738 9.541c.748.732 1.09 1.786.913 2.819l-2.303 13.501c-.079.464.102.904.481 1.181.382.275.857.307 1.271.089L30.6 48.446c.438-.233.919-.349 1.4-.349z"/>
  <linearGradient id="b" x1="32" x2="32" y1="19.75" y2="44.755" gradientUnits="userSpaceOnUse" spreadMethod="reflect">
    <stop offset="0" stop-color="#6dc7ff"/>
    <stop offset="1" stop-color="#e6abff"/>
  </linearGradient>
  <path fill="url(#b)" d="M32.909 41.885l5.861 2.987c.831.423 1.805-.254 1.647-1.145l-1.195-6.757c-.063-.357.057-.721.321-.97l5.118-4.837c.668-.631.296-1.724-.63-1.854l-7.052-.994c-.37-.052-.689-.276-.853-.599l-3.107-6.105c-.423-.832-1.612-.832-2.035 0l-3.108 6.105c-.164.323-.484.547-.853.599l-7.052.993c-.926.13-1.297 1.223-.63 1.854l5.126 4.844c.258.244.377.602.315.952l-1.197 6.768c-.158.891.817 1.568 1.647 1.145l5.861-2.987c.569-.29 1.245-.29 1.816.001z"/>
</svg>
