<svg xmlns="http://www.w3.org/2000/svg" viewBox="0 0 64 64">
  <defs/>
  <linearGradient id="a" x1="32" x2="32" y1="16.25" y2="48.312" gradientUnits="userSpaceOnUse" spreadMethod="reflect">
    <stop offset="0" stop-color="#6dc7ff"/>
    <stop offset="1" stop-color="#e6abff"/>
  </linearGradient>
  <path fill="url(#a)" d="M26.064 45.003c12.076 0 18.68-10.005 18.68-18.68 0-.284-.006-.567-.019-.849 1.282-.927 2.396-2.083 3.275-3.399-1.176.523-2.442.875-3.77 1.034 1.355-.813 2.396-2.099 2.887-3.632-1.269.752-2.673 1.299-4.169 1.594-1.198-1.276-2.904-2.074-4.792-2.074-3.626 0-6.566 2.94-6.566 6.565 0 .515.058 1.016.17 1.497-5.456-.274-10.295-2.887-13.532-6.859-.564.97-.889 2.097-.889 3.3 0 2.278 1.159 4.289 2.922 5.465-1.077-.033-2.089-.329-2.974-.821-.001.027-.001.055-.001.084 0 3.18 2.263 5.834 5.267 6.436-.551.15-1.132.231-1.731.231-.423 0-.834-.042-1.234-.118.836 2.608 3.259 4.506 6.133 4.56-2.247 1.761-5.078 2.81-8.154 2.81-.53 0-1.052-.03-1.566-.091 2.905 1.86 6.355 2.947 10.063 2.947"/>
  <linearGradient id="b" x1="32" x2="32" y1="5.25" y2="59.38" gradientUnits="userSpaceOnUse" spreadMethod="reflect">
    <stop offset="0" stop-color="#1a6dff"/>
    <stop offset="1" stop-color="#c822ff"/>
  </linearGradient>
  <path fill="url(#b)" d="M32 58C17.663 58 6 46.337 6 32S17.663 6 32 6s26 11.663 26 26-11.663 26-26 26zm0-50C18.767 8 8 18.767 8 32s10.767 24 24 24 24-10.767 24-24S45.233 8 32 8z"/>
</svg>
