<svg xmlns="http://www.w3.org/2000/svg" viewBox="0 0 64 64"><linearGradient id="a" x1="32" x2="32" y1="6" y2="58" gradientUnits="userSpaceOnUse"><stop offset="0" stop-color="#1a6dff"/><stop offset="1" stop-color="#c822ff"/></linearGradient><path fill="url(#a)" d="M40 58H25c-.553 0-1-.448-1-1s.447-1 1-1h15c.553 0 1 .448 1 1s-.447 1-1 1zm7-5H17c-.553 0-1-.448-1-1s.447-1 1-1h30c.553 0 1 .448 1 1s-.447 1-1 1zm5-5H12c-.553 0-1-.448-1-1s.447-1 1-1h40c.553 0 1 .448 1 1s-.447 1-1 1zm2.914-5H9.086c-.553 0-1-.448-1-1s.447-1 1-1h45.828c.553 0 1 .448 1 1s-.447 1-1 1zm1.585-5H7.501c-.553 0-1-.448-1-1s.447-1 1-1h48.998c.553 0 1 .448 1 1s-.447 1-1 1zM32 6C18.026 6 6.592 17.081 6.022 30.917 5.976 32.052 6.893 33 8.029 33H55.97c1.136 0 2.054-.948 2.007-2.083C57.408 17.081 45.974 6 32 6zm0 2c12.898 0 23.448 10.229 23.975 23H8.025C8.552 18.229 19.102 8 32 8z"/><linearGradient id="b" x1="32" x2="32" y1="10" y2="29" gradientUnits="userSpaceOnUse"><stop offset="0" stop-color="#6dc7ff"/><stop offset="1" stop-color="#e6abff"/></linearGradient><path fill="url(#b)" d="M10.202 29C11.663 18.191 20.865 10 32 10s20.338 8.191 21.798 19H10.202z"/></svg>