<svg xmlns="http://www.w3.org/2000/svg" viewBox="0 0 64 64">
  <defs/>
  <linearGradient id="a" x1="32" x2="32" y1="10.25" y2="53.911" gradientUnits="userSpaceOnUse" spreadMethod="reflect">
    <stop offset="0" stop-color="#1a6dff"/>
    <stop offset="1" stop-color="#c822ff"/>
  </linearGradient>
  <path fill="url(#a)" d="M59 47V14c0-1.654-1.346-3-3-3H14c-1.654 0-3 1.346-3 3v5h-1c-1.654 0-3 1.346-3 3v3H6c-1.654 0-3 1.346-3 3v22c0 1.654 1.346 3 3 3h52c1.654 0 3-1.346 3-3v-3h-2zM13 14c0-.552.449-1 1-1h42c.551 0 1 .448 1 1v33H31v-2h24V17c0-1.103-.897-2-2-2H17c-1.103 0-2 .897-2 2v2h-2v-5zm15 5H17v-2h36v26H31V22c0-1.654-1.346-3-3-3zM6 51c-.551 0-1-.448-1-1V28c0-.552.449-1 1-1h12c.551 0 1 .448 1 1v22c0 .552-.449 1-1 1H6zm19 0h-4.184c.112-.314.184-.648.184-1V28c0-1.654-1.346-3-3-3H9v-3c0-.552.449-1 1-1h18c.551 0 1 .448 1 1v28c0 .552-.449 1-1 1h-3zm34-1c0 .552-.449 1-1 1H30.816c.112-.314.184-.648.184-1v-1h28v1z"/>
  <linearGradient id="b" x1="47.355" x2="47.355" y1="17.25" y2="27.75" gradientUnits="userSpaceOnUse" spreadMethod="reflect">
    <stop offset="0" stop-color="#6dc7ff"/>
    <stop offset="1" stop-color="#e6abff"/>
  </linearGradient>
  <path fill="url(#b)" d="M51 25.786V20c0-.552-.448-1-1-1h-5.786c-.448 0-.672.542-.356.858l6.283 6.283c.317.317.859.093.859-.355z"/>
  <path fill="#7933ff" d="M12 45a2 2 0 100 4 2 2 0 100-4z"/>
</svg>
