<svg xmlns="http://www.w3.org/2000/svg" viewBox="0 0 64 64">
  <defs/>
  <linearGradient id="a" x1="39.5" x2="39.5" y1="25.875" y2="28.18" gradientUnits="userSpaceOnUse">
    <stop offset="0" stop-color="#6dc7ff"/>
    <stop offset="1" stop-color="#e6abff"/>
  </linearGradient>
  <path fill="url(#a)" d="M39.5 26c-1.2 0-2.2.9-2.4 2H42c-.3-1.1-1.3-2-2.5-2z"/>
  <linearGradient id="b" x1="32" x2="32" y1="6.106" y2="57.504" gradientUnits="userSpaceOnUse">
    <stop offset="0" stop-color="#1a6dff"/>
    <stop offset="1" stop-color="#c822ff"/>
  </linearGradient>
  <path fill="url(#b)" d="M46 47v-5.4c2.4-1.1 11-5.6 11-13.4 0-3.4-2.9-6.2-6.5-6.2-1.7 0-3.3.7-4.5 1.8V9c0-1.7-1.3-3-3-3H9C7.3 6 6 7.3 6 9v42c0 1.9.8 3.7 2.1 5 1.3 1.3 3 2 4.9 2h38c3.9 0 7-3.1 7-7v-4H46zm.1-19.4c.3-2.1 2.2-3.6 4.4-3.6 2.5 0 4.5 1.9 4.5 4.2 0 6.6-8.1 10.8-10 11.6-1.9-.9-10-5-10-11.6 0-2.3 2-4.2 4.5-4.2 2.2 0 4.1 1.6 4.4 3.6l.1.9h1.8l.3-.9zM8 9c0-.6.4-1 1-1h34c.6 0 1 .4 1 1v1.2c-.3-.1-.6-.2-1-.2H9c-.4 0-.7.1-1 .2V9zm5.2 47c-1.4 0-2.7-.5-3.6-1.4-1-1-1.5-2.2-1.5-3.6V13c0-.6.4-1 1-1h34c.6 0 1 .4 1 1v10.7c-1.2-1.1-2.8-1.7-4.5-1.7-3.6 0-6.5 2.8-6.5 6.2 0 7.7 8.5 12.2 11 13.4V47H18v3.7c0 2.9-2.2 5.2-4.8 5.3zM56 51c0 2.8-2.2 5-5 5H17.8c1.3-1.3 2.2-3.2 2.2-5.3V49h36v2z"/>
  <linearGradient id="c" x1="14" x2="14" y1="6.106" y2="57.504" gradientUnits="userSpaceOnUse">
    <stop offset="0" stop-color="#1a6dff"/>
    <stop offset="1" stop-color="#c822ff"/>
  </linearGradient>
  <path fill="url(#c)" d="M14 18c-1.7 0-3 1.3-3 3s1.3 3 3 3 3-1.3 3-3-1.3-3-3-3zm0 4c-.6 0-1-.4-1-1s.4-1 1-1 1 .4 1 1-.4 1-1 1z"/>
  <linearGradient id="d" x1="24.5" x2="24.5" y1="6.106" y2="57.504" gradientUnits="userSpaceOnUse">
    <stop offset="0" stop-color="#1a6dff"/>
    <stop offset="1" stop-color="#c822ff"/>
  </linearGradient>
  <path fill="url(#d)" d="M19 20h11v2H19z"/>
  <linearGradient id="e" x1="14" x2="14" y1="6.106" y2="57.504" gradientUnits="userSpaceOnUse">
    <stop offset="0" stop-color="#1a6dff"/>
    <stop offset="1" stop-color="#c822ff"/>
  </linearGradient>
  <path fill="url(#e)" d="M14 27c-1.7 0-3 1.3-3 3s1.3 3 3 3 3-1.3 3-3-1.3-3-3-3zm0 4c-.6 0-1-.4-1-1s.4-1 1-1 1 .4 1 1-.4 1-1 1z"/>
  <linearGradient id="f" x1="24.5" x2="24.5" y1="6.106" y2="57.504" gradientUnits="userSpaceOnUse">
    <stop offset="0" stop-color="#1a6dff"/>
    <stop offset="1" stop-color="#c822ff"/>
  </linearGradient>
  <path fill="url(#f)" d="M19 29h11v2H19z"/>
  <linearGradient id="g" x1="14" x2="14" y1="6.106" y2="57.504" gradientUnits="userSpaceOnUse">
    <stop offset="0" stop-color="#1a6dff"/>
    <stop offset="1" stop-color="#c822ff"/>
  </linearGradient>
  <path fill="url(#g)" d="M14 36c-1.7 0-3 1.3-3 3s1.3 3 3 3 3-1.3 3-3-1.3-3-3-3zm0 4c-.6 0-1-.4-1-1s.4-1 1-1 1 .4 1 1-.4 1-1 1z"/>
  <linearGradient id="h" x1="24.5" x2="24.5" y1="6.106" y2="57.504" gradientUnits="userSpaceOnUse">
    <stop offset="0" stop-color="#1a6dff"/>
    <stop offset="1" stop-color="#c822ff"/>
  </linearGradient>
  <path fill="url(#h)" d="M19 38h11v2H19z"/>
  <linearGradient id="i" x1="50.5" x2="50.5" y1="25.875" y2="28.18" gradientUnits="userSpaceOnUse">
    <stop offset="0" stop-color="#6dc7ff"/>
    <stop offset="1" stop-color="#e6abff"/>
  </linearGradient>
  <path fill="url(#i)" d="M52.9 28c-.2-1.1-1.2-2-2.4-2s-2.2.9-2.4 2h4.8z"/>
</svg>
