<svg width="26" height="26" viewBox="0 0 26 26" fill="none" xmlns="http://www.w3.org/2000/svg">
<path d="M14.037 21.2963V4.70371C14.037 4.13097 13.5727 3.66667 12.9999 3.66667C12.4272 3.66667 11.9629 4.13097 11.9629 4.70371V21.2963C11.9629 21.869 12.4272 22.3333 12.9999 22.3333C13.5727 22.3333 14.037 21.869 14.037 21.2963Z" fill="white"/>
<path d="M12.9907 6.27855L19.4792 13.6834C19.8567 14.1142 20.5119 14.1574 20.9426 13.78C21.3734 13.4025 21.4166 12.7473 21.0392 12.3166L13.7696 4.02026C13.3561 3.54836 12.6215 3.54888 12.2087 4.02137L4.95973 12.3177C4.58289 12.749 4.62703 13.4041 5.05832 13.7809C5.48962 14.1578 6.14475 14.1136 6.5216 13.6823L12.9907 6.27855Z" fill="white"/>
</svg>
