<svg width="26" height="26" viewBox="0 0 26 26" fill="none" xmlns="http://www.w3.org/2000/svg">
<path fill-rule="evenodd" clip-rule="evenodd" d="M12.9946 22.3333C12.7057 22.3347 12.4164 22.2165 12.2087 21.9786L4.95973 13.6823C4.58289 13.2511 4.62703 12.5959 5.05832 12.2191C5.48962 11.8422 6.14475 11.8864 6.5216 12.3177L11.9629 18.5452V4.70371C11.9629 4.13097 12.4272 3.66667 12.9999 3.66667C13.5727 3.66667 14.037 4.13097 14.037 4.70371L14.037 18.5274L19.4792 12.3166C19.8567 11.8858 20.5119 11.8426 20.9426 12.22C21.3734 12.5975 21.4166 13.2527 21.0392 13.6835L13.8581 21.8786C13.6716 22.1531 13.3568 22.3333 12.9999 22.3333C12.9981 22.3333 12.9963 22.3333 12.9946 22.3333Z" fill="white"/>
</svg>
