<svg width="16" height="16" viewBox="0 0 16 16" fill="none" xmlns="http://www.w3.org/2000/svg">
<path fill-rule="evenodd" clip-rule="evenodd" d="M3.89981 12.3333L5.41666 13.5471C5.70414 13.7771 5.75071 14.1967 5.52067 14.4841C5.29063 14.7716 4.8711 14.8182 4.58362 14.5882L1.58362 12.1876C1.42037 12.057 1.33702 11.8688 1.33358 11.6793C1.33354 11.6751 1.3335 11.6709 1.3335 11.6667C1.3335 11.5887 1.34688 11.5139 1.37148 11.4443L1.37149 11.4443C1.37331 11.4391 1.37519 11.434 1.37713 11.4289C1.39996 11.3672 1.43591 11.3035 1.48298 11.246C1.51742 11.2037 1.55694 11.1657 1.60061 11.1329L4.58363 8.74612C4.87112 8.51609 5.29065 8.56267 5.52068 8.85016C5.75071 9.13765 5.70413 9.55718 5.41665 9.78721L3.90092 11H9.50016C11.6173 11 13.3335 9.28376 13.3335 7.16667C13.3335 5.04958 11.6173 3.33333 9.50016 3.33333H5.00016C4.63197 3.33333 4.3335 3.03486 4.3335 2.66667C4.3335 2.29848 4.63197 2 5.00016 2H9.50016C12.3536 2 14.6668 4.3132 14.6668 7.16667C14.6668 10.0201 12.3536 12.3333 9.50016 12.3333H3.89981Z" fill="white"/>
</svg>
