<svg width="24" height="24" viewBox="0 0 24 24" fill="none" xmlns="http://www.w3.org/2000/svg">
<path fill-rule="evenodd" clip-rule="evenodd" d="M5.71391 10.7945L12.2392 4.2692C13.9314 2.57693 16.6752 2.57693 18.3674 4.2692C20.0597 5.96148 20.0597 8.70519 18.3674 10.3975L11.8422 16.9227C10.7973 17.9205 9.14126 17.9062 8.11438 16.8793C7.07298 15.8379 7.07298 14.1494 8.11438 13.108L14.5962 6.62623C14.9867 6.2357 15.6199 6.2357 16.0104 6.62623C16.4009 7.01675 16.4009 7.64992 16.0104 8.04044L9.5286 14.5223C9.26825 14.7826 9.26825 15.2047 9.5286 15.4651C9.78895 15.7254 10.2111 15.7254 10.4714 15.4651L16.9532 8.98325C17.8644 8.07203 17.8644 6.59464 16.9532 5.68342C16.042 4.77219 14.5646 4.77219 13.6534 5.68342L7.17157 12.1652C5.60948 13.7273 5.60948 16.26 7.17157 17.8221C8.73367 19.3842 11.2663 19.3842 12.8284 17.8221L18.1317 12.5188C18.5223 12.1283 19.1554 12.1283 19.5459 12.5188C19.9365 12.9093 19.9365 13.5425 19.5459 13.933L14.2426 19.2363C11.8995 21.5794 8.1005 21.5794 5.75736 19.2363C3.42871 16.9077 3.4143 13.1411 5.71413 10.7947L5.71391 10.7945Z" fill="#92929D"/>
</svg>
