<svg width="24" height="24" viewBox="0 0 24 24" fill="none" xmlns="http://www.w3.org/2000/svg">
<path fill-rule="evenodd" clip-rule="evenodd" d="M11.5327 17.5011C10.553 18.4257 9.00898 18.4086 8.0501 17.4497C7.07379 16.4734 7.07379 14.8905 8.0501 13.9142L15.8283 6.13604C16.0235 5.94078 16.3401 5.94078 16.5354 6.13604C16.7306 6.3313 16.7306 6.64788 16.5354 6.84315L8.75721 14.6213C8.17142 15.2071 8.17142 16.1569 8.75721 16.7426C9.343 17.3284 10.2927 17.3284 10.8785 16.7426L18.6567 8.96447C20.0235 7.59763 20.0235 5.38155 18.6567 4.01472C17.2899 2.64788 15.0738 2.64788 13.707 4.01472L5.92878 11.7929C3.7809 13.9408 3.7809 17.4232 5.92878 19.5711C8.07667 21.719 11.5591 21.719 13.707 19.5711L20.0709 13.2071C20.2662 13.0118 20.5828 13.0118 20.778 13.2071C20.9733 13.4024 20.9733 13.719 20.778 13.9142L14.4141 20.2782C11.8757 22.8166 7.76009 22.8166 5.22168 20.2782C2.70067 17.7572 2.68339 13.6805 5.16983 11.1382L12.9999 3.30761C14.7572 1.55025 17.6065 1.55025 19.3638 3.30761C21.1212 5.06497 21.1212 7.91422 19.3638 9.67157L11.5335 17.5019L11.5327 17.5011Z" fill="#92929D"/>
</svg>
