<svg width="24" height="24" viewBox="0 0 24 24" fill="none" xmlns="http://www.w3.org/2000/svg">
<path fill-rule="evenodd" clip-rule="evenodd" d="M5.9686 16.4222H4.8C3.2536 16.4222 2 15.1686 2 13.6222V11.0778C2 9.53138 3.2536 8.27778 4.8 8.27778H5.8577C6.29548 8.27778 6.72118 8.13414 7.06946 7.86889L11.5882 4.42746C12.467 3.75822 13.7219 3.92806 14.3911 4.80681C14.6564 5.15509 14.8 5.58078 14.8 6.01857V18.1409C14.8 19.2455 13.9046 20.1409 12.8 20.1409C12.408 20.1409 12.0247 20.0258 11.6976 19.8097L7.07095 16.7534C6.74389 16.5374 6.36056 16.4222 5.9686 16.4222ZM5.6 10.2778H4.935C4.41861 10.2778 4 10.6964 4 11.2128V13.4872C4 14.0036 4.41861 14.4222 4.935 14.4222H5.6V10.2778ZM7.56356 9.8958C7.58748 10.0194 7.6 10.1471 7.6 10.2778V14.4222C7.6 14.5365 7.59041 14.6486 7.572 14.7576C7.78049 14.8489 7.98172 14.9581 8.1733 15.0847L12.8 18.1409V6.01857L8.28122 9.46C8.05664 9.63104 7.81596 9.7768 7.56356 9.8958ZM16.5 15C15.9477 15 15.5 14.5523 15.5 14C15.5 13.4477 15.9477 13 16.5 13C16.917 13 17.3 12.5744 17.3 12C17.3 11.4256 16.917 11 16.5 11C15.9477 11 15.5 10.5523 15.5 10C15.5 9.44772 15.9477 9 16.5 9C18.0713 9 19.3 10.3653 19.3 12C19.3 13.6347 18.0713 15 16.5 15ZM16.5 18C15.9477 18 15.5 17.5523 15.5 17C15.5 16.4477 15.9477 16 16.5 16C18.4081 16 20 14.2313 20 12C20 9.76874 18.4081 8 16.5 8C15.9477 8 15.5 7.55229 15.5 7C15.5 6.44772 15.9477 6 16.5 6C19.5624 6 22 8.70841 22 12C22 15.2916 19.5624 18 16.5 18Z" fill="#82C43C"/>
</svg>
