<svg width="16" height="16" viewBox="0 0 16 16" fill="none" xmlns="http://www.w3.org/2000/svg">
<path fill-rule="evenodd" clip-rule="evenodd" d="M12.4298 10.971C13.0003 10.1219 13.3333 9.09983 13.3333 8C13.3333 5.05448 10.9454 2.66666 7.99992 2.66666C6.89914 2.66666 5.87625 3.00015 5.02677 3.5716L12.4298 10.971ZM11.5518 11.9786L4.01959 4.45007C3.17806 5.39296 2.66659 6.63675 2.66659 8C2.66659 10.9455 5.0544 13.3333 7.99992 13.3333C9.36412 13.3333 10.6087 12.8211 11.5518 11.9786ZM7.99992 1.33333C11.6818 1.33333 14.6666 4.3181 14.6666 8C14.6666 11.6819 11.6818 14.6667 7.99992 14.6667C4.31802 14.6667 1.33325 11.6819 1.33325 8C1.33325 4.3181 4.31802 1.33333 7.99992 1.33333Z" fill="#92929D"/>
</svg>
