<svg width="16" height="16" viewBox="0 0 16 16" fill="none" xmlns="http://www.w3.org/2000/svg">
<path fill-rule="evenodd" clip-rule="evenodd" d="M12.2041 2.00009C12.569 2.00009 12.8647 2.29265 12.8647 2.65354V3.783C13.8652 3.81434 14.6666 4.62641 14.6666 5.62359V13.3461C14.6666 13.7767 14.2529 14.0896 13.8328 13.9767C13.5515 13.9012 13.1312 13.7786 12.5502 13.6043L12.4888 13.5858C12.2519 13.5147 11.4622 13.2759 11.5288 13.296C11.2131 13.2007 11.0431 13.1504 10.9767 13.1328C10.0998 12.9013 9.29712 12.8121 8.01389 12.8115C8.00455 12.8117 7.99521 12.8117 7.98587 12.8115C6.70268 12.8121 5.89998 12.9013 5.02318 13.1328C4.95674 13.1504 4.78671 13.2007 4.47107 13.296C4.53764 13.2759 3.74795 13.5147 3.51107 13.5858L3.44967 13.6043C2.86862 13.7786 2.44836 13.9012 2.16704 13.9767C1.74694 14.0896 1.33325 13.7767 1.33325 13.3461V5.62359C1.33325 4.62644 2.13455 3.81439 3.13501 3.78301V2.65354C3.13501 2.29265 3.4308 2.00009 3.79567 2.00009C5.37505 2.00009 6.78113 2.35684 8.00196 3.07061C9.23482 2.35704 10.6395 2.00009 12.2041 2.00009ZM4.45633 4.45659C4.45656 4.44959 4.45667 4.44257 4.45667 4.43551C4.45667 4.42846 4.45656 4.42143 4.45633 4.41443V3.33181C5.53421 3.41461 6.4928 3.70443 7.33921 4.2013V11.0456C6.45857 10.6435 5.49634 10.4077 4.45633 10.3384V4.45659ZM3.13501 5.09222C2.86476 5.12179 2.65457 5.34842 2.65457 5.62359V12.4763C2.78887 12.4366 2.93522 12.3929 3.09523 12.3448L3.15185 12.3278C3.32462 12.2759 3.7876 12.136 3.99782 12.0725L4.10272 12.0408C4.42573 11.9434 4.5998 11.892 4.68235 11.8702C4.85972 11.8233 5.03456 11.7816 5.21004 11.7446C4.76054 11.6639 4.28928 11.6236 3.79567 11.6236C3.4308 11.6236 3.13501 11.331 3.13501 10.9701V5.09222ZM10.7935 11.7454C10.9677 11.7822 11.1414 11.8237 11.3175 11.8702C11.4 11.892 11.5741 11.9434 11.8971 12.0408L12.0024 12.0726C12.2127 12.1361 12.6753 12.2759 12.848 12.3278L12.9046 12.3448C13.0646 12.3929 13.211 12.4366 13.3453 12.4763V5.62359C13.3453 5.34839 13.135 5.12175 12.8647 5.09221V10.9701C12.8647 11.331 12.569 11.6236 12.2041 11.6236C11.713 11.6236 11.243 11.6642 10.7935 11.7454ZM11.5434 10.3386C10.5077 10.4085 9.5455 10.6453 8.66054 11.0487V4.20367C9.51697 3.7062 10.4756 3.41588 11.5434 3.33231V10.3386ZM13.9458 13.3462C13.9458 13.307 13.9834 13.2786 14.0216 13.2888L13.9458 13.2682V13.3462ZM2.05392 13.3462C2.05392 13.3101 2.02197 13.2831 1.98705 13.2871L1.98112 13.288L2.05392 13.2682V13.3462Z" fill="#92929D"/>
</svg>
