<svg width="24" height="24" viewBox="0 0 24 24" fill="none" xmlns="http://www.w3.org/2000/svg">
<path fill-rule="evenodd" clip-rule="evenodd" d="M21 8H3V11C3 11.5523 3.44772 12 4 12H20C20.5523 12 21 11.5523 21 11V8ZM7 6C7 4.34315 8.34315 3 10 3H14C15.6569 3 17 4.34315 17 6H21C22.1046 6 23 6.89543 23 8V18C23 20.2091 21.2091 22 19 22H5C2.79086 22 1 20.2091 1 18V8C1 6.89543 1.89543 6 3 6H7ZM9 6H15C15 5.44772 14.5523 5 14 5H10C9.44771 5 9 5.44772 9 6ZM9 14H4C3.64936 14 3.31278 13.9398 3 13.8293V18C3 19.1046 3.89543 20 5 20H19C20.1046 20 21 19.1046 21 18V13.8293C20.6872 13.9398 20.3506 14 20 14H15V15.6C15 16.3732 14.3732 17 13.6 17H10.4C9.6268 17 9 16.3732 9 15.6V14ZM11 15H13V14H11V15Z" fill="#3DD598"/>
</svg>
