<svg width="16" height="15" viewBox="0 0 16 15" fill="none" xmlns="http://www.w3.org/2000/svg">
<path fill-rule="evenodd" clip-rule="evenodd" d="M12.1201 0.25C12.5343 0.25 12.8701 0.585786 12.8701 1V1.58325H13.4667C14.6176 1.58325 15.5633 2.50897 15.5633 3.66659V5.58325V7.08325V10.3333C15.5633 12.5954 13.7132 14.4166 11.4467 14.4166H4.71335C2.44683 14.4166 0.59668 12.5954 0.59668 10.3333V7.08325V5.58325V3.66659C0.59668 2.50897 1.54244 1.58325 2.69335 1.58325H3.96338V1C3.96338 0.585786 4.29917 0.25 4.71338 0.25C5.12759 0.25 5.46338 0.585786 5.46338 1V1.58325H11.3701V1C11.3701 0.585786 11.7059 0.25 12.1201 0.25ZM3.96795 3.08325C4.00936 3.45829 4.3273 3.75 4.71338 3.75C5.09945 3.75 5.41739 3.45829 5.45881 3.08325H11.3747C11.4161 3.45829 11.734 3.75 12.1201 3.75C12.5062 3.75 12.8241 3.45829 12.8655 3.08325H13.4667C13.8033 3.08325 14.0633 3.35144 14.0633 3.66659V5.58325H2.09668V3.66659C2.09668 3.35144 2.35676 3.08325 2.69335 3.08325H3.96795ZM2.09668 7.08325V10.3333C2.09668 11.753 3.26115 12.9166 4.71335 12.9166H11.4467C12.8989 12.9166 14.0633 11.753 14.0633 10.3333V7.08325H2.09668Z" fill="#92929D"/>
</svg>
