<svg width="24" height="24" viewBox="0 0 24 24" fill="none" xmlns="http://www.w3.org/2000/svg">
<path fill-rule="evenodd" clip-rule="evenodd" d="M8.49506 5.8C8.44489 6.30533 8.01853 6.7 7.5 6.7C6.98147 6.7 6.55511 6.30533 6.50494 5.8H4V7.4H20V5.8H18.3951C18.3449 6.30533 17.9185 6.7 17.4 6.7C16.8815 6.7 16.4551 6.30533 16.4049 5.8H8.49506ZM6.5 3.8V3C6.5 2.44772 6.94772 2 7.5 2C8.05228 2 8.5 2.44772 8.5 3V3.8H16.4V3C16.4 2.44772 16.8477 2 17.4 2C17.9523 2 18.4 2.44772 18.4 3V3.8H20.1C21.1493 3.8 22 4.65066 22 5.7V19C22 20.6569 20.6569 22 19 22H5C3.34315 22 2 20.6569 2 19V5.7C2 4.65066 2.85066 3.8 3.9 3.8H6.5ZM20 9.4H4V19C4 19.5523 4.44772 20 5 20H19C19.5523 20 20 19.5523 20 19V9.4ZM6.6 13C6.04772 13 5.6 12.5523 5.6 12C5.6 11.4477 6.04772 11 6.6 11H10.2C10.7523 11 11.2 11.4477 11.2 12C11.2 12.5523 10.7523 13 10.2 13H6.6ZM6.6 16.6C6.04772 16.6 5.6 16.1523 5.6 15.6C5.6 15.0477 6.04772 14.6 6.6 14.6H13.8C14.3523 14.6 14.8 15.0477 14.8 15.6C14.8 16.1523 14.3523 16.6 13.8 16.6H6.6Z" fill="#A461D8"/>
</svg>
