<svg width="22" height="22" viewBox="0 0 22 22" fill="none" xmlns="http://www.w3.org/2000/svg">
<path fill-rule="evenodd" clip-rule="evenodd" d="M18 5.5H20C20.8284 5.5 21.5 6.17157 21.5 7V20C21.5 20.8284 20.8284 21.5 20 21.5H18C17.1716 21.5 16.5 20.8284 16.5 20V7C16.5 6.17157 17.1716 5.5 18 5.5ZM18 6.5C17.7239 6.5 17.5 6.72386 17.5 7V20C17.5 20.2761 17.7239 20.5 18 20.5H20C20.2761 20.5 20.5 20.2761 20.5 20V7C20.5 6.72386 20.2761 6.5 20 6.5H18ZM2 12.5H4C4.82843 12.5 5.5 13.1716 5.5 14V20C5.5 20.8284 4.82843 21.5 4 21.5H2C1.17157 21.5 0.5 20.8284 0.5 20V14C0.5 13.1716 1.17157 12.5 2 12.5ZM2 13.5C1.72386 13.5 1.5 13.7239 1.5 14V20C1.5 20.2761 1.72386 20.5 2 20.5H4C4.27614 20.5 4.5 20.2761 4.5 20V14C4.5 13.7239 4.27614 13.5 4 13.5H2ZM10 0.5H12C12.8284 0.5 13.5 1.17157 13.5 2V20C13.5 20.8284 12.8284 21.5 12 21.5H10C9.17157 21.5 8.5 20.8284 8.5 20V2C8.5 1.17157 9.17157 0.5 10 0.5ZM10 1.5C9.72386 1.5 9.5 1.72386 9.5 2V20C9.5 20.2761 9.72386 20.5 10 20.5H12C12.2761 20.5 12.5 20.2761 12.5 20V2C12.5 1.72386 12.2761 1.5 12 1.5H10Z" fill="#92929D"/>
</svg>
