<svg width="24" height="24" viewBox="0 0 24 24" fill="none" xmlns="http://www.w3.org/2000/svg">
<path fill-rule="evenodd" clip-rule="evenodd" d="M15.617 20.2609V15.0435C15.617 14.083 16.3791 13.3043 17.3191 13.3043H18.5957C19.5358 13.3043 20.2979 14.083 20.2979 15.0435V20.2609H21.1489C21.619 20.2609 22 20.6502 22 21.1304C22 21.6107 21.619 22 21.1489 22H4.55319C3.1431 22 2 20.832 2 19.3913V2.86957C2 2.38932 2.38103 2 2.85106 2C3.32109 2 3.70213 2.38932 3.70213 2.86957V19.3913C3.70213 19.8716 4.08316 20.2609 4.55319 20.2609V6.34783C4.55319 5.38733 5.31526 4.6087 6.25532 4.6087H7.53191C8.47197 4.6087 9.23404 5.38733 9.23404 6.34783V20.2609H10.0851V10.6957C10.0851 9.73516 10.8472 8.95652 11.7872 8.95652H13.0638C14.0039 8.95652 14.766 9.73516 14.766 10.6957V20.2609H15.617ZM17.3191 20.2609H18.5957V15.0435H17.3191V20.2609ZM13.0638 20.2609V10.6957H11.7872V20.2609H13.0638ZM6.25532 20.2609H7.53191V6.34783H6.25532V20.2609Z" fill="#92929D"/>
</svg>
