<svg width="16" height="16" viewBox="0 0 16 16" fill="none" xmlns="http://www.w3.org/2000/svg">
<path fill-rule="evenodd" clip-rule="evenodd" d="M8.17151 8.98278L13.4764 2.25393C13.7043 1.96479 14.1235 1.91519 14.4127 2.14314C14.7018 2.37109 14.7514 2.79028 14.5235 3.07942L8.74201 10.4128C8.49061 10.7316 8.01492 10.7536 7.7352 10.4592L4.84998 7.42293C4.59635 7.15602 4.60712 6.73405 4.87402 6.48042C5.14093 6.2268 5.5629 6.23757 5.81653 6.50447L8.17151 8.98278ZM13.3333 7.40001C13.3333 7.03182 13.6317 6.73334 13.9999 6.73334C14.3681 6.73334 14.6666 7.03182 14.6666 7.40001V12.2C14.6666 13.5623 13.5622 14.6667 12.1999 14.6667H3.79992C2.43762 14.6667 1.33325 13.5623 1.33325 12.2V3.80001C1.33325 2.43771 2.43762 1.33334 3.79992 1.33334H10.9333C11.3014 1.33334 11.5999 1.63182 11.5999 2.00001C11.5999 2.3682 11.3014 2.66668 10.9333 2.66668H3.79992C3.174 2.66668 2.66659 3.17409 2.66659 3.80001V12.2C2.66659 12.8259 3.174 13.3333 3.79992 13.3333H12.1999C12.8258 13.3333 13.3333 12.8259 13.3333 12.2V7.40001Z" fill="#92929D"/>
</svg>
