<svg xmlns="http://www.w3.org/2000/svg" width="14" height="14" viewBox="0 0 14 14">
  <path fill="#92929D" d="M7,0 C10.8660257,0 14,3.13399095 14,7 C14,10.8660424 10.8660424,14 7,14 C3.13399095,14 0,10.8660257 0,7 C0,3.13400763 3.13400763,0 7,0 Z M7,1 C3.68629237,1 1,3.68629237 1,7 C1,10.3137398 3.68627451,13 7,13 C10.3137576,13 13,10.3137576 13,7 C13,3.68627451 10.3137398,1 7,1 Z M7.00023,2.35303 C7.24568989,2.35303 7.44983837,2.52990516 7.49217433,2.76315437 L7.50023,2.85303 L7.50023,6.99996 C7.50023,7.11399305 7.46129395,7.22368925 7.39125002,7.31157926 L7.33300667,7.37313515 L5.34937667,9.14202515 C5.14327773,9.32581262 4.82721233,9.30772561 4.64342485,9.10162667 C4.48005821,8.91842761 4.47619733,8.64834148 4.62210611,8.46150423 L4.68382333,8.39567485 L6.5,6.775 L6.50023,2.85303 C6.50023,2.60757011 6.67710516,2.40342163 6.91035437,2.36108567 L7.00023,2.35303 Z"/>
</svg>
