<svg xmlns="http://www.w3.org/2000/svg" width="8" height="8" viewBox="0 0 8 8">
  <path fill="#B5B5BE" fill-rule="evenodd" d="M2.41421,3.8284 L0.29289,1.70711 C-0.09763,1.31658 -0.09763,0.68342 0.29289,0.29289 C0.68342,-0.09763 1.31658,-0.09763 1.70711,0.29289 L3.8284,2.41421 L5.9497,0.29289 C6.3403,-0.09763 6.9734,-0.09763 7.364,0.29289 C7.7545,0.68342 7.7545,1.31658 7.364,1.70711 L5.2426,3.8284 L7.364,5.9497 C7.7545,6.3403 7.7545,6.9734 7.364,7.364 C6.9734,7.7545 6.3403,7.7545 5.9497,7.364 L3.8284,5.2426 L1.70711,7.364 C1.31658,7.7545 0.68342,7.7545 0.29289,7.364 C-0.09763,6.9734 -0.09763,6.3403 0.29289,5.9497 L2.41421,3.8284 Z"/>
</svg>
