<svg width="16" height="16" viewBox="0 0 16 16" fill="none" xmlns="http://www.w3.org/2000/svg">
<path fill-rule="evenodd" clip-rule="evenodd" d="M8.00008 0.666626C12.0502 0.666626 15.3334 3.94987 15.3334 7.99996C15.3334 12.05 12.0502 15.3333 8.00008 15.3333C3.94999 15.3333 0.666748 12.05 0.666748 7.99996C0.666748 3.94987 3.94999 0.666626 8.00008 0.666626ZM8.00008 1.99996C4.68637 1.99996 2.00008 4.68625 2.00008 7.99996C2.00008 11.3137 4.68637 14 8.00008 14C11.3138 14 14.0001 11.3137 14.0001 7.99996C14.0001 4.68625 11.3138 1.99996 8.00008 1.99996ZM6.94289 7.88558L5.52868 6.47136C5.26833 6.21101 5.26833 5.7889 5.52868 5.52855C5.78903 5.26821 6.21114 5.26821 6.47149 5.52855L7.8857 6.94277L9.29991 5.52855C9.56026 5.26821 9.98237 5.26821 10.2427 5.52855C10.5031 5.7889 10.5031 6.21101 10.2427 6.47136L8.82851 7.88558L10.2427 9.29979C10.5031 9.56014 10.5031 9.98225 10.2427 10.2426C9.98237 10.5029 9.56026 10.5029 9.29991 10.2426L7.8857 8.82839L6.47149 10.2426C6.21114 10.5029 5.78903 10.5029 5.52868 10.2426C5.26833 9.98225 5.26833 9.56014 5.52868 9.29979L6.94289 7.88558Z" fill="#92929D"/>
</svg>
