<svg width="10" height="10" viewBox="0 0 10 10" fill="none" xmlns="http://www.w3.org/2000/svg">
<path fill-rule="evenodd" clip-rule="evenodd" d="M5.94074 5.00024L9.45879 8.52148C9.71902 8.78194 9.71883 9.20405 9.45837 9.46429C9.1979 9.72452 8.77579 9.72433 8.51556 9.46386L4.99723 5.94235L1.47073 9.46362C1.21019 9.72377 0.788076 9.72346 0.52792 9.46292C0.267764 9.20237 0.268078 8.78026 0.528621 8.52011L4.05485 4.99912L0.530156 1.47123C0.269925 1.21076 0.270115 0.788655 0.530583 0.528423C0.79105 0.268191 1.21316 0.268382 1.47339 0.528849L4.99836 4.05701L8.51563 0.544961C8.77618 0.284805 9.19829 0.285118 9.45844 0.545661C9.7186 0.806204 9.71828 1.22831 9.45774 1.48847L5.94074 5.00024Z" fill="#92929D"/>
</svg>
