<svg width="24" height="24" viewBox="0 0 24 24" fill="none" xmlns="http://www.w3.org/2000/svg">
<path fill-rule="evenodd" clip-rule="evenodd" d="M12.5139 17.5527L8.06545 20.8174C7.0587 21.5563 5.61004 20.8661 5.60796 19.6513L5.60414 17.4279C3.53288 16.9498 2 15.1544 2 13.0215V7.41126C2 4.90953 4.10604 2.88 6.70588 2.88H17.2941C19.894 2.88 22 4.90953 22 7.41126V13.0215C22 15.5232 19.894 17.5527 17.2941 17.5527H12.5139ZM7.60639 18.7376L11.5682 15.8301C11.7426 15.7021 11.956 15.6327 12.1755 15.6327H17.2941C18.7877 15.6327 20 14.4645 20 13.0215V7.41126C20 5.96828 18.7877 4.8 17.2941 4.8H6.70588C5.21232 4.8 4 5.96828 4 7.41126V13.0215C4 14.4373 5.16906 15.5933 6.63013 15.6317C7.17089 15.646 7.60181 16.0705 7.6027 16.5898L7.60639 18.7376Z" fill="#92929D"/>
</svg>
