<svg width="24" height="24" viewBox="0 0 24 24" fill="none" xmlns="http://www.w3.org/2000/svg">
<path fill-rule="evenodd" clip-rule="evenodd" d="M4 5H20C20.5523 5 21 4.55228 21 4C21 3.44772 20.5523 3 20 3H4C3.44772 3 3 3.44772 3 4C3 4.55228 3.44772 5 4 5Z" fill="#92929D"/>
<path fill-rule="evenodd" clip-rule="evenodd" d="M4 10H20C20.5523 10 21 9.55228 21 9C21 8.44772 20.5523 8 20 8H4C3.44772 8 3 8.44772 3 9C3 9.55228 3.44772 10 4 10Z" fill="#92929D"/>
<path fill-rule="evenodd" clip-rule="evenodd" d="M4 15H20C20.5523 15 21 14.5523 21 14C21 13.4477 20.5523 13 20 13H4C3.44772 13 3 13.4477 3 14C3 14.5523 3.44772 15 4 15Z" fill="#92929D"/>
<path fill-rule="evenodd" clip-rule="evenodd" d="M4 20H14C14.5523 20 15 19.5523 15 19C15 18.4477 14.5523 18 14 18H4C3.44772 18 3 18.4477 3 19C3 19.5523 3.44772 20 4 20Z" fill="#92929D"/>
</svg>
