<svg width="16" height="16" viewBox="0 0 16 16" fill="none" xmlns="http://www.w3.org/2000/svg">
<path d="M11.3335 3.99996H5.3335C4.96531 3.99996 4.66683 3.70148 4.66683 3.33329C4.66683 2.9651 4.96531 2.66663 5.3335 2.66663H11.3335C13.1851 2.66663 14.6668 4.25418 14.6668 6.19044V10.4761C14.6668 12.4124 13.1851 14 11.3335 14H7.3335C6.96531 14 6.66683 13.7015 6.66683 13.3333C6.66683 12.9651 6.96531 12.6666 7.3335 12.6666H11.3335C12.4274 12.6666 13.3335 11.6958 13.3335 10.4761V6.19044C13.3335 4.97078 12.4274 3.99996 11.3335 3.99996Z" fill="white"/>
<path d="M2.00016 7.33329H11.3335C11.7017 7.33329 12.0002 7.03482 12.0002 6.66663C12.0002 6.29844 11.7017 5.99996 11.3335 5.99996H2.00016C1.63197 5.99996 1.3335 6.29844 1.3335 6.66663C1.3335 7.03482 1.63197 7.33329 2.00016 7.33329Z" fill="white"/>
<path d="M11.3335 10.6666H4.00016C3.63197 10.6666 3.3335 10.3681 3.3335 9.99996C3.3335 9.63177 3.63197 9.33329 4.00016 9.33329H11.3335C11.7017 9.33329 12.0002 9.63177 12.0002 9.99996C12.0002 10.3681 11.7017 10.6666 11.3335 10.6666Z" fill="white"/>
</svg>
