<svg width="24" height="24" viewBox="0 0 24 24" fill="none" xmlns="http://www.w3.org/2000/svg">
<path d="M7.51648 10.1982C7.51648 10.7455 7.94944 11.1892 8.48352 11.1892H15.5165C16.0506 11.1892 16.4835 10.7455 16.4835 10.1982C16.4835 9.65089 16.0506 9.20721 15.5165 9.20721H8.48352C7.94944 9.20721 7.51648 9.65089 7.51648 10.1982Z" fill="#92929D"/>
<path d="M7.51648 13.8018C7.51648 14.3491 7.94944 14.7928 8.48352 14.7928H15.5165C16.0506 14.7928 16.4835 14.3491 16.4835 13.8018C16.4835 13.2545 16.0506 12.8108 15.5165 12.8108H8.48352C7.94944 12.8108 7.51648 13.2545 7.51648 13.8018Z" fill="#92929D"/>
<path d="M8.48352 18.3964C7.94944 18.3964 7.51648 17.9527 7.51648 17.4054C7.51648 16.8581 7.94944 16.4144 8.48352 16.4144H15.5165C16.0506 16.4144 16.4835 16.8581 16.4835 17.4054C16.4835 17.9527 16.0506 18.3964 15.5165 18.3964H8.48352Z" fill="#92929D"/>
<path fill-rule="evenodd" clip-rule="evenodd" d="M20 7.4955C20 5.45552 18.3863 3.8018 16.3956 3.8018H16.307C15.9134 2.73729 14.9099 2 13.7582 2H10.2418C9.09014 2 8.08663 2.73729 7.693 3.8018H7.6044C5.61374 3.8018 4 5.45552 4 7.4955V18.3063C4 20.3463 5.61374 22 7.6044 22H16.3956C18.3863 22 20 20.3463 20 18.3063V7.4955ZM7.6044 5.78378H7.693C8.08663 6.8483 9.09014 7.58559 10.2418 7.58559H13.7582C14.9099 7.58559 15.9134 6.8483 16.307 5.78378H16.3956C17.3181 5.78378 18.0659 6.55014 18.0659 7.4955V18.3063C18.0659 19.2517 17.3181 20.018 16.3956 20.018H7.6044C6.6819 20.018 5.93407 19.2517 5.93407 18.3063V7.4955C5.93407 6.55014 6.6819 5.78378 7.6044 5.78378ZM10.2418 3.98198C9.80479 3.98198 9.45055 4.34499 9.45055 4.79279C9.45055 5.24059 9.80479 5.6036 10.2418 5.6036H13.7582C14.1952 5.6036 14.5495 5.24059 14.5495 4.79279C14.5495 4.34499 14.1952 3.98198 13.7582 3.98198H10.2418Z" fill="#92929D"/>
</svg>
