<svg width="10" height="12" viewBox="0 0 10 12" fill="none" xmlns="http://www.w3.org/2000/svg">
<path fill-rule="evenodd" clip-rule="evenodd" d="M1.99992 1.41671C1.40161 1.41671 0.916585 1.90173 0.916585 2.50004V9.50004C0.916585 10.0983 1.40161 10.5834 1.99992 10.5834H7.99992C8.59823 10.5834 9.08325 10.0983 9.08325 9.50004V4.50004C9.08325 4.45402 9.04594 4.41671 8.99992 4.41671H7.49992C6.99366 4.41671 6.58325 4.0063 6.58325 3.50004V1.50004C6.58325 1.45402 6.54594 1.41671 6.49992 1.41671H1.99992ZM9.91659 9.50004V4.50004V4.18107C9.91659 3.96662 9.8414 3.75897 9.70412 3.59423L7.46993 0.913205C7.29577 0.704212 7.03778 0.583374 6.76573 0.583374H6.49992H1.99992C0.941373 0.583374 0.083252 1.44149 0.083252 2.50004V9.50004C0.083252 10.5586 0.941373 11.4167 1.99992 11.4167H7.99992C9.05846 11.4167 9.91659 10.5586 9.91659 9.50004ZM8.61032 3.58337L7.41658 2.15089V3.50004C7.41658 3.54606 7.45389 3.58337 7.49992 3.58337H8.61032ZM2.33333 8.66671V8.41671H7.66667V8.66671H2.33333ZM1.7 7.58337H8.3C8.41046 7.58337 8.5 7.69779 8.5 7.83893V9.24448C8.5 9.38562 8.41046 9.50004 8.3 9.50004H1.7C1.58954 9.50004 1.5 9.38562 1.5 9.24448V7.83893C1.5 7.69779 1.58954 7.58337 1.7 7.58337Z" fill="#0062FF"/>
</svg>
