<svg width="24" height="24" viewBox="0 0 24 24" fill="none" xmlns="http://www.w3.org/2000/svg">
<path fill-rule="evenodd" clip-rule="evenodd" d="M18.065 7.4L16.7 5.76205V7.4H18.065ZM21.2 8.72584V18.3C21.2 20.3435 19.5435 22 17.5 22H6.7C4.65655 22 3 20.3435 3 18.3V5.7C3 3.65655 4.65655 2 6.7 2H15.2785C15.8423 2 16.3771 2.25046 16.7381 2.68365L20.7596 7.50949C21.0442 7.85095 21.2 8.28137 21.2 8.72584ZM19.2 9.4H16.6C15.5507 9.4 14.7 8.54934 14.7 7.5V4H6.7C5.76112 4 5 4.76112 5 5.7V18.3C5 19.2389 5.76112 20 6.7 20H17.5C18.4389 20 19.2 19.2389 19.2 18.3V9.4ZM7.10286 15.6H17.0971C17.2644 15.6 17.4 15.7194 17.4 15.8667V17.3333C17.4 17.4806 17.2644 17.6 17.0971 17.6H7.10286C6.93559 17.6 6.8 17.4806 6.8 17.3333V15.8667C6.8 15.7194 6.93559 15.6 7.10286 15.6Z" fill="#50B5FF"/>
</svg>
