<svg width="24" height="24" viewBox="0 0 24 24" fill="none" xmlns="http://www.w3.org/2000/svg">
<path fill-rule="evenodd" clip-rule="evenodd" d="M8 2C5.79086 2 4 3.79086 4 6V18C4 20.2091 5.79086 22 8 22H16C18.2091 22 20 20.2091 20 18V8.75425C20 8.29587 19.8425 7.8514 19.554 7.49524L15.7022 2.74098C15.3224 2.27227 14.7514 2 14.1482 2H8ZM15.625 5.82283V7.4H16.9028L15.625 5.82283ZM8 4C6.89543 4 6 4.89543 6 6V18C6 19.1046 6.89543 20 8 20H16C17.1046 20 18 19.1046 18 18V9.4H15.625C14.5204 9.4 13.625 8.50457 13.625 7.4V4H8ZM13 14.5L13.4 14.2C13.8418 13.8686 14.4686 13.9582 14.8 14.4C15.1314 14.8418 15.0418 15.4686 14.6 15.8L12.6081 17.2939C12.4396 17.4232 12.2288 17.5 12 17.5C11.7712 17.5 11.5604 17.4232 11.3919 17.2939L9.4 15.8C8.95817 15.4686 8.86863 14.8418 9.2 14.4C9.53137 13.9582 10.1582 13.8686 10.6 14.2L11 14.5V10.6114C11 10.0591 11.4477 9.61139 12 9.61139C12.5523 9.61139 13 10.0591 13 10.6114V14.5Z" fill="#92929D"/>
</svg>
