<svg width="16" height="16" viewBox="0 0 16 16" fill="none" xmlns="http://www.w3.org/2000/svg">
<path fill-rule="evenodd" clip-rule="evenodd" d="M8.66659 12.6437L8.92604 12.4435C9.21757 12.2187 9.63621 12.2727 9.8611 12.5642C10.086 12.8557 10.032 13.2744 9.74046 13.4992L8.41841 14.5191C8.37823 14.5516 8.3349 14.5788 8.28941 14.6007C8.25377 14.6187 8.20593 14.6363 8.15589 14.6483C8.0916 14.6634 8.02981 14.6689 7.96855 14.6659C7.87456 14.6616 7.78566 14.6378 7.70577 14.5984C7.66198 14.5769 7.62023 14.5505 7.58142 14.5191L6.25938 13.4992C5.96785 13.2744 5.91384 12.8557 6.13874 12.5642C6.36363 12.2727 6.78227 12.2187 7.07379 12.4435L7.33325 12.6437V5.63807C7.33325 5.26988 7.63173 4.9714 7.99992 4.9714C8.36811 4.9714 8.66659 5.26988 8.66659 5.63807V12.6437ZM8.33325 1.33333C10.0405 1.33333 11.4916 2.50736 11.8912 4.1149C13.4956 4.5157 14.6666 5.96938 14.6666 7.67866C14.6666 9.5551 13.2551 11.1245 11.4067 11.3293C11.0407 11.3698 10.7112 11.106 10.6706 10.7401C10.6301 10.3741 10.8939 10.0446 11.2598 10.004C12.4342 9.87396 13.3333 8.87425 13.3333 7.67866C13.3333 6.47827 12.4271 5.476 11.247 5.35188C10.9339 5.31895 10.6865 5.07145 10.6537 4.75831C10.5297 3.57455 9.52973 2.66666 8.33325 2.66666C7.13573 2.66666 6.1352 3.57609 6.01253 4.76113C5.97428 5.13063 5.6414 5.3976 5.27241 5.3547C5.18255 5.34425 5.09163 5.33897 4.99992 5.33897C3.71157 5.33897 2.66659 6.38617 2.66659 7.67866C2.66659 8.87425 3.56567 9.87396 4.73999 10.004C5.10594 10.0446 5.36974 10.3741 5.3292 10.7401C5.28866 11.106 4.95913 11.3698 4.59318 11.3293C2.74469 11.1245 1.33325 9.5551 1.33325 7.67866C1.33325 5.71664 2.86914 4.11345 4.80282 4.01086C5.23796 2.45707 6.66291 1.33333 8.33325 1.33333Z" fill="#92929D"/>
</svg>
