<svg width="24" height="24" viewBox="0 0 24 24" fill="none" xmlns="http://www.w3.org/2000/svg">
<path fill-rule="evenodd" clip-rule="evenodd" d="M7 1H15.1482C15.7514 1 16.3224 1.27227 16.7022 1.74098L20.554 6.49524C20.8425 6.8514 21 7.29587 21 7.75425V19C21 21.2091 19.2091 23 17 23H7C4.79086 23 3 21.2091 3 19V5C3 2.79086 4.79086 1 7 1ZM15.625 3.58854V6.4H17.9028L15.625 3.58854ZM7 3C5.89543 3 5 3.89543 5 5V19C5 20.1046 5.89543 21 7 21H17C18.1046 21 19 20.1046 19 19V8.4H15.625C14.5204 8.4 13.625 7.50457 13.625 6.4V3H7Z" fill="#92929D"/>
</svg>
