<svg width="24" height="24" viewBox="0 0 24 24" fill="none" xmlns="http://www.w3.org/2000/svg">
<path fill-rule="evenodd" clip-rule="evenodd" d="M7.87811 17.1789L2 13.3522L6.05466 10.101L11.9806 13.7599L7.87811 17.1789ZM11.9806 13.7599L17.9067 10.101L21.9613 13.3519L16.0953 17.1786L11.9806 13.7599ZM12.0047 14.5036L16.1192 17.9105L17.8827 16.7589V18.0543L12.0047 21.5694V21.5813L11.9927 21.5694L11.9806 21.5813V21.5694L6.11462 18.0543V16.7589L7.87811 17.9105L11.9806 14.5036V14.4795L11.9927 14.4915L12.0047 14.4795V14.5036ZM2 6.86205L7.87811 3.03537L11.9806 6.45428L6.05466 10.101L2 6.86205ZM16.0953 3.03537L21.9613 6.86205L17.9067 10.101L11.9806 6.45428L16.0953 3.03537Z" fill="#92929D"/>
</svg>
