<svg width="16" height="16" viewBox="0 0 16 16" fill="none" xmlns="http://www.w3.org/2000/svg">
<path fill-rule="evenodd" clip-rule="evenodd" d="M11.9072 5.06405L12.6504 4.32088L11.0124 2.68283L10.2692 3.42601L11.9072 5.06405ZM10.9694 6.0019L9.33133 4.36385L3.20369 10.4915L2.82668 12.5066L4.84173 12.1295L10.9694 6.0019ZM13.6279 3.42264C14.1239 3.91872 14.1239 4.72303 13.6279 5.21912L5.63441 13.2126C5.53985 13.3071 5.4189 13.3709 5.28745 13.3955L2.11869 13.9883C1.66047 14.0741 1.25915 13.6728 1.34488 13.2145L1.93775 10.0458C1.96234 9.91433 2.0261 9.79339 2.12067 9.69882L10.1141 1.70538C10.6102 1.20929 11.4145 1.20929 11.9106 1.70538L13.6279 3.42264ZM13.3399 14H7.99332C7.11323 14 7.11323 12.6666 7.99332 12.6666H13.3399C14.2199 12.6666 14.2199 14 13.3399 14Z" fill="white"/>
</svg>
