<svg width="14" height="12" viewBox="0 0 14 12" fill="none" xmlns="http://www.w3.org/2000/svg">
<path fill-rule="evenodd" clip-rule="evenodd" d="M0.40682 5.62508C1.63632 2.60554 4.17298 0.666748 7.00016 0.666748C9.82735 0.666748 12.364 2.60554 13.5935 5.62508C13.6913 5.86518 13.6913 6.13498 13.5935 6.37509C12.364 9.39463 9.82735 11.3334 7.00016 11.3334C4.17298 11.3334 1.63632 9.39463 0.40682 6.37509C0.309055 6.13498 0.309055 5.86518 0.40682 5.62508ZM7.00016 10.0999C9.27953 10.0999 11.3693 8.52458 12.4334 6.00008C11.3693 3.47558 9.27953 1.90031 7.00016 1.90031C4.7208 1.90031 2.631 3.47558 1.56689 6.00008C2.631 8.52458 4.7208 10.0999 7.00016 10.0999ZM7.00016 8.43092C5.68098 8.43092 4.61157 7.3426 4.61157 6.00008C4.61157 4.65757 5.68098 3.56924 7.00016 3.56924C8.31935 3.56924 9.38875 4.65757 9.38875 6.00008C9.38875 7.3426 8.31935 8.43092 7.00016 8.43092ZM7.00016 7.19736C7.64991 7.19736 8.17663 6.66132 8.17663 6.00008C8.17663 5.33884 7.64991 4.8028 7.00016 4.8028C6.35042 4.8028 5.82369 5.33884 5.82369 6.00008C5.82369 6.66132 6.35042 7.19736 7.00016 7.19736Z" fill="#92929D"/>
</svg>
