<svg width="24" height="24" viewBox="0 0 24 24" fill="none" xmlns="http://www.w3.org/2000/svg">
<path fill-rule="evenodd" clip-rule="evenodd" d="M12.0001 18.2241L6.90061 20.8865C6.16658 21.2697 5.31147 20.6458 5.4524 19.8298L6.42473 14.2001L2.30461 10.2119C1.70759 9.63404 2.03491 8.62234 2.8573 8.50367L8.55693 7.68123L11.1046 2.55495C11.4723 1.81502 12.5279 1.81502 12.8956 2.55495L15.4433 7.68123L21.1429 8.50367C21.9653 8.62234 22.2926 9.63404 21.6956 10.2119L17.5755 14.2001L18.5478 19.8298C18.6888 20.6458 17.8337 21.2697 17.0996 20.8865L12.0001 18.2241ZM11.5373 16.2096C11.8273 16.0582 12.173 16.0582 12.4629 16.2096L16.2329 18.1778L15.5147 14.0195C15.4584 13.6936 15.5669 13.3609 15.8046 13.1308L18.8405 10.1921L14.6385 9.5858C14.3133 9.53889 14.032 9.33528 13.8858 9.04111L12.0001 5.24693L10.1145 9.04111C9.96827 9.33528 9.68692 9.53889 9.36179 9.5858L5.15975 10.1921L8.19563 13.1308C8.4333 13.3609 8.54183 13.6936 8.48553 14.0195L7.76734 18.1778L11.5373 16.2096Z" fill="#92929D"/>
</svg>
