<svg width="24" height="24" viewBox="0 0 24 24" fill="none" xmlns="http://www.w3.org/2000/svg">
<path fill-rule="evenodd" clip-rule="evenodd" d="M6 1H15.5316C16.1252 1 16.6881 1.26365 17.0681 1.71963L21.5364 7.08168C21.836 7.44111 22 7.89418 22 8.36205V19C22 21.2091 20.2091 23 18 23H6C3.79086 23 2 21.2091 2 19V5C2 2.79086 3.79086 1 6 1ZM20 19V9H17C15.8954 9 15 8.10457 15 7V3H6C4.89543 3 4 3.89543 4 5V19C4 20.1046 4.89543 21 6 21H18C19.1046 21 20 20.1046 20 19ZM18.865 7L17 4.76205V7H18.865ZM8 14C7.44772 14 7 13.5523 7 13C7 12.4477 7.44772 12 8 12H16C16.5523 12 17 12.4477 17 13C17 13.5523 16.5523 14 16 14H8ZM8 18C7.44772 18 7 17.5523 7 17C7 16.4477 7.44772 16 8 16H14C14.5523 16 15 16.4477 15 17C15 17.5523 14.5523 18 14 18H8ZM8 10C7.44772 10 7 9.55229 7 9C7 8.44772 7.44772 8 8 8H11C11.5523 8 12 8.44772 12 9C12 9.55229 11.5523 10 11 10H8Z" fill="#92929D"/>
</svg>
