<svg width="16" height="16" viewBox="0 0 16 16" fill="none" xmlns="http://www.w3.org/2000/svg">
<path d="M2.66667 4.66668H13.3333C13.7015 4.66668 14 4.3682 14 4.00001C14 3.63182 13.7015 3.33334 13.3333 3.33334H2.66667C2.29848 3.33334 2 3.63182 2 4.00001C2 4.3682 2.29848 4.66668 2.66667 4.66668Z" fill="#92929D"/>
<path d="M6 12.6667H10C10.3682 12.6667 10.6667 12.3682 10.6667 12C10.6667 11.6318 10.3682 11.3333 10 11.3333H6C5.63181 11.3333 5.33333 11.6318 5.33333 12C5.33333 12.3682 5.63181 12.6667 6 12.6667Z" fill="#92929D"/>
<path d="M11.3333 8.66668H4.66667C4.29848 8.66668 4 8.3682 4 8.00001C4 7.63182 4.29848 7.33334 4.66667 7.33334H11.3333C11.7015 7.33334 12 7.63182 12 8.00001C12 8.3682 11.7015 8.66668 11.3333 8.66668Z" fill="#92929D"/>
</svg>
