<svg width="12" height="10" viewBox="0 0 12 10" fill="none" xmlns="http://www.w3.org/2000/svg">
<path d="M0.666667 1.66665H11.3333C11.7015 1.66665 12 1.36817 12 0.99998C12 0.63179 11.7015 0.333313 11.3333 0.333313H0.666667C0.298477 0.333313 0 0.63179 0 0.99998C0 1.36817 0.298477 1.66665 0.666667 1.66665Z" fill="#92929D"/>
<path d="M4 9.66665H8C8.36819 9.66665 8.66667 9.36817 8.66667 8.99998C8.66667 8.63179 8.36819 8.33331 8 8.33331H4C3.63181 8.33331 3.33333 8.63179 3.33333 8.99998C3.33333 9.36817 3.63181 9.66665 4 9.66665Z" fill="#92929D"/>
<path d="M9.33333 5.66665H2.66667C2.29848 5.66665 2 5.36817 2 4.99998C2 4.63179 2.29848 4.33331 2.66667 4.33331H9.33333C9.70152 4.33331 10 4.63179 10 4.99998C10 5.36817 9.70152 5.66665 9.33333 5.66665Z" fill="#92929D"/>
</svg>
