<svg width="22" height="19" viewBox="0 0 22 19" fill="none" xmlns="http://www.w3.org/2000/svg">
<path fill-rule="evenodd" clip-rule="evenodd" d="M13.9999 9.91252V15C13.9999 15.3788 13.7859 15.725 13.4472 15.8944L9.44716 17.8944C8.78226 18.2269 7.99994 17.7434 7.99994 17V9.91252L1.22599 1.63324C0.69177 0.980307 1.15632 0 1.99994 0H19.9999C20.8436 0 21.3081 0.980307 20.7739 1.63324L13.9999 9.91252ZM11.9999 14.382V9.55556C11.9999 9.32471 12.0798 9.10098 12.226 8.92232L17.8897 2H4.11019L9.7739 8.92232C9.92008 9.10098 9.99994 9.32471 9.99994 9.55556V15.382L11.9999 14.382Z" fill="#92929D"/>
</svg>
