<svg width="16" height="16" viewBox="0 0 16 16" fill="none" xmlns="http://www.w3.org/2000/svg">
<path fill-rule="evenodd" clip-rule="evenodd" d="M8.21715 5.57216L8.21502 3.07742C8.21454 2.52214 8.89172 2.25029 9.27533 2.65176L13.9836 7.57923C14.2109 7.81709 14.2109 8.19164 13.9836 8.4295L9.28373 13.3482C8.90047 13.7493 8.22389 13.4783 8.22342 12.9236L8.22106 10.1614C5.70112 10.4674 3.97972 11.4901 2.99731 13.2261C2.67661 13.7928 1.81044 13.5383 1.84733 12.8882C2.08251 8.7441 4.24718 6.26146 8.21715 5.57216ZM12.6875 8.00438L9.44707 4.61309L9.44834 6.10108C9.4486 6.41083 9.21858 6.67251 8.91135 6.71197C5.99227 7.08689 4.19494 8.41625 3.45188 10.7713C4.77099 9.65957 6.55969 9.02652 8.79318 8.87133C9.14878 8.84662 9.45092 9.12826 9.45122 9.48471L9.45285 11.3896L12.6875 8.00438Z" fill="#92929D"/>
</svg>
