<svg width="24" height="24" viewBox="0 0 24 24" fill="none" xmlns="http://www.w3.org/2000/svg">
<path fill-rule="evenodd" clip-rule="evenodd" d="M9 11C11.7614 11 14 8.76142 14 6C14 3.23858 11.7614 1 9 1C6.23858 1 4 3.23858 4 6C4 8.76142 6.23858 11 9 11ZM9 9C7.34315 9 6 7.65685 6 6C6 4.34315 7.34315 3 9 3C10.6569 3 12 4.34315 12 6C12 7.65685 10.6569 9 9 9Z" fill="#92929D"/>
<path fill-rule="evenodd" clip-rule="evenodd" d="M9 12C13.4183 12 17 15.5817 17 20V22C17 22.5523 16.5523 23 16 23H2C1.44772 23 1 22.5523 1 22V20C1 15.5817 4.58172 12 9 12ZM15 21V20C15 16.6863 12.3137 14 9 14C5.68629 14 3 16.6863 3 20V21H15Z" fill="#92929D"/>
<path d="M20 12H22C23.3333 12 23.3333 10 22 10H20V8C20 6.66667 18 6.66667 18 8V10H16C14.6667 10 14.6667 12 16 12H18V14C18 15.3333 20 15.3333 20 14V12Z" fill="#92929D"/>
</svg>
