<svg width="24" height="24" viewBox="0 0 24 24" fill="none" xmlns="http://www.w3.org/2000/svg">
<path d="M11.5238 10.8504L5.67005 4.99662C5.48409 4.81065 5.18258 4.81065 4.99662 4.99662C4.81065 5.18258 4.81065 5.48409 4.99662 5.67005L10.8528 11.5262H8.18809C7.92509 11.5262 7.71189 11.7394 7.71189 12.0024C7.71189 12.2654 7.92509 12.4786 8.18809 12.4786H12C12.2606 12.4786 12.4723 12.2692 12.4761 12.0095L12.4762 12V8.19048C12.4762 7.92748 12.263 7.71429 12 7.71429C11.737 7.71429 11.5238 7.92748 11.5238 8.19048V10.8504Z" fill="white"/>
<path fill-rule="evenodd" clip-rule="evenodd" d="M18.6667 2H5.33333C3.49238 2 2 3.49238 2 5.33333V18.6667C2 20.5076 3.49238 22 5.33333 22H18.6667C20.5076 22 22 20.5076 22 18.6667V5.33333C22 3.49238 20.5076 2 18.6667 2ZM2.95238 5.33333C2.95238 4.01837 4.01837 2.95238 5.33333 2.95238H18.6667C19.9816 2.95238 21.0476 4.01837 21.0476 5.33333V13.4286H15.4286C14.324 13.4286 13.4286 14.324 13.4286 15.4286V21.0476H5.33333C4.01837 21.0476 2.95238 19.9816 2.95238 18.6667V5.33333ZM14.381 21.0476H18.6667C19.9816 21.0476 21.0476 19.9816 21.0476 18.6667V14.381H15.4286C14.85 14.381 14.381 14.85 14.381 15.4286V21.0476Z" fill="white"/>
</svg>
