<svg width="16" height="16" viewBox="0 0 16 16" fill="none" xmlns="http://www.w3.org/2000/svg">
<path fill-rule="evenodd" clip-rule="evenodd" d="M11.1463 5.62035C11.3042 5.14656 10.8534 4.69581 10.3796 4.85374L6.5227 6.13939C6.34172 6.19971 6.19971 6.34172 6.13939 6.5227L4.85374 10.3796C4.69581 10.8534 5.14656 11.3042 5.62035 11.1463L9.4773 9.86061C9.65827 9.80028 9.80028 9.65827 9.86061 9.4773L11.1463 5.62035ZM6.38697 9.61303L6.97339 7.85375L8.15996 9.02203L6.38697 9.61303ZM9.01957 8.16735L7.81876 6.98506L9.61303 6.38697L9.01957 8.16735Z" fill="#92929D"/>
<path fill-rule="evenodd" clip-rule="evenodd" d="M8 14.6667C11.6819 14.6667 14.6667 11.6819 14.6667 8C14.6667 4.3181 11.6819 1.33333 8 1.33333C4.3181 1.33333 1.33333 4.3181 1.33333 8C1.33333 11.6819 4.3181 14.6667 8 14.6667ZM8 13.4545C4.98754 13.4545 2.54545 11.0125 2.54545 8C2.54545 4.98754 4.98754 2.54545 8 2.54545C11.0125 2.54545 13.4545 4.98754 13.4545 8C13.4545 11.0125 11.0125 13.4545 8 13.4545Z" fill="#92929D"/>
</svg>
