<svg width="24" height="24" viewBox="0 0 24 24" fill="none" xmlns="http://www.w3.org/2000/svg">
<path fill-rule="evenodd" clip-rule="evenodd" d="M6 1.5H18C20.4853 1.5 22.5 3.51472 22.5 6V18C22.5 20.4853 20.4853 22.5 18 22.5H6C3.51472 22.5 1.5 20.4853 1.5 18V6C1.5 3.51472 3.51472 1.5 6 1.5ZM6 2.5C4.067 2.5 2.5 4.067 2.5 6V18C2.5 19.933 4.067 21.5 6 21.5H18C19.933 21.5 21.5 19.933 21.5 18V6C21.5 4.067 19.933 2.5 18 2.5H6ZM8.30648 9C9.10922 9 9.77815 9.2012 10.3133 9.60362C10.8485 10.006 11.202 10.5545 11.3741 11.249H10.2273C10.0808 10.879 9.84027 10.5837 9.5058 10.363C9.17133 10.1423 8.77475 10.032 8.31604 10.032C7.89556 10.032 7.51809 10.1326 7.18362 10.3338C6.84914 10.535 6.58794 10.8206 6.4 11.1905C6.21206 11.5605 6.11809 11.9954 6.11809 12.4951C6.11809 13.0209 6.21365 13.4719 6.40478 13.8484C6.59591 14.2249 6.86507 14.5121 7.21229 14.71C7.5595 14.908 7.96246 15.007 8.42116 15.007C8.9818 15.007 9.4628 14.8301 9.86416 14.4764C10.2655 14.1226 10.5076 13.6375 10.5904 13.0209H8.11536V12.2031H11.5078V13.2643C11.4314 13.7705 11.2546 14.2297 10.9775 14.6419C10.7003 15.054 10.334 15.3834 9.8785 15.63C9.42298 15.8767 8.90216 16 8.31604 16C7.65984 16 7.08009 15.8507 6.57679 15.5522C6.07349 15.2536 5.68487 14.8398 5.41092 14.3108C5.13697 13.7819 5 13.1766 5 12.4951C5 11.8136 5.13697 11.2084 5.41092 10.6794C5.68487 10.1504 6.0719 9.7383 6.57201 9.44298C7.07213 9.14766 7.65028 9 8.30648 9ZM13.6962 9.05841V15.9319H12.6068V9.05841H13.6962ZM19 9.05841V9.9541H16.1044V12.0862H18.4935V12.943H16.1044V15.9319H15.015V9.05841H19Z" fill="#92929D"/>
</svg>
