<svg width="24" height="24" viewBox="0 0 24 24" fill="none" xmlns="http://www.w3.org/2000/svg">
<path fill-rule="evenodd" clip-rule="evenodd" d="M12 2.05051C12.6353 1.40224 13.5207 1 14.5 1C16.2632 1 17.7219 2.30385 17.9646 4H21C22.1046 4 23 4.89543 23 6V8C23 9.10457 22.1046 10 21 10V21C21 22.1046 20.1046 23 19 23H5C3.89543 23 3 22.1046 3 21V10C1.89543 10 1 9.10457 1 8V6C1 4.89543 1.89543 4 3 4H6.03544C6.27806 2.30385 7.73676 1 9.5 1C10.4793 1 11.3647 1.40223 12 2.05051ZM13.0854 4H15.9146C15.7087 3.4174 15.1531 3 14.5 3C13.8469 3 13.2913 3.4174 13.0854 4ZM9.5 3C8.84689 3 8.29127 3.4174 8.08535 4H10.9146C10.7087 3.4174 10.1531 3 9.5 3ZM11 8H3V6H11V8ZM5 10V21H11V10H5ZM13 21V10H19V21H13ZM13 8V6H21V8H13Z" fill="#92929D"/>
</svg>
