<svg width="24" height="24" viewBox="0 0 24 24" fill="none" xmlns="http://www.w3.org/2000/svg">
<path fill-rule="evenodd" clip-rule="evenodd" d="M19.7273 5.65221C21.1474 7.37889 22 9.58988 22 12C22 17.5229 17.5228 22 12 22C6.47715 22 2 17.5229 2 12C2 6.47716 6.47715 2.00001 12 2.00001C14.3924 2.00001 16.5886 2.84014 18.3096 4.24147L18.8604 3.69064L19.1222 2.29627C19.2241 1.75347 19.7468 1.39605 20.2896 1.49796C20.8324 1.59986 21.1898 2.1225 21.0879 2.6653L21.0308 2.96923L21.3348 2.91217C21.8776 2.81027 22.4002 3.16768 22.5021 3.71049C22.604 4.25329 22.2466 4.77593 21.7038 4.87783L20.2239 5.15567L19.7273 5.65221ZM16.8861 5.665C15.5346 4.62108 13.8398 4.00001 12 4.00001C7.58172 4.00001 4 7.58173 4 12C4 16.4183 7.58172 20 12 20C16.4183 20 20 16.4183 20 12C20 10.1424 19.3669 8.4327 18.3047 7.07487L16.8763 8.50324C17.5835 9.48777 18 10.6953 18 12C18 15.3137 15.3137 18 12 18C8.68629 18 6 15.3137 6 12C6 8.6863 8.68629 6.00001 12 6.00001C13.2869 6.00001 14.4792 6.40516 15.4562 7.09486L16.8861 5.665ZM14.0101 8.541C13.4195 8.19703 12.7327 8.00001 12 8.00001C9.79086 8.00001 8 9.79087 8 12C8 14.2091 9.79086 16 12 16C14.2091 16 16 14.2091 16 12C16 11.2491 15.7931 10.5466 15.4332 9.94629L13.9248 11.4547C13.9738 11.6281 14 11.811 14 12C14 13.1046 13.1046 14 12 14C10.8954 14 10 13.1046 10 12C10 10.8954 10.8954 10 12 10C12.1692 10 12.3336 10.021 12.4905 10.0606L14.0101 8.541Z" fill="#0062FF"/>
</svg>
