<svg width="24" height="24" viewBox="0 0 24 24" fill="none" xmlns="http://www.w3.org/2000/svg">
<path fill-rule="evenodd" clip-rule="evenodd" d="M15.3525 2.5L15.4619 2.5C15.643 2.5 15.8099 2.59788 15.8983 2.7559L15.9528 2.85331L15.9535 2.85469L22.4358 14.3573C22.5227 14.5119 22.5213 14.7009 22.432 14.8541C22.3428 15.0073 22.1791 15.1018 22.0018 15.1024L16.2167 15.1277L16.2145 15.1277H16.104C15.9245 15.1277 15.7588 15.0316 15.6698 14.8758L15.6119 14.7744L9.29316 3.56137L9.12971 3.26981C9.04323 3.11554 9.04467 2.92707 9.13351 2.77415C9.22234 2.62123 9.38535 2.52661 9.56219 2.52532L9.89145 2.52291L9.89301 2.5229L15.3525 2.5ZM21.1466 14.1059L15.1698 3.50078L10.4181 3.52071L16.3949 14.1269L21.1466 14.1059Z" fill="#92929D"/>
<path fill-rule="evenodd" clip-rule="evenodd" d="M8.48406 15.5153C8.57179 15.3551 8.73994 15.2554 8.92262 15.2554H22C22.1775 15.2554 22.3416 15.3495 22.4314 15.5026C22.5211 15.6557 22.523 15.8449 22.4363 15.9997L22.272 16.293L19.5623 21.1488L19.507 21.2464C19.4183 21.4031 19.2521 21.5 19.072 21.5H5.99459C5.81697 21.5 5.65269 21.4058 5.563 21.2525C5.47332 21.0991 5.47171 20.9098 5.55877 20.7549L5.72265 20.4635L5.7234 20.4622L8.43096 15.6123L8.48406 15.5153ZM9.21719 16.2554H21.1478L18.7792 20.5H6.84755L9.21719 16.2554Z" fill="#92929D"/>
<path fill-rule="evenodd" clip-rule="evenodd" d="M8.97467 3.36381C8.88599 3.20676 8.71962 3.10964 8.53928 3.10964C8.35893 3.10964 8.19256 3.20676 8.10389 3.36381L1.6223 14.8652L1.62085 14.8678L1.56586 14.964C1.47758 15.1185 1.47808 15.3083 1.56718 15.4624L1.62183 15.5569L1.62362 15.56L4.36961 20.3876L4.53424 20.6779C4.62297 20.8344 4.78896 20.9312 4.96887 20.9313C5.14879 20.9314 5.31489 20.8349 5.40383 20.6785L5.56963 20.3869L5.5706 20.3852L11.8888 9.17196L11.9391 9.08318C11.9485 9.06722 11.957 9.05078 11.9645 9.03394C11.9942 8.96822 12.0084 8.89885 12.0086 8.83022C12.0088 8.76161 11.9949 8.69216 11.9656 8.62629C11.9581 8.60943 11.9497 8.59295 11.9404 8.57694L11.8896 8.48601L11.8877 8.48274L9.13929 3.65537L9.13842 3.65382L8.97467 3.36381ZM10.9342 8.82909L4.96816 19.4173L2.57542 15.2108L8.54067 4.62506L10.9342 8.82909Z" fill="#92929D"/>
</svg>
