<svg width="24" height="24" viewBox="0 0 24 24" fill="none" xmlns="http://www.w3.org/2000/svg">
<path fill-rule="evenodd" clip-rule="evenodd" d="M18 10.006L12 4.60596L6.00001 10.006V19.1111C6.00001 19.4793 6.29848 19.7778 6.66667 19.7778H8.22223V17.3063C8.22223 15.7232 9.51803 14.4444 11.1111 14.4444H12.8889C14.482 14.4444 15.7778 15.7232 15.7778 17.3063V19.7778H17.3333C17.7015 19.7778 18 19.4793 18 19.1111V10.006ZM20.2222 19.1111C20.2222 20.7066 18.9288 22 17.3333 22H14.6667C14.053 22 13.5556 21.5025 13.5556 20.8889V17.3063C13.5556 16.9564 13.2603 16.6667 12.8889 16.6667H11.1111C10.7397 16.6667 10.4444 16.9564 10.4444 17.3063V20.8889C10.4444 21.5025 9.94698 22 9.33333 22H6.66667C5.07118 22 3.77778 20.7066 3.77778 19.1111V12.0001C3.32263 12.3422 2.67339 12.2857 2.28524 11.8544C1.87473 11.3983 1.9117 10.6957 2.36783 10.2852L11.2567 2.28523C11.6793 1.90492 12.3207 1.90492 12.7433 2.28523L21.6322 10.2852C22.0883 10.6957 22.1253 11.3983 21.7148 11.8544C21.3266 12.2857 20.6774 12.3422 20.2222 12.0001V19.1111Z" fill="#92929D"/>
</svg>
