<svg width="24" height="24" viewBox="0 0 24 24" fill="none" xmlns="http://www.w3.org/2000/svg">
<path fill-rule="evenodd" clip-rule="evenodd" d="M18.9999 15V6C18.9999 4.89543 18.1044 4 16.9999 4H6.99985C5.89528 4 4.99985 4.89543 4.99985 6V15H9.03135C9.58979 15 10.04 15.4574 10.0312 16.0157L10.0157 17.0007L14.0099 17.0033L14.0214 15.9887C14.0276 15.4408 14.4735 15 15.0213 15H18.9999ZM20.9999 15C21.6309 15 22.1042 15.5773 21.9804 16.1961L21.4628 18.7845C21.0888 20.6542 19.4472 22 17.5404 22H6.45926C4.55254 22 2.91088 20.6542 2.53694 18.7845L2.01927 16.1961C1.89551 15.5773 2.36881 15 2.99985 15V6C2.99985 3.79086 4.79071 2 6.99985 2H16.9999C19.209 2 20.9999 3.79086 20.9999 6V15ZM4.21966 17L4.4981 18.3922C4.68507 19.3271 5.5059 20 6.45926 20H17.5404C18.4938 20 19.3146 19.3271 19.5016 18.3922L19.78 17H16.0101L15.9986 18.0153C15.9924 18.5634 15.5461 19.0043 14.998 19.004L8.99919 19C8.44101 18.9996 7.99119 18.5424 7.99998 17.9843L8.01547 17H4.21966Z" fill="#0062FF"/>
</svg>
