<svg width="14" height="14" viewBox="0 0 14 14" fill="none" xmlns="http://www.w3.org/2000/svg">
<path d="M6.41699 4.66669V7.58335C6.41699 7.90552 6.67816 8.16669 7.00033 8.16669C7.32249 8.16669 7.58366 7.90552 7.58366 7.58335V4.66669C7.58366 4.34452 7.32249 4.08335 7.00033 4.08335C6.67816 4.08335 6.41699 4.34452 6.41699 4.66669Z" fill="#92929D"/>
<path d="M7.58366 9.33335C7.58366 9.65552 7.32249 9.91669 7.00033 9.91669C6.67816 9.91669 6.41699 9.65552 6.41699 9.33335C6.41699 9.01119 6.67816 8.75002 7.00033 8.75002C7.32249 8.75002 7.58366 9.01119 7.58366 9.33335Z" fill="#92929D"/>
<path fill-rule="evenodd" clip-rule="evenodd" d="M12.8337 7.00002C12.8337 10.2217 10.222 12.8334 7.00033 12.8334C3.77866 12.8334 1.16699 10.2217 1.16699 7.00002C1.16699 3.77836 3.77866 1.16669 7.00033 1.16669C10.222 1.16669 12.8337 3.77836 12.8337 7.00002ZM2.33366 7.00002C2.33366 9.57735 4.423 11.6667 7.00033 11.6667C9.57765 11.6667 11.667 9.57735 11.667 7.00002C11.667 4.42269 9.57765 2.33335 7.00033 2.33335C4.423 2.33335 2.33366 4.42269 2.33366 7.00002Z" fill="#92929D"/>
</svg>
