<svg width="24" height="24" viewBox="0 0 24 24" fill="none" xmlns="http://www.w3.org/2000/svg">
<path fill-rule="evenodd" clip-rule="evenodd" d="M6.70174 22.1292C7.60968 22.6929 8.68376 22.9916 9.90316 23.0191C13.2939 23.0469 15.7937 23.0469 17.4212 23.0192C20.1041 22.9735 21.3011 22.1634 21.9534 20.1238C22.5573 18.2353 23.1543 13.1794 22.9594 10.6399C22.8379 9.05763 22.0768 8.16324 20.6847 8.08055C20.2042 8.05202 19.6773 8.117 18.9523 8.26859C18.6924 8.32294 17.9094 8.50586 17.4005 8.62477C17.1857 8.67495 17.0197 8.71373 16.9623 8.72665C16.5195 8.8264 16.1204 8.90932 15.7232 8.98236C15.0576 9.10474 14.5884 9.13155 14.3011 9.08356C14.1637 9.06062 14.144 9.04876 14.1323 9.0302C14.0202 8.85211 14.0116 8.45322 14.1153 7.0634C14.1658 6.38673 14.1896 5.94244 14.1939 5.44048C14.2179 2.67191 12.6585 1.36568 10.0635 2.14341C9.69248 2.2546 9.42219 2.56208 9.3704 2.93186C9.02051 5.4298 8.12238 7.61586 6.67089 9.50442C6.31319 8.98365 5.6984 8.63999 5 8.63999H3C1.89543 8.63999 1 9.4996 1 10.56V21.12C1 22.1804 1.89543 23.04 3 23.04H5C5.71891 23.04 6.34923 22.6758 6.70174 22.1292ZM12.1204 6.9262C12.1681 6.28673 12.1901 5.87672 12.194 5.42453C12.2048 4.17116 11.9884 3.75616 11.2483 3.84315C10.6766 7.04813 9.25786 9.81293 7 12.1152V19.8524C7.72835 20.6623 8.68772 21.0712 9.93513 21.0994C13.2948 21.1268 15.7796 21.1268 17.3858 21.0995C19.2274 21.0681 19.6509 20.7815 20.0415 19.5603C20.5727 17.8993 21.1414 13.0823 20.9648 10.781C20.9112 10.0821 20.8534 10.0142 20.5612 9.99689C20.3087 9.9819 19.9367 10.0278 19.378 10.1446C19.1472 10.1929 18.4202 10.3627 17.9128 10.4812C17.6766 10.5363 17.488 10.5804 17.4192 10.5959C16.9514 10.7013 16.5261 10.7896 16.0994 10.8681C14.2243 11.2129 13.0457 11.016 12.4207 10.0234C11.9842 9.33009 11.9745 8.88154 12.1204 6.9262ZM5 20.1785C4.99992 20.1856 4.99992 20.1927 5 20.1999V21.12H3V10.56H5V11.7276C5 11.7275 5 11.7277 5 11.7276V20.1785Z" fill="#92929D"/>
</svg>
