<svg width="24" height="24" viewBox="0 0 24 24" fill="none" xmlns="http://www.w3.org/2000/svg">
<path fill-rule="evenodd" clip-rule="evenodd" d="M12 4.12905L12.2215 3.9013C14.6871 1.36623 18.6965 1.36623 21.1621 3.9013C23.6126 6.42082 23.6126 10.4946 21.1621 13.0141L13.4337 20.9602C12.6636 21.752 11.3974 21.7696 10.6056 20.9994C10.5857 20.98 10.5857 20.98 10.5663 20.9602L2.83787 13.0141C0.387375 10.4946 0.387375 6.42082 2.83787 3.9013C5.3035 1.36623 9.31287 1.36623 11.7785 3.9013L12 4.12905ZM19.7284 11.6196C21.4239 9.87644 21.4239 7.03895 19.7284 5.29574C18.0481 3.56809 15.3355 3.56809 13.6552 5.29574L12.7169 6.26053C12.3242 6.66424 11.6758 6.66424 11.2831 6.26053L10.3448 5.29574C8.66445 3.56809 5.95192 3.56809 4.27159 5.29574C2.57614 7.03895 2.57614 9.87644 4.27159 11.6196L12 19.5657L19.7284 11.6196Z" fill="#92929D"/>
</svg>
