<svg width="19" height="21" viewBox="0 0 19 21" fill="none" xmlns="http://www.w3.org/2000/svg">
<path fill-rule="evenodd" clip-rule="evenodd" d="M15.794 11.5833H7.37508C6.89183 11.5833 6.50008 11.1916 6.50008 10.7083C6.50008 10.2251 6.89183 9.83333 7.37508 9.83333H16.2151L15.1523 8.75625C14.8128 8.41227 14.8165 7.85826 15.1605 7.51884C15.5045 7.17941 16.0585 7.18311 16.3979 7.52709L18.7312 9.89175C19.0691 10.2341 19.0672 10.785 18.7271 11.1251L16.3938 13.4584C16.0521 13.8001 15.4981 13.8001 15.1564 13.4584C14.8147 13.1167 14.8147 12.5627 15.1564 12.2209L15.794 11.5833Z" fill="#92929D"/>
<path fill-rule="evenodd" clip-rule="evenodd" d="M13.5001 17.2417V15.375C13.5001 14.2083 15.2501 14.2083 15.2501 15.375V17.2417C15.2501 19.2871 13.4113 20.9167 11.1667 20.9167H4.75008C2.50552 20.9167 0.666748 19.2871 0.666748 17.2417V4.175C0.666748 2.12954 2.50552 0.5 4.75008 0.5H11.1667C13.4113 0.5 15.2501 2.12954 15.2501 4.175V6.04167C15.2501 6.52492 14.8583 6.91667 14.3751 6.91667C13.8918 6.91667 13.5001 6.52492 13.5001 6.04167V4.175C13.5001 3.13067 12.4678 2.25 11.1667 2.25H4.75008C3.44905 2.25 2.41675 3.13067 2.41675 4.175V17.2417C2.41675 18.286 3.44905 19.1667 4.75008 19.1667H11.1667C12.4678 19.1667 13.5001 18.286 13.5001 17.2417Z" fill="#92929D"/>
</svg>
