<svg width="24" height="24" viewBox="0 0 24 24" fill="none" xmlns="http://www.w3.org/2000/svg">
<path fill-rule="evenodd" clip-rule="evenodd" d="M12.3608 0.763562C12.6511 1.27864 12.6117 1.91618 12.2603 2.39164C11.3087 3.67904 10.8508 5.26524 10.9698 6.86174C11.0889 8.45823 11.777 9.95897 12.909 11.091C14.0411 12.223 15.5418 12.9111 17.1383 13.0302C18.7348 13.1492 20.321 12.6913 21.6084 11.7397C22.0838 11.3883 22.7214 11.3489 23.2365 11.6392C23.7515 11.9295 24.048 12.4953 23.9936 13.084C23.7835 15.3578 22.9301 17.5248 21.5334 19.3313C20.1367 21.1378 18.2543 22.5092 16.1066 23.285C13.9589 24.0608 11.6347 24.2088 9.40589 23.7119C7.1771 23.2149 5.13595 22.0935 3.52126 20.4788C1.90657 18.8641 0.785131 16.8229 0.288166 14.5941C-0.2088 12.3654 -0.0607376 10.0411 0.715028 7.89343C1.49079 5.74572 2.86218 3.86337 4.66871 2.46663C6.47524 1.06988 8.64219 0.21652 10.916 0.00638959C11.5048 -0.0480169 12.0705 0.248487 12.3608 0.763562ZM8.30968 3.75465C7.67045 4.04326 7.06397 4.4068 6.5037 4.83998C5.14796 5.88819 4.11879 7.30083 3.5366 8.9126C2.95442 10.5244 2.8433 12.2686 3.21626 13.9412C3.58921 15.6139 4.43081 17.1457 5.64258 18.3574C6.85435 19.5692 8.38616 20.4108 10.0588 20.7838C11.7314 21.1567 13.4756 21.0456 15.0874 20.4634C16.6992 19.8812 18.1118 18.8521 19.16 17.4963C19.5932 16.9361 19.9568 16.3296 20.2454 15.6903C19.1714 15.9909 18.0451 16.1061 16.9152 16.0219C14.6021 15.8494 12.4278 14.8524 10.7877 13.2123C9.1476 11.5722 8.15063 9.39789 7.97814 7.08484C7.89389 5.95498 8.00909 4.82867 8.30968 3.75465Z" fill="#0062FF"/>
</svg>
