<svg width="24" height="24" viewBox="0 0 24 24" fill="none" xmlns="http://www.w3.org/2000/svg">
<path d="M11.8418 12.0516C11.8703 12.0074 11.8576 11.9485 11.8135 11.92L6.90881 8.75276C6.89341 8.74282 6.87547 8.73753 6.85714 8.73753C6.80454 8.73753 6.7619 8.78017 6.7619 8.83277V15.1672C6.7619 15.1855 6.76719 15.2034 6.77714 15.2188C6.80567 15.263 6.86462 15.2757 6.90881 15.2472L11.8135 12.08C11.8248 12.0726 11.8345 12.063 11.8418 12.0516Z" fill="white"/>
<path d="M18.4801 11.92C18.5243 11.9485 18.537 12.0074 18.5085 12.0516C18.5011 12.063 18.4915 12.0726 18.4801 12.08L13.5755 15.2472C13.5313 15.2757 13.4723 15.263 13.4438 15.2188C13.4339 15.2034 13.4286 15.1855 13.4286 15.1672V8.83277C13.4286 8.78017 13.4712 8.73753 13.5238 8.73753C13.5421 8.73753 13.5601 8.74282 13.5755 8.75276L18.4801 11.92Z" fill="white"/>
<path fill-rule="evenodd" clip-rule="evenodd" d="M2 12C2 17.5228 6.47715 22 12 22C17.5228 22 22 17.5228 22 12C22 6.47715 17.5228 2 12 2C6.47715 2 2 6.47715 2 12ZM12.3301 11.1199C12.3829 11.154 12.4317 11.1921 12.4762 11.2335V8.83277C12.4762 8.25419 12.9452 7.78515 13.5238 7.78515C13.7254 7.78515 13.9228 7.84333 14.0921 7.9527L18.9968 11.1199C19.4828 11.4338 19.6224 12.0822 19.3085 12.5683C19.2279 12.6931 19.1216 12.7994 18.9968 12.88L14.0921 16.0472C13.6061 16.3611 12.9576 16.2215 12.6437 15.7355C12.5344 15.5661 12.4762 15.3688 12.4762 15.1672V12.7662C12.4311 12.8083 12.3822 12.8464 12.3301 12.88L7.42545 16.0472C6.9394 16.3611 6.29094 16.2215 5.97707 15.7355C5.8677 15.5661 5.80952 15.3688 5.80952 15.1672V8.83277C5.80952 8.25419 6.27856 7.78515 6.85714 7.78515C7.05876 7.78515 7.25609 7.84333 7.42545 7.9527L12.3301 11.1199Z" fill="white"/>
</svg>
