<svg width="24" height="24" viewBox="0 0 24 24" fill="none" xmlns="http://www.w3.org/2000/svg">
<path fill-rule="evenodd" clip-rule="evenodd" d="M9.63086 10.7894C9.44972 10.5987 9.41655 10.1558 9.6506 9.63001C10.5281 7.28453 10.6471 6.84928 10.0848 6.25739L6.47548 2.4581C5.78231 1.72846 4.68097 1.91421 3.99996 2.63106C1.33335 5.43802 1.33335 9.96878 3.99996 12.7757L10.7423 19.873C13.4365 22.709 17.827 22.709 20.5212 19.873C21.1798 19.1797 21.3429 18.108 20.6855 17.416L17.0761 13.6167C16.4712 12.9799 16.0602 13.1045 13.8056 14.0369C13.2857 14.2909 12.9292 14.2613 12.7707 14.0945L9.63086 10.7894ZM19.0113 18.5575C17.1017 20.5012 14.0782 20.4806 12.1923 18.4955L5.44995 11.3982C3.56023 9.40905 3.51766 6.19248 5.32226 4.148L8.328 7.31194L8.32107 7.33749C8.22675 7.6824 8.05248 8.19763 7.80014 8.87369C7.28582 10.0245 7.3834 11.3274 8.18086 12.1669L11.3208 15.472C12.1409 16.3354 13.4429 16.4434 14.6301 15.8579C15.1804 15.6325 15.6471 15.4567 15.9696 15.3557L19.0113 18.5575Z" fill="#92929D"/>
<path d="M13.7 10.2C13.7 9.75814 13.3418 9.39997 12.9 9.39997C12.3477 9.39997 11.9 8.95225 11.9 8.39997C11.9 7.84768 12.3477 7.39997 12.9 7.39997C14.4464 7.39997 15.7 8.65357 15.7 10.2C15.7 10.7523 15.2523 11.2 14.7 11.2C14.1477 11.2 13.7 10.7523 13.7 10.2Z" fill="#92929D"/>
<path d="M12.9 6.69997C14.833 6.69997 16.4 8.26697 16.4 10.2C16.4 10.7523 16.8477 11.2 17.4 11.2C17.9523 11.2 18.4 10.7523 18.4 10.2C18.4 7.1624 15.9376 4.69997 12.9 4.69997C12.3477 4.69997 11.9 5.14769 11.9 5.69997C11.9 6.25225 12.3477 6.69997 12.9 6.69997Z" fill="#92929D"/>
<path d="M19.1 10.2C19.1 6.7758 16.3242 3.99997 12.9 3.99997C12.3477 3.99997 11.9 3.55225 11.9 2.99997C11.9 2.44768 12.3477 1.99997 12.9 1.99997C17.4287 1.99997 21.1 5.67123 21.1 10.2C21.1 10.7523 20.6523 11.2 20.1 11.2C19.5477 11.2 19.1 10.7523 19.1 10.2Z" fill="#92929D"/>
</svg>
