<svg width="24" height="24" viewBox="0 0 24 24" fill="none" xmlns="http://www.w3.org/2000/svg">
<path fill-rule="evenodd" clip-rule="evenodd" d="M23 15.0609V19C23 21.2091 21.2091 23 19 23H5C2.79086 23 1 21.2091 1 19V5C1 2.79086 2.79086 1 5 1H19C21.2091 1 23 2.79086 23 5V14.9391C23.0025 14.9797 23.0025 15.0204 23 15.0609ZM21 15.4125L17.0001 11.4141L13.2201 15.1941L18.4454 21H19C20.1046 21 21 20.1046 21 19V15.4125ZM21 12.5846V5C21 3.89543 20.1046 3 19 3H5C3.89543 3 3 3.89543 3 5V16.5858L8.29289 11.2929C8.69802 10.8878 9.36002 10.9052 9.74329 11.331L11.8803 13.7055L16.2929 9.29289C16.6834 8.90242 17.3164 8.90236 17.707 9.29276L21 12.5846ZM15.7546 21L8.96181 13.4524L3.03576 19.3785C3.21265 20.3021 4.02482 21 5 21H15.7546ZM8.5 9C7.11929 9 6 7.88071 6 6.5C6 5.11929 7.11929 4 8.5 4C9.88071 4 11 5.11929 11 6.5C11 7.88071 9.88071 9 8.5 9ZM8.5 7C8.77614 7 9 6.77614 9 6.5C9 6.22386 8.77614 6 8.5 6C8.22386 6 8 6.22386 8 6.5C8 6.77614 8.22386 7 8.5 7Z" fill="#92929D"/>
</svg>
