<svg width="24" height="24" viewBox="0 0 24 24" fill="none" xmlns="http://www.w3.org/2000/svg">
<path fill-rule="evenodd" clip-rule="evenodd" d="M2 12C2 17.5228 6.47715 22 12 22C17.5228 22 22 17.5228 22 12C22 6.47715 17.5228 2 12 2C6.47715 2 2 6.47715 2 12ZM8.83421 16.7896C9.14808 17.2756 9.79655 17.4152 10.2826 17.1013L16.8196 12.88C16.9445 12.7994 17.0507 12.6931 17.1314 12.5683C17.4452 12.0822 17.3057 11.4338 16.8196 11.1199L10.2826 6.89858C10.1132 6.78921 9.9159 6.73104 9.71429 6.73104C9.1357 6.73104 8.66667 7.20007 8.66667 7.77866V16.2213C8.66667 16.4229 8.72484 16.6202 8.83421 16.7896Z" fill="white"/>
</svg>
