<svg width="24" height="24" viewBox="0 0 24 24" fill="none" xmlns="http://www.w3.org/2000/svg">
<path fill-rule="evenodd" clip-rule="evenodd" d="M3.76782 6.32043C6.52675 2.31085 11.8768 0.813886 16.3838 3.01207C21.3477 5.43312 23.4091 11.4198 20.988 16.3837C18.5669 21.3476 12.5803 23.409 7.61635 20.9879C5.62041 20.0145 4.04 18.4348 3.0646 16.4908C2.81692 15.9971 3.0163 15.3962 3.50993 15.1485C4.00357 14.9008 4.60452 15.1002 4.8522 15.5938C5.63261 17.1492 6.89477 18.4108 8.49309 19.1904C12.4642 21.1272 17.2536 19.4781 19.1904 15.507C21.1273 11.5359 19.4782 6.7465 15.507 4.80965C11.7007 2.95317 7.14259 4.39124 5.06527 8.01081H6.76782C7.32011 8.01081 7.76782 8.45853 7.76782 9.01081C7.76782 9.56309 7.32011 10.0108 6.76782 10.0108H2.76782C2.21554 10.0108 1.76782 9.56309 1.76782 9.01081V5.01081C1.76782 4.45853 2.21554 4.01081 2.76782 4.01081C3.32011 4.01081 3.76782 4.45853 3.76782 5.01081V6.32043Z" fill="#92929D"/>
</svg>
