<svg width="24" height="24" viewBox="0 0 24 24" fill="none" xmlns="http://www.w3.org/2000/svg">
<path fill-rule="evenodd" clip-rule="evenodd" d="M13 10H15C15.5523 10 16 10.4477 16 11C16 11.5523 15.5523 12 15 12H13V14C13 14.5523 12.5523 15 12 15C11.4477 15 11 14.5523 11 14V12H9C8.44772 12 8 11.5523 8 11C8 10.4477 8.44772 10 9 10H11V8C11 7.44772 11.4477 7 12 7C12.5523 7 13 7.44772 13 8V10ZM9.69613 21.0598L3.03052 14.1928C0.32316 11.4037 0.32316 6.89356 3.03052 4.10441C5.46229 1.59917 9.26809 1.32338 12 3.31651C14.7319 1.32338 18.5377 1.59917 20.9695 4.10441C23.6768 6.89356 23.6768 11.4037 20.9695 14.1928L14.3039 21.0598C13.6897 21.6925 12.8562 22.025 12 21.9986C11.1438 22.025 10.3103 21.6925 9.69613 21.0598ZM11.9543 19.9989H12.0457C12.3494 20.0128 12.645 19.8974 12.8688 19.6668L19.5344 12.7998C21.4885 10.7866 21.4885 7.51062 19.5344 5.49742C17.6536 3.55985 14.6385 3.49697 12.6869 5.34162C12.3014 5.70598 11.6986 5.70598 11.3131 5.34162C9.36152 3.49697 6.34638 3.55985 4.46562 5.49742C2.51146 7.51062 2.51146 10.7866 4.46562 12.7998L11.1312 19.6668C11.355 19.8974 11.6506 20.0128 11.9543 19.9989Z" fill="#92929D"/>
</svg>
