<svg width="24" height="24" viewBox="0 0 24 24" fill="none" xmlns="http://www.w3.org/2000/svg">
<path d="M4.38462 8.27907C4.38462 7.12313 5.31449 6.18605 6.46154 6.18605H15.863L14.2791 7.78638C14.009 8.05919 14.0096 8.50094 14.2803 8.77304C14.551 9.04515 14.9894 9.04457 15.2594 8.77176L17.9766 6.02636C18.1254 5.91827 18.2308 5.71195 18.2308 5.48383C18.2322 5.30073 18.1605 5.121 18.0274 4.98713L15.2581 2.2037C14.9874 1.9316 14.5491 1.93217 14.2791 2.20499C14.009 2.4778 14.0096 2.91954 14.2803 3.19165L15.8712 4.7907H6.46154C4.54978 4.7907 3 6.3525 3 8.27907V14.7907C3 15.176 3.30996 15.4884 3.69231 15.4884C4.07466 15.4884 4.38462 15.176 4.38462 14.7907V8.27907Z" fill="white"/>
<path d="M17.5385 17.814H8.13529L9.72067 16.2139C9.99083 15.9412 9.9905 15.4995 9.71994 15.2272C9.44937 14.955 9.01103 14.9553 8.74087 15.228L6.01048 17.9836C5.86648 18.0976 5.76923 18.2968 5.76924 18.5142C5.76842 18.6976 5.83992 18.8762 5.97237 19.0095L8.7416 21.796C9.01217 22.0683 9.45051 22.0679 9.72067 21.7953C9.99083 21.5226 9.9905 21.0809 9.71994 20.8086L8.13054 19.2093H17.5385C19.4502 19.2093 21 17.6475 21 15.7209V9.2093C21 8.82399 20.69 8.51163 20.3077 8.51163C19.9253 8.51163 19.6154 8.82399 19.6154 9.2093V15.7209C19.6154 16.8769 18.6855 17.814 17.5385 17.814Z" fill="white"/>
</svg>
