<svg width="16" height="16" viewBox="0 0 16 16" fill="none" xmlns="http://www.w3.org/2000/svg">
<path fill-rule="evenodd" clip-rule="evenodd" d="M7.78285 5.57216L7.78498 3.07742C7.78546 2.52214 7.10828 2.25029 6.72467 2.65176L2.01642 7.57923C1.78914 7.81709 1.78914 8.19164 2.01642 8.4295L6.71627 13.3482C7.09953 13.7493 7.77611 13.4783 7.77658 12.9236L7.77894 10.1614C10.2989 10.4674 12.0203 11.4901 13.0027 13.2261C13.3234 13.7928 14.1896 13.5383 14.1527 12.8882C13.9175 8.7441 11.7528 6.26146 7.78285 5.57216ZM3.31252 8.00438L6.55293 4.61309L6.55166 6.10108C6.5514 6.41083 6.78142 6.67251 7.08865 6.71197C10.0077 7.08689 11.8051 8.41625 12.5481 10.7713C11.229 9.65957 9.44031 9.02652 7.20682 8.87133C6.85122 8.84662 6.54908 9.12826 6.54878 9.48471L6.54715 11.3896L3.31252 8.00438Z" fill="#92929D"/>
</svg>
