<svg width="20" height="18" viewBox="0 0 20 18" fill="none" xmlns="http://www.w3.org/2000/svg">
<path fill-rule="evenodd" clip-rule="evenodd" d="M9.67438 5.35827C15.6293 6.39222 18.8763 10.1162 19.2291 16.3323C19.2844 17.3075 17.9852 17.6893 17.5041 16.8392C16.0305 14.2352 13.4484 12.7011 9.66851 12.2422L9.66498 16.3854C9.66427 17.2175 8.64939 17.624 8.07451 17.0223L1.02473 9.64428C0.683814 9.28749 0.683814 8.72567 1.02473 8.36888L8.08711 0.977671C8.66252 0.375465 9.67829 0.783239 9.67758 1.61616L9.67438 5.35827ZM2.96884 9.00658L7.82078 14.0844L7.82322 11.2271C7.82368 10.6924 8.27689 10.2699 8.81028 10.307C12.1605 10.5398 14.8436 11.4894 16.8222 13.157C15.7076 9.62438 13.0117 7.63036 8.63303 7.06797C8.17218 7.00878 7.82715 6.61627 7.82755 6.15163L7.82945 3.91965L2.96884 9.00658Z" fill="#92929D"/>
</svg>
