<svg width="16" height="16" viewBox="0 0 16 16" fill="none" xmlns="http://www.w3.org/2000/svg">
<path fill-rule="evenodd" clip-rule="evenodd" d="M14.6667 3.33334V12.7879C14.6667 13.824 13.8325 14.6667 12.8 14.6667H3.20004C2.1676 14.6667 1.33337 13.824 1.33337 12.7879V3.33334C1.33337 2.22877 2.2288 1.33334 3.33337 1.33334H12.6667C13.7713 1.33334 14.6667 2.22877 14.6667 3.33334ZM13.3334 11.8862C13.1249 11.9599 12.9005 12 12.6667 12H3.33337C3.09962 12 2.87523 11.9599 2.66671 11.8862V12.7879C2.66671 13.0906 2.907 13.3333 3.20004 13.3333H12.8C13.0931 13.3333 13.3334 13.0906 13.3334 12.7879V11.8862ZM13.3334 10V3.33334C13.3334 2.96515 13.0349 2.66668 12.6667 2.66668H3.33337C2.96518 2.66668 2.66671 2.96515 2.66671 3.33334V10C2.66671 10.3682 2.96518 10.6667 3.33337 10.6667H12.6667C13.0349 10.6667 13.3334 10.3682 13.3334 10ZM8.66671 4.00001H9.30211C9.6703 4.00001 9.96878 4.29849 9.96878 4.66668V4.96951C9.96878 5.3377 9.6703 5.63618 9.30211 5.63618C9.06816 5.63618 8.86236 5.51567 8.74339 5.33334H7.34267V6.00062H8.66671C9.40309 6.00062 10 6.59757 10 7.33395V8.00001C10 8.73639 9.40309 9.33334 8.66671 9.33334C8.66355 9.69884 8.36628 9.99417 8.00004 9.99417C7.6338 9.99417 7.33654 9.69884 7.3334 9.33334H6.66671C6.29191 9.33334 5.99076 9.02447 6.00026 8.64979L6.00955 8.28309C6.01888 7.91502 6.32482 7.6242 6.6929 7.63352C6.94709 7.63997 7.16443 7.78787 7.27152 8.00001H8.66671V7.33395H7.34267C6.60629 7.33395 6.00934 6.737 6.00934 6.00062V5.33334C6.00934 4.60006 6.60128 4.00504 7.33338 4.00004C7.33337 3.63182 7.63185 3.33334 8.00004 3.33334C8.36823 3.33334 8.66671 3.63182 8.66671 4.00001Z" fill="#92929D"/>
</svg>
