<svg width="24" height="24" viewBox="0 0 24 24" fill="none" xmlns="http://www.w3.org/2000/svg">
<path fill-rule="evenodd" clip-rule="evenodd" d="M19.1 10.3H18.7119C17.9814 10.3 17.3089 10.041 16.7941 9.61064C16.2794 10.041 15.6069 10.3 14.8764 10.3H13.9175C13.187 10.3 12.5145 10.041 11.9998 9.61064C11.485 10.041 10.8125 10.3 10.082 10.3H9.12314C8.39262 10.3 7.72016 10.041 7.20539 9.61064C6.69062 10.041 6.01816 10.3 5.28764 10.3H4.9V20H9V14C9 13.4477 9.44772 13 10 13H14.5C15.0523 13 15.5 13.4477 15.5 14V20H19.1V10.3ZM21.1 9.5819V20.1C21.1 21.1493 20.2493 22 19.2 22H4.8C3.75066 22 2.9 21.1493 2.9 20.1V9.58212C2.34798 9.0918 2 8.38994 2 7.60282C2 7.34632 2.03806 7.09127 2.11291 6.84536L3.15635 3.41758C3.41268 2.5755 4.18943 2 5.06966 2H18.9299C19.8101 2 20.5869 2.5755 20.8432 3.41758L21.8866 6.84536C22.1978 7.86756 21.8518 8.91213 21.1 9.5819ZM13.5 20V15H11V20H13.5ZM19.9733 7.42778L18.9299 4H5.06966L4.02623 7.42778C4.00877 7.48513 4 7.54393 4 7.60282C4 7.9732 4.34818 8.3 4.8082 8.3H5.28764C5.80817 8.3 6.20539 7.92717 6.20539 7.5C6.20539 6.16667 8.20539 6.16667 8.20539 7.5C8.20539 7.92717 8.60261 8.3 9.12314 8.3H10.082C10.6025 8.3 10.9998 7.92717 10.9998 7.5C10.9998 6.16667 12.9998 6.16667 12.9998 7.5C12.9998 7.92717 13.397 8.3 13.9175 8.3H14.8764C15.3969 8.3 15.7941 7.92717 15.7941 7.5C15.7941 6.16667 17.7941 6.16667 17.7941 7.5C17.7941 7.92717 18.1914 8.3 18.7119 8.3H19.1913C19.272 8.3 19.3521 8.28947 19.4291 8.26883C19.855 8.15461 20.0792 7.77574 19.9733 7.42778Z" fill="#92929D"/>
</svg>
