<svg width="24" height="24" viewBox="0 0 24 24" fill="none" xmlns="http://www.w3.org/2000/svg">
<path fill-rule="evenodd" clip-rule="evenodd" d="M7.85738 1.04762H17.1431C19.247 1.04762 20.9526 2.7532 20.9526 4.85715V20.2119C20.9526 21.2639 20.0998 22.1167 19.0479 22.1167C18.6153 22.1167 18.1956 21.9694 17.8579 21.6992L12.5002 17.4125L7.1426 21.6992C6.32119 22.3564 5.12253 22.2233 4.46532 21.4019C4.19508 21.0642 4.04785 20.6445 4.04785 20.2119V4.85715C4.04785 2.7532 5.75343 1.04762 7.85738 1.04762ZM7.85738 2.95238C6.8054 2.95238 5.95261 3.80518 5.95261 4.85715V20.2119L11.3102 15.9253C12.0059 15.3686 12.9945 15.3686 13.6902 15.9253L19.0479 20.2119V4.85715C19.0479 3.80518 18.1951 2.95238 17.1431 2.95238H7.85738Z" fill="#92929D"/>
</svg>
