<svg width="24" height="24" viewBox="0 0 24 24" fill="none" xmlns="http://www.w3.org/2000/svg">
<path fill-rule="evenodd" clip-rule="evenodd" d="M9.94083 19.4934L8.58855 18.4033L8.58858 20.8484C8.58761 20.8641 8.59674 20.8866 8.62777 20.9163C8.72162 21.006 8.89465 21.0291 9.02785 20.9798L9.94083 19.4934ZM11.5107 20.7589L10.6149 22.2173C10.5583 22.3095 10.4871 22.3919 10.404 22.4613C9.4933 23.2224 8.10211 23.1806 7.24575 22.362C6.79513 21.9312 6.5541 21.3373 6.59054 20.7865L6.58875 16.9382L2.18923 13.3602C1.7553 13.0073 1.42076 12.5477 1.21859 12.0264C0.574962 10.3671 1.401 8.50157 3.06213 7.85992L20.6339 1.07235C20.9741 0.940937 21.2949 0.998862 21.54 1.16304C21.8445 1.35808 22.0233 1.70741 21.9982 2.07282C21.9939 2.14262 21.9818 2.21276 21.9612 2.28218L17.1697 19.5442C16.6969 21.2474 14.9245 22.2453 13.2116 21.7801C12.78 21.6629 12.3777 21.4578 12.0302 21.1777L11.5107 20.7589ZM9.11475 16.2587L13.2852 19.6206C13.4172 19.727 13.5706 19.8052 13.7355 19.85C14.3907 20.0279 15.065 19.6483 15.2424 19.0092L18.9414 5.68286L9.11475 16.2587ZM7.47941 15.0833L17.3165 4.49963L3.78316 9.7256C3.15236 9.96919 2.83961 10.6753 3.08314 11.3029C3.15971 11.5003 3.28653 11.6744 3.45119 11.8083L7.47941 15.0833Z" fill="#92929D"/>
</svg>
