<svg width="24" height="24" viewBox="0 0 24 24" fill="none" xmlns="http://www.w3.org/2000/svg">
<path fill-rule="evenodd" clip-rule="evenodd" d="M12 16C9.79086 16 8 14.2091 8 12C8 9.79086 9.79086 8 12 8C14.2091 8 16 9.79086 16 12C16 14.2091 14.2091 16 12 16ZM12 15C13.6569 15 15 13.6569 15 12C15 10.3431 13.6569 9 12 9C10.3431 9 9 10.3431 9 12C9 13.6569 10.3431 15 12 15Z" fill="white"/>
<path fill-rule="evenodd" clip-rule="evenodd" d="M3.80302 6.61628C3.67386 6.41823 3.70108 6.15678 3.86827 5.98959L5.98959 3.86827C6.15678 3.70108 6.41823 3.67386 6.61628 3.80302L8.30359 4.90344C8.71727 4.68755 9.14949 4.50816 9.59584 4.36769L10.0107 2.39699C10.0594 2.16562 10.2636 2 10.5 2H13.5C13.7364 2 13.9406 2.16562 13.9893 2.39699L14.4042 4.36769C14.8505 4.50816 15.2827 4.68755 15.6964 4.90344L17.3837 3.80302C17.5818 3.67386 17.8432 3.70108 18.0104 3.86827L20.1317 5.98959C20.2989 6.15678 20.3261 6.41823 20.197 6.61628L19.0966 8.30359C19.3125 8.71727 19.4918 9.14949 19.6323 9.59584L21.603 10.0107C21.8344 10.0594 22 10.2636 22 10.5V13.5C22 13.7364 21.8344 13.9406 21.603 13.9893L19.6323 14.4042C19.4918 14.8505 19.3125 15.2827 19.0966 15.6964L20.197 17.3837C20.3261 17.5818 20.2989 17.8432 20.1317 18.0104L18.0104 20.1317C17.8432 20.2989 17.5818 20.3261 17.3837 20.197L15.6964 19.0966C15.2827 19.3125 14.8505 19.4918 14.4042 19.6323L13.9893 21.603C13.9406 21.8344 13.7364 22 13.5 22H10.5C10.2636 22 10.0594 21.8344 10.0107 21.603L9.59584 19.6323C9.14949 19.4918 8.71727 19.3125 8.30359 19.0966L6.61628 20.197C6.41823 20.3261 6.15678 20.2989 5.98959 20.1317L3.86827 18.0104C3.70108 17.8432 3.67386 17.5818 3.80302 17.3837L4.90344 15.6964C4.68755 15.2827 4.50816 14.8505 4.36769 14.4042L2.39699 13.9893C2.16562 13.9406 2 13.7364 2 13.5V10.5C2 10.2636 2.16562 10.0594 2.39699 10.0107L4.36769 9.59584C4.50816 9.14949 4.68755 8.71727 4.90344 8.30359L3.80302 6.61628ZM4.86225 6.40983L5.90439 8.00778C6.0069 8.16496 6.01277 8.36632 5.91957 8.52921C5.62749 9.03973 5.40075 9.58546 5.24557 10.155C5.19625 10.336 5.04975 10.4742 4.86616 10.5128L3 10.9057V13.0943L4.86616 13.4872C5.04975 13.5258 5.19625 13.664 5.24557 13.845C5.40075 14.4145 5.62749 14.9603 5.91957 15.4708C6.01277 15.6337 6.0069 15.835 5.90439 15.9922L4.86225 17.5902L6.40983 19.1378L8.00778 18.0956C8.16496 17.9931 8.36632 17.9872 8.52921 18.0804C9.03973 18.3725 9.58546 18.5992 10.155 18.7544C10.336 18.8037 10.4742 18.9502 10.5128 19.1338L10.9057 21H13.0943L13.4872 19.1338C13.5258 18.9502 13.664 18.8037 13.845 18.7544C14.4145 18.5992 14.9603 18.3725 15.4708 18.0804C15.6337 17.9872 15.835 17.9931 15.9922 18.0956L17.5902 19.1378L19.1378 17.5902L18.0956 15.9922C17.9931 15.835 17.9872 15.6337 18.0804 15.4708C18.3725 14.9603 18.5992 14.4145 18.7544 13.845C18.8037 13.664 18.9502 13.5258 19.1338 13.4872L21 13.0943V10.9057L19.1338 10.5128C18.9502 10.4742 18.8037 10.336 18.7544 10.155C18.5992 9.58546 18.3725 9.03973 18.0804 8.52921C17.9872 8.36632 17.9931 8.16496 18.0956 8.00778L19.1378 6.40983L17.5902 4.86225L15.9922 5.90439C15.835 6.0069 15.6337 6.01277 15.4708 5.91957C14.9603 5.62749 14.4145 5.40075 13.845 5.24557C13.664 5.19625 13.5258 5.04975 13.4872 4.86616L13.0943 3H10.9057L10.5128 4.86616C10.4742 5.04975 10.336 5.19625 10.155 5.24557C9.58546 5.40075 9.03973 5.62749 8.52921 5.91957C8.36632 6.01277 8.16496 6.0069 8.00778 5.90439L6.40983 4.86225L4.86225 6.40983Z" fill="white"/>
</svg>
