<svg width="24" height="24" viewBox="0 0 24 24" fill="none" xmlns="http://www.w3.org/2000/svg">
<path fill-rule="evenodd" clip-rule="evenodd" d="M6 2H18C20.2091 2 22 3.79086 22 6V18C22 20.2091 20.2091 22 18 22H6C3.79086 22 2 20.2091 2 18V6C2 3.79086 3.79086 2 6 2ZM6 4C4.89543 4 4 4.89543 4 6V18C4 19.1046 4.89543 20 6 20H18C19.1046 20 20 19.1046 20 18V6C20 4.89543 19.1046 4 18 4H6ZM7.70711 6.29289L8 6.58579L9.29289 5.29289C9.68342 4.90237 10.3166 4.90237 10.7071 5.29289C11.0976 5.68342 11.0976 6.31658 10.7071 6.70711L8.70711 8.70711C8.31658 9.09763 7.68342 9.09763 7.29289 8.70711L6.29289 7.70711C5.90237 7.31658 5.90237 6.68342 6.29289 6.29289C6.68342 5.90237 7.31658 5.90237 7.70711 6.29289ZM12.9988 8C12.4465 7.99931 11.9993 7.55104 12 6.99876C12.0007 6.44647 12.449 5.99932 13.0012 6L16.9826 6.00494C17.5348 6.00563 17.982 6.4539 17.9813 7.00619C17.9806 7.55847 17.5324 8.00563 16.9801 8.00494L12.9988 8ZM12.9988 13C12.4465 12.9993 11.9993 12.551 12 11.9988C12.0007 11.4465 12.449 10.9993 13.0012 11L16.9826 11.0049C17.5348 11.0056 17.982 11.4539 17.9813 12.0062C17.9806 12.5585 17.5324 13.0056 16.9801 13.0049L12.9988 13ZM12.9988 18C12.4465 17.9993 11.9993 17.551 12 16.9988C12.0007 16.4465 12.449 15.9993 13.0012 16L16.9826 16.0049C17.5348 16.0056 17.982 16.4539 17.9813 17.0062C17.9806 17.5585 17.5324 18.0056 16.9801 18.0049L12.9988 18ZM7.70711 11.2929L8 11.5858L9.29289 10.2929C9.68342 9.90237 10.3166 9.90237 10.7071 10.2929C11.0976 10.6834 11.0976 11.3166 10.7071 11.7071L8.70711 13.7071C8.31658 14.0976 7.68342 14.0976 7.29289 13.7071L6.29289 12.7071C5.90237 12.3166 5.90237 11.6834 6.29289 11.2929C6.68342 10.9024 7.31658 10.9024 7.70711 11.2929ZM7.70711 16.2929L8 16.5858L9.29289 15.2929C9.68342 14.9024 10.3166 14.9024 10.7071 15.2929C11.0976 15.6834 11.0976 16.3166 10.7071 16.7071L8.70711 18.7071C8.31658 19.0976 7.68342 19.0976 7.29289 18.7071L6.29289 17.7071C5.90237 17.3166 5.90237 16.6834 6.29289 16.2929C6.68342 15.9024 7.31658 15.9024 7.70711 16.2929Z" fill="#50B5FF"/>
</svg>
