<svg width="16" height="16" viewBox="0 0 16 16" fill="none" xmlns="http://www.w3.org/2000/svg">
<path d="M2 11V1C2 0.447715 1.55228 0 1 0C0.447715 0 0 0.447715 0 1V11C0 11.5523 0.447715 12 1 12C1.55228 12 2 11.5523 2 11Z" fill="white"/>
<path d="M16 8V1C16 0.447715 15.5523 0 15 0C14.4477 0 14 0.447715 14 1V8C14 8.55228 14.4477 9 15 9C15.5523 9 16 8.55228 16 8Z" fill="white"/>
<path d="M9 1V15C9 15.5523 8.55229 16 8 16C7.44772 16 7 15.5523 7 15V1C7 0.447715 7.44772 0 8 0C8.55229 0 9 0.447715 9 1Z" fill="white"/>
</svg>
