<svg width="20" height="20" viewBox="0 0 20 20" fill="none" xmlns="http://www.w3.org/2000/svg">
<path fill-rule="evenodd" clip-rule="evenodd" d="M2.20779 0H7.4026C8.62193 0 9.61039 0.988462 9.61039 2.20779V7.4026C9.61039 8.62193 8.62193 9.61039 7.4026 9.61039H2.20779C0.988462 9.61039 0 8.62193 0 7.4026V2.20779C0 0.988462 0.988462 0 2.20779 0ZM2.20779 1.81818C1.99262 1.81818 1.81818 1.99262 1.81818 2.20779V7.4026C1.81818 7.61777 1.99262 7.79221 2.20779 7.79221H7.4026C7.61777 7.79221 7.79221 7.61777 7.79221 7.4026V2.20779C7.79221 1.99262 7.61777 1.81818 7.4026 1.81818H2.20779ZM12.5974 10.3896H17.7922C19.0115 10.3896 20 11.3781 20 12.5974V17.7922C20 19.0115 19.0115 20 17.7922 20H12.5974C11.3781 20 10.3896 19.0115 10.3896 17.7922V12.5974C10.3896 11.3781 11.3781 10.3896 12.5974 10.3896ZM12.5974 12.2078C12.3822 12.2078 12.2078 12.3822 12.2078 12.5974V17.7922C12.2078 18.0074 12.3822 18.1818 12.5974 18.1818H17.7922C18.0074 18.1818 18.1818 18.0074 18.1818 17.7922V12.5974C18.1818 12.3822 18.0074 12.2078 17.7922 12.2078H12.5974ZM12.5974 0H17.7922C19.0115 0 20 0.988462 20 2.20779V7.4026C20 8.62193 19.0115 9.61039 17.7922 9.61039H12.5974C11.3781 9.61039 10.3896 8.62193 10.3896 7.4026V2.20779C10.3896 0.988462 11.3781 0 12.5974 0ZM12.5974 1.81818C12.3822 1.81818 12.2078 1.99262 12.2078 2.20779V7.4026C12.2078 7.61777 12.3822 7.79221 12.5974 7.79221H17.7922C18.0074 7.79221 18.1818 7.61777 18.1818 7.4026V2.20779C18.1818 1.99262 18.0074 1.81818 17.7922 1.81818H12.5974ZM2.20779 10.3896H7.4026C8.62193 10.3896 9.61039 11.3781 9.61039 12.5974V17.7922C9.61039 19.0115 8.62193 20 7.4026 20H2.20779C0.988462 20 0 19.0115 0 17.7922V12.5974C0 11.3781 0.988462 10.3896 2.20779 10.3896ZM2.20779 12.2078C1.99262 12.2078 1.81818 12.3822 1.81818 12.5974V17.7922C1.81818 18.0074 1.99262 18.1818 2.20779 18.1818H7.4026C7.61777 18.1818 7.79221 18.0074 7.79221 17.7922V12.5974C7.79221 12.3822 7.61777 12.2078 7.4026 12.2078H2.20779Z" fill="white"/>
</svg>
