<svg width="24" height="24" viewBox="0 0 24 24" fill="none" xmlns="http://www.w3.org/2000/svg">
<path fill-rule="evenodd" clip-rule="evenodd" d="M6 2H18C20.2091 2 22 3.79086 22 6V18C22 20.2091 20.2091 22 18 22H6C3.79086 22 2 20.2091 2 18V6C2 3.79086 3.79086 2 6 2ZM6 4C4.89543 4 4 4.89543 4 6V18C4 19.1046 4.89543 20 6 20H18C19.1046 20 20 19.1046 20 18V6C20 4.89543 19.1046 4 18 4H6ZM7 8C6.44772 8 6 7.55228 6 7C6 6.44772 6.44772 6 7 6H17C17.5523 6 18 6.44772 18 7C18 7.55228 17.5523 8 17 8H7ZM7 13C6.44772 13 6 12.5523 6 12C6 11.4477 6.44772 11 7 11H17C17.5523 11 18 11.4477 18 12C18 12.5523 17.5523 13 17 13H7ZM7 18C6.44772 18 6 17.5523 6 17C6 16.4477 6.44772 16 7 16H12C12.5523 16 13 16.4477 13 17C13 17.5523 12.5523 18 12 18H7Z" fill="#FF974A"/>
</svg>
