<svg width="24" height="24" viewBox="0 0 24 24" fill="none" xmlns="http://www.w3.org/2000/svg">
<path d="M12.5 4.85714C15.0359 4.85714 17.0934 6.92255 17.0934 9.47253C17.0934 9.99851 16.6706 10.4249 16.149 10.4249C15.6274 10.4249 15.2046 9.99851 15.2046 9.47253C15.2046 7.97646 13.9946 6.7619 12.5 6.7619C11.9784 6.7619 11.5556 6.33551 11.5556 5.80952C11.5556 5.28354 11.9784 4.85714 12.5 4.85714Z" fill="#92929D"/>
<path fill-rule="evenodd" clip-rule="evenodd" d="M18.6443 12.2113C19.2184 11.2112 19.5468 10.0508 19.5468 8.81319C19.5468 5.0494 16.5091 2 12.764 2C9.0189 2 5.98117 5.0494 5.98117 8.81319C5.98117 10.0655 6.31747 11.2387 6.90422 12.2468L4.86195 17.8799C4.74879 18.192 4.72959 18.5303 4.80675 18.8523C5.02305 19.755 5.92642 20.3063 6.82449 20.0838L7.88011 19.8222L8.56365 20.7602C8.74238 21.0054 8.9842 21.1969 9.26329 21.314C10.1142 21.6712 11.0955 21.265 11.455 20.4067L12.7807 17.2415L14.1065 20.4067C14.466 21.265 15.4472 21.6712 16.2982 21.314C16.5772 21.1969 16.8191 21.0054 16.9978 20.7602L17.6813 19.8222L18.737 20.0838C19.635 20.3063 20.5384 19.755 20.7547 18.8523C20.8319 18.5303 20.8127 18.192 20.6995 17.8799L18.6443 12.2113ZM14.0971 15.4948L15.6983 19.3176L16.8983 17.6709L18.7839 18.1381L17.2545 13.9196C16.3752 14.7003 15.2927 15.2554 14.0971 15.4948ZM6.77752 18.1381L8.29885 13.9419C9.18119 14.7176 10.2654 15.2672 11.4618 15.5009L9.86319 19.3176L8.66313 17.6709L6.77752 18.1381ZM12.764 13.7216C10.0602 13.7216 7.87006 11.5231 7.87006 8.81319C7.87006 6.10331 10.0602 3.90476 12.764 3.90476C15.4678 3.90476 17.6579 6.10331 17.6579 8.81319C17.6579 11.5231 15.4678 13.7216 12.764 13.7216Z" fill="#92929D"/>
</svg>
