<svg width="24" height="24" viewBox="0 0 24 24" fill="none" xmlns="http://www.w3.org/2000/svg">
<path fill-rule="evenodd" clip-rule="evenodd" d="M11.6604 1.05945C11.8798 0.980185 12.1202 0.980185 12.3396 1.05945L21.3396 4.30945C21.7359 4.45255 22 4.82868 22 5.25V12C22 17.4996 18.6712 21.1983 12.2657 22.964C12.0941 23.0114 11.9128 23.012 11.7408 22.9658C5.33125 21.2459 2 17.5445 2 12V5.25C2 4.82868 2.26408 4.45255 2.66036 4.30945L11.6604 1.05945ZM12 3.0632L4 5.95209V12C4 16.4966 6.58512 19.44 11.9965 20.962C17.4123 19.3998 20 16.4544 20 12V5.95209L12 3.0632ZM11.0497 6.93025C11.0497 6.37796 11.4974 5.93025 12.0497 5.93025C12.602 5.93025 13.0497 6.37796 13.0497 6.93025V13.5428C13.0497 14.0951 12.602 14.5428 12.0497 14.5428C11.4974 14.5428 11.0497 14.0951 11.0497 13.5428V6.93025ZM12 18C11.4477 18 11 17.5523 11 17C11 16.4477 11.4477 16 12 16C12.5523 16 13 16.4477 13 17C13 17.5523 12.5523 18 12 18Z" fill="#92929D"/>
</svg>
