<svg width="24" height="24" viewBox="0 0 24 24" fill="none" xmlns="http://www.w3.org/2000/svg">
<path fill-rule="evenodd" clip-rule="evenodd" d="M12.4011 2.17618L20.7379 6.84285C21.598 7.32425 21.6818 8.4959 20.9895 9.11189V16.9168C21.8936 17.8842 22.3789 18.7065 22.3789 19.4429C22.3789 20.7316 21.3421 21.7763 20.0632 21.7763C18.7842 21.7763 17.7474 20.7316 17.7474 19.4429C17.7474 18.7065 18.2327 17.8842 19.1368 16.9167V10.1867L18.6737 10.446L18.6734 15.637C18.6734 15.9777 18.5501 16.3067 18.3266 16.5624C16.9959 18.0847 14.7832 18.8 11.726 18.8C8.66881 18.8 6.45608 18.0847 5.1254 16.5624C4.90192 16.3067 4.77863 15.9777 4.77863 15.637L4.77893 10.446L2.71469 9.29049C1.76177 8.75708 1.76177 7.37625 2.71469 6.84285L11.0515 2.17618C11.4712 1.94127 11.9815 1.94127 12.4011 2.17618ZM4.34317 8.06667L11.7263 12.1995L19.1095 8.06667L11.7263 3.93385L4.34317 8.06667ZM19.7968 19.0535C19.6555 19.2742 19.6 19.419 19.6 19.4429C19.6 19.7007 19.8074 19.9096 20.0632 19.9096C20.319 19.9096 20.5263 19.7007 20.5263 19.4429C20.5263 19.419 20.4708 19.2742 20.3295 19.0535C20.2567 18.9396 20.1677 18.8163 20.0632 18.6844C19.9586 18.8163 19.8696 18.9396 19.7968 19.0535ZM11.7258 14.1536C12.1181 14.1537 12.5052 14.0535 12.851 13.8599L16.821 11.6377L16.8207 15.4539C15.8781 16.4225 14.1976 16.9333 11.726 16.9333C9.25444 16.9333 7.57397 16.4225 6.63127 15.4539L6.63149 11.6376L10.6017 13.8599C10.9471 14.0533 11.3339 14.1535 11.7258 14.1536Z" fill="#50B5FF"/>
</svg>
