<svg width="24" height="24" viewBox="0 0 24 24" fill="none" xmlns="http://www.w3.org/2000/svg">
<path fill-rule="evenodd" clip-rule="evenodd" d="M12 0C12.8284 0 13.5 0.671573 13.5 1.5V3.40909C13.5 4.23752 12.8284 4.90909 12 4.90909C11.1716 4.90909 10.5 4.23752 10.5 3.40909V1.5C10.5 0.671573 11.1716 0 12 0ZM12.0003 8.72729C10.1928 8.72729 8.72754 10.1925 8.72754 12C8.72754 13.8075 10.1928 15.2727 12.0003 15.2727C13.8077 15.2727 15.273 13.8075 15.273 12C15.273 10.1925 13.8077 8.72729 12.0003 8.72729ZM5.72754 12C5.72754 8.53569 8.53594 5.72729 12.0003 5.72729C15.4646 5.72729 18.273 8.53569 18.273 12C18.273 15.4644 15.4646 18.2727 12.0003 18.2727C8.53594 18.2727 5.72754 15.4644 5.72754 12ZM13.5 20.5908C13.5 19.7624 12.8284 19.0908 12 19.0908C11.1716 19.0908 10.5 19.7624 10.5 20.5908V22.4999C10.5 23.3283 11.1716 23.9999 12 23.9999C12.8284 23.9999 13.5 23.3283 13.5 22.4999V20.5908ZM3.51258 3.51283C4.09837 2.92704 5.04812 2.92704 5.6339 3.51283L6.98936 4.86828C7.57514 5.45407 7.57514 6.40381 6.98936 6.9896C6.40357 7.57539 5.45382 7.57539 4.86804 6.9896L3.51258 5.63415C2.9268 5.04836 2.9268 4.09861 3.51258 3.51283ZM19.1319 17.0101C18.5462 16.4244 17.5964 16.4244 17.0106 17.0101C16.4248 17.5959 16.4248 18.5457 17.0106 19.1315L18.3661 20.4869C18.9519 21.0727 19.9016 21.0727 20.4874 20.4869C21.0732 19.9011 21.0732 18.9514 20.4874 18.3656L19.1319 17.0101ZM0 12C0 11.1716 0.671573 10.5 1.5 10.5H3.40909C4.23752 10.5 4.90909 11.1716 4.90909 12C4.90909 12.8284 4.23752 13.5 3.40909 13.5H1.5C0.671573 13.5 0 12.8284 0 12ZM20.5908 10.5C19.7624 10.5 19.0908 11.1716 19.0908 12C19.0908 12.8284 19.7624 13.5 20.5908 13.5H22.4999C23.3283 13.5 23.9999 12.8284 23.9999 12C23.9999 11.1716 23.3283 10.5 22.4999 10.5H20.5908ZM6.98936 17.0101C7.57514 17.5959 7.57514 18.5457 6.98936 19.1315L5.6339 20.4869C5.04812 21.0727 4.09837 21.0727 3.51258 20.4869C2.9268 19.9011 2.9268 18.9514 3.51258 18.3656L4.86804 17.0101C5.45382 16.4244 6.40357 16.4244 6.98936 17.0101ZM20.4874 5.63415C21.0732 5.04836 21.0732 4.09861 20.4874 3.51283C19.9016 2.92704 18.9519 2.92704 18.3661 3.51283L17.0106 4.86828C16.4248 5.45407 16.4248 6.40381 17.0106 6.9896C17.5964 7.57539 18.5462 7.57539 19.1319 6.9896L20.4874 5.63415Z" fill="#F1F1F5"/>
</svg>
