<svg width="24" height="24" viewBox="0 0 24 24" fill="none" xmlns="http://www.w3.org/2000/svg">
<path fill-rule="evenodd" clip-rule="evenodd" d="M8.3 13.7V10.3H4V13.7H8.3ZM10.3 13.7H20V10.3H10.3V13.7ZM8.3 4H5C4.44772 4 4 4.44772 4 5V8.3H8.3V4ZM10.3 4V8.3H20V5C20 4.44772 19.5523 4 19 4H10.3ZM8.3 20V15.7H4V19C4 19.5523 4.44772 20 5 20H8.3ZM10.3 20H19C19.5523 20 20 19.5523 20 19V15.7H10.3V20ZM2 19V5C2 3.34315 3.34315 2 5 2H19C20.6569 2 22 3.34315 22 5V19C22 20.6569 20.6569 22 19 22H5C3.34315 22 2 20.6569 2 19Z" fill="#92929D"/>
</svg>
