<svg width="24" height="24" viewBox="0 0 24 24" fill="none" xmlns="http://www.w3.org/2000/svg">
<path fill-rule="evenodd" clip-rule="evenodd" d="M12.2574 13.4741L20.2147 3.38089C20.5566 2.94718 21.1854 2.87277 21.6191 3.2147C22.0528 3.55663 22.1272 4.1854 21.7853 4.61911L13.1131 15.6191C12.736 16.0975 12.0225 16.1304 11.6029 15.6888L7.27509 11.1344C6.89465 10.734 6.9108 10.1011 7.31116 9.72062C7.71152 9.34019 8.34448 9.35633 8.72491 9.75669L12.2574 13.4741ZM20 11.1C20 10.5477 20.4477 10.1 21 10.1C21.5523 10.1 22 10.5477 22 11.1V18.3C22 20.3435 20.3435 22 18.3 22H5.7C3.65655 22 2 20.3435 2 18.3V5.7C2 3.65655 3.65655 2 5.7 2H16.4C16.9523 2 17.4 2.44772 17.4 3C17.4 3.55228 16.9523 4 16.4 4H5.7C4.76112 4 4 4.76112 4 5.7V18.3C4 19.2389 4.76112 20 5.7 20H18.3C19.2389 20 20 19.2389 20 18.3V11.1Z" fill="#92929D"/>
</svg>
