<svg width="24" height="24" viewBox="0 0 24 24" fill="none" xmlns="http://www.w3.org/2000/svg">
<path fill-rule="evenodd" clip-rule="evenodd" d="M12.5 7.5V17C12.5 17.2761 12.2761 17.5 12 17.5C11.7239 17.5 11.5 17.2761 11.5 17V7.5H7C6.72386 7.5 6.5 7.27614 6.5 7C6.5 6.72386 6.72386 6.5 7 6.5H17C17.2761 6.5 17.5 6.72386 17.5 7C17.5 7.27614 17.2761 7.5 17 7.5H12.5ZM5 1.5H19C20.933 1.5 22.5 3.067 22.5 5V19C22.5 20.933 20.933 22.5 19 22.5H5C3.067 22.5 1.5 20.933 1.5 19V5C1.5 3.067 3.067 1.5 5 1.5ZM5 2.5C3.61929 2.5 2.5 3.61929 2.5 5V19C2.5 20.3807 3.61929 21.5 5 21.5H19C20.3807 21.5 21.5 20.3807 21.5 19V5C21.5 3.61929 20.3807 2.5 19 2.5H5Z" fill="#92929D"/>
</svg>
