<svg width="24" height="24" viewBox="0 0 24 24" fill="none" xmlns="http://www.w3.org/2000/svg">
<path fill-rule="evenodd" clip-rule="evenodd" d="M8.25476 17.2691C8.08844 17.0111 8 16.7107 8 16.4038V7.59614C8 6.71495 8.71388 6 9.59524 6C9.9025 6 10.2032 6.08878 10.4612 6.25564L17.2706 10.6595C18.0102 11.1378 18.2224 12.1251 17.7452 12.8653C17.6225 13.0555 17.4607 13.2175 17.2706 13.3405L10.4612 17.7443C9.72072 18.2232 8.73259 18.0102 8.25476 17.2691ZM10 15.6607L15.6605 12L10 8.33918V15.6607Z" fill="#FFC542"/>
<path fill-rule="evenodd" clip-rule="evenodd" d="M5 2H19C21.2091 2 23 3.79086 23 6V18C23 20.2091 21.2091 22 19 22H5C2.79086 22 1 20.2091 1 18V6C1 3.79086 2.79086 2 5 2ZM5 4C3.89543 4 3 4.89543 3 6V18C3 19.1046 3.89543 20 5 20H19C20.1046 20 21 19.1046 21 18V6C21 4.89543 20.1046 4 19 4H5Z" fill="#FFC542"/>
</svg>
