<svg width="16" height="16" viewBox="0 0 16 16" fill="none" xmlns="http://www.w3.org/2000/svg">
<path d="M7.42825 1.90492C7.42825 1.58933 7.68408 1.3335 7.99967 1.3335C8.31527 1.3335 8.5711 1.58933 8.5711 1.90492V3.42873C8.5711 3.74433 8.31527 4.00016 7.99967 4.00016C7.68408 4.00016 7.42825 3.74433 7.42825 3.42873V1.90492Z" fill="white"/>
<path d="M14.499 2.26277C14.2758 2.03961 13.914 2.03961 13.6909 2.26277L12.167 3.78658C11.9439 4.00973 11.9439 4.37154 12.167 4.5947C12.3902 4.81786 12.752 4.81786 12.9752 4.5947L14.499 3.07089C14.7221 2.84773 14.7221 2.48593 14.499 2.26277Z" fill="white"/>
<path d="M2.3085 2.26277L3.83231 3.78658C4.05546 4.00973 4.05546 4.37154 3.83231 4.5947C3.60915 4.81786 3.24734 4.81786 3.02418 4.5947L1.50038 3.07089C1.27722 2.84773 1.27722 2.48593 1.50038 2.26277C1.72353 2.03961 2.08534 2.03961 2.3085 2.26277Z" fill="white"/>
<path d="M7.99967 10.6668C8.63086 10.6668 9.14253 10.1552 9.14253 9.52397C9.14253 8.89279 8.63086 8.38111 7.99967 8.38111C7.36849 8.38111 6.85682 8.89279 6.85682 9.52397C6.85682 10.1552 7.36849 10.6668 7.99967 10.6668Z" fill="white"/>
<path fill-rule="evenodd" clip-rule="evenodd" d="M1.5525 9.37814C2.7603 6.46346 5.23217 4.57159 7.99967 4.57159C10.7672 4.57159 13.2391 6.46346 14.4468 9.37814C14.4855 9.47151 14.4855 9.57643 14.4468 9.66981C13.2391 12.5845 10.7672 14.4764 7.99967 14.4764C5.23217 14.4764 2.7603 12.5845 1.5525 9.66981C1.51381 9.57643 1.51381 9.47151 1.5525 9.37814ZM7.99967 11.4287C6.9477 11.4287 6.09491 10.5759 6.09491 9.52397C6.09491 8.472 6.9477 7.61921 7.99967 7.61921C9.05165 7.61921 9.90444 8.472 9.90444 9.52397C9.90444 10.5759 9.05165 11.4287 7.99967 11.4287Z" fill="white"/>
</svg>
