<svg width="16" height="16" viewBox="0 0 16 16" fill="none" xmlns="http://www.w3.org/2000/svg">
<path fill-rule="evenodd" clip-rule="evenodd" d="M1.3078 9.15013C1.2711 9.23281 1.2711 9.32716 1.3078 9.40983C2.56679 12.2455 5.13488 14.08 8.00027 14.08C10.8657 14.08 13.4338 12.2455 14.6927 9.40983C14.7295 9.32716 14.7295 9.23281 14.6927 9.15013C13.4338 6.31446 10.8657 4.47998 8.00027 4.47998C5.13488 4.47998 2.56679 6.31446 1.3078 9.15013ZM8.00027 13.44C5.44292 13.44 3.13145 11.8192 1.95173 9.27998C3.13145 6.74072 5.44292 5.11998 8.00027 5.11998C10.5576 5.11998 12.8691 6.74072 14.0488 9.27998C12.8691 11.8192 10.5576 13.44 8.00027 13.44ZM8.00027 11.52C6.76316 11.52 5.76027 10.5171 5.76027 9.27998C5.76027 8.04286 6.76316 7.03998 8.00027 7.03998C9.23739 7.03998 10.2403 8.04286 10.2403 9.27998C10.2403 10.5171 9.23739 11.52 8.00027 11.52ZM9.60027 9.27998C9.60027 10.1636 8.88393 10.88 8.00027 10.88C7.11662 10.88 6.40027 10.1636 6.40027 9.27998C6.40027 8.39632 7.11662 7.67998 8.00027 7.67998C8.88393 7.67998 9.60027 8.39632 9.60027 9.27998Z" fill="#92929D"/>
<path fill-rule="evenodd" clip-rule="evenodd" d="M7.67996 1.59979V3.51979C7.67996 3.69652 7.82323 3.83979 7.99996 3.83979C8.17669 3.83979 8.31996 3.69652 8.31996 3.51979V1.59979C8.31996 1.42305 8.17669 1.27979 7.99996 1.27979C7.82323 1.27979 7.67996 1.42305 7.67996 1.59979ZM13.4937 2.06228L12.2137 3.98228C12.1157 4.12933 12.1554 4.32801 12.3025 4.42604C12.4495 4.52407 12.6482 4.48434 12.7462 4.33729L14.0262 2.41729C14.1242 2.27024 14.0845 2.07156 13.9375 1.97353C13.7904 1.8755 13.5917 1.91523 13.4937 2.06228ZM3.78621 3.98228L2.50621 2.06228C2.40818 1.91523 2.2095 1.8755 2.06245 1.97353C1.9154 2.07156 1.87567 2.27024 1.9737 2.41729L3.2537 4.33729C3.35173 4.48434 3.55041 4.52407 3.69746 4.42604C3.84451 4.32801 3.88424 4.12933 3.78621 3.98228Z" fill="#92929D"/>
</svg>
