<svg width="20" height="20" viewBox="0 0 20 20" fill="none" xmlns="http://www.w3.org/2000/svg">
<path fill-rule="evenodd" clip-rule="evenodd" d="M10.8648 6.64551V9.16668H13.3116C13.2594 8.17666 13.1161 7.24959 12.9048 6.41996C12.2498 6.53485 11.566 6.61103 10.8648 6.64551ZM9.19813 6.64848C8.47492 6.61554 7.76982 6.53827 7.09527 6.41996C6.88398 7.24958 6.74064 8.17666 6.68853 9.16668H9.19813V6.64848ZM10.8648 12.8489C11.6065 12.8854 12.3288 12.9685 13.0182 13.0948C13.1675 12.3944 13.2694 11.6345 13.3116 10.8333H10.8648V12.8489ZM9.19813 12.846V10.8333H6.68853C6.7307 11.6345 6.8326 12.3944 6.98191 13.0948C7.69069 12.965 8.43431 12.8807 9.19813 12.846ZM10.8648 14.5179V17.2147C11.5127 16.7868 12.1105 15.8995 12.5555 14.7054C12.014 14.6131 11.4475 14.5496 10.8648 14.5179ZM9.19813 14.5146C8.59332 14.5451 8.00551 14.6097 7.44462 14.7054C7.90397 15.9381 8.52611 16.8437 9.19813 17.2547V14.5146ZM10.8648 4.97659C11.379 4.94859 11.8807 4.89586 12.3637 4.82035C11.9453 3.86544 11.4237 3.15448 10.8648 2.78528V4.97659ZM9.19813 4.97988V2.74531C8.61552 3.10166 8.07041 3.82973 7.63635 4.82034C8.13897 4.89892 8.66187 4.95284 9.19813 4.97988ZM2.54581 9.16668H5.01946C5.0714 8.05827 5.22633 7.00242 5.46984 6.03763C4.95067 5.8815 4.46075 5.69806 4.00756 5.48929C3.21858 6.53579 2.69739 7.79553 2.54581 9.16668ZM2.54581 10.8333C2.67958 12.0434 3.1012 13.1666 3.74068 14.1331C4.23518 13.8863 4.77834 13.6711 5.35941 13.4906C5.17922 12.657 5.06306 11.7637 5.01946 10.8333H2.54581ZM17.4543 9.16668C17.3027 7.79553 16.7815 6.53578 15.9925 5.48929C15.5393 5.69806 15.0494 5.8815 14.5302 6.03763C14.7737 7.00242 14.9287 8.05827 14.9806 9.16668H17.4543ZM17.4543 10.8333H14.9806C14.937 11.7637 14.8209 12.657 14.6407 13.4906C15.2217 13.6711 15.7649 13.8863 16.2594 14.1331C16.8989 13.1666 17.3205 12.0434 17.4543 10.8333ZM6.50196 16.636C6.241 16.1717 6.00951 15.6549 5.81115 15.0953C5.47265 15.2019 5.15151 15.3216 4.8509 15.4531C5.34305 15.918 5.89811 16.317 6.50196 16.636ZM13.4981 16.636C14.102 16.317 14.657 15.918 15.1492 15.4532C14.8485 15.3216 14.5274 15.2019 14.1889 15.0953C13.9906 15.6549 13.7591 16.1717 13.4981 16.636ZM6.50196 3.36404C6.05336 3.60101 5.63169 3.88213 5.24274 4.20162C5.4792 4.29199 5.72631 4.37549 5.98276 4.45172C6.13944 4.06408 6.31297 3.70028 6.50196 3.36404ZM13.4981 3.36404C13.6871 3.70028 13.8606 4.06407 14.0173 4.45171C14.2737 4.37549 14.5208 4.29198 14.7573 4.2016C14.3684 3.88212 13.9467 3.601 13.4981 3.36404ZM10 19.1667C4.93743 19.1667 0.833374 15.0626 0.833374 10C0.833374 4.9374 4.93743 0.833344 10 0.833344C15.0626 0.833344 19.1667 4.9374 19.1667 10C19.1667 15.0626 15.0626 19.1667 10 19.1667Z" fill="#92929D"/>
</svg>
