<svg width="24" height="24" viewBox="0 0 24 24" fill="none" xmlns="http://www.w3.org/2000/svg">
<path fill-rule="evenodd" clip-rule="evenodd" d="M18.9574 7.90722C18.9574 7.35632 19.404 6.90973 19.9549 6.90973C20.5058 6.90973 20.9524 7.35632 20.9524 7.90722V17.823C20.9524 20.1299 19.0823 22 16.7754 22H6.177C3.87011 22 2 20.1299 2 17.823V7.22463C2 4.91773 3.87011 3.04762 6.177 3.04762H15.7779C16.3288 3.04762 16.7754 3.49422 16.7754 4.04512C16.7754 4.59602 16.3288 5.04261 15.7779 5.04261H6.177C4.97191 5.04261 3.99499 6.01953 3.99499 7.22463V17.823C3.99499 19.0281 4.97191 20.005 6.177 20.005H16.7754C17.9805 20.005 18.9574 19.0281 18.9574 17.823V7.90722ZM19.8376 2.30962C20.2175 1.91066 20.8489 1.89522 21.2478 2.27513C21.6468 2.65503 21.6622 3.28642 21.2823 3.68538L11.7318 13.7147C11.3519 14.1137 10.7205 14.1291 10.3216 13.7492C9.92263 13.3693 9.90719 12.7379 10.2871 12.3389L19.8376 2.30962Z" fill="#92929D"/>
</svg>
