<svg width="24" height="24" viewBox="0 0 24 24" fill="none" xmlns="http://www.w3.org/2000/svg">
<path d="M17.7143 3.71429C17.2409 3.71429 16.8571 3.33053 16.8571 2.85714C16.8571 2.38376 17.2409 2 17.7143 2H18.8571C20.5929 2 22 3.4071 22 5.14286V6.28571C22 6.7591 21.6162 7.14286 21.1429 7.14286C20.6695 7.14286 20.2857 6.7591 20.2857 6.28571V5.14286C20.2857 4.35388 19.6461 3.71429 18.8571 3.71429H17.7143Z" fill="#92929D"/>
<path d="M8.57143 6.85714H15.4286C16.3753 6.85714 17.1429 7.62465 17.1429 8.57143V15.4286C17.1429 16.3753 16.3753 17.1429 15.4286 17.1429H8.57143C7.62465 17.1429 6.85714 16.3753 6.85714 15.4286V8.57143C6.85714 7.62465 7.62465 6.85714 8.57143 6.85714Z" fill="#92929D"/>
<path d="M21.1429 16.8571C20.6695 16.8571 20.2857 17.2409 20.2857 17.7143V18.8571C20.2857 19.6461 19.6461 20.2857 18.8571 20.2857H17.7143C17.2409 20.2857 16.8571 20.6695 16.8571 21.1429C16.8571 21.6162 17.2409 22 17.7143 22H18.8571C20.5929 22 22 20.5929 22 18.8571V17.7143C22 17.2409 21.6162 16.8571 21.1429 16.8571Z" fill="#92929D"/>
<path d="M6.27525 20.2857C6.74864 20.2857 7.13239 20.6695 7.13239 21.1429C7.13239 21.6162 6.74864 22 6.27525 22H5.14286C3.4071 22 2 20.5929 2 18.8571V17.7143C2 17.2409 2.38376 16.8571 2.85714 16.8571C3.33053 16.8571 3.71429 17.2409 3.71429 17.7143V18.8571C3.71429 19.6461 4.35388 20.2857 5.14286 20.2857H6.27525Z" fill="#92929D"/>
<path d="M2.85714 7.08231C3.33053 7.08231 3.71429 6.69855 3.71429 6.22517V5.14286C3.71429 4.35388 4.35388 3.71429 5.14286 3.71429H6.25725C6.73064 3.71429 7.1144 3.33053 7.1144 2.85714C7.1144 2.38376 6.73064 2 6.25725 2H5.14286C3.4071 2 2 3.4071 2 5.14286V6.22517C2 6.69855 2.38376 7.08231 2.85714 7.08231Z" fill="#92929D"/>
</svg>
