<?xml version="1.0" encoding="iso-8859-1" ?>
              <svg
                version="1.1"
                xmlns="http://www.w3.org/2000/svg"
                xmlns:xlink="http://www.w3.org/1999/xlink"
                viewBox="0 0 1801.5 1201"
                width="1801.5"
                height="1201"
              >
                <g transform="translate(486.89624999999995 274.72374999999994) scale(1.11953674265302 1.1208131761228022)" ><defs>
    <clipPath id="clipPath_ETwgx5KX_53E-hhAv_WQ9">
    <rect x="0" y="0" width="677.183" height="530.414" />
    </clipPath></defs> <g id="Layer_3ETwgx5KX_53E-hhAv_WQ9">  <path d="M238.313,14.401c22.5-8.6,52.3-13.3,66.9,5.9c13.2,17.3,5.2,44.2,17.8,61.9   c14.4,20.2,45.6,16.2,68.4,6.6c45-19,83.4-51,127.6-71.8c56.5-26.6,149.7-30.5,157.7,51.9c2.5,25.6-5.4,50.9-13.5,75.3   s-16.9,49.2-16.2,74.9c0.8,28.4,13.1,55.7,12.9,84.2c-0.2,36-20.8,69.5-47.7,93.4c-35.6,31.6-84.5,55.5-127.5,75.2   c-44.4,20.3-91.5,34.7-139.1,45.3c-49.3,11-121.2,30.7-155.7-19.4c-10.9-15.9-15.3-35.2-18.8-54.1s-6.4-38.3-14.8-55.6   c-8.5-17.4-22.3-29.2-40.2-36.1c-18.8-7.2-39.4-1.2-59.1-5.2c-39.8-8-61.6-55-56.2-95.3c7.7-57.6,48.9-96.1,86.5-135.8   C129.413,71.101,181.213,36.201,238.313,14.401z" fill="rgb(30,30,30)"/>  <path d="M146.713,429.401c0.9,11.4-1.1,23.6-8.5,32.3c-7.4,8.8-20.9,12.8-30.8,7.1c-6.1-3.5-9.9-9.9-13.4-16   c-8.1-14-16.2-28.1-24.2-42.1c-13.7-23.8-6.4-56.7,26.2-45.3C123.013,374.901,144.413,400.701,146.713,429.401z" fill="rgb(30,30,30)"/> </g> </g><g transform="rotate(241.90816417669532 1203.7706249999999 852.453125)"><g transform="translate(1290.0925 616.00625) scale(-2.5847968319559227 2.576951266695367)" ><defs>
    <clipPath id="clipPath_K6mUdLsj3FF-q-bvWPWQG">
    <rect x="0" y="0" width="66.792" height="183.509" />
    </clipPath></defs>   <title>Разбор макарони</title>   <path d="M5.858,184.041a76.154,76.154,0,0,0,25.4-4.3c6.4-2.3,3.6-12.5-2.8-10.2a59.536,59.536,0,0,1-9.2,2.5c30.4-34.7,47-80.8,46.3-126.9a183.424,183.424,0,0,0-5.2-40.5c-1.6-6.6-11.9-3.8-10.2,2.8,10.7,43.9,3.3,91.5-19.4,130.6a165.534,165.534,0,0,1-18.7,26.1l.6-10.3c.4-6.8-10.2-6.8-10.6,0l-1.5,24.9C.358,181.541,3.059,184.041,5.858,184.041Z" fill="rgb(30,30,30)"/> </g></g><g transform="rotate(435.2222209053541 554.5761372875961 194.41221963835392)"><g transform="translate(642.0572189444756 -46.99127151607314) scale(-2.6195077750892177 2.6309716815461592)" ><defs>
    <clipPath id="clipPath_jD725qxkqn42rLpXLaLt1">
    <rect x="0" y="0" width="66.792" height="183.509" />
    </clipPath></defs>   <title>Разбор макарони</title>   <path d="M5.858,184.041a76.154,76.154,0,0,0,25.4-4.3c6.4-2.3,3.6-12.5-2.8-10.2a59.536,59.536,0,0,1-9.2,2.5c30.4-34.7,47-80.8,46.3-126.9a183.424,183.424,0,0,0-5.2-40.5c-1.6-6.6-11.9-3.8-10.2,2.8,10.7,43.9,3.3,91.5-19.4,130.6a165.534,165.534,0,0,1-18.7,26.1l.6-10.3c.4-6.8-10.2-6.8-10.6,0l-1.5,24.9C.358,181.541,3.059,184.041,5.858,184.041Z" fill="rgb(30,30,30)"/> </g></g><g transform="translate(1523.4260003715178 11.527930250395414) scale(0.44344167758459546 0.4418717692378788)" ><defs>
    <clipPath id="clipPath_9nkfhT-slH409n1JbO6No">
    <rect x="0" y="0" width="497.208" height="571.924" />
    </clipPath></defs> <g>  <path d="M288.596,488.194l-13.2,2.6c0.7,7.5,1.3,15,2,22.5l3.4-0.7c2.7-0.6,5.3-1.2,8-1.9   c2-0.4,3.9-1.3,5.5-2.6c3.1-2.8,3.6-8.4,2.3-12.7C295.196,490.794,291.796,488.594,288.596,488.194z" fill="rgb(30,30,30)"/>  <path d="M289.396,472.994c0.7-1.4,1.1-2.9,1.1-4.4c0-1.4-0.3-2.4-1-3c-1-0.8-2.4-0.7-3.6-0.5   c-4.2,0.5-8.3,1.2-12.5,2c0.4,4,0.7,8.1,1.1,12.1l12.2-2.4C287.696,475.694,288.696,474.394,289.396,472.994z" fill="rgb(30,30,30)"/>  <path d="M348.496,462.294c-3.9-16.3-13.1-32.4-28-40.9c-25.5-14.6-56.6-1.2-70,23.3c-1.9,3.4-3.4,7-4.7,10.7   c-7.4,21.8-7.3,47.6-1.7,69.8c2.9,11.4,7.7,22.5,15.4,31.5c7.6,8.8,18.4,14.4,30,15.5c14.6,1.5,29.1-3.6,39.3-14.1   c10.7-10.8,17.1-25.7,20.1-40.5C352.596,499.694,352.696,479.994,348.496,462.294z M294.196,536.194c0.6,7.5-7.1,9-7.7,1.5   c-0.4-4.7-0.7-9.5-1.1-14.3h-0.2l-3.8,0.8c0.4,4.7,1,9.3,1.5,14c0.4,3.1-1.3,6.2-3.3,6.6c-2.2,0.4-4-1.9-4.4-5.1   c-0.6-4.6-1.1-9.3-1.5-14c-3.2,0.6-6.4,1.2-9.6,1.6c-5,0.8-6-10.9-1-11.7c2.2-0.3,4.3-0.7,6.5-1.1c-1.3-15.4-2.7-30.9-4-46.3   c-1.7,0.3-3.3,0.6-5,0.9c-5,0.9-6-10.8-1-11.7l8.3-1.5c-0.3-3.8-0.7-7.5-1-11.3c-0.7-7.5,7-9,7.7-1.5c0.4,3.8,0.7,7.6,1.1,11.4h0.1   c1.1-0.2,2.3-0.5,3.5-0.8c-0.3-3.9-0.6-7.8-0.9-11.7c-0.6-7.5,7.1-9.1,7.7-1.5l0.9,12.1c1.2,0,2.3,0.3,3.4,0.7   c5.1,1.9,8.1,8.8,7.7,16.7c-0.2,3-0.9,6-2.2,8.8c3.3,2.6,5.8,6.1,7.2,10.2c2.7,7.3,2.4,17.4-1.2,24c-1.9,3.7-5.1,6.5-9,8   L294.196,536.194z" fill="rgb(30,30,30)"/>  <path d="M301.996,513.294c3.5-6.6,3.9-16.7,1.2-24c-1.4-4-3.9-7.5-7.2-10.2c1.3-2.8,2-5.7,2.2-8.8   c0.4-7.8-2.5-14.7-7.7-16.7c-1.1-0.4-2.2-0.6-3.4-0.7l-0.9-12.1c-0.6-7.5-8.3-6-7.7,1.5c0.3,3.9,0.6,7.8,0.9,11.7   c-1.2,0.3-2.4,0.6-3.5,0.8h-0.1c-0.3-3.8-0.7-7.6-1.1-11.4c-0.7-7.5-8.4-6-7.7,1.5c0.4,3.8,0.7,7.5,1,11.3l-8.3,1.5   c-5,0.9-4,12.6,1,11.7c1.7-0.3,3.3-0.6,5-0.9c1.3,15.4,2.7,30.8,4,46.3c-2.2,0.4-4.3,0.8-6.5,1.1c-5,0.8-4,12.4,1,11.7   c3.2-0.5,6.4-1,9.6-1.6c0.4,4.7,0.9,9.3,1.5,14c0.4,3.1,2.2,5.5,4.4,5.1c2-0.4,3.7-3.5,3.3-6.6c-0.6-4.7-1.1-9.3-1.5-14l3.8-0.8   h0.2c0.4,4.8,0.7,9.5,1.1,14.3c0.6,7.5,8.3,6,7.7-1.5l-1.3-15.1C296.896,519.894,300.096,516.994,301.996,513.294z    M274.396,479.194c-0.4-4-0.7-8.1-1.1-12.1c4.2-0.8,8.3-1.5,12.5-2c1.1-0.2,2.5-0.3,3.6,0.5c0.8,0.6,1,1.7,1,3   c0,1.5-0.4,3.1-1.1,4.4c-0.7,1.4-1.7,2.7-2.8,3.7L274.396,479.194z M294.196,508.194c-1.6,1.3-3.5,2.2-5.5,2.6   c-2.7,0.7-5.3,1.3-8,1.9l-3.4,0.7c-0.7-7.5-1.3-15-2-22.5l13.2-2.6c3.3,0.4,6.6,2.6,8,7.3   C297.796,499.694,297.396,505.294,294.196,508.194L294.196,508.194z" fill="#FFFFFF"/>  <path d="M370.796,407.794c-1.4-2.4-4.2-2.8-6.6-1.7c-4.4,2-8.4,4.9-11.7,8.4c-4.3,4.5,2.5,11.4,6.8,6.8   c2.8-2.9,6-5.3,9.7-6.9C371.396,413.294,371.996,409.894,370.796,407.794z" fill="rgb(30,30,30)"/>  <path d="M371.996,459.394h15.1c6.2,0,6.2-9.7,0-9.7h-15.1C365.796,449.694,365.796,459.394,371.996,459.394z   " fill="rgb(30,30,30)"/>  <path d="M373.896,488.894c4.1,2.1,8.6,3.1,13.2,2.8c2.6-0.1,4.8-2.2,4.8-4.8c0-2.5-2.2-5-4.8-4.8   c-2.9,0.3-5.7-0.3-8.3-1.5c-2.3-1.3-5.2-0.5-6.6,1.7C370.796,484.594,371.596,487.594,373.896,488.894z" fill="rgb(30,30,30)"/> </g> <g>  <path d="M424.996,276.094c0.2-1.3,0.1-2.7-0.2-4c-0.3-1.3-0.9-2.5-1.8-3.5c-0.6-0.8-1.4-1.3-2.4-1.4   c-1.1,0.2-2,0.8-2.6,1.6c-2.4,2.7-4.8,5.5-7,8.3l7.4,7.3C420.596,281.694,422.796,278.894,424.996,276.094z" fill="rgb(30,30,30)"/>  <path d="M441.196,302.794c1.4-1.9,2.8-3.7,4.2-5.7c1.1-1.4,1.8-3,2.1-4.8c0.5-3.5-2.3-7.5-5.6-9.6   c-2.7-2-6.4-2.1-9.3-0.3l-7.2,9l13.8,13.6L441.196,302.794z" fill="rgb(30,30,30)"/>  <path d="M487.796,330.894c18.7-20.3,10.2-51.5-4.1-71.7c-15.4-21.9-40.1-45.2-69.3-38.5   c-12.4,3-22.8,11.6-28.1,23.2c-5.7,12.8-6,27.3-0.8,40.4C399.296,319.294,452.196,369.494,487.796,330.894z M400.696,258.194   c-4.6-4.6-0.4-9.9,4.2-5.3l7.4,7.4c0.8-0.6,1.6-1.1,2.6-1.5c4.4-1.6,10.2,1.3,14.3,6.6c1.6,2.1,2.8,4.4,3.5,6.9   c3.6-0.1,7.2,0.8,10.3,2.6c5.9,3.3,11.2,10,12.6,16.3c0.8,3.5,0.3,7.1-1.4,10.2l9,9.1c4.6,4.6,0.4,9.9-4.2,5.3l-8.6-8.7l-0.1,0.1   c-0.7,0.9-1.3,1.8-2,2.6c2.9,2.8,5.8,5.6,8.8,8.3c2,1.8,2.6,4.8,1.5,6.2s-3.7,0.9-5.7-0.9c-3-2.7-5.9-5.5-8.8-8.3   c-1.7,2.2-3.5,4.3-5.3,6.4c-2.8,3.3-10-3.8-7.2-7.1c1.2-1.4,2.4-2.9,3.7-4.3l-28.4-28c-0.9,1.1-1.8,2.3-2.7,3.4   c-2.8,3.4-9.9-3.7-7.2-7.1c1.5-1.9,3.1-3.8,4.6-5.6c-2.3-2.3-4.6-4.5-7-6.8c-4.6-4.5-0.4-9.8,4.2-5.3l7,6.9l0.1-0.1   c0.6-0.8,1.2-1.6,1.9-2.5L400.696,258.194z" fill="rgb(30,30,30)"/>  <path d="M405.796,267.894l-7-6.9c-4.6-4.5-8.8,0.8-4.2,5.3c2.3,2.2,4.6,4.5,7,6.8c-1.5,1.9-3.1,3.8-4.6,5.6   c-2.8,3.4,4.4,10.4,7.2,7.1c0.9-1.1,1.8-2.2,2.7-3.4l28.4,28c-1.2,1.5-2.4,2.9-3.7,4.3c-2.8,3.3,4.3,10.3,7.2,7.1   c1.8-2.1,3.6-4.2,5.3-6.4c2.9,2.8,5.8,5.6,8.8,8.3c2,1.8,4.5,2.4,5.7,0.9s0.5-4.4-1.5-6.2c-3-2.7-5.9-5.5-8.8-8.3   c0.7-0.9,1.3-1.8,2-2.6l0.1-0.1l8.6,8.7c4.6,4.6,8.8-0.7,4.2-5.3l-9-9.1c1.7-3.1,2.2-6.8,1.4-10.2c-1.4-6.3-6.7-13-12.6-16.3   c-3.1-1.9-6.7-2.8-10.3-2.6c-0.7-2.5-1.9-4.9-3.5-6.9c-4.1-5.4-9.9-8.2-14.3-6.6c-0.9,0.3-1.8,0.8-2.6,1.5l-7.4-7.4   c-4.6-4.6-8.8,0.7-4.2,5.3l7.1,7.1c-0.6,0.9-1.2,1.7-1.9,2.5L405.796,267.894z M432.696,282.494c2.9-1.8,6.5-1.7,9.3,0.3   c3.2,2.1,6,6,5.6,9.6c-0.3,1.7-1,3.4-2.1,4.8c-1.3,2-2.8,3.8-4.2,5.7l-1.8,2.4l-13.8-13.6L432.696,282.494z M417.996,268.794   c0.6-0.9,1.6-1.5,2.6-1.6c1,0.1,1.8,0.6,2.4,1.4c0.9,1,1.5,2.2,1.8,3.5s0.4,2.7,0.2,4c-2.2,2.8-4.4,5.6-6.6,8.4l-7.4-7.3   C413.296,274.294,415.596,271.494,417.996,268.794z" fill="#FFFFFF"/>  <path d="M405.496,168.294c0.9,3.6,1.9,7.3,2.8,10.9c1.6,6,10.9,3.5,9.3-2.6l-2.8-10.9   C413.296,159.694,403.996,162.294,405.496,168.294z" fill="rgb(30,30,30)"/>  <path d="M438.496,162.794l-1.7,15.2c-0.3,2.6,2.4,4.8,4.8,4.8c2.9,0,4.6-2.2,4.8-4.8l1.7-15.2   c0.3-2.6-2.4-4.8-4.8-4.8C440.496,157.994,438.796,160.194,438.496,162.794z" fill="rgb(30,30,30)"/>  <path d="M472.396,174.494l-7.6,8.6c-1.8,1.9-1.8,4.9,0,6.9c1.8,1.8,5.1,2,6.8,0l7.6-8.6   c1.8-1.9,1.8-4.9,0-6.9C477.396,172.794,474.096,172.594,472.396,174.494z" fill="rgb(30,30,30)"/> </g> <g>  <path d="M73.096,86.594c1.3-0.7,2.4-1.6,3.2-2.8c0.7-0.8,1-1.8,0.8-2.9c-0.3-1.2-1.5-1.8-2.4-2.3   c-3.4-1.9-7-3.6-10.6-5.2c-1.9,3.2-3.8,6.5-5.7,9.7l10.5,4.7C70.396,87.794,71.796,87.294,73.096,86.594z" fill="rgb(30,30,30)"/>  <path d="M52.296,114.894c1.7,0.8,3.6,1.1,5.5,1c3.8-0.5,7.2-4.4,8.5-8.4c1.4-3.4,0.5-7.3-2.1-9.8l-11.3-5.1   l-10.6,18.1c1,0.4,2,0.9,3,1.3C47.596,112.994,49.896,113.994,52.296,114.894z" fill="rgb(30,30,30)"/>  <path d="M24.796,165.794c28.6,18.9,62-2.3,80.5-25.3c17.7-22,34.1-55.6,16-82.4   c-16.2-23.8-49.2-24.7-71.3-9.1C18.096,71.994-19.504,136.594,24.796,165.794z M53.196,68.594c-4.2-2,1.3-11.4,5.5-9.4l7.1,3.4   c1.8-3,3.5-6,5.3-9.1c3.5-6.1,10.2-3,6.7,3c-1.8,3.1-3.5,6.1-5.3,9.2l0.1,0.1c1,0.5,2,0.9,3.1,1.3l5.6-9.3c3.6-6,10.3-3,6.7,3   l-5.8,9.6c0.8,0.6,1.6,1.4,2.2,2.3c2.8,4.2,1.3,11-3.2,16.7c-1.8,2.2-3.9,4.1-6.3,5.5c1.1,3.8,1.1,7.8,0,11.5   c-1.9,7-7.5,14.4-13.8,17.5c-3.4,1.8-7.4,2.2-11.1,1.2c-2.4,4-4.8,7.9-7.2,11.9c-3.6,6-10.3,3-6.7-3l6.8-11.4l-0.2-0.1   c-1.1-0.4-2.2-0.9-3.3-1.4c-2.2,3.8-4.3,7.6-6.4,11.4c-1.4,2.6-4.3,4-6.1,3.2s-2-3.6-0.6-6.2c2.1-3.8,4.2-7.6,6.4-11.4   c-2.7-1.2-5.4-2.6-8.1-3.9c-4.2-2.1,1.3-11.5,5.5-9.4c1.8,0.9,3.7,1.8,5.5,2.7l21.9-37.2   C56.096,69.894,54.596,69.194,53.196,68.594z" fill="rgb(30,30,30)"/>  <path d="M30.096,104.994c-4.2-2.1-9.7,7.2-5.5,9.4c2.7,1.3,5.4,2.6,8.1,3.9c-2.2,3.8-4.3,7.6-6.4,11.4   c-1.4,2.6-1.3,5.3,0.6,6.2s4.7-0.6,6.1-3.2c2.1-3.8,4.2-7.6,6.4-11.4c1.1,0.5,2.2,0.9,3.3,1.4l0.2,0.1l-6.9,11.4c-3.6,6,3,9,6.7,3   c2.4-3.9,4.8-7.9,7.2-11.9c3.7,1,7.7,0.5,11.1-1.2c6.2-3.1,11.9-10.5,13.8-17.5c1.1-3.8,1.1-7.8,0-11.5c2.5-1.4,4.6-3.3,6.4-5.5   c4.5-5.7,6-12.5,3.2-16.7c-0.6-0.9-1.4-1.7-2.2-2.3l5.8-9.7c3.6-6-3-9-6.7-3l-5.6,9.3c-1.1-0.4-2.1-0.9-3.1-1.3l-0.1-0.1   c1.8-3.1,3.6-6.1,5.3-9.2c3.5-6-3.2-9.1-6.7-3c-1.7,3-3.5,6.1-5.3,9.1l-7.1-3.4c-4.2-2-9.8,7.4-5.5,9.4c1.4,0.7,2.8,1.3,4.2,2   l-21.9,37.2C33.796,106.794,31.996,105.894,30.096,104.994z M64.096,73.494c3.6,1.6,7.1,3.3,10.6,5.2c0.9,0.5,2.1,1.1,2.4,2.3   c0.1,1-0.2,2.1-0.8,2.9c-0.8,1.2-1.9,2.1-3.2,2.8s-2.7,1.1-4.1,1.3l-10.5-4.7C60.296,79.994,62.196,76.794,64.096,73.494   L64.096,73.494z M52.896,92.594l11.3,5.1c2.7,2.5,3.5,6.4,2.1,9.8c-1.3,3.9-4.7,7.9-8.5,8.4c-1.9,0.1-3.8-0.2-5.5-1   c-2.4-0.9-4.7-1.9-7-2.9c-1-0.4-2-0.9-3-1.3L52.896,92.594z" fill="#FFFFFF"/>  <path d="M12.996,39.494l8.7,6.4c2.1,1.6,5.4,0.4,6.6-1.7c1.4-2.5,0.4-5.1-1.7-6.6l-8.7-6.4   c-2.1-1.6-5.4-0.4-6.6,1.7C9.796,35.294,10.896,37.894,12.996,39.494z" fill="rgb(30,30,30)"/>  <path d="M39.196,10.394c-2.3,1.4-3,4.3-1.7,6.6l4.8,8c1.3,2.4,4.2,3.3,6.5,2c2.4-1.3,3.3-4.2,2-6.5   c-0.1-0.1-0.1-0.2-0.2-0.4c-1.6-2.7-3.2-5.3-4.8-8C44.496,9.894,41.496,9.094,39.196,10.394z" fill="rgb(30,30,30)"/>  <path d="M71.996,7.194c-0.4,3.6-0.7,7.2-1.1,10.8c-0.3,2.6,2.4,4.8,4.8,4.8c2.8,0,4.6-2.2,4.8-4.8l1.1-10.8   c0.3-2.6-2.4-4.8-4.8-4.8C73.996,2.394,72.296,4.594,71.996,7.194z" fill="rgb(30,30,30)"/> </g> <g>  <path d="M228.696,260.494c1.4-0.9,2.5-2.3,3.1-4c0.4-1.4,0.4-2.6-0.6-3.6c-1.3-1.3-3.5-1.9-5.2-2.3   c-6.5-1.5-13.2-2.9-19.8-4.1l-2.3,12.8l19.4,3.6C225.196,262.494,226.996,261.694,228.696,260.494z" fill="rgb(30,30,30)"/>  <path d="M215.496,298.394c3,0.6,6.2,0.6,9.2,0.1c5.6-1.3,8.2-6.7,7.6-11.7c-0.6-5.4-5-9.2-9.8-11.3   l-20.9-3.8c-1.5,7.9-2.9,15.8-4.4,23.7c1.8,0.3,3.7,0.6,5.5,1C206.896,297.094,211.196,297.794,215.496,298.394z" fill="rgb(30,30,30)"/>  <path d="M281.596,325.794c11.2-13.8,18.2-30.5,19-48.3c0.7-18.5-4.2-36.8-14-52.5   c-19.2-30.8-55.6-46.4-91.2-39.1c-37.5,7.8-68.8,38.9-74.8,77c-6.5,39.6,14.9,78.6,51.9,94.2c4.4,1.8,8.9,3.1,13.5,4   C221.096,367.494,259.196,353.594,281.596,325.794z M174.696,290.994c3.4,0.7,6.8,1.4,10.3,2.1c3-16.3,6-32.5,9-48.8l-7.9-1.5   c-7.9-1.5-5.6-13.8,2.3-12.3l13.2,2.6c0.7-4,1.4-7.9,2.1-11.9c1.4-7.9,13.6-5.6,12.3,2.3c-0.7,4-1.4,8-2.1,12h0.2   c1.8,0.4,3.7,0.6,5.6,1c0.8-4.1,1.6-8.1,2.4-12.2c1.6-7.9,13.9-5.6,12.3,2.3l-2.6,12.7c1.7,0.6,3.4,1.4,4.9,2.3   c7.2,4.5,9.4,12.9,6.2,20.6c-1.3,3.1-3.5,5.8-6.2,7.8c3.9,3.7,6.6,8.5,7.6,13.8c1.7,8.8-2,18.7-9.6,23.7c-5,3.3-10.6,4-16.3,3.7   l-3.1,15.6c-1.6,7.9-13.9,5.6-12.3-2.3c1-5,2-10,3-15h-0.3l-6-1c-0.8,5-1.6,9.9-2.3,14.9c-0.4,3.4-4.1,5.6-7.3,5   c-3.3-0.7-5.5-3.9-5-7.3c0.7-5,1.4-9.9,2.3-14.9c-5.1-1-10.1-2-15.2-3.1C164.596,301.594,166.796,289.294,174.696,290.994z" fill="rgb(30,30,30)"/>  <path d="M172.396,303.294c5,1.1,10.1,2.1,15.2,3.1c-0.8,4.9-1.6,9.9-2.3,14.9c-0.5,3.4,1.7,6.6,5,7.3   c3.2,0.6,6.8-1.6,7.3-5c0.7-5,1.4-10,2.3-14.9l6,1h0.3c-1,5-2,10-3,15c-1.6,7.9,10.7,10.1,12.3,2.3l3.1-15.6   c5.7,0.3,11.3-0.4,16.3-3.7c7.6-5,11.3-14.9,9.6-23.7c-1.1-5.3-3.8-10.1-7.6-13.8c2.7-2,4.8-4.7,6.2-7.8c3.2-7.7,1-16.1-6.2-20.6   c-1.6-1-3.2-1.7-4.9-2.3l2.6-12.7c1.6-7.9-10.7-10.1-12.3-2.3c-0.8,4.1-1.6,8.1-2.4,12.2c-1.9-0.3-3.8-0.6-5.6-1h-0.2   c0.7-4,1.4-8,2.1-12c1.4-7.9-10.9-10.2-12.3-2.3c-0.7,4-1.4,8-2.1,11.9l-13.2-2.6c-7.9-1.5-10.2,10.7-2.3,12.3l7.9,1.5   c-3,16.3-6,32.5-9,48.8c-3.4-0.7-6.9-1.4-10.3-2.1C166.796,289.294,164.596,301.594,172.396,303.294z M206.196,246.594   c6.6,1.2,13.2,2.5,19.8,4.1c1.8,0.4,4,0.9,5.2,2.3c1,1,1,2.2,0.6,3.6c-0.6,1.6-1.6,3-3.1,4c-1.7,1.1-3.5,1.9-5.5,2.4l-19.4-3.5   L206.196,246.594z M201.596,271.594l20.9,3.8c4.8,2,9.2,5.9,9.8,11.3c0.5,5-2,10.4-7.6,11.7c-3,0.5-6.2,0.5-9.2-0.1   c-4.3-0.6-8.5-1.3-12.8-2.1c-1.8-0.3-3.7-0.6-5.5-1C198.696,287.494,200.096,279.594,201.596,271.594L201.596,271.594z" fill="#FFFFFF"/>  <path d="M229.696,159.494c0.4-7.6,0.9-15.1,1.3-22.7c0.4-6.2-9.3-6.2-9.7,0c-0.5,7.6-0.9,15.1-1.3,22.7   C219.696,165.794,229.396,165.794,229.696,159.494z" fill="rgb(30,30,30)"/>  <path d="M261.196,169.294c3.4-6,6-12.5,7.7-19.2c1.6-6-7.8-8.6-9.3-2.6c-1.5,5.9-3.8,11.6-6.7,16.9   C249.796,169.894,258.196,174.794,261.196,169.294z" fill="rgb(30,30,30)"/>  <path d="M296.096,174.894l-15.1,7.6c-5.6,2.8-0.7,11.1,4.9,8.4l15.1-7.6   C306.596,180.494,301.696,172.094,296.096,174.894z" fill="rgb(30,30,30)"/>  <path d="M155.596,366.694l-8.5,10.9c-1.6,2.1-2,4.8,0,6.9c1.7,1.7,5.2,2.1,6.8,0c2.8-3.6,5.7-7.3,8.5-10.9   c1.6-2.1,2-4.8,0-6.9C160.796,365.094,157.196,364.694,155.596,366.694z" fill="rgb(30,30,30)"/>  <path d="M181.196,382.094c-0.3,4.1-1.4,8.1-3.2,11.8c-2.8,5.6,5.6,10.5,8.4,4.9c2.6-5.2,4.1-10.9,4.5-16.7   C191.296,375.894,181.596,375.894,181.196,382.094z" fill="rgb(30,30,30)"/>  <path d="M137.396,354.994l-7.6,3.1c-2.3,1-4.3,3.2-3.4,6c0.7,2.2,3.5,4.4,6,3.4l7.6-3.2c2.3-1,4.2-3.2,3.4-6   C142.596,356.094,139.896,353.894,137.396,354.994z" fill="rgb(30,30,30)"/> </g> </g><g transform="translate(54.125 962.0550000000001) scale(2.2203148109021758 2.2219595549502786)" ><defs>
    <clipPath id="clipPath_74vwV562BEPSg3-vmnpJq">
    <rect x="0" y="0" width="89.927" height="194.585" />
    </clipPath></defs> <g>  <g>   <g>    <path d="M44.811,0.128c1,0,2-0.2,3-0.1c1,0.1,1.9,0.8,2.9,1c1,0.1,2-0.4,3-0.2s1.8,0.8,2.8,1.1     c0.9,0.3,1.9,0.6,2.8,0.9c0.9,0.3,1.8,0.8,2.7,1.1c0.9,0.4,1.7,0.9,2.6,1.3c0.9,0.4,2,0.5,2.8,1s1.9,0.7,2.7,1.3     c0.8,0.5,1.6,1.2,2.4,1.8s1.1,1.8,1.8,2.4c0.7,0.6,1.8,0.9,2.5,1.6c0.7,0.7,1.1,1.7,1.7,2.4s1.8,1.1,2.4,1.9     c0.6,0.8,1.3,1.5,1.8,2.3s0.3,2.1,0.8,3c0.5,0.8,1,1.6,1.5,2.5c0.4,0.9,0.8,1.7,1.2,2.6c0.4,0.9,0.9,1.7,1.2,2.7     c0.3,0.9,0.9,1.8,1.2,2.7c0.3,0.9,0.2,2,0.4,2.9c0.2,1,0.3,1.9,0.4,2.9s0.2,1.9,0.2,2.9c0.1,1,0,1.9,0,2.9s0.4,2,0.3,2.9     c-0.1,1-0.6,1.9-0.7,2.9s0.4,2,0.2,3c-0.2,1-0.9,1.8-1.1,2.8c-0.3,0.9-0.4,1.9-0.7,2.8c-0.3,0.9-0.9,1.7-1.3,2.6     c-0.4,0.9-0.6,1.9-1,2.7c-0.4,0.9-0.6,1.9-1.1,2.8c-0.5,0.8-1,1.7-1.6,2.5c-0.5,0.8-0.9,1.8-1.5,2.6s-1.7,1.2-2.3,1.9     c-0.6,0.7-1.5,1.2-2.2,1.9s-1.2,1.6-1.9,2.2c-0.7,0.6-1.7,1-2.4,1.6c-0.8,0.6-1.3,1.6-2.1,2.1c-0.8,0.5-1.9,0.7-2.7,1.1     c-0.8,0.5-1.6,1.2-2.5,1.6c-0.9,0.4-1.5,1.4-2.4,1.8c-0.9,0.4-2.1,0-3,0.3s-1.8,0.9-2.7,1.1c-0.9,0.3-1.9,0.6-2.8,0.8     c-1,0.2-1.9,0.5-2.9,0.7c-1,0.1-2-0.2-3-0.2c-1,0.1-1.9,0.4-2.9,0.4s-2-0.1-2.9-0.2c-1-0.1-2,0.1-3,0s-1.9-0.6-2.8-0.8     c-1-0.2-1.8-0.8-2.8-1c-0.9-0.3-2.2,0.3-3.1,0s-1.6-1.2-2.5-1.6c-0.9-0.4-1.7-1-2.6-1.4s-1.8-0.7-2.7-1.2c-0.8-0.5-1.7-1-2.5-1.5     s-2-0.7-2.7-1.2c-0.8-0.6-1.4-1.4-2.2-2c-0.7-0.6-0.9-1.8-1.6-2.5s-1.7-1-2.4-1.8c-0.6-0.7-0.8-1.8-1.4-2.6s-1.3-1.4-1.9-2.2     c-0.5-0.8-1.6-1.3-2.1-2.2c-0.5-0.8-0.6-1.9-1-2.8c-0.4-0.9-0.6-1.9-1-2.8c-0.4-0.9-1.5-1.5-1.8-2.5c-0.3-0.9-0.6-1.9-0.9-2.8     c-0.3-0.9,0-2-0.2-3s0-2-0.1-2.9c-0.1-1-1.1-1.9-1.1-2.8c-0.1-1,0.5-2,0.5-3s-0.4-2-0.3-2.9c0.1-1,0.9-1.9,1-2.8     c0.1-1-0.5-2.1-0.3-3c0.2-1,1-1.8,1.2-2.7c0.3-0.9,0.5-1.9,0.9-2.8c0.3-0.9,0.5-1.9,0.8-2.8c0.4-0.9,0.8-1.8,1.2-2.7     c0.4-0.9,0.7-1.8,1.2-2.7c0.5-0.8,1.1-1.6,1.6-2.4c0.5-0.8,0.8-1.8,1.4-2.6s1.2-1.6,1.8-2.3c0.6-0.7,1.5-1.3,2.2-2     s1.5-1.3,2.2-1.9c0.7-0.6,1.6-1.2,2.3-1.8c0.8-0.6,1.8-0.8,2.6-1.4c0.8-0.5,1.4-1.4,2.3-1.9c0.8-0.5,1.7-0.9,2.6-1.3     c0.9-0.4,1.7-1,2.6-1.4s1.7-1.1,2.6-1.4c0.9-0.3,2-0.2,2.9-0.5s2-0.1,2.9-0.3c1-0.2,1.8-1,2.8-1.1s2-0.1,2.9-0.2     C42.911,0.128,43.811,0.128,44.811,0.128z" fill="rgb(30,30,30)"/>   </g>   <g>    <path d="M57.011,44.128c0.9-0.3,1.4-1,2.1-1.5c0.8-0.5,1.5-1,2.1-1.6c0.6-0.7,1.3-1.2,1.7-2     c0.4-0.8,1.1-1.5,1.3-2.4c0.2-0.9,0.1-1.8,0.1-2.8c0-0.9,0.5-2,0.2-2.8c-0.2-0.9-1.5-1.4-2-2.1c-0.5-0.8-0.6-1.9-1.3-2.5     c-0.7-0.6-2-0.9-2.9-1.2c-0.2-1.4,0.5-1.5,0.7-2.9c0.3-1.4,0.6-1.3,0.9-2.7s1.3-1.7,0.3-2.7c-1.2-1.2-1.6-0.5-3.2-0.5     s-2-0.6-3.3,0.5s0.1,1.8-0.2,3.5c-0.3,1.7-0.9,1.6-1.4,3.2c-0.5,0-0.8,0.1-1.3,0.1c-1.3,0-1.3,0.1-2.6,0.1     c-1.3,0-1.3-0.5-2.6-0.5c-1.3,0-1.9,1.4-2.5,0.3c-0.9-1.5,0.2-1.6,0.6-3.3c0.3-1.7,1.4-1.8,0.3-3.1c-1-1.3-1.3-0.5-3-0.5     s-2.2-1-3.5,0c-1.3,1.1,0,1.9-0.3,3.6c-0.3,1.7,0.6,2.3-0.7,3.5c-1.2,1-1.7-0.2-3.2-0.2s-1.6-0.6-2.8,0.3c-1.3,1-0.7,1.3-1.2,2.9     c-0.5,1.6-1.7,1.7-0.9,3.1c0.7,1.2,1.3-0.1,2.8-0.1s2.3-1.2,3.1-0.1c0.9,1.2-0.8,1.6-1.1,3.1c-0.3,1.5-0.1,1.5-0.4,3     s-0.8,1.4-1.1,2.8c-0.3,1.5,0.5,1.6,0.2,3.1s-0.4,1.4-0.7,2.9c-0.3,1.5-0.7,1.4-1,2.8c-0.3,1.5-0.5,1.4-0.8,2.9s0.5,1.6,0.1,3.1     c-0.3,1.5-0.8,1.4-1.1,2.8c-0.3,1.5,0.2,1.6-0.9,2.7c-0.9,0.8-1-0.1-2.2-0.1s-1.6-0.6-2.5,0.3c-1.2,1.1-0.7,1.6-1.1,3.1     c-0.5,1.6-1.1,1.6-0.4,3.1c0.5,1.1,0.9,0.6,2.1,0.6s1.2-0.6,2.4-0.6c1.2,0,1.5-0.8,2.1,0.3c0.8,1.4,0.5,1.5,0.2,3     c-0.3,1.6-2.4,2.1-1.3,3.3c1.1,1.3,2-0.1,3.6-0.1c1.7,0,2.1,1,3.4-0.1c1.2-1,0.6-1.6,0.9-3.2s-1-2.2,0.1-3.3     c1-0.9,1.5-0.2,2.8-0.2c1.4,0,1.4,0.4,2.7,0.4c1.4,0,1.4-0.4,2.7-0.4c0.7,0,1-0.4,1.1,0.3c0.4,1.6-0.3,1.5-0.6,3.1     c-0.3,1.6-1.1,1.7,0,2.9c1.1,1.3,1.3,0.4,3,0.4s1.8,0.7,3.1-0.4c1.3-1.2,0.1-1.6,0.5-3.3s0.3-1.8,1-3.4c1.1-0.2,2.3-0.1,3.2-0.5     c1-0.4,1.5-1.6,2.3-2.3c0.8-0.6,1.4-1.3,2.1-2.1c0.6-0.8,1.1-1.6,1.5-2.6c0.4-0.9,1.1-1.7,1.3-2.8c0.3-1,0.4-2,0.3-3     s-0.4-2-0.8-2.9s-0.7-2.1-1.4-2.8C58.911,44.928,57.911,44.528,57.011,44.128z M54.511,53.928c-0.3,1.2-0.3,2.4-1,3.1     c-0.7,0.7-1.8,1.3-2.9,1.7c-0.9,0.3-2,0.3-3.2,0.4c-1,0.1-2-0.2-3.2-0.2c-1.6,0-1.6,0.2-3.2,0.2s-1.6-0.6-3.2-0.6s-2.5,2-3.5,0.8     c-1-1.1,0.9-1.7,1.2-3.2c0.3-1.5-0.3-1.6,0-3c0.3-1.5,0.5-1.4,0.8-2.9s-0.3-1.8,0.9-2.7c1.3-1,1.5-0.2,3.1-0.2s1.6,0.6,3.2,0.6     s1.6-0.5,3.2-0.5c1.1,0,2.2-0.4,3.1-0.3c1.1,0.2,1.9,1.3,2.7,1.7c0.9,0.5,1.8,1,2.1,2c0.2,0.8,0.4,1.9,0.1,3.1     C54.811,54.128,54.511,53.928,54.511,53.928z M47.311,41.028c-1.5,0-1.5,0.6-2.9,0.6c-1.5,0-1.5,0-2.9,0c-1.5,0-2.2,0.9-3.1-0.3     c-0.9-1.1,0.6-1.5,0.9-2.9s0.1-1.5,0.4-2.9s0.9-1.3,1.2-2.7s-1.3-2.4-0.1-3.3c1.1-0.9,1.7,0.6,3.2,0.6c1.4,0,1.4-0.6,2.9-0.6     c1.4,0,1.4,0.2,2.9,0.2c0.9,0,1.7,0.4,2.6,0.5s1.8,0,2.6,0.3c0.9,0.3,1.2,1.2,1.7,1.8s1.2,1.1,1.2,2.1s0.3,2.1-0.1,2.9     c-0.4,0.8-1.6,1.1-2.4,1.7c-0.7,0.5-1.3,1.2-2.3,1.5c-0.8,0.2-1.7,0.5-2.7,0.7C49.311,41.228,48.311,41.028,47.311,41.028z" fill="rgb(255,255,255)"/>   </g>   <g>    <g>     <path d="M76.811,75.928c0,0.1,0.2-0.1,0.3,0c0.1-0.1,0.2,0.1,0.3-0.1      C77.211,75.728,76.811,75.628,76.811,75.928z" fill="rgb(255,255,255)"/>    </g>    <g>     <path d="M71.711,76.628c0.3-0.2,0.2-1.7-0.8-1.1C70.711,75.728,70.911,77.128,71.711,76.628z" fill="rgb(255,255,255)"/>    </g>    <g>     <path d="M70.911,66.628c-0.2,0.3,0.5,1.1,1.2,0.6c0.4,0.4,1.7,1.4,1.7,0.5c0-0.2-0.9-0.2-1.3-0.3      c0.1,0,0.2-0.6,0.2-0.7c0.1-0.3-0.2-1.3-0.7-0.5c-0.1,0.1-0.2,0.7,0.1,0.9c-0.1,0-0.1,0-0.2,0      C71.711,66.728,71.311,66.128,70.911,66.628z" fill="rgb(255,255,255)"/>    </g>    <g>     <path d="M80.611,60.428c0-0.1-1-0.5-1.1-0.2C79.511,60.328,80.511,60.728,80.611,60.428z" fill="rgb(255,255,255)"/>    </g>    <g>     <path d="M79.011,70.228c0.1-0.2-0.5-1.2-0.9-0.7C77.911,69.728,78.611,70.728,79.011,70.228z" fill="rgb(255,255,255)"/>    </g>    <g>     <path d="M84.511,42.228c-0.2,0.3,0.8,1.8,1.3,0.9C86.011,42.728,85.111,41.228,84.511,42.228z" fill="rgb(255,255,255)"/>    </g>    <g>     <path d="M78.611,67.928c0.3,0.1,1.7-1.4,0.7-1.8C78.911,65.928,77.711,67.528,78.611,67.928z" fill="rgb(255,255,255)"/>    </g>    <g>     <path d="M85.211,55.428c0.2,0.3,2.2-0.5,1.5-1.4C86.511,53.728,84.511,54.628,85.211,55.428z" fill="rgb(255,255,255)"/>    </g>    <g>     <path d="M83.911,62.628c0,0.2,0.5,0.8,0.9,0.8c0.2,0.3,0.3,0.1,0.6,0c0.3-0.7,0.9-1.1,1.1-1.8      c-0.3,0.1-0.7,0.4-0.8,0.8l-0.2,0.3c-0.2-0.3-0.3-1-0.6-0.7C84.611,61.628,84.011,62.028,83.911,62.628z" fill="rgb(255,255,255)"/>    </g>    <g>     <path d="M84.311,64.428c0,0.1,0.4,0,0.6,0.2c0.1-0.3,0.1,0,0.2-0.3      C84.911,64.228,84.511,64.028,84.311,64.428z" fill="rgb(255,255,255)"/>    </g>    <g>     <path d="M86.611,56.528c-0.3,0.2-0.1,1.3,0.7,0.6C87.611,56.828,87.411,55.728,86.611,56.528z" fill="rgb(255,255,255)"/>    </g>    <g>     <path d="M87.511,59.528c0.1-0.3,0.3-0.9,0.4-1.2c-0.1,0-0.7-0.2-0.8-0.1      C87.011,58.328,87.411,59.328,87.511,59.528z" fill="rgb(255,255,255)"/>    </g>    <g>     <path d="M84.411,38.728c-0.3,0.1-0.8,1.3,0.2,1.1C84.911,39.828,85.411,38.528,84.411,38.728z" fill="rgb(255,255,255)"/>    </g>    <g>     <path d="M74.211,63.128c0.2-0.3-0.8-1.7-1.3-0.8C72.611,62.628,73.611,64.028,74.211,63.128z" fill="rgb(255,255,255)"/>    </g>    <g>     <path d="M74.411,66.628c-0.1-0.5-0.3-1.5-0.9-0.7c-0.1,0.2,0.1,0.8,0.5,1.1c0,0.2,0,0.4,0.1,0.5      c0,0.5,0.5,1.2,1.1,0.8c0.2-0.1,0.3-1.1,0.1-1.5C75.311,66.728,74.611,66.828,74.411,66.628z" fill="rgb(255,255,255)"/>    </g>    <g>     <path d="M72.911,43.228c-0.4,0.2,0.1,3.2,1.4,2.6C74.711,45.628,74.311,42.528,72.911,43.228z" fill="rgb(255,255,255)"/>    </g>    <g>     <path d="M74.711,75.628c-0.3,0.1,0.1,2.1,0.8,1.8C75.711,77.228,75.511,75.228,74.711,75.628z" fill="rgb(255,255,255)"/>    </g>    <g>     <path d="M70.411,77.628c0,0.3,1.5,0.6,1.4-0.2C71.811,77.128,70.311,76.728,70.411,77.628z" fill="rgb(255,255,255)"/>    </g>    <g>     <path d="M72.111,64.628c0.3,0,0.7-1.2-0.2-1C71.711,63.628,71.411,64.828,72.111,64.628z" fill="rgb(255,255,255)"/>    </g>    <g>     <path d="M79.111,58.528c0.1,0.3,1.3,0.8,1.2-0.2C80.211,58.028,78.911,57.428,79.111,58.528z" fill="rgb(255,255,255)"/>    </g>    <g>     <path d="M84.911,60.428c0.1,0.4,1.8,0.8,1.6-0.4C86.511,59.728,84.711,59.428,84.911,60.428z" fill="rgb(255,255,255)"/>    </g>    <g>     <path d="M78.511,51.328c-0.2,0.3,0.7,1.8,1.3,1C80.111,52.028,79.311,50.528,78.511,51.328z" fill="rgb(255,255,255)"/>    </g>    <g>     <path d="M74.411,75.428c0.4,0.1,1.2-0.9,0.1-1.1C74.211,74.228,73.411,75.128,74.411,75.428z" fill="rgb(255,255,255)"/>    </g>    <g>     <path d="M72.311,77.028c0.2,0.2,1.8-0.4,1.2-1.1C73.411,75.728,71.811,76.428,72.311,77.028z" fill="rgb(255,255,255)"/>    </g>    <g>     <path d="M73.311,71.428c-0.3-0.2-0.3-0.1-0.3,0.4c0,0.1-0.3,0.3,0,0.4c0.1,0.5,0.2,0.5,0.7,0.3      C74.011,72.428,74.211,71.228,73.311,71.428z" fill="rgb(255,255,255)"/>    </g>    <g>     <path d="M71.911,54.128c0.4,0.3,3-1.3,1.7-2.3C73.111,51.528,70.711,53.228,71.911,54.128z" fill="rgb(255,255,255)"/>    </g>    <g>     <path d="M77.911,66.728c0.1-0.3-0.9-1.1-1.1-0.3C76.711,66.728,77.711,67.528,77.911,66.728z" fill="rgb(255,255,255)"/>    </g>    <g>     <path d="M50.711,77.828c-0.1,0.3,1.3,1.8,1.8,0.9C52.611,78.428,51.111,76.828,50.711,77.828z" fill="rgb(255,255,255)"/>    </g>    <g>     <path d="M52.211,75.728C52.211,75.828,52.311,76.028,52.211,75.728      C52.311,75.628,52.211,75.428,52.211,75.728z" fill="rgb(255,255,255)"/>    </g>    <g>     <path d="M62.211,71.428c-0.1,0.3,0.7,1.1,0.9,0.2c0-0.1,0.1-0.4-0.2-0.5c0.4,0,1-0.1,0.9-0.6      c-0.1-0.4-2.3-0.9-2.1,0.2c0,0.1,0.7,0.1,0.8,0.2C62.411,70.928,62.311,71.128,62.211,71.428z" fill="rgb(255,255,255)"/>    </g>    <g>     <path d="M75.811,69.828c-0.4,0.2-0.2,2.3,0.8,2.3c0.4,0.5,1.4,1,1.5-0.2c0,0,0.8-0.1,0.7-0.2      c0-0.6-0.6-0.9-1.3-0.5l-0.3-0.4C77.111,70.228,76.711,69.428,75.811,69.828z" fill="rgb(255,255,255)"/>    </g>    <g>     <path d="M68.711,58.928c0,0-0.6-0.4-0.6-0.3c-0.1,0,0.2,0.3,0.1,0.4c-0.2,0.3,0.7,1.6,1.2,0.8      c0-0.1,0.4-0.1,0.4-0.2C69.911,59.028,69.411,58.328,68.711,58.928z" fill="rgb(255,255,255)"/>    </g>    <g>     <path d="M51.411,81.828c-0.3,0.2-0.3,1.2,0.5,0.6C52.211,82.128,52.311,81.128,51.411,81.828z" fill="rgb(255,255,255)"/>    </g>    <g>     <path d="M44.511,81.828c0.3,0,1-1.2,0.1-1.2C44.411,80.628,43.711,81.828,44.511,81.828z" fill="rgb(255,255,255)"/>    </g>    <g>     <path d="M45.711,80.028c-0.2,0.3,0.8,1.9,1.4,0.9C47.411,80.628,46.411,79.028,45.711,80.028z" fill="rgb(255,255,255)"/>    </g>    <g>     <path d="M45.611,83.928c-0.1-0.3-2-0.3-1.7,0.6C44.011,84.728,45.911,84.628,45.611,83.928z" fill="rgb(255,255,255)"/>    </g>    <g>     <path d="M46.411,84.728c0.1,0.4,1.5,1,1.4-0.1C47.711,84.228,46.211,83.528,46.411,84.728z" fill="rgb(255,255,255)"/>    </g>    <g>     <path d="M49.611,88.528c0-0.3-1.3-0.6-1.1,0.2C48.511,88.928,49.711,89.428,49.611,88.528z" fill="rgb(255,255,255)"/>    </g>    <g>     <path d="M52.911,68.828c0.1-0.3-0.9-1.6-1.4-0.6C51.311,68.528,52.411,69.728,52.911,68.828z" fill="rgb(255,255,255)"/>    </g>    <g>     <path d="M82.911,66.728c-0.1,0.2,0.5,1,0.9,1.1c0.2-0.3,0-0.8,0.1-1      C83.511,66.428,83.111,66.028,82.911,66.728z" fill="rgb(255,255,255)"/>    </g>    <g>     <path d="M64.011,77.428c0.1,0.3,1,0.7,0.8-0.1C64.711,77.028,63.811,76.628,64.011,77.428z" fill="rgb(255,255,255)"/>    </g>    <g>     <path d="M55.411,82.128c0.2-0.1,0.1-1.6-0.7-1.1C54.511,81.128,54.711,82.528,55.411,82.128z" fill="rgb(255,255,255)"/>    </g>    <g>     <path d="M64.611,73.828c-0.3,0-1.1,0.9-0.2,1C64.611,74.928,65.511,74.028,64.611,73.828z" fill="rgb(255,255,255)"/>    </g>    <g>     <path d="M66.611,83.928c-0.1,0.1,0.1,0.1,0.1,0.2c0.2-0.1,0.5,0,0.7-0.1      C67.311,83.828,66.811,83.728,66.611,83.928z" fill="rgb(255,255,255)"/>    </g>    <g>     <path d="M65.111,84.428l0.3,0.2c-0.2,0-0.5,0.2-0.6,0.5l0.2,0.3c0.4-0.2,1.2-0.4,1.7-0.7      C66.411,84.528,65.411,84.028,65.111,84.428z" fill="rgb(255,255,255)"/>    </g>    <g>     <path d="M54.611,79.628c-0.4,0-1.1,1.3,0,1.4C54.911,81.028,55.711,79.728,54.611,79.628z" fill="rgb(255,255,255)"/>    </g>    <g>     <path d="M83.311,61.728c0.3-0.2-0.5-2.1-1.3-1.4C81.811,60.528,82.611,62.328,83.311,61.728z" fill="rgb(255,255,255)"/>    </g>    <g>     <path d="M80.311,61.728c-0.2,0-0.2,0.4-0.4,0.7c-0.1,0-0.4-0.1-0.5,0c-0.3,0.1-0.7,1.5-0.2,1.7      c-0.1,0-0.1-0.6-0.2-0.5c-0.2,0.2,0.5,1.9,1.2,1.4c0.1-0.1-0.1-0.5-0.2-0.7c0.2,0.3,0.9,0.7,1.3,0.4c0.2-0.2-0.5-1.2-0.9-1.5      C80.711,62.728,81.211,61.728,80.311,61.728z M79.711,63.828c0,0,0.2-0.2,0.3-0.2c0,0.1-0.1,0.3-0.1,0.4      C79.811,64.028,79.711,63.928,79.711,63.828z" fill="rgb(255,255,255)"/>    </g>    <g>     <path d="M82.111,64.328c0.4,0,1.2-1.5,0-1.5C81.811,62.828,81.111,64.328,82.111,64.328z" fill="rgb(255,255,255)"/>    </g>    <g>     <path d="M83.511,54.028c-0.2-0.3-1.9-0.2-1.4,0.7C82.211,55.028,84.011,55.028,83.511,54.028z" fill="rgb(255,255,255)"/>    </g>    <g>     <path d="M85.211,56.428c-0.1,0,0.3,0.6,0.3,0.8c-0.1,0-0.2,0.2-0.2,0.3c-0.2,0.3,0.7,1.8,1.3,1      c0.1-0.1-0.7-0.6-0.8-0.8C85.911,57.128,85.911,56.028,85.211,56.428z" fill="rgb(255,255,255)"/>    </g>    <g>     <path d="M81.411,57.928c-0.2,0.3,0.3,1.4,0.8,0.5C82.411,58.128,82.011,56.928,81.411,57.928z" fill="rgb(255,255,255)"/>    </g>    <g>     <path d="M65.811,73.428c-0.2,0.3,0.5,1.9,1.3,1.1C67.311,74.128,66.611,72.528,65.811,73.428z" fill="rgb(255,255,255)"/>    </g>    <g>     <path d="M57.111,76.828c0.1,0.3,1.1,0.6,0.9-0.3C58.011,76.328,56.911,75.928,57.111,76.828z" fill="rgb(255,255,255)"/>    </g>    <g>     <path d="M56.311,71.828c0,0.3,0.8,0.9,0.9,0.1C57.211,71.728,56.411,71.028,56.311,71.828z" fill="rgb(255,255,255)"/>    </g>    <g>     <path d="M57.711,73.528c0.3,0.1,1.7-2.1,0.6-2.4C58.011,71.028,56.711,73.228,57.711,73.528z" fill="rgb(255,255,255)"/>    </g>    <g>     <path d="M58.611,69.628c0.2-0.2,0.1-1.1-0.5-0.5C58.011,69.328,58.111,70.228,58.611,69.628z" fill="rgb(255,255,255)"/>    </g>    <g>     <path d="M54.911,85.728c-0.2,0.2,0.5,1.4,1,0.7C56.011,86.228,55.411,84.928,54.911,85.728z" fill="rgb(255,255,255)"/>    </g>    <g>     <path d="M53.811,72.828c-0.3,0.2,0.1,1.8,0.9,1.2C55.011,73.828,54.711,72.128,53.811,72.828z" fill="rgb(255,255,255)"/>    </g>    <g>     <path d="M54.611,75.328c-0.2,0.3,0.5,1.5,1,0.7C55.811,75.728,55.211,74.428,54.611,75.328z" fill="rgb(255,255,255)"/>    </g>    <g>     <path d="M59.911,77.728c0,0.3,0.9,0.9,1,0C60.911,77.528,60.011,76.828,59.911,77.728z" fill="rgb(255,255,255)"/>    </g>    <g>     <path d="M58.611,82.528c-0.1,0.5,2.7,1.8,2.9,0.3C61.611,82.228,58.911,80.828,58.611,82.528z" fill="rgb(255,255,255)"/>    </g>    <g>     <path d="M60.711,86.128c0-0.3-2-1.3-2.1-0.2C58.511,86.328,60.611,87.228,60.711,86.128z" fill="rgb(255,255,255)"/>    </g>    <g>     <path d="M59.611,72.928c0,0.3,1.4,0.9,1.4,0.1C61.111,72.728,59.711,72.028,59.611,72.928z" fill="rgb(255,255,255)"/>    </g>    <g>     <path d="M58.911,67.728c0.4-0.1,1-1.5-0.1-1.3C58.411,66.528,57.811,67.928,58.911,67.728z" fill="rgb(255,255,255)"/>    </g>    <g>     <path d="M59.511,62.828c-0.2,0.3,0.6,1.4,1,0.5C60.711,63.028,60.011,61.828,59.511,62.828z" fill="rgb(255,255,255)"/>    </g>    <g>     <path d="M76.411,62.028c-0.1,0.3,0.6,1.1,0.7,0.1C77.211,61.828,76.611,60.928,76.411,62.028z" fill="rgb(255,255,255)"/>    </g>    <g>     <path d="M43.011,77.428c-0.1-0.4-1.2-1-0.9,0.1C42.211,77.928,43.311,78.528,43.011,77.428z" fill="rgb(255,255,255)"/>    </g>    <g>     <path d="M37.811,84.328c0.1,0.3,1.3,0.4,1-0.4C38.711,83.628,37.511,83.428,37.811,84.328z" fill="rgb(255,255,255)"/>    </g>    <g>     <path d="M42.311,84.928c0-0.3-1.7-0.8-1.6,0.1C40.611,85.328,42.311,85.728,42.311,84.928z" fill="rgb(255,255,255)"/>    </g>    <g>     <path d="M34.311,82.928c-0.2,0.3,1.7,1.9,2.1,1C36.611,83.728,34.811,81.928,34.311,82.928z" fill="rgb(255,255,255)"/>    </g>    <g>     <path d="M41.411,80.128c0-0.3-1.4-0.8-1.3,0.1C40.111,80.528,41.411,81.028,41.411,80.128z" fill="rgb(255,255,255)"/>    </g>    <g>     <path d="M33.311,83.728c0-0.1-0.5-0.2-0.5,0.1C32.811,84.028,33.411,84.128,33.311,83.728z" fill="rgb(255,255,255)"/>    </g>    <g>     <path d="M38.811,86.128c0,0.3,1,0.9,1,0C39.811,85.828,38.811,85.228,38.811,86.128z" fill="rgb(255,255,255)"/>    </g>    <g>     <path d="M88.211,54.828c-0.1,0.2-0.2,0.1,0.2,0.4c0.1-0.4,0.3-0.3,0.4-0.7      C88.411,54.228,88.411,54.328,88.211,54.828z" fill="rgb(255,255,255)"/>    </g>    <g>     <path d="M58.011,78.628c0,0.3,1,1,1,0.2C59.111,78.528,58.111,77.728,58.011,78.628z" fill="rgb(255,255,255)"/>    </g>    <g>     <path d="M44.111,72.828c0.1,0.4,2.7,0.5,2.4-0.6C46.411,71.928,43.811,71.728,44.111,72.828z" fill="rgb(255,255,255)"/>    </g>    <g>     <path d="M53.911,89.228c0,0-0.3-0.5-0.3-0.4c0.3-0.1,0.9,0.2,1.1,0.2      C54.511,88.728,54.211,88.828,53.911,89.228z" fill="rgb(255,255,255)"/>    </g>    <g>     <path d="M39.711,84.428c0-0.1,0.3-0.3,0.3,0C39.911,84.628,39.611,84.828,39.711,84.428z" fill="rgb(255,255,255)"/>    </g>    <g>     <path d="M68.911,57.828c0.1-0.3-1.3-1.9-1.8-0.9C66.911,57.228,68.511,58.828,68.911,57.828z" fill="rgb(255,255,255)"/>    </g>    <g>     <path d="M67.711,60.528c-0.3,0.2,0.5,2.1,1.3,1.5C69.311,61.828,68.611,59.828,67.711,60.528z" fill="rgb(255,255,255)"/>    </g>    <g>     <path d="M68.911,76.428c-0.2-0.1-1.2,0.5-0.6,0.9C68.611,77.528,69.711,76.928,68.911,76.428z" fill="rgb(255,255,255)"/>    </g>    <g>     <path d="M68.111,75.128c0.3,0,0.7-1.1-0.2-0.9C67.611,74.228,67.311,75.228,68.111,75.128z" fill="rgb(255,255,255)"/>    </g>    <g>     <path d="M67.211,79.428c0.2,0.4,3.2,0.2,2.4-1.2C69.511,77.728,66.611,78.128,67.211,79.428z" fill="rgb(255,255,255)"/>    </g>    <g>     <path d="M67.411,52.828c-0.2,0.3,0.9,1.9,1.5,1.1C69.111,53.628,68.111,51.928,67.411,52.828z" fill="rgb(255,255,255)"/>    </g>    <g>     <path d="M59.111,79.228c-0.2,0.2,0.3,1.8,0.9,1.3C60.211,80.428,59.811,78.728,59.111,79.228z" fill="rgb(255,255,255)"/>    </g>    <g>     <path d="M70.111,44.828c-0.3,0.2-0.2,1.7,0.7,1.3C71.111,45.928,71.111,44.328,70.111,44.828z" fill="rgb(255,255,255)"/>    </g>    <g>     <path d="M72.011,72.628c0.2-0.3-0.3-1.6-0.9-0.7C70.911,72.228,71.511,73.528,72.011,72.628z" fill="rgb(255,255,255)"/>    </g>    <g>     <path d="M68.411,64.128c0.3-0.2,0.2-1.6-0.7-1C67.411,63.328,67.511,64.628,68.411,64.128z" fill="rgb(255,255,255)"/>    </g>    <g>     <path d="M73.111,79.628C73.211,79.628,73.211,79.628,73.111,79.628c0.4-0.3,0.8-0.3,1.1-0.6      c0.1-0.5-0.5-2.1-1.4-2.4c-0.1-0.3-0.5-0.4-0.8-0.1c-0.1,0,0.4,0.5,0.4,0.7c-0.2,0.1-0.8,0-1,0.3c-0.1,0.2,0.4,0.6,0.6,0.9      c-0.2,0.2-0.6,0.6-0.8,0.8c-0.1,0-0.2,0-0.4,0.2c0,0-0.8-0.2-0.8-0.1l0.8,0.3c-0.1,0.1-0.3,0-0.2,0.2c0,0.1,0.3,0.2,0.3,0.3      s0,0,0.2,0.1c0,0-0.3,0.3-0.3,0.4c-0.1,0.1-0.3,0.3-0.3,0.5c0,0.1,0.5,0.2,0.6,0.3c0.7-0.5,1.2-1.1,1.9-1.7      C73.111,79.828,73.111,79.728,73.111,79.628z" fill="rgb(255,255,255)"/>    </g>    <g>     <path d="M71.011,72.128c0.3-0.2-0.2-2.4-1.2-1.7C69.511,70.628,70.111,72.728,71.011,72.128z" fill="rgb(255,255,255)"/>    </g>    <g>     <path d="M68.011,82.628c-0.2,0.1-0.4,0.7,0,0.9c0.2-0.1,0.2-0.3,0.4-0.4      C68.511,82.828,68.611,82.428,68.011,82.628z" fill="rgb(255,255,255)"/>    </g>    <g>     <path d="M71.611,74.528c0.1-0.2-0.6-1-0.9-0.4C70.611,74.228,71.311,75.028,71.611,74.528z" fill="rgb(255,255,255)"/>    </g>    <g>     <path d="M64.911,85.128c0-0.2-0.3-0.6-0.6-0.7c-0.2-0.5-0.4-0.6-0.9-0.1c-0.1,0.1-0.7,0.5-0.5,0.8      c0,0,0.4-0.2,0.4-0.1c0,0.2,0.5,0.4,0.9,0.4c0.2-0.1,0.2-0.2,0.4-0.3C64.611,85.028,64.911,85.228,64.911,85.128z" fill="rgb(255,255,255)"/>    </g>    <g>     <path d="M61.411,79.028c-0.2,0.2,0.5,1.8,1.1,1.3c0.1-0.1,0-0.3,0-0.5c0.5,0.1,1.5,0,1.4-0.7      c0-0.3-1.9-0.7-2,0C61.811,79.128,61.511,78.928,61.411,79.028z" fill="rgb(255,255,255)"/>    </g>    <g>     <path d="M63.211,61.128c-0.3,0.2,0.2,2.2,1,1.7C64.611,62.628,64.211,60.528,63.211,61.128z" fill="rgb(255,255,255)"/>    </g>    <g>     <path d="M57.511,87.328c-0.1,0.1,0,0.5,0.1,0.8c0.3-0.1,0.7-0.1,1-0.2      C58.411,87.428,58.011,86.828,57.511,87.328z" fill="rgb(255,255,255)"/>    </g>    <g>     <path d="M68.411,65.828c0.2-0.3-0.2-1.4-0.8-0.5C67.411,65.628,67.911,66.728,68.411,65.828z" fill="rgb(255,255,255)"/>    </g>    <g>     <path d="M63.811,64.728c0.1,0.3,1.2,0.8,0.8-0.3C64.511,64.028,63.511,63.728,63.811,64.728z" fill="rgb(255,255,255)"/>    </g>    <g>     <path d="M59.211,77.128c0,0.1,0.5,0.5,0.6,0.2C59.811,77.228,59.311,76.828,59.211,77.128z" fill="rgb(255,255,255)"/>    </g>    <g>     <path d="M68.011,81.728c0.6-0.1,1.2-2.2-0.4-1.9C67.011,80.028,66.211,82.128,68.011,81.728z" fill="rgb(255,255,255)"/>    </g>    <g>     <path d="M64.111,60.428c-0.2,0.3,0.5,1.6,1.2,0.8C65.511,61.028,64.811,59.628,64.111,60.428z" fill="rgb(255,255,255)"/>    </g>    <g>     <path d="M67.811,68.528c0.3,0,0.8-1.5-0.1-1.4C67.411,67.128,67.011,68.628,67.811,68.528z" fill="rgb(255,255,255)"/>    </g>    <g>     <path d="M65.311,58.628c-0.1,0.3,1.3,1.7,1.7,0.8C67.211,59.128,65.811,57.628,65.311,58.628z" fill="rgb(255,255,255)"/>    </g>    <g>     <path d="M65.111,65.528c-0.3-0.1-0.9,0.8-0.7,1.3c-0.2-0.3-0.3-0.2-0.6,0.3c-0.2,0.3,0.4,1.6,1,0.8      c0.1-0.1-0.1-0.7-0.3-1c0,0.1,0,0.1,0.1,0.2c0.2,0.1,0.7-0.7,0.9-1.1c0.5,0.3,1.6,0.8,1.4,0      C67.011,65.528,65.311,64.828,65.111,65.528z" fill="rgb(255,255,255)"/>    </g>   </g>  </g>  <path d="M32.596,194.081c0.5-1.4,0.4-1.4,0.9-2.8   s0.5-1.4,1-2.7c0.5-1.4,0.7-1.3,1.3-2.6c0.5-1.4,0.5-1.4,1-2.7c0.5-1.4,0.3-1.4,0.8-2.8s0.9-1.2,1.4-2.6s0.7-1.3,1.3-2.6   c0.5-1.4-0.2-1.6,0.3-3s0.7-1.3,1.3-2.6c0.5-1.4,0.7-1.3,1.3-2.6c0.5-1.4,0.6-1.3,1.2-2.7c0.5-1.4-0.2-1.6,0.3-3s1.1-1.1,1.7-2.5   c0.5-1.4,0.4-1.4,0.9-2.8s0.5-1.4,1-2.7c0.5-1.4,0.8-1.3,1.3-2.6c0.5-1.4,0.7-1.3,1.2-2.7c0.5-1.4-0.2-1.7,0.3-3   c0.5-1.4,0.9-1.2,1.4-2.6s0.6-1.3,1.1-2.7s0.6-1.3,1.1-2.7s0.4-1.4,0.9-2.8c0.5-1.4,0.1-1.5,0.6-2.9s0.5-1.4,1-2.7   c0.5-1.4,1-1.2,1.6-2.5c0.5-1.4,0-1.6,0.5-2.9c0.5-1.4,0.9-1.2,1.4-2.6s0.8-1.3,1.3-2.6" fill="none" stroke="rgb(255,255,255)"/> </g> </g><g transform="translate(783.14125 453.87125) scale(1.3382293354943273 1.3449243746364163)" ><defs>
    <clipPath id="clipPath_2Q-hiEyrFLS_Ljh_NyyeE">
    <rect x="0" y="0" width="185.1" height="171.9" />
    </clipPath></defs>  <g>  <g>       <ellipse transform="matrix(0.3162 -0.9487 0.9487 0.3162 -18.1353 146.6221)" cx="92.6" cy="85.9" rx="19.7" ry="19.7" fill="rgb(255,255,255)"/>   <path d="M92.6,110.6c-13.6,0-24.7-11.1-24.7-24.7S79,61.2,92.6,61.2c13.6,0,24.7,11.1,24.7,24.7    S106.2,110.6,92.6,110.6z M92.6,71.2c-8.1,0-14.7,6.6-14.7,14.7c0,8.1,6.6,14.7,14.7,14.7s14.7-6.6,14.7-14.7    C107.3,77.8,100.7,71.2,92.6,71.2z" fill="rgb(255,255,255)"/>  </g>  <g>   <path d="M153.3,171.9c-7.7,0-16.6-1.7-26.4-5c-21.9-7.5-46.3-22.6-68.7-42.5s-40.1-42.5-50-63.5    C-2.3,38.6-2.8,20.3,6.9,9.5S34.8-3,58.1,5c21.9,7.5,46.3,22.6,68.7,42.5c22.4,20,40.1,42.5,50,63.5c10.5,22.3,11,40.6,1.3,51.4    C172.6,168.7,164.1,171.9,153.3,171.9z M32,10c-7.8,0-13.9,2.1-17.6,6.2c-13.3,15,3.8,59,50.5,100.8c34,30.3,67.4,45,88.3,45    c7.8,0,13.9-2.1,17.6-6.2c6.8-7.6,5.7-22.3-2.9-40.5c-9.3-19.8-26.3-41.2-47.7-60.3C86.2,24.6,52.8,10,32,10z" fill="rgb(255,255,255)"/>  </g>  <g>   <path d="M31.8,171.9c-10.7,0-19.2-3.2-24.9-9.5c-9.7-10.9-9.2-29.1,1.3-51.4c9.9-21,27.7-43.5,50-63.5    S105,12.4,126.9,5c23.3-7.9,41.5-6.3,51.2,4.5c9.7,10.9,9.2,29.1-1.3,51.4c-9.9,21-27.7,43.5-50,63.5    c-22.4,20-46.8,35.1-68.7,42.5C48.4,170.2,39.5,171.9,31.8,171.9z M153.2,10c-20.9,0-54.3,14.6-88.3,45    C18.1,96.7,1,140.8,14.4,155.8c13.4,15,59.1,2.9,105.8-38.8c21.4-19.1,38.3-40.5,47.7-60.3c8.6-18.2,9.6-32.9,2.9-40.5    C167.1,12.1,161,10,153.2,10z" fill="rgb(255,255,255)"/>  </g> </g> </g><g transform="rotate(17.18534590394756 1363.429375 262.1725)"><g transform="translate(1224.56375 140.57125000000002) scale(3.11068456481077 3.1253533977588153)" ><defs>
    <clipPath id="clipPath_WjzQyvMFyefqCTi7gcv9H">
    <rect x="0" y="0" width="89.283" height="77.816" />
    </clipPath></defs><title>decoration_lightning_spark</title><g id="Layer_2WjzQyvMFyefqCTi7gcv9H" data-name="Layer 2"><g id="decoration_lightning_sparkWjzQyvMFyefqCTi7gcv9H"><path d="M33.25,51.232a1.522,1.522,0,0,0,1.972-.493h0l11.831-21.2,12.16,8.216.821.493a6.088,6.088,0,0,0,1.808.821,5.861,5.861,0,0,0,7.065-4.108h0L77.452,1.936A1.381,1.381,0,0,0,76.8.129a1.382,1.382,0,0,0-1.808.657L61.02,23.133l-12.488-8.38-.822-.493a4.833,4.833,0,0,0-2.136-.821,5.928,5.928,0,0,0-6.9,4.6L32.429,49.753A1.961,1.961,0,0,0,33.25,51.232Z" fill="rgb(50,204,221)"/><path d="M8.11,45.481a1.139,1.139,0,0,0,1.643.493,1.1,1.1,0,0,0,.657-1.151v-13.8l5.258-2.136.986-.493a4.183,4.183,0,0,0,2.136-5.259L11.56,5.223a1.116,1.116,0,0,0-1.314-.657.9.9,0,0,0-.657.985L8.767,20.34,3.345,22.805l-.986.493h0A4.144,4.144,0,0,0,.387,28.72h0Z" fill="rgb(50,204,221)"/><path d="M70.058,61.913l-.493-.986h0a4.041,4.041,0,0,0-5.587-1.315h0l-15.61,9.531a1.661,1.661,0,0,0-.658,1.15,1.271,1.271,0,0,0,1.315,1.15l13.638-1.315,2.958,4.93.493.822a4.163,4.163,0,0,0,5.422,1.478l17.09-9.037a1.351,1.351,0,0,0,.657-.986c0-.657-.493-.986-1.15-.986l-14.789.822Z" fill="rgb(50,204,221)"/></g></g></g></g><g transform="rotate(194.67639313744934 451.87625 881.23375)"><g transform="translate(315.26250000000005 761.13375) scale(3.0602410313273527 3.086768787909941)" ><defs>
    <clipPath id="clipPath_Ez1NmMk6_gS67l219-l5Z">
    <rect x="0" y="0" width="89.283" height="77.816" />
    </clipPath></defs><title>decoration_lightning_spark</title><g id="Layer_2Ez1NmMk6_gS67l219-l5Z" data-name="Layer 2"><g id="decoration_lightning_sparkEz1NmMk6_gS67l219-l5Z"><path d="M33.25,51.232a1.522,1.522,0,0,0,1.972-.493h0l11.831-21.2,12.16,8.216.821.493a6.088,6.088,0,0,0,1.808.821,5.861,5.861,0,0,0,7.065-4.108h0L77.452,1.936A1.381,1.381,0,0,0,76.8.129a1.382,1.382,0,0,0-1.808.657L61.02,23.133l-12.488-8.38-.822-.493a4.833,4.833,0,0,0-2.136-.821,5.928,5.928,0,0,0-6.9,4.6L32.429,49.753A1.961,1.961,0,0,0,33.25,51.232Z" fill="rgb(50,204,221)"/><path d="M8.11,45.481a1.139,1.139,0,0,0,1.643.493,1.1,1.1,0,0,0,.657-1.151v-13.8l5.258-2.136.986-.493a4.183,4.183,0,0,0,2.136-5.259L11.56,5.223a1.116,1.116,0,0,0-1.314-.657.9.9,0,0,0-.657.985L8.767,20.34,3.345,22.805l-.986.493h0A4.144,4.144,0,0,0,.387,28.72h0Z" fill="rgb(50,204,221)"/><path d="M70.058,61.913l-.493-.986h0a4.041,4.041,0,0,0-5.587-1.315h0l-15.61,9.531a1.661,1.661,0,0,0-.658,1.15,1.271,1.271,0,0,0,1.315,1.15l13.638-1.315,2.958,4.93.493.822a4.163,4.163,0,0,0,5.422,1.478l17.09-9.037a1.351,1.351,0,0,0,.657-.986c0-.657-.493-.986-1.15-.986l-14.789.822Z" fill="rgb(50,204,221)"/></g></g></g></g>
              </svg>