<?xml version="1.0" encoding="iso-8859-1" ?>
              <svg
                version="1.1"
                xmlns="http://www.w3.org/2000/svg"
                xmlns:xlink="http://www.w3.org/1999/xlink"
                viewBox="0 0 1728 1152"
                width="1728"
                height="1152"
              >
                <g transform="rotate(39.54447820807969 1044 501.99999999999966)"><g transform="translate(877.9764705882353 213.99999999999966) scale(1.063639755344767 1.0618294436456144)" ><defs>
    <clipPath id="clipPath_pluJMgOeGYmKolDAWzDgm">
    <rect x="0" y="0" width="312.18" height="542.46" />
    </clipPath></defs><path d="M65.08,378.15h0a89.83,89.83,0,0,0-45.16,58L0,517.6l89.08-44.69Z" fill="rgb(50,204,221)"/><path d="M247.1,378.15h0a89.83,89.83,0,0,1,45.16,58l19.92,81.42-89.09-44.69Z" fill="rgb(50,204,221)"/><path d="M267.63,293.84c0-126.13-49.32-228.38-110.17-228.38S47.28,167.71,47.28,293.84c0,72.57,16.34,137.24,41.8,179.07H225.84C251.3,431.08,267.63,366.41,267.63,293.84Z" fill="rgb(30,30,30)"/><path d="M78.56,134.44h157.8l-70-129.13a10.15,10.15,0,0,0-17.84,0Z" fill="rgb(50,204,221)"/><circle cx="157.46" cy="239.02" r="58.08" fill="rgb(30,30,30)"/><path d="M157.46,305.1A66.08,66.08,0,1,1,223.53,239,66.15,66.15,0,0,1,157.46,305.1Zm0-116.15A50.08,50.08,0,1,0,207.53,239,50.13,50.13,0,0,0,157.46,189Z" fill="rgb(255,255,255)"/><path d="M76.13,447.88H240a0,0,0,0,1,0,0v17.27a39.69,39.69,0,0,1-39.69,39.69H115.81a39.69,39.69,0,0,1-39.69-39.69V447.88A0,0,0,0,1,76.13,447.88Z" fill="rgb(30,30,30)"/><path d="M158.74,543.7a15,15,0,0,1-15-15V397.06a15,15,0,1,1,30,0V528.7A15,15,0,0,1,158.74,543.7Z" fill="rgb(50,204,221)"/></g></g><g transform="rotate(180 792.6684814947029 814.7138731738025)"><g transform="translate(679.1094488060726 715.060028161331) scale(2.543799663735095 2.561268762528823)" ><defs>
    <clipPath id="clipPath_Wcx46yqXV0ab-IXhQxM7N">
    <rect x="0" y="0" width="89.283" height="77.816" />
    </clipPath></defs><title>decoration_lightning_spark</title><g id="Layer_2Wcx46yqXV0ab-IXhQxM7N" data-name="Layer 2"><g id="decoration_lightning_sparkWcx46yqXV0ab-IXhQxM7N"><path d="M33.25,51.232a1.522,1.522,0,0,0,1.972-.493h0l11.831-21.2,12.16,8.216.821.493a6.088,6.088,0,0,0,1.808.821,5.861,5.861,0,0,0,7.065-4.108h0L77.452,1.936A1.381,1.381,0,0,0,76.8.129a1.382,1.382,0,0,0-1.808.657L61.02,23.133l-12.488-8.38-.822-.493a4.833,4.833,0,0,0-2.136-.821,5.928,5.928,0,0,0-6.9,4.6L32.429,49.753A1.961,1.961,0,0,0,33.25,51.232Z" fill="rgb(50,204,221)"/><path d="M8.11,45.481a1.139,1.139,0,0,0,1.643.493,1.1,1.1,0,0,0,.657-1.151v-13.8l5.258-2.136.986-.493a4.183,4.183,0,0,0,2.136-5.259L11.56,5.223a1.116,1.116,0,0,0-1.314-.657.9.9,0,0,0-.657.985L8.767,20.34,3.345,22.805l-.986.493h0A4.144,4.144,0,0,0,.387,28.72h0Z" fill="rgb(50,204,221)"/><path d="M70.058,61.913l-.493-.986h0a4.041,4.041,0,0,0-5.587-1.315h0l-15.61,9.531a1.661,1.661,0,0,0-.658,1.15,1.271,1.271,0,0,0,1.315,1.15l13.638-1.315,2.958,4.93.493.822a4.163,4.163,0,0,0,5.422,1.478l17.09-9.037a1.351,1.351,0,0,0,.657-.986c0-.657-.493-.986-1.15-.986l-14.789.822Z" fill="rgb(50,204,221)"/></g></g></g></g><g transform="rotate(186.9969131108044 850.0224447989083 727.3373649529018)"><g transform="translate(784.0714739591197 669.4620231955362) scale(1.4773466581496741 1.487492077654096)" ><defs>
    <clipPath id="clipPath_mjgD2d522I6xLfTOH6Hzh">
    <rect x="0" y="0" width="89.283" height="77.816" />
    </clipPath></defs><title>decoration_lightning_spark</title><g id="Layer_2mjgD2d522I6xLfTOH6Hzh" data-name="Layer 2"><g id="decoration_lightning_sparkmjgD2d522I6xLfTOH6Hzh"><path d="M33.25,51.232a1.522,1.522,0,0,0,1.972-.493h0l11.831-21.2,12.16,8.216.821.493a6.088,6.088,0,0,0,1.808.821,5.861,5.861,0,0,0,7.065-4.108h0L77.452,1.936A1.381,1.381,0,0,0,76.8.129a1.382,1.382,0,0,0-1.808.657L61.02,23.133l-12.488-8.38-.822-.493a4.833,4.833,0,0,0-2.136-.821,5.928,5.928,0,0,0-6.9,4.6L32.429,49.753A1.961,1.961,0,0,0,33.25,51.232Z" fill="rgb(50,204,221)"/><path d="M8.11,45.481a1.139,1.139,0,0,0,1.643.493,1.1,1.1,0,0,0,.657-1.151v-13.8l5.258-2.136.986-.493a4.183,4.183,0,0,0,2.136-5.259L11.56,5.223a1.116,1.116,0,0,0-1.314-.657.9.9,0,0,0-.657.985L8.767,20.34,3.345,22.805l-.986.493h0A4.144,4.144,0,0,0,.387,28.72h0Z" fill="rgb(50,204,221)"/><path d="M70.058,61.913l-.493-.986h0a4.041,4.041,0,0,0-5.587-1.315h0l-15.61,9.531a1.661,1.661,0,0,0-.658,1.15,1.271,1.271,0,0,0,1.315,1.15l13.638-1.315,2.958,4.93.493.822a4.163,4.163,0,0,0,5.422,1.478l17.09-9.037a1.351,1.351,0,0,0,.657-.986c0-.657-.493-.986-1.15-.986l-14.789.822Z" fill="rgb(50,204,221)"/></g></g></g></g>
              </svg>