<svg width="24" height="24" viewBox="0 0 24 24" fill="none" xmlns="http://www.w3.org/2000/svg">
<path fill-rule="evenodd" clip-rule="evenodd" d="M20.9999 12.0356C21 12.0237 21 12.0119 21 12C21 7.02944 16.9706 3 12 3C7.02944 3 3 7.02944 3 12C3 16.9706 7.02944 21 12 21C16.9468 21 20.9615 17.009 20.9997 12.0712C20.9999 12.0634 21 12.0556 21 12.0477C21 12.0437 21 12.0396 20.9999 12.0356ZM18.9357 11.0472C18.5155 7.95925 16.0814 5.51165 13 5.07089V11.0459L18.9357 11.0472ZM11 5.07089V12.0457C11 12.5979 11.4476 13.0456 11.9998 13.0457L18.9222 13.0472C18.4168 16.4165 15.5101 19 12 19C8.13401 19 5 15.866 5 12C5 8.47353 7.60771 5.55612 11 5.07089Z" fill="#FF974A"/>
</svg>
