<svg width="210" height="150" viewBox="0 0 210 150" fill="none" xmlns="http://www.w3.org/2000/svg">
<path d="M134.794 0H202.222C203.149 0 203.9 0.750361 203.9 1.67598V64.6927C203.9 65.6183 203.149 66.3687 202.222 66.3687H134.794C133.868 66.3687 133.117 65.6183 133.117 64.6927V1.67598C133.117 0.750361 133.868 0 134.794 0Z" fill="url(#paint0_linear)"/>
<path d="M138.149 5.02795H151.064V8.37991H138.149V5.02795Z" fill="#F7F5FF"/>
<path d="M138.149 13.4078H198.427V65.3631H138.149V13.4078Z" fill="white"/>
<path fill-rule="evenodd" clip-rule="evenodd" d="M161.967 18.2682H165.321V53.6313H161.967V18.2682ZM146.535 19.9442H143.181V53.6313H146.535V19.9442ZM155.928 21.6201H152.574V53.6313H155.928V21.6201ZM174.546 23.2961H171.192V53.6313H174.546V23.2961ZM180.585 18.2682H183.939V53.6313H180.585V18.2682ZM193.332 21.6201H189.978V53.6313H193.332V21.6201Z" fill="#52D7FD"/>
<path fill-rule="evenodd" clip-rule="evenodd" d="M115.909 12.7067C116.317 12.7067 116.649 12.3759 116.649 11.9679C116.649 11.5598 116.317 11.229 115.909 11.229C115.501 11.229 115.17 11.5598 115.17 11.9679C115.17 12.3759 115.501 12.7067 115.909 12.7067ZM116.649 14.9233C116.649 15.3314 116.317 15.6622 115.909 15.6622C115.501 15.6622 115.17 15.3314 115.17 14.9233C115.17 14.5153 115.501 14.1845 115.909 14.1845C116.317 14.1845 116.649 14.5153 116.649 14.9233ZM115.909 18.6176C116.317 18.6176 116.649 18.2868 116.649 17.8788C116.649 17.4707 116.317 17.1399 115.909 17.1399C115.501 17.1399 115.17 17.4707 115.17 17.8788C115.17 18.2868 115.501 18.6176 115.909 18.6176ZM116.649 20.8342C116.649 21.2423 116.317 21.5731 115.909 21.5731C115.501 21.5731 115.17 21.2423 115.17 20.8342C115.17 20.4261 115.501 20.0953 115.909 20.0953C116.317 20.0953 116.649 20.4261 116.649 20.8342ZM115.909 24.5285C116.317 24.5285 116.649 24.1977 116.649 23.7897C116.649 23.3816 116.317 23.0508 115.909 23.0508C115.501 23.0508 115.17 23.3816 115.17 23.7897C115.17 24.1977 115.501 24.5285 115.909 24.5285ZM115.909 27.484C116.317 27.484 116.649 27.1532 116.649 26.7451C116.649 26.337 116.317 26.0062 115.909 26.0062C115.501 26.0062 115.17 26.337 115.17 26.7451C115.17 27.1532 115.501 27.484 115.909 27.484ZM119.607 26.7451C119.607 27.1532 119.275 27.484 118.867 27.484C118.459 27.484 118.128 27.1532 118.128 26.7451C118.128 26.337 118.459 26.0062 118.867 26.0062C119.275 26.0062 119.607 26.337 119.607 26.7451ZM118.867 24.5285C119.275 24.5285 119.607 24.1977 119.607 23.7897C119.607 23.3816 119.275 23.0508 118.867 23.0508C118.459 23.0508 118.128 23.3816 118.128 23.7897C118.128 24.1977 118.459 24.5285 118.867 24.5285ZM119.607 20.8342C119.607 21.2423 119.275 21.5731 118.867 21.5731C118.459 21.5731 118.128 21.2423 118.128 20.8342C118.128 20.4261 118.459 20.0953 118.867 20.0953C119.275 20.0953 119.607 20.4261 119.607 20.8342ZM118.867 18.6176C119.275 18.6176 119.607 18.2868 119.607 17.8788C119.607 17.4707 119.275 17.1399 118.867 17.1399C118.459 17.1399 118.128 17.4707 118.128 17.8788C118.128 18.2868 118.459 18.6176 118.867 18.6176ZM119.607 14.9233C119.607 15.3314 119.275 15.6622 118.867 15.6622C118.459 15.6622 118.128 15.3314 118.128 14.9233C118.128 14.5153 118.459 14.1845 118.867 14.1845C119.275 14.1845 119.607 14.5153 119.607 14.9233ZM118.867 12.7067C119.275 12.7067 119.607 12.3759 119.607 11.9679C119.607 11.5598 119.275 11.229 118.867 11.229C118.459 11.229 118.128 11.5598 118.128 11.9679C118.128 12.3759 118.459 12.7067 118.867 12.7067ZM122.565 26.7451C122.565 27.1532 122.233 27.484 121.825 27.484C121.417 27.484 121.086 27.1532 121.086 26.7451C121.086 26.337 121.417 26.0062 121.825 26.0062C122.233 26.0062 122.565 26.337 122.565 26.7451ZM121.825 24.5285C122.233 24.5285 122.565 24.1977 122.565 23.7897C122.565 23.3816 122.233 23.0508 121.825 23.0508C121.417 23.0508 121.086 23.3816 121.086 23.7897C121.086 24.1977 121.417 24.5285 121.825 24.5285ZM122.565 20.8342C122.565 21.2423 122.233 21.5731 121.825 21.5731C121.417 21.5731 121.086 21.2423 121.086 20.8342C121.086 20.4261 121.417 20.0953 121.825 20.0953C122.233 20.0953 122.565 20.4261 122.565 20.8342ZM121.825 18.6176C122.233 18.6176 122.565 18.2868 122.565 17.8788C122.565 17.4707 122.233 17.1399 121.825 17.1399C121.417 17.1399 121.086 17.4707 121.086 17.8788C121.086 18.2868 121.417 18.6176 121.825 18.6176ZM122.565 14.9233C122.565 15.3314 122.233 15.6622 121.825 15.6622C121.417 15.6622 121.086 15.3314 121.086 14.9233C121.086 14.5153 121.417 14.1845 121.825 14.1845C122.233 14.1845 122.565 14.5153 122.565 14.9233ZM121.825 12.7067C122.233 12.7067 122.565 12.3759 122.565 11.9679C122.565 11.5598 122.233 11.229 121.825 11.229C121.417 11.229 121.086 11.5598 121.086 11.9679C121.086 12.3759 121.417 12.7067 121.825 12.7067ZM125.523 26.7451C125.523 27.1532 125.191 27.484 124.783 27.484C124.375 27.484 124.044 27.1532 124.044 26.7451C124.044 26.337 124.375 26.0062 124.783 26.0062C125.191 26.0062 125.523 26.337 125.523 26.7451ZM124.783 24.5285C125.191 24.5285 125.523 24.1977 125.523 23.7897C125.523 23.3816 125.191 23.0508 124.783 23.0508C124.375 23.0508 124.044 23.3816 124.044 23.7897C124.044 24.1977 124.375 24.5285 124.783 24.5285ZM125.523 20.8342C125.523 21.2423 125.191 21.5731 124.783 21.5731C124.375 21.5731 124.044 21.2423 124.044 20.8342C124.044 20.4261 124.375 20.0953 124.783 20.0953C125.191 20.0953 125.523 20.4261 125.523 20.8342ZM124.783 18.6176C125.191 18.6176 125.523 18.2868 125.523 17.8788C125.523 17.4707 125.191 17.1399 124.783 17.1399C124.375 17.1399 124.044 17.4707 124.044 17.8788C124.044 18.2868 124.375 18.6176 124.783 18.6176ZM125.523 14.9233C125.523 15.3314 125.191 15.6622 124.783 15.6622C124.375 15.6622 124.044 15.3314 124.044 14.9233C124.044 14.5153 124.375 14.1845 124.783 14.1845C125.191 14.1845 125.523 14.5153 125.523 14.9233ZM124.783 12.7067C125.191 12.7067 125.523 12.3759 125.523 11.9679C125.523 11.5598 125.191 11.229 124.783 11.229C124.375 11.229 124.044 11.5598 124.044 11.9679C124.044 12.3759 124.375 12.7067 124.783 12.7067ZM128.48 26.7451C128.48 27.1532 128.149 27.484 127.741 27.484C127.333 27.484 127.001 27.1532 127.001 26.7451C127.001 26.337 127.333 26.0062 127.741 26.0062C128.149 26.0062 128.48 26.337 128.48 26.7451ZM127.741 24.5285C128.149 24.5285 128.48 24.1977 128.48 23.7897C128.48 23.3816 128.149 23.0508 127.741 23.0508C127.333 23.0508 127.001 23.3816 127.001 23.7897C127.001 24.1977 127.333 24.5285 127.741 24.5285ZM128.48 20.8342C128.48 21.2423 128.149 21.5731 127.741 21.5731C127.333 21.5731 127.001 21.2423 127.001 20.8342C127.001 20.4261 127.333 20.0953 127.741 20.0953C128.149 20.0953 128.48 20.4261 128.48 20.8342ZM127.741 18.6176C128.149 18.6176 128.48 18.2868 128.48 17.8788C128.48 17.4707 128.149 17.1399 127.741 17.1399C127.333 17.1399 127.001 17.4707 127.001 17.8788C127.001 18.2868 127.333 18.6176 127.741 18.6176ZM128.48 14.9233C128.48 15.3314 128.149 15.6622 127.741 15.6622C127.333 15.6622 127.001 15.3314 127.001 14.9233C127.001 14.5153 127.333 14.1845 127.741 14.1845C128.149 14.1845 128.48 14.5153 128.48 14.9233ZM127.741 12.7067C128.149 12.7067 128.48 12.3759 128.48 11.9679C128.48 11.5598 128.149 11.229 127.741 11.229C127.333 11.229 127.001 11.5598 127.001 11.9679C127.001 12.3759 127.333 12.7067 127.741 12.7067ZM131.438 26.7451C131.438 27.1532 131.107 27.484 130.699 27.484C130.291 27.484 129.959 27.1532 129.959 26.7451C129.959 26.337 130.291 26.0062 130.699 26.0062C131.107 26.0062 131.438 26.337 131.438 26.7451ZM130.699 24.5285C131.107 24.5285 131.438 24.1977 131.438 23.7897C131.438 23.3816 131.107 23.0508 130.699 23.0508C130.291 23.0508 129.959 23.3816 129.959 23.7897C129.959 24.1977 130.291 24.5285 130.699 24.5285ZM131.438 20.8342C131.438 21.2423 131.107 21.5731 130.699 21.5731C130.291 21.5731 129.959 21.2423 129.959 20.8342C129.959 20.4261 130.291 20.0953 130.699 20.0953C131.107 20.0953 131.438 20.4261 131.438 20.8342ZM130.699 18.6176C131.107 18.6176 131.438 18.2868 131.438 17.8788C131.438 17.4707 131.107 17.1399 130.699 17.1399C130.291 17.1399 129.959 17.4707 129.959 17.8788C129.959 18.2868 130.291 18.6176 130.699 18.6176ZM131.438 14.9233C131.438 15.3314 131.107 15.6622 130.699 15.6622C130.291 15.6622 129.959 15.3314 129.959 14.9233C129.959 14.5153 130.291 14.1845 130.699 14.1845C131.107 14.1845 131.438 14.5153 131.438 14.9233ZM130.699 12.7067C131.107 12.7067 131.438 12.3759 131.438 11.9679C131.438 11.5598 131.107 11.229 130.699 11.229C130.291 11.229 129.959 11.5598 129.959 11.9679C129.959 12.3759 130.291 12.7067 130.699 12.7067Z" fill="url(#paint1_linear)"/>
<path d="M14.6983 0L82.1264 0C83.0528 0 83.8037 0.750361 83.8037 1.67598V50.6145C83.8037 51.5401 83.0528 52.2905 82.1264 52.2905H14.6983C13.772 52.2905 13.021 51.5401 13.021 50.6145V1.67598C13.021 0.750361 13.772 0 14.6983 0Z" fill="url(#paint2_linear)"/>
<path d="M23.2527 22.9609H40.0258V43.9107H23.2527V22.9609Z" fill="url(#paint3_linear)"/>
<path d="M40.0258 15.7542H56.7989V43.9106H40.0258V15.7542Z" fill="url(#paint4_linear)"/>
<path d="M56.799 8.54749H73.5721V43.9106H56.799V8.54749Z" fill="url(#paint5_linear)"/>
<path d="M37.5098 88.3532C28.0697 92.6133 20.5225 92.5594 14.8683 88.1914C9.21403 83.8233 5.63501 77.6034 4.13123 69.5315C21.8055 64.2282 32.9316 70.5021 37.5098 88.3532Z" fill="url(#paint6_linear)"/>
<path d="M23.5711 80.6935C21.5337 79.5385 19.2681 78.2587 16.7745 76.854L10.9902 78.2379C10.8875 78.2625 10.7845 78.199 10.76 78.0961C10.7355 77.9932 10.7989 77.8899 10.9015 77.8653L16.2837 76.5775C13.1715 74.8249 9.71242 72.8824 5.90647 70.7499C5.81438 70.6983 5.78143 70.5816 5.83289 70.4893C5.88435 70.3969 6.00072 70.3639 6.09282 70.4155C13.042 74.3091 18.8349 77.5696 23.4718 80.1971L22.8735 74.3173C22.8476 74.0632 23.2277 74.0243 23.2535 74.2784L23.8793 80.4281C30.0614 83.9329 34.1267 86.2787 36.0761 87.466C36.1663 87.5209 36.195 87.6387 36.1402 87.7291C36.0855 87.8196 35.968 87.8483 35.8778 87.7934C34.7114 87.083 32.7843 85.9561 30.0967 84.4127C30.0896 84.4164 30.0822 84.4196 30.0746 84.4224L24.7884 86.3583C24.6893 86.3946 24.5797 86.3434 24.5435 86.2441C24.5073 86.1447 24.5583 86.0347 24.6574 85.9984L29.6645 84.1648C27.9467 83.1796 25.9359 82.034 23.6322 80.7281C23.61 80.7207 23.5892 80.7092 23.5711 80.6935Z" fill="white"/>
<path d="M35.3959 93.6872C25.6921 90.0138 20.379 84.6383 19.4566 77.5609C18.5342 70.4835 20.3919 63.5684 25.0297 56.8157C41.3089 65.5771 44.7643 77.8676 35.3959 93.6872Z" fill="url(#paint7_linear)"/>
<path d="M31.3983 78.487C33.2938 85.3475 34.5114 89.8881 35.0514 92.1094C35.0764 92.2122 35.0137 92.3158 34.9115 92.3409C34.8092 92.366 34.7061 92.3031 34.6811 92.2003C34.358 90.8712 33.7914 88.7082 32.9812 85.7118C32.9736 85.7094 32.9661 85.7064 32.9587 85.703L27.8679 83.324C27.7725 83.2794 27.7311 83.1655 27.7755 83.0696C27.8199 82.9737 27.9332 82.9321 28.0286 82.9767L32.8508 85.2301C32.332 83.3158 31.7194 81.0804 31.013 78.5239C31.0026 78.5029 30.9959 78.48 30.9943 78.4561C30.3694 76.1951 29.6716 73.6842 28.9007 70.9233L23.8467 67.8009C23.757 67.7455 23.729 67.6276 23.7841 67.5375C23.8392 67.4474 23.9566 67.4192 24.0462 67.4746L28.7489 70.3799C27.7864 66.9345 26.7128 63.1088 25.5281 58.903C25.4994 58.8013 25.5583 58.6954 25.6595 58.6666C25.7608 58.6378 25.8661 58.6969 25.8948 58.7987C28.0579 66.478 29.8507 72.8899 31.2733 78.0347L34.9876 73.4537C35.1481 73.2557 35.4435 73.4977 35.283 73.6957L31.3983 78.487Z" fill="white"/>
<path d="M45.0577 100.318C37.0441 106.887 29.7456 108.796 23.1622 106.044C16.5788 103.292 11.5211 98.2109 7.98901 90.8012C23.6813 81.0845 36.0376 84.2566 45.0577 100.318Z" fill="url(#paint8_linear)"/>
<path d="M29.8226 96.0532C36.6938 97.829 41.2228 99.0363 43.4107 99.6753C43.5119 99.7048 43.57 99.8109 43.5405 99.9121C43.5109 100.013 43.4049 100.072 43.3037 100.042C41.9946 99.6596 39.8438 99.0729 36.8516 98.282C36.8457 98.2873 36.8394 98.2924 36.8328 98.2971L32.2296 101.53C32.1433 101.59 32.0243 101.569 31.9637 101.483C31.9032 101.397 31.924 101.277 32.0103 101.217L36.3705 98.155C34.4583 97.6507 32.2219 97.0677 29.6615 96.4061C29.6381 96.4047 29.615 96.399 29.5936 96.3885C27.329 95.8034 24.8121 95.1571 22.0429 94.4494L16.8165 97.2794C16.7238 97.3296 16.608 97.2951 16.5578 97.2023C16.5076 97.1095 16.5421 96.9936 16.6348 96.9434L21.4979 94.3102C18.0418 93.4276 14.2019 92.4518 9.97823 91.3829C9.87603 91.357 9.81413 91.2531 9.83998 91.1509C9.86583 91.0486 9.96964 90.9867 10.0718 91.0125C17.7838 92.9643 24.2163 94.6055 29.3696 95.9362L27.2756 90.4279C27.1851 90.1898 27.542 90.054 27.6324 90.292L29.8226 96.0532Z" fill="white"/>
<path d="M37.0066 29.162H189.978C192.201 29.162 194.003 30.9629 194.003 33.1843V145.81C194.003 148.032 192.201 149.832 189.978 149.832H37.0066C34.7834 149.832 32.9811 148.032 32.9811 145.81V33.1843C32.9811 30.9629 34.7834 29.162 37.0066 29.162Z" fill="url(#paint9_linear)"/>
<path d="M185.952 111.821V141.788H41.0322L61.5189 138.762L82.0929 130.717H102.623L123.355 120.268H143.816L164.606 101.868H185.828L185.952 111.821Z" fill="url(#paint10_linear)"/>
<path d="M41.0322 37.2067H185.952V93.5195H41.0322V37.2067Z" fill="white"/>
<path fill-rule="evenodd" clip-rule="evenodd" d="M177.901 45.2513H97.1887V50.0782H177.901V45.2513ZM177.901 80.648H97.1887V85.4748H177.901V80.648ZM97.1887 68.7821H177.901V73.6089H97.1887V68.7821ZM177.901 56.9161H97.1887V61.743H177.901V56.9161Z" fill="url(#paint11_linear)"/>
<path d="M97.1887 45.2513H119.531V50.0782H97.1887V45.2513Z" fill="#52D7FD"/>
<path d="M97.1887 80.6481H143.65V85.4749H97.1887V80.6481Z" fill="#52D7FD"/>
<path d="M97.1887 68.7821H126.836V73.6089H97.1887V68.7821Z" fill="#0737A3"/>
<path d="M97.1887 56.9161H135.188V61.743H97.1887V56.9161Z" fill="#00ADFF"/>
<path fill-rule="evenodd" clip-rule="evenodd" d="M41.1328 141.678L40.9315 141.676L41.3341 101.764L41.5353 101.766L41.1328 141.678ZM61.6631 141.678L61.4619 141.676L61.8644 101.764L62.0657 101.766L61.6631 141.678ZM81.9922 141.676L82.1935 141.678L82.596 101.766L82.3948 101.764L81.9922 141.676ZM102.724 141.678L102.523 141.676L102.925 101.764L103.126 101.766L102.724 141.678ZM123.053 141.676L123.254 141.678L123.657 101.766L123.455 101.764L123.053 141.676ZM143.785 141.678L143.583 141.676L143.986 101.764L144.187 101.766L143.785 141.678ZM164.114 141.676L164.315 141.678L164.717 101.766L164.516 101.764L164.114 141.676Z" fill="white"/>
<path d="M69.0099 85.4748C80.1262 85.4748 89.1377 76.4705 89.1377 65.3631C89.1377 54.2557 80.1262 45.2513 69.0099 45.2513C57.8936 45.2513 48.8821 54.2557 48.8821 65.3631C48.8821 76.4705 57.8936 85.4748 69.0099 85.4748Z" fill="url(#paint12_linear)"/>
<path d="M69.0099 85.4749C69.0099 81.3678 69.0099 74.6639 69.0099 65.3632C59.1088 56.3135 54.1582 51.7887 54.1582 51.7887C50.8814 55.3661 48.8821 60.1314 48.8821 65.3632C48.8821 76.4706 57.8936 85.4749 69.0099 85.4749Z" fill="url(#paint13_linear)"/>
<path d="M69.0099 65.321C69.0099 65.321 69.0099 72.039 69.0099 85.4748C80.1262 85.4748 89.1377 76.4705 89.1377 65.3631C89.1377 65.3631 82.4284 65.3491 69.0099 65.321Z" fill="#0F55BE"/>
<path d="M23.0599 104.287C22.2934 107.568 21.6147 109.423 21.0239 109.854L24.0278 110.577L36.8929 109.854L35.11 97.0529L24.772 93.8398L23.0599 97.0529V104.287Z" fill="#211D41"/>
<path d="M12.332 120.769L17.758 122.1L15.6186 127.569L17.758 134.23L13.2454 133.263L11.1333 127.839C11.0647 127.663 11.0472 127.471 11.0828 127.285L12.332 120.769Z" fill="#F4B696"/>
<path d="M45.2841 120.838L46.5332 127.355C46.5688 127.54 46.5513 127.732 46.4827 127.908L44.3706 133.332L39.858 134.299L41.9974 127.639L39.858 122.17L45.2841 120.838Z" fill="#F4B696"/>
<path d="M26.9861 108.689H30.6343C38.1394 108.689 44.6105 113.961 46.1218 121.306L40.4313 123.021V138.224H16.9125V123.021L11.4946 121.306C13.0079 113.96 19.4801 108.689 26.9861 108.689Z" fill="url(#paint14_linear)"/>
<path d="M17.106 123.163L18.3212 120.188V125.069L17.106 123.163Z" fill="#0F55BE"/>
<path d="M40.1264 123.163L38.9111 125.069V120.188L40.1264 123.163Z" fill="#0F55BE"/>
<path d="M15.2142 121.98H42.1937C42.4271 121.98 42.6164 122.169 42.6164 122.402C42.6164 122.416 42.6156 122.431 42.6141 122.445L41.024 137.845C41.0018 138.06 40.8202 138.224 40.6036 138.224H16.8043C16.5877 138.224 16.4061 138.06 16.3839 137.845L14.7938 122.445C14.7698 122.213 14.9386 122.006 15.1708 121.982C15.1853 121.98 15.1997 121.98 15.2142 121.98Z" fill="#211D41"/>
<path d="M46.3524 144.376C47.9698 143.157 49.7481 142.874 51.6875 143.525C54.5966 144.503 59.1723 145.96 58.5189 148.148C57.8655 150.335 50.6775 149.792 48.8816 149.65C47.0856 149.507 45.7295 147.782 45.4552 146.759C45.2724 146.077 45.5715 145.283 46.3524 144.376Z" fill="#021038"/>
<path d="M43.3368 143.609L48.1567 144.262C49.1468 144.396 49.8407 145.306 49.7066 146.295C49.702 146.33 49.6964 146.364 49.6898 146.397C49.4801 147.477 48.5102 148.239 47.4111 148.189L42.6044 147.969L43.3368 143.609Z" fill="#F4B696"/>
<path d="M28.7878 131.229C29.8068 131.229 30.6328 130.404 30.6328 129.386C30.6328 128.367 29.8068 127.542 28.7878 127.542C27.7688 127.542 26.9427 128.367 26.9427 129.386C26.9427 130.404 27.7688 131.229 28.7878 131.229Z" fill="#757384"/>
<path d="M45.6624 142.958L43.1248 148.315C25.3439 145.468 14.8502 143.421 11.6437 142.176C6.83378 140.308 7.14332 136.152 7.7332 133.934C8.32308 131.716 11.8136 129.617 20.1762 133.274C25.7513 135.713 34.2467 138.941 45.6624 142.958Z" fill="url(#paint15_linear)"/>
<path d="M26.237 103.256H31.7329L32.3043 109.068C32.3149 109.177 32.3203 109.285 32.3203 109.394C32.3203 111.235 30.827 112.727 28.985 112.727C28.8761 112.727 28.7673 112.722 28.6589 112.711C26.8257 112.531 25.4856 110.9 25.6656 109.068L26.237 103.256Z" fill="#F4B696"/>
<path d="M23.1635 102.493C24.5648 106.13 26.5125 107.948 29.0065 107.948C31.5006 107.948 33.4248 106.13 34.7793 102.493C35.6632 102.16 36.0731 101.654 36.009 100.974C35.9129 99.9538 35.3439 99.5878 34.3102 100.106C34.3102 98.9026 34.3102 97.925 34.3102 97.1729C29.353 98.3947 25.8041 97.9973 23.6635 95.9808C23.8005 98.3228 23.8005 99.6105 23.6635 99.8438C22.6217 99.6701 22.0486 99.9708 21.9442 100.746C21.8399 101.521 22.2463 102.103 23.1635 102.493Z" fill="#F4B696"/>
<path d="M12.2295 144.376C13.0105 145.283 13.3095 146.077 13.1267 146.759C12.8525 147.782 11.4963 149.507 9.70038 149.65C7.90444 149.792 0.716461 150.335 0.0630334 148.148C-0.590394 145.96 3.98536 144.503 6.89441 143.525C8.83378 142.874 10.6122 143.157 12.2295 144.376Z" fill="#021038"/>
<path d="M15.2452 143.609L15.9776 147.969L11.1708 148.189C10.0717 148.239 9.10186 147.477 8.89214 146.397C8.88557 146.364 8.87997 146.33 8.87534 146.295C8.74127 145.306 9.43519 144.396 10.4253 144.262L15.2452 143.609Z" fill="#F4B696"/>
<path d="M13.1993 143.314L14.2435 148.77C31.5647 145.593 41.8286 143.381 45.0352 142.136C49.845 140.268 49.5355 136.112 48.9456 133.894C48.3557 131.676 44.8653 129.577 36.5026 133.234C30.9275 135.673 23.1598 139.033 13.1993 143.314Z" fill="url(#paint16_linear)"/>
<path d="M24.3959 96.878C25.4167 98.3837 28.7016 98.984 34.2504 98.6789C33.6411 100.654 33.6496 102.236 34.276 103.425C35.2156 105.21 32.1957 108.311 33.8003 111.95C35.405 115.59 40.0284 110.673 43.2857 115.025C41.7422 111.71 40.1427 109.517 38.4873 108.445C36.0041 106.837 36.8465 101.525 37.3023 98.6789C37.7582 95.8324 35.4357 90.763 28.9555 90.9176C22.4754 91.0723 21.4736 96.7993 21.4588 96.878C20.7367 100.707 21.0068 101.973 21.4588 103.094C21.9108 104.214 22.5899 107.943 21.092 109.759C23.3711 109.254 24.3708 108.148 24.0913 106.441C23.672 103.881 24.4557 103.004 24.0913 100.677C23.8483 99.1257 23.9499 97.8594 24.3959 96.878Z" fill="url(#paint17_linear)"/>
<path d="M206.538 142.528V146.512H202.551V142.528H206.538Z" fill="#F4B696"/>
<path d="M194.8 142.528V146.512H190.814V142.528H194.8Z" fill="#F4B696"/>
<path d="M201.832 144.949L196.271 91.9685L209.292 92.0402L207.017 144.949H201.832Z" fill="#121958"/>
<path d="M189.999 144.888L187.601 116.54C187.424 114.447 187.546 112.341 187.964 110.283L191.671 92.0039L209.292 92.0402L197.053 116.566L195.482 144.888H189.999Z" fill="url(#paint18_linear)"/>
<path d="M199.339 63.3908C198.881 61.1863 198.269 59.9846 197.505 59.7859C196.358 59.4877 195.631 59.3597 195.612 58.1998C195.593 57.0398 195.233 56.6989 194.729 56.5394C194.226 56.3799 193.745 55.7089 194.983 54.7438C195.809 54.1004 196.15 52.7863 196.006 50.8015C200.64 48.5317 203.46 49.0632 204.468 52.3959C205.475 55.7286 205.487 58.4414 204.504 60.5342L204.798 62.6234L199.339 63.3908Z" fill="#F4B696"/>
<path d="M204.601 60.3983C203.098 60.5629 202.207 60.4247 201.927 59.9838C201.506 59.3225 201.287 58.069 201.303 57.6615C201.319 57.254 201.795 57.3567 202.153 57.3064C202.511 57.2561 202.953 56.3728 202.497 55.8194C202.041 55.2661 201.542 55.433 201.307 55.5756C201.072 55.7183 200.428 55.5017 200.493 54.4957C200.557 53.4897 200.878 52.5108 200.226 52.6023C199.575 52.6938 195.867 52.7883 195.327 50.3381C194.786 47.888 196.027 46.2823 198.494 47.0881C200.961 47.8938 201.689 47.6843 203.484 47.8366C205.279 47.989 207.079 48.2328 207.874 51.2316C208.669 54.2305 207.669 55.954 206.422 57.2582C205.175 58.5624 205.544 58.8565 205.435 59.4907C205.363 59.9134 205.085 60.216 204.601 60.3983Z" fill="url(#paint19_linear)"/>
<path d="M184.61 55.9709C184.022 57.9931 183.555 58.7114 183.21 58.1256C182.692 57.2469 180.544 55.463 179.159 55.0492C177.774 54.6354 176.993 53.7196 177.884 53.5746C178.478 53.4779 179.313 53.4779 180.389 53.5746C180.116 52.9109 179.391 52.3439 178.432 51.1838C177.472 50.0237 178.967 50.3482 180.389 51.3632C181.811 52.3782 183.197 53.7196 183.423 54.3834C183.574 54.8258 183.969 55.355 184.61 55.9709Z" fill="#F4B696"/>
<path d="M195.022 146.07V148.909C195.022 149.398 194.625 149.794 194.136 149.794H186.284C185.973 149.794 185.721 149.485 185.721 149.105C185.721 147.622 186.846 147.428 188.183 146.955L190.835 146.07H195.022Z" fill="#021038"/>
<path d="M206.759 146.07V148.909C206.759 149.398 206.362 149.794 205.873 149.794H198.021C197.71 149.794 197.458 149.485 197.458 149.105C197.458 147.622 198.583 147.428 199.92 146.955L202.572 146.07H206.759Z" fill="#021038"/>
<path d="M182.417 83.3029L183.003 86.5425C182.094 86.7467 181.362 86.8828 180.807 86.9508C179.974 87.0528 178.561 87.9165 177.461 87.1848C176.361 86.4531 176.271 84.3154 176.809 83.8826C177.168 83.5941 177.808 83.4362 178.729 83.4091C178.493 82.8699 178.711 82.406 179.384 82.0173C179.682 82.5777 179.97 83.0062 180.249 83.3029C180.527 83.5995 181.25 83.5995 182.417 83.3029Z" fill="#F4B696"/>
<path d="M201.001 63.4609L195.511 70.1617L181.581 57.0429L183.728 53.9666L201.001 63.4609Z" fill="#D64F53"/>
<path fill-rule="evenodd" clip-rule="evenodd" d="M198.597 96.4618L199.066 95.2593L198.894 95.1924L198.425 96.3948L198.597 96.4618ZM197.458 99.382L197.927 98.1795L197.755 98.1126L197.286 99.315L197.458 99.382ZM196.788 101.1L196.319 102.302L196.147 102.235L196.616 101.033L196.788 101.1ZM195.181 105.222L195.649 104.02L195.478 103.953L195.009 105.155L195.181 105.222ZM194.511 106.94L194.042 108.143L193.87 108.076L194.339 106.873L194.511 106.94ZM193.116 110.517L193.372 109.86L193.2 109.793L192.944 110.45C192.872 110.633 192.804 110.817 192.739 111.002L192.913 111.063C192.977 110.88 193.045 110.698 193.116 110.517ZM192.388 112.822C192.286 113.238 192.199 113.657 192.126 114.079L191.945 114.048C192.018 113.622 192.106 113.199 192.208 112.778L192.388 112.822ZM191.863 117.186C191.863 116.758 191.877 116.33 191.907 115.903L191.723 115.89C191.693 116.321 191.678 116.754 191.678 117.186L191.863 117.186ZM191.907 119.024L191.942 120.314L191.758 120.319L191.722 119.029L191.907 119.024ZM192.028 123.447L191.993 122.157L191.808 122.162L191.844 123.452L192.028 123.447ZM192.079 125.29L192.115 126.58L191.93 126.585L191.895 125.295L192.079 125.29ZM192.201 129.713L192.165 128.423L191.981 128.428L192.016 129.718L192.201 129.713ZM192.251 131.556L192.287 132.846L192.102 132.851L192.067 131.561L192.251 131.556ZM192.373 135.979L192.338 134.689L192.153 134.694L192.189 135.984L192.373 135.979ZM192.424 137.822L192.459 139.112L192.275 139.117L192.239 137.827L192.424 137.822ZM192.546 142.245L192.51 140.955L192.326 140.96L192.361 142.25L192.546 142.245Z" fill="#A587FF"/>
<path d="M191.488 92.9378L192.056 86.2393L181.901 87.1509L181.615 82.9272L192.056 79.4771L192.545 71.0007C192.545 62.7897 198.325 62.2373 203.918 62.2373C207.647 62.2373 209.611 64.432 209.809 68.8215L209.293 93.8399L191.488 92.9378Z" fill="url(#paint20_linear)"/>
<path d="M192.056 86.2392L194.556 85.339C195.506 84.9969 196.204 84.1782 196.392 83.1866L197.849 75.463L197.759 86.1121L191.925 87.8407L192.056 86.2392Z" fill="#4A1C25"/>
<defs>
<linearGradient id="paint0_linear" x1="133.117" y1="0" x2="133.117" y2="66.3687" gradientUnits="userSpaceOnUse">
<stop stop-color="#FF9485"/>
<stop offset="1" stop-color="#FF676E"/>
</linearGradient>
<linearGradient id="paint1_linear" x1="111.607" y1="12.4098" x2="111.607" y2="35.7834" gradientUnits="userSpaceOnUse">
<stop stop-color="#D0F6FF"/>
<stop offset="1" stop-color="#8BE2F7"/>
</linearGradient>
<linearGradient id="paint2_linear" x1="15.906" y1="0" x2="15.906" y2="48.0279" gradientUnits="userSpaceOnUse">
<stop stop-color="#EAFCFF"/>
<stop offset="1" stop-color="white"/>
</linearGradient>
<linearGradient id="paint3_linear" x1="19.5841" y1="22.9609" x2="19.5841" y2="53.0747" gradientUnits="userSpaceOnUse">
<stop stop-color="#FFC8C0"/>
<stop offset="1" stop-color="#FF676E"/>
</linearGradient>
<linearGradient id="paint4_linear" x1="45.2191" y1="33.1897" x2="45.2191" y2="43.9106" gradientUnits="userSpaceOnUse">
<stop stop-color="#FFA79A"/>
<stop offset="1" stop-color="#FF676E"/>
</linearGradient>
<linearGradient id="paint5_linear" x1="56.799" y1="8.54749" x2="56.799" y2="43.9106" gradientUnits="userSpaceOnUse">
<stop stop-color="#FF9485"/>
<stop offset="1" stop-color="#FF676E"/>
</linearGradient>
<linearGradient id="paint6_linear" x1="0.776945" y1="76.5704" x2="12.6301" y2="89.2872" gradientUnits="userSpaceOnUse">
<stop stop-color="#CFE49F"/>
<stop offset="1" stop-color="#A9D386"/>
</linearGradient>
<linearGradient id="paint7_linear" x1="14.2934" y1="83.4296" x2="38.7502" y2="91.7166" gradientUnits="userSpaceOnUse">
<stop stop-color="#6EAE7C"/>
<stop offset="1" stop-color="#0F575D"/>
</linearGradient>
<linearGradient id="paint8_linear" x1="10.804" y1="89.5316" x2="15.5767" y2="103.446" gradientUnits="userSpaceOnUse">
<stop stop-color="#77D791"/>
<stop offset="1" stop-color="#4FA67E"/>
</linearGradient>
<linearGradient id="paint9_linear" x1="184.433" y1="167.309" x2="185.279" y2="60.9769" gradientUnits="userSpaceOnUse">
<stop stop-color="#2B3389"/>
<stop offset="1" stop-color="#444FB7"/>
</linearGradient>
<linearGradient id="paint10_linear" x1="9.29948" y1="104.768" x2="9.29948" y2="162.17" gradientUnits="userSpaceOnUse">
<stop stop-color="#D0F6FF"/>
<stop offset="1" stop-color="#8BE2F7"/>
</linearGradient>
<linearGradient id="paint11_linear" x1="79.5153" y1="48.1733" x2="79.5153" y2="106.012" gradientUnits="userSpaceOnUse">
<stop stop-color="#D0F6FF"/>
<stop offset="1" stop-color="#8BE2F7"/>
</linearGradient>
<linearGradient id="paint12_linear" x1="40.0674" y1="48.1733" x2="40.0674" y2="106.012" gradientUnits="userSpaceOnUse">
<stop stop-color="#D0F6FF"/>
<stop offset="1" stop-color="#8BE2F7"/>
</linearGradient>
<linearGradient id="paint13_linear" x1="48.8821" y1="51.7887" x2="48.8821" y2="85.4749" gradientUnits="userSpaceOnUse">
<stop stop-color="#4DBCFA"/>
<stop offset="1" stop-color="#1486DB"/>
</linearGradient>
<linearGradient id="paint14_linear" x1="6.75691" y1="100.607" x2="6.75691" y2="138.224" gradientUnits="userSpaceOnUse">
<stop stop-color="#C0E4FD"/>
<stop offset="1" stop-color="#72B9FE"/>
</linearGradient>
<linearGradient id="paint15_linear" x1="-6.83387" y1="122.271" x2="-6.83387" y2="163.072" gradientUnits="userSpaceOnUse">
<stop stop-color="#1533B6"/>
<stop offset="1" stop-color="#356BE9"/>
</linearGradient>
<linearGradient id="paint16_linear" x1="-0.230353" y1="121.968" x2="-0.230353" y2="163.957" gradientUnits="userSpaceOnUse">
<stop stop-color="#1533B6"/>
<stop offset="1" stop-color="#356BE9"/>
</linearGradient>
<linearGradient id="paint17_linear" x1="21.0128" y1="90.9142" x2="21.0128" y2="115.025" gradientUnits="userSpaceOnUse">
<stop stop-color="#1D2A78"/>
<stop offset="1" stop-color="#12033B"/>
</linearGradient>
<linearGradient id="paint18_linear" x1="179.417" y1="64.0008" x2="179.417" y2="190.721" gradientUnits="userSpaceOnUse">
<stop stop-color="#1533B6"/>
<stop offset="1" stop-color="#356BE9"/>
</linearGradient>
<linearGradient id="paint19_linear" x1="195.202" y1="46.8782" x2="195.202" y2="60.4654" gradientUnits="userSpaceOnUse">
<stop stop-color="#1D2A78"/>
<stop offset="1" stop-color="#12033B"/>
</linearGradient>
<linearGradient id="paint20_linear" x1="181.615" y1="62.2373" x2="181.615" y2="93.8399" gradientUnits="userSpaceOnUse">
<stop stop-color="#FF9485"/>
<stop offset="1" stop-color="#FF676E"/>
</linearGradient>
</defs>
</svg>
