<svg width="36" height="24" viewBox="0 0 36 24" fill="none" xmlns="http://www.w3.org/2000/svg">
<rect width="36" height="24" fill="#D8D8D8"/>
<rect width="36" height="24" fill="white"/>
<mask id="mask0" mask-type="alpha" maskUnits="userSpaceOnUse" x="0" y="0" width="36" height="24">
<rect width="36" height="24" fill="white"/>
</mask>
<g mask="url(#mask0)">
<path fill-rule="evenodd" clip-rule="evenodd" d="M36 0H0V1.6H36V0ZM36 3.2H0V4.8H36V3.2ZM0 6.4H36V8H0V6.4ZM36 9.6H0V11.2H36V9.6ZM0 12.8H36V14.4H0V12.8ZM36 16H0V17.6H36V16ZM0 19.2H36V20.8H0V19.2ZM36 22.4H0V24H36V22.4Z" fill="#D02F44"/>
<rect width="15" height="11" fill="#46467F"/>
<g filter="url(#filter0_d)">
<path fill-rule="evenodd" clip-rule="evenodd" d="M3.57143 2.8C3.57143 3.24183 3.21965 3.6 2.78571 3.6C2.35178 3.6 2 3.24183 2 2.8C2 2.35817 2.35178 2 2.78571 2C3.21965 2 3.57143 2.35817 3.57143 2.8ZM6.71429 2.8C6.71429 3.24183 6.36251 3.6 5.92857 3.6C5.49463 3.6 5.14286 3.24183 5.14286 2.8C5.14286 2.35817 5.49463 2 5.92857 2C6.36251 2 6.71429 2.35817 6.71429 2.8ZM9.07143 3.6C9.50537 3.6 9.85714 3.24183 9.85714 2.8C9.85714 2.35817 9.50537 2 9.07143 2C8.63749 2 8.28571 2.35817 8.28571 2.8C8.28571 3.24183 8.63749 3.6 9.07143 3.6ZM13 2.8C13 3.24183 12.6482 3.6 12.2143 3.6C11.7803 3.6 11.4286 3.24183 11.4286 2.8C11.4286 2.35817 11.7803 2 12.2143 2C12.6482 2 13 2.35817 13 2.8ZM4.35714 5.2C4.79108 5.2 5.14286 4.84183 5.14286 4.4C5.14286 3.95817 4.79108 3.6 4.35714 3.6C3.9232 3.6 3.57143 3.95817 3.57143 4.4C3.57143 4.84183 3.9232 5.2 4.35714 5.2ZM8.28571 4.4C8.28571 4.84183 7.93394 5.2 7.5 5.2C7.06606 5.2 6.71429 4.84183 6.71429 4.4C6.71429 3.95817 7.06606 3.6 7.5 3.6C7.93394 3.6 8.28571 3.95817 8.28571 4.4ZM10.6429 5.2C11.0768 5.2 11.4286 4.84183 11.4286 4.4C11.4286 3.95817 11.0768 3.6 10.6429 3.6C10.2089 3.6 9.85714 3.95817 9.85714 4.4C9.85714 4.84183 10.2089 5.2 10.6429 5.2ZM13 6C13 6.44183 12.6482 6.8 12.2143 6.8C11.7803 6.8 11.4286 6.44183 11.4286 6C11.4286 5.55817 11.7803 5.2 12.2143 5.2C12.6482 5.2 13 5.55817 13 6ZM9.07143 6.8C9.50537 6.8 9.85714 6.44183 9.85714 6C9.85714 5.55817 9.50537 5.2 9.07143 5.2C8.63749 5.2 8.28571 5.55817 8.28571 6C8.28571 6.44183 8.63749 6.8 9.07143 6.8ZM6.71429 6C6.71429 6.44183 6.36251 6.8 5.92857 6.8C5.49463 6.8 5.14286 6.44183 5.14286 6C5.14286 5.55817 5.49463 5.2 5.92857 5.2C6.36251 5.2 6.71429 5.55817 6.71429 6ZM2.78571 6.8C3.21965 6.8 3.57143 6.44183 3.57143 6C3.57143 5.55817 3.21965 5.2 2.78571 5.2C2.35178 5.2 2 5.55817 2 6C2 6.44183 2.35178 6.8 2.78571 6.8ZM5.14286 7.6C5.14286 8.04183 4.79108 8.4 4.35714 8.4C3.9232 8.4 3.57143 8.04183 3.57143 7.6C3.57143 7.15817 3.9232 6.8 4.35714 6.8C4.79108 6.8 5.14286 7.15817 5.14286 7.6ZM7.5 8.4C7.93394 8.4 8.28571 8.04183 8.28571 7.6C8.28571 7.15817 7.93394 6.8 7.5 6.8C7.06606 6.8 6.71429 7.15817 6.71429 7.6C6.71429 8.04183 7.06606 8.4 7.5 8.4ZM11.4286 7.6C11.4286 8.04183 11.0768 8.4 10.6429 8.4C10.2089 8.4 9.85714 8.04183 9.85714 7.6C9.85714 7.15817 10.2089 6.8 10.6429 6.8C11.0768 6.8 11.4286 7.15817 11.4286 7.6ZM12.2143 10C12.6482 10 13 9.64183 13 9.2C13 8.75817 12.6482 8.4 12.2143 8.4C11.7803 8.4 11.4286 8.75817 11.4286 9.2C11.4286 9.64183 11.7803 10 12.2143 10ZM9.85714 9.2C9.85714 9.64183 9.50537 10 9.07143 10C8.63749 10 8.28571 9.64183 8.28571 9.2C8.28571 8.75817 8.63749 8.4 9.07143 8.4C9.50537 8.4 9.85714 8.75817 9.85714 9.2ZM5.92857 10C6.36251 10 6.71429 9.64183 6.71429 9.2C6.71429 8.75817 6.36251 8.4 5.92857 8.4C5.49463 8.4 5.14286 8.75817 5.14286 9.2C5.14286 9.64183 5.49463 10 5.92857 10ZM3.57143 9.2C3.57143 9.64183 3.21965 10 2.78571 10C2.35178 10 2 9.64183 2 9.2C2 8.75817 2.35178 8.4 2.78571 8.4C3.21965 8.4 3.57143 8.75817 3.57143 9.2Z" fill="url(#paint0_linear)"/>
</g>
</g>
<defs>
<filter id="filter0_d" x="2" y="2" width="11" height="9" filterUnits="userSpaceOnUse" color-interpolation-filters="sRGB">
<feFlood flood-opacity="0" result="BackgroundImageFix"/>
<feColorMatrix in="SourceAlpha" type="matrix" values="0 0 0 0 0 0 0 0 0 0 0 0 0 0 0 0 0 0 127 0"/>
<feOffset dy="1"/>
<feColorMatrix type="matrix" values="0 0 0 0 0 0 0 0 0 0 0 0 0 0 0 0 0 0 0.06 0"/>
<feBlend mode="normal" in2="BackgroundImageFix" result="effect1_dropShadow"/>
<feBlend mode="normal" in="SourceGraphic" in2="effect1_dropShadow" result="shape"/>
</filter>
<linearGradient id="paint0_linear" x1="2" y1="2" x2="2" y2="10" gradientUnits="userSpaceOnUse">
<stop stop-color="white"/>
<stop offset="1" stop-color="#F0F0F0"/>
</linearGradient>
</defs>
</svg>
