<svg width="112" height="28" viewBox="0 0 112 28" fill="none" xmlns="http://www.w3.org/2000/svg">
<path d="M44.0202 9.10009C43.4602 9.10009 43.0002 9.24675 42.6402 9.54009C42.2935 9.82009 42.1202 10.2134 42.1202 10.7201C42.1202 11.2268 42.2469 11.6268 42.5002 11.9201C42.7669 12.2001 43.1135 12.4201 43.5402 12.5801C43.9669 12.7268 44.4335 12.8601 44.9402 12.9801C45.4469 13.1001 45.9535 13.2468 46.4602 13.4201C46.9669 13.5934 47.4335 13.8068 47.8602 14.0601C48.2869 14.3134 48.6269 14.6868 48.8802 15.1801C49.1469 15.6601 49.2802 16.2468 49.2802 16.9401C49.2802 18.0868 48.8202 19.0734 47.9002 19.9001C46.9935 20.7268 45.7802 21.1401 44.2602 21.1401C42.7535 21.1401 41.5335 20.7868 40.6002 20.0801C39.6669 19.3601 39.2002 18.3534 39.2002 17.0601H42.2002C42.3069 18.2868 43.0069 18.9001 44.3002 18.9001C44.9402 18.9001 45.4469 18.7334 45.8202 18.4001C46.1935 18.0668 46.3802 17.6268 46.3802 17.0801C46.3802 16.5201 46.1335 16.0801 45.6402 15.7601C45.1469 15.4401 44.5469 15.2001 43.8402 15.0401C43.1469 14.8801 42.4469 14.6868 41.7402 14.4601C41.0335 14.2334 40.4335 13.8401 39.9402 13.2801C39.4469 12.7068 39.2002 11.9534 39.2002 11.0201C39.2002 9.75342 39.6602 8.74009 40.5802 7.98009C41.5002 7.22009 42.6802 6.84009 44.1202 6.84009C45.5735 6.84009 46.7402 7.17342 47.6202 7.84009C48.5002 8.49342 48.9802 9.49342 49.0602 10.8401H45.9802C45.9269 10.3068 45.7269 9.88675 45.3802 9.58009C45.0335 9.26009 44.5802 9.10009 44.0202 9.10009Z" fill="#44444F"/>
<path d="M59.0407 17.8601C59.6273 17.2734 59.9207 16.4734 59.9207 15.4601C59.9207 14.4468 59.6273 13.6534 59.0407 13.0801C58.454 12.4934 57.7673 12.2001 56.9807 12.2001C56.194 12.2001 55.5073 12.4868 54.9207 13.0601C54.3473 13.6334 54.0607 14.4268 54.0607 15.4401C54.0607 16.4534 54.354 17.2534 54.9407 17.8401C55.5273 18.4268 56.2073 18.7201 56.9807 18.7201C57.7673 18.7201 58.454 18.4334 59.0407 17.8601ZM52.6807 19.5601C51.694 18.4801 51.2007 17.1068 51.2007 15.4401C51.2007 13.7734 51.694 12.4134 52.6807 11.3601C53.6673 10.2934 54.9207 9.76009 56.4407 9.76009C57.9607 9.76009 59.1207 10.3868 59.9207 11.6401V9.92009H62.7207V26.2801H59.9207V19.1401C59.0807 20.4868 57.914 21.1601 56.4207 21.1601C54.9273 21.1601 53.6807 20.6268 52.6807 19.5601Z" fill="#44444F"/>
<path d="M73.3511 9.92009H76.1711V21.0001H73.3511V19.3201C72.6445 20.5334 71.4911 21.1401 69.8911 21.1401C68.6378 21.1401 67.6111 20.7268 66.8111 19.9001C66.0111 19.0601 65.6111 17.9001 65.6111 16.4201V9.92009H68.4111V16.0201C68.4111 16.8868 68.6311 17.5534 69.0711 18.0201C69.5111 18.4868 70.1111 18.7201 70.8711 18.7201C71.6311 18.7201 72.2311 18.4868 72.6711 18.0201C73.1245 17.5534 73.3511 16.8868 73.3511 16.0201V9.92009Z" fill="#44444F"/>
<path d="M86.2282 17.8601C86.8148 17.2734 87.1082 16.4734 87.1082 15.4601C87.1082 14.4468 86.8148 13.6534 86.2282 13.0801C85.6415 12.4934 84.9548 12.2001 84.1682 12.2001C83.3815 12.2001 82.6948 12.4868 82.1082 13.0601C81.5348 13.6334 81.2482 14.4268 81.2482 15.4401C81.2482 16.4534 81.5415 17.2534 82.1282 17.8401C82.7148 18.4268 83.3948 18.7201 84.1682 18.7201C84.9548 18.7201 85.6415 18.4334 86.2282 17.8601ZM79.8682 19.5601C78.8815 18.4801 78.3882 17.1068 78.3882 15.4401C78.3882 13.7734 78.8815 12.4134 79.8682 11.3601C80.8548 10.2934 82.1082 9.76009 83.6282 9.76009C85.1482 9.76009 86.3082 10.3868 87.1082 11.6401V9.92009H89.9082V21.0001H87.1082V19.1401C86.2682 20.4868 85.1015 21.1601 83.6082 21.1601C82.1148 21.1601 80.8682 20.6268 79.8682 19.5601Z" fill="#44444F"/>
<path d="M95.7186 9.92009V11.8801C96.4653 10.4668 97.5453 9.76009 98.9586 9.76009V12.6401H98.2586C97.4186 12.6401 96.7853 12.8534 96.3586 13.2801C95.932 13.6934 95.7186 14.4134 95.7186 15.4401V21.0001H92.8986V9.92009H95.7186Z" fill="#44444F"/>
<path d="M105.645 21.1601C104.032 21.1601 102.718 20.6401 101.705 19.6001C100.692 18.5468 100.185 17.1601 100.185 15.4401C100.185 13.7201 100.692 12.3468 101.705 11.3201C102.732 10.2801 104.052 9.76009 105.665 9.76009C107.292 9.76009 108.625 10.2668 109.665 11.2801C110.705 12.2801 111.225 13.6201 111.225 15.3001C111.225 15.6868 111.198 16.0468 111.145 16.3801H103.065C103.132 17.1001 103.398 17.6801 103.865 18.1201C104.332 18.5601 104.925 18.7801 105.645 18.7801C106.618 18.7801 107.338 18.3801 107.805 17.5801H110.845C110.525 18.6334 109.905 19.4934 108.985 20.1601C108.065 20.8268 106.952 21.1601 105.645 21.1601ZM108.305 14.5601C108.265 13.8268 107.992 13.2401 107.485 12.8001C106.992 12.3601 106.392 12.1401 105.685 12.1401C104.978 12.1401 104.385 12.3601 103.905 12.8001C103.438 13.2401 103.158 13.8268 103.065 14.5601H108.305Z" fill="#44444F"/>
<path fill-rule="evenodd" clip-rule="evenodd" d="M18 4H10C6.68629 4 4 6.68629 4 10V18C4 21.3137 6.68629 24 10 24H18C21.3137 24 24 21.3137 24 18V10C24 6.68629 21.3137 4 18 4ZM10 0C4.47715 0 0 4.47715 0 10V18C0 23.5228 4.47715 28 10 28H18C23.5228 28 28 23.5228 28 18V10C28 4.47715 23.5228 0 18 0H10Z" fill="#0073FF"/>
<path fill-rule="evenodd" clip-rule="evenodd" d="M15 9C15 11.2091 16.7909 13 19 13C21.2091 13 23 11.2091 23 9C23 6.79086 21.2091 5 19 5C16.7909 5 15 6.79086 15 9ZM19 1C14.5817 1 11 4.58172 11 9C11 13.4183 14.5817 17 19 17C23.4183 17 27 13.4183 27 9C27 4.58172 23.4183 1 19 1Z" fill="#0073FF"/>
</svg>
