<svg width="230" height="135" viewBox="0 0 230 135" fill="none" xmlns="http://www.w3.org/2000/svg">
<path fill-rule="evenodd" clip-rule="evenodd" d="M198.15 20.0934C198.57 20.0934 198.911 19.7522 198.911 19.3314C198.911 18.9105 198.57 18.5693 198.15 18.5693C197.73 18.5693 197.389 18.9105 197.389 19.3314C197.389 19.7522 197.73 20.0934 198.15 20.0934ZM198.911 22.3795C198.911 22.8004 198.57 23.1416 198.15 23.1416C197.73 23.1416 197.389 22.8004 197.389 22.3795C197.389 21.9587 197.73 21.6175 198.15 21.6175C198.57 21.6175 198.911 21.9587 198.911 22.3795ZM198.15 26.1897C198.57 26.1897 198.911 25.8486 198.911 25.4277C198.911 25.0068 198.57 24.6657 198.15 24.6657C197.73 24.6657 197.389 25.0068 197.389 25.4277C197.389 25.8486 197.73 26.1897 198.15 26.1897ZM198.911 28.4759C198.911 28.8967 198.57 29.2379 198.15 29.2379C197.73 29.2379 197.389 28.8967 197.389 28.4759C197.389 28.055 197.73 27.7138 198.15 27.7138C198.57 27.7138 198.911 28.055 198.911 28.4759ZM198.15 32.2861C198.57 32.2861 198.911 31.9449 198.911 31.524C198.911 31.1032 198.57 30.762 198.15 30.762C197.73 30.762 197.389 31.1032 197.389 31.524C197.389 31.9449 197.73 32.2861 198.15 32.2861ZM198.15 35.3342C198.57 35.3342 198.911 34.993 198.911 34.5722C198.911 34.1513 198.57 33.8101 198.15 33.8101C197.73 33.8101 197.389 34.1513 197.389 34.5722C197.389 34.993 197.73 35.3342 198.15 35.3342ZM201.954 34.5722C201.954 34.993 201.613 35.3342 201.193 35.3342C200.773 35.3342 200.432 34.993 200.432 34.5722C200.432 34.1513 200.773 33.8101 201.193 33.8101C201.613 33.8101 201.954 34.1513 201.954 34.5722ZM201.193 32.2861C201.613 32.2861 201.954 31.9449 201.954 31.524C201.954 31.1032 201.613 30.762 201.193 30.762C200.773 30.762 200.432 31.1032 200.432 31.524C200.432 31.9449 200.773 32.2861 201.193 32.2861ZM201.954 28.4759C201.954 28.8967 201.613 29.2379 201.193 29.2379C200.773 29.2379 200.432 28.8967 200.432 28.4759C200.432 28.055 200.773 27.7138 201.193 27.7138C201.613 27.7138 201.954 28.055 201.954 28.4759ZM201.193 26.1897C201.613 26.1897 201.954 25.8486 201.954 25.4277C201.954 25.0068 201.613 24.6657 201.193 24.6657C200.773 24.6657 200.432 25.0068 200.432 25.4277C200.432 25.8486 200.773 26.1897 201.193 26.1897ZM201.954 22.3795C201.954 22.8004 201.613 23.1416 201.193 23.1416C200.773 23.1416 200.432 22.8004 200.432 22.3795C200.432 21.9587 200.773 21.6175 201.193 21.6175C201.613 21.6175 201.954 21.9587 201.954 22.3795ZM201.193 20.0934C201.613 20.0934 201.954 19.7522 201.954 19.3314C201.954 18.9105 201.613 18.5693 201.193 18.5693C200.773 18.5693 200.432 18.9105 200.432 19.3314C200.432 19.7522 200.773 20.0934 201.193 20.0934ZM204.996 34.5722C204.996 34.993 204.656 35.3342 204.236 35.3342C203.816 35.3342 203.475 34.993 203.475 34.5722C203.475 34.1513 203.816 33.8101 204.236 33.8101C204.656 33.8101 204.996 34.1513 204.996 34.5722ZM204.236 32.2861C204.656 32.2861 204.996 31.9449 204.996 31.524C204.996 31.1032 204.656 30.762 204.236 30.762C203.816 30.762 203.475 31.1032 203.475 31.524C203.475 31.9449 203.816 32.2861 204.236 32.2861ZM204.996 28.4759C204.996 28.8967 204.656 29.2379 204.236 29.2379C203.816 29.2379 203.475 28.8967 203.475 28.4759C203.475 28.055 203.816 27.7138 204.236 27.7138C204.656 27.7138 204.996 28.055 204.996 28.4759ZM204.236 26.1897C204.656 26.1897 204.996 25.8486 204.996 25.4277C204.996 25.0068 204.656 24.6657 204.236 24.6657C203.816 24.6657 203.475 25.0068 203.475 25.4277C203.475 25.8486 203.816 26.1897 204.236 26.1897ZM204.996 22.3795C204.996 22.8004 204.656 23.1416 204.236 23.1416C203.816 23.1416 203.475 22.8004 203.475 22.3795C203.475 21.9587 203.816 21.6175 204.236 21.6175C204.656 21.6175 204.996 21.9587 204.996 22.3795ZM204.236 20.0934C204.656 20.0934 204.996 19.7522 204.996 19.3314C204.996 18.9105 204.656 18.5693 204.236 18.5693C203.816 18.5693 203.475 18.9105 203.475 19.3314C203.475 19.7522 203.816 20.0934 204.236 20.0934ZM208.039 34.5722C208.039 34.993 207.699 35.3342 207.279 35.3342C206.858 35.3342 206.518 34.993 206.518 34.5722C206.518 34.1513 206.858 33.8101 207.279 33.8101C207.699 33.8101 208.039 34.1513 208.039 34.5722ZM207.279 32.2861C207.699 32.2861 208.039 31.9449 208.039 31.524C208.039 31.1032 207.699 30.762 207.279 30.762C206.858 30.762 206.518 31.1032 206.518 31.524C206.518 31.9449 206.858 32.2861 207.279 32.2861ZM208.039 28.4759C208.039 28.8967 207.699 29.2379 207.279 29.2379C206.858 29.2379 206.518 28.8967 206.518 28.4759C206.518 28.055 206.858 27.7138 207.279 27.7138C207.699 27.7138 208.039 28.055 208.039 28.4759ZM207.279 26.1897C207.699 26.1897 208.039 25.8486 208.039 25.4277C208.039 25.0068 207.699 24.6657 207.279 24.6657C206.858 24.6657 206.518 25.0068 206.518 25.4277C206.518 25.8486 206.858 26.1897 207.279 26.1897ZM208.039 22.3795C208.039 22.8004 207.699 23.1416 207.279 23.1416C206.858 23.1416 206.518 22.8004 206.518 22.3795C206.518 21.9587 206.858 21.6175 207.279 21.6175C207.699 21.6175 208.039 21.9587 208.039 22.3795ZM207.279 20.0934C207.699 20.0934 208.039 19.7522 208.039 19.3314C208.039 18.9105 207.699 18.5693 207.279 18.5693C206.858 18.5693 206.518 18.9105 206.518 19.3314C206.518 19.7522 206.858 20.0934 207.279 20.0934ZM211.082 34.5722C211.082 34.993 210.742 35.3342 210.321 35.3342C209.901 35.3342 209.561 34.993 209.561 34.5722C209.561 34.1513 209.901 33.8101 210.321 33.8101C210.742 33.8101 211.082 34.1513 211.082 34.5722ZM210.321 32.2861C210.742 32.2861 211.082 31.9449 211.082 31.524C211.082 31.1032 210.742 30.762 210.321 30.762C209.901 30.762 209.561 31.1032 209.561 31.524C209.561 31.9449 209.901 32.2861 210.321 32.2861ZM211.082 28.4759C211.082 28.8967 210.742 29.2379 210.321 29.2379C209.901 29.2379 209.561 28.8967 209.561 28.4759C209.561 28.055 209.901 27.7138 210.321 27.7138C210.742 27.7138 211.082 28.055 211.082 28.4759ZM210.321 26.1897C210.742 26.1897 211.082 25.8486 211.082 25.4277C211.082 25.0068 210.742 24.6657 210.321 24.6657C209.901 24.6657 209.561 25.0068 209.561 25.4277C209.561 25.8486 209.901 26.1897 210.321 26.1897ZM211.082 22.3795C211.082 22.8004 210.742 23.1416 210.321 23.1416C209.901 23.1416 209.561 22.8004 209.561 22.3795C209.561 21.9587 209.901 21.6175 210.321 21.6175C210.742 21.6175 211.082 21.9587 211.082 22.3795ZM210.321 20.0934C210.742 20.0934 211.082 19.7522 211.082 19.3314C211.082 18.9105 210.742 18.5693 210.321 18.5693C209.901 18.5693 209.561 18.9105 209.561 19.3314C209.561 19.7522 209.901 20.0934 210.321 20.0934ZM214.125 34.5722C214.125 34.993 213.784 35.3342 213.364 35.3342C212.944 35.3342 212.604 34.993 212.604 34.5722C212.604 34.1513 212.944 33.8101 213.364 33.8101C213.784 33.8101 214.125 34.1513 214.125 34.5722ZM213.364 32.2861C213.784 32.2861 214.125 31.9449 214.125 31.524C214.125 31.1032 213.784 30.762 213.364 30.762C212.944 30.762 212.604 31.1032 212.604 31.524C212.604 31.9449 212.944 32.2861 213.364 32.2861ZM214.125 28.4759C214.125 28.8967 213.784 29.2379 213.364 29.2379C212.944 29.2379 212.604 28.8967 212.604 28.4759C212.604 28.055 212.944 27.7138 213.364 27.7138C213.784 27.7138 214.125 28.055 214.125 28.4759ZM213.364 26.1897C213.784 26.1897 214.125 25.8486 214.125 25.4277C214.125 25.0068 213.784 24.6657 213.364 24.6657C212.944 24.6657 212.604 25.0068 212.604 25.4277C212.604 25.8486 212.944 26.1897 213.364 26.1897ZM214.125 22.3795C214.125 22.8004 213.784 23.1416 213.364 23.1416C212.944 23.1416 212.604 22.8004 212.604 22.3795C212.604 21.9587 212.944 21.6175 213.364 21.6175C213.784 21.6175 214.125 21.9587 214.125 22.3795ZM213.364 20.0934C213.784 20.0934 214.125 19.7522 214.125 19.3314C214.125 18.9105 213.784 18.5693 213.364 18.5693C212.944 18.5693 212.604 18.9105 212.604 19.3314C212.604 19.7522 212.944 20.0934 213.364 20.0934Z" fill="url(#paint0_linear)"/>
<path d="M196.872 60.2274C206.21 60.2274 213.781 52.6432 213.781 43.2876C213.781 33.932 206.21 26.3478 196.872 26.3478C187.533 26.3478 179.963 33.932 179.963 43.2876C179.963 52.6432 187.533 60.2274 196.872 60.2274Z" fill="url(#paint1_linear)"/>
<path d="M118.192 3.01233C127.721 3.01233 135.446 10.7513 135.446 20.2979V28.4221H95.0713C85.542 28.4221 77.817 20.6831 77.817 11.1365V3.01233H118.192Z" fill="url(#paint2_linear)"/>
<path d="M134.239 134.728C134.239 114.299 150.714 97.7371 171.038 97.7371C191.362 97.7371 207.838 114.299 207.838 134.728H134.239Z" fill="url(#paint3_linear)"/>
<path d="M34.3361 112.287C24.6252 116.681 16.8615 116.625 11.0451 112.12C5.22861 107.615 1.54693 101.2 0 92.8748C18.1812 87.4052 29.6266 93.8759 34.3361 112.287Z" fill="url(#paint4_linear)"/>
<path d="M19.9975 104.387C17.9015 103.196 15.571 101.876 13.0059 100.427L7.05561 101.854C6.95005 101.88 6.84406 101.814 6.81887 101.708C6.79369 101.602 6.85884 101.495 6.9644 101.47L12.501 100.142C9.29954 98.3343 5.74121 96.3308 1.82609 94.1314C1.73135 94.0782 1.69746 93.9578 1.7504 93.8626C1.80333 93.7673 1.92304 93.7333 2.01778 93.7865C9.16635 97.8023 15.1254 101.165 19.8953 103.875L19.2798 97.8107C19.2532 97.5486 19.6442 97.5085 19.6708 97.7706L20.3145 104.113C26.6739 107.728 30.8559 110.147 32.8612 111.372C32.9539 111.429 32.9835 111.55 32.9271 111.643C32.8708 111.737 32.7499 111.766 32.6572 111.71C31.4573 110.977 29.4749 109.815 26.7102 108.223C26.7029 108.227 26.6953 108.23 26.6875 108.233L21.2497 110.229C21.1478 110.267 21.0349 110.214 20.9977 110.112C20.9605 110.009 21.013 109.896 21.1149 109.858L26.2657 107.967C24.4985 106.951 22.4301 105.77 20.0603 104.423C20.0375 104.415 20.016 104.403 19.9975 104.387Z" fill="white"/>
<path d="M32.1615 117.788C22.1793 114 16.7138 108.456 15.765 101.156C14.8161 93.8567 16.7271 86.7247 21.4979 79.7601C38.2442 88.7963 41.7987 101.472 32.1615 117.788Z" fill="url(#paint5_linear)"/>
<path d="M28.0493 102.111C29.9991 109.187 31.2516 113.87 31.8071 116.161C31.8328 116.267 31.7684 116.374 31.6632 116.4C31.558 116.426 31.4519 116.361 31.4262 116.255C31.0939 114.884 30.5109 112.653 29.6775 109.563C29.6697 109.56 29.662 109.557 29.6544 109.554L24.4176 107.1C24.3194 107.054 24.2769 106.936 24.3225 106.838C24.3682 106.739 24.4847 106.696 24.5829 106.742L29.5434 109.066C29.0097 107.091 28.3795 104.786 27.6529 102.149C27.6421 102.128 27.6353 102.104 27.6336 102.079C26.9909 99.7474 26.273 97.1577 25.48 94.3102L20.281 91.0899C20.1887 91.0328 20.1599 90.9111 20.2166 90.8182C20.2733 90.7253 20.394 90.6962 20.4863 90.7534L25.3239 93.7498C24.3337 90.1963 23.2293 86.2506 22.0106 81.9129C21.9811 81.8079 22.0417 81.6987 22.1459 81.669C22.25 81.6393 22.3584 81.7003 22.3879 81.8053C24.613 89.7255 26.4573 96.3385 27.9207 101.645L31.7415 96.92C31.9066 96.7158 32.2105 96.9654 32.0454 97.1695L28.0493 102.111Z" fill="white"/>
<path d="M42.1005 124.627C33.8571 131.402 26.3492 133.371 19.577 130.532C12.8047 127.694 7.60188 122.454 3.96851 114.812C20.111 104.79 32.8217 108.062 42.1005 124.627Z" fill="url(#paint6_linear)"/>
<path d="M26.4283 120.228C33.4966 122.06 38.1556 123.305 40.4062 123.964C40.5103 123.995 40.5701 124.104 40.5397 124.208C40.5093 124.313 40.4003 124.373 40.2962 124.342C38.9495 123.948 36.737 123.343 33.659 122.527C33.6529 122.533 33.6464 122.538 33.6396 122.543L28.9044 125.877C28.8156 125.939 28.6932 125.918 28.6309 125.829C28.5686 125.74 28.59 125.617 28.6788 125.554L33.1641 122.396C31.197 121.876 28.8965 121.275 26.2626 120.592C26.2386 120.591 26.2148 120.585 26.1927 120.574C23.8632 119.971 21.2741 119.304 18.4254 118.574L13.0492 121.493C12.9538 121.545 12.8346 121.509 12.783 121.414C12.7314 121.318 12.7669 121.198 12.8623 121.147L17.8648 118.431C14.3096 117.521 10.3595 116.514 6.01471 115.412C5.90958 115.385 5.8459 115.278 5.8725 115.172C5.89909 115.067 6.00587 115.003 6.11101 115.03C14.0442 117.043 20.6612 118.735 25.9624 120.108L23.8083 114.427C23.7152 114.181 24.0823 114.041 24.1753 114.287L26.4283 120.228Z" fill="white"/>
<path d="M32.9557 35.6819H131.305C133.211 35.6819 134.756 37.2297 134.756 39.1391V131.341C134.756 133.251 133.211 134.798 131.305 134.798H32.9557C31.0499 134.798 29.5049 133.251 29.5049 131.341V39.1391C29.5049 37.2297 31.0499 35.6819 32.9557 35.6819Z" fill="url(#paint7_linear)"/>
<path fill-rule="evenodd" clip-rule="evenodd" d="M36.4066 58.326H53.6609V75.6115H36.4066V58.326ZM36.4066 84.2543H53.6609V101.54H36.4066V84.2543ZM53.6609 110.183H36.4066V127.468H53.6609V110.183ZM85.5814 58.326H102.836V75.6115H85.5814V58.326ZM102.836 84.2543H85.5814V101.54H102.836V84.2543ZM85.5814 110.183H102.836V127.468H85.5814V110.183ZM78.3346 58.326H61.0803V75.6115H78.3346V58.326ZM61.0803 110.183H78.3346V127.468H61.0803V110.183ZM127.509 58.326H110.255V75.6115H127.509V58.326ZM110.255 84.2543H127.509V101.54H110.255V84.2543ZM127.509 110.183H110.255V127.468H127.509V110.183Z" fill="#77D0E6"/>
<path d="M61.0803 84.2543H78.3346V101.54H61.0803V84.2543Z" fill="url(#paint8_linear)"/>
<path d="M32.9557 35.6819H131.305C133.211 35.6819 134.756 37.2297 134.756 39.1391V51.5846H29.5049V39.1391C29.5049 37.2297 31.0499 35.6819 32.9557 35.6819Z" fill="url(#paint9_linear)"/>
<path d="M74.4944 88.6618L75.7261 89.8723L67.993 97.7689L63.7538 93.5933L64.9635 92.3608L67.971 95.3231L74.4944 88.6618Z" fill="white"/>
<path d="M41.5829 63.5117C58.1638 63.5117 71.6054 50.0458 71.6054 33.4349C71.6054 16.8239 58.1638 3.35803 41.5829 3.35803C25.0019 3.35803 11.5604 16.8239 11.5604 33.4349C11.5604 50.0458 25.0019 63.5117 41.5829 63.5117Z" fill="url(#paint10_linear)"/>
<path d="M41.6691 57.9803C55.1531 57.9803 66.084 47.0296 66.084 33.5213C66.084 20.0129 55.1531 9.06226 41.6691 9.06226C28.1852 9.06226 17.2543 20.0129 17.2543 33.5213C17.2543 47.0296 28.1852 57.9803 41.6691 57.9803Z" fill="url(#paint11_linear)"/>
<path d="M20.2089 34.0666C20.2089 20.7733 30.9658 9.99701 44.235 9.99701C46.7404 9.99701 49.1562 10.3812 51.4269 11.0939C60.0541 14.8664 66.084 23.4884 66.084 33.5213C66.084 47.0296 55.1531 57.9803 41.6691 57.9803C41.606 57.9803 41.543 57.9801 41.4801 57.9796C29.5083 56.6105 20.2089 46.4265 20.2089 34.0666Z" fill="url(#paint12_linear)"/>
<path d="M52.5788 23.2587C53.2335 22.5651 54.3256 22.5345 55.018 23.1905C55.7103 23.8464 55.7408 24.9405 55.0861 25.6341L40.4756 41.1118C39.9432 41.6759 39.1006 41.8151 38.4155 41.4523L28.6984 36.3053C27.8559 35.8591 27.5341 34.8132 27.9795 33.9693C28.4249 33.1253 29.4689 32.8029 30.3113 33.2491L38.8693 37.782L52.5788 23.2587Z" fill="url(#paint13_linear)"/>
<path d="M116.92 67.781L208.918 43.0855C211.128 42.4925 213.398 43.8059 213.99 46.019L229.71 104.791C230.302 107.004 228.991 109.279 226.781 109.872L134.783 134.567C132.574 135.16 130.303 133.847 129.711 131.634L113.992 72.8619C113.4 70.6488 114.711 68.374 116.92 67.781Z" fill="url(#paint14_linear)"/>
<path d="M171.136 86.1549L226.781 109.872L134.783 134.567L171.136 86.1549Z" fill="url(#paint15_linear)"/>
<path d="M116.92 67.781L208.919 43.0855L173.734 95.8682L116.92 67.781Z" fill="#52D7FD"/>
<path d="M154.015 57.8234L151.13 47.0361L151.727 42.8928L163.83 47.2689L169.526 53.6598L154.015 57.8234Z" fill="#121958"/>
<path d="M143.669 29.3102L148.218 31.8474L147.74 35.8445L152.247 39.5438L151.087 42.573L145.198 38.8996C143.375 37.7627 142.442 35.6166 142.853 33.5053L143.669 29.3102Z" fill="#E9A17C"/>
<path d="M149.408 15.7286L151.818 24.7358L147.478 33.0511L142.743 29.5075L145.606 18.8209L149.408 15.7286Z" fill="#D64F53"/>
<path d="M178.614 69.5421L178.675 66.7166L182.531 67.086L181.948 70.2241L178.614 69.5421Z" fill="#E9A17C"/>
<path d="M162.798 12.9046L190.443 5.48386L191.329 3.42688L191.783 5.1242L195.165 4.21636C195.319 6.10351 194.973 7.39426 194.125 8.08862C193.278 8.78297 191.885 9.15675 189.948 9.20995L164.622 19.7226L162.798 12.9046Z" fill="#E9A17C"/>
<path d="M154.708 15.5116L149.566 15.9622L149.394 13.9913C148.057 12.2864 147.497 9.80511 147.714 6.54738C147.931 3.28965 150.392 2.20897 155.097 3.30533C155.384 5.1492 155.971 6.27802 156.86 6.69178C158.192 7.31242 157.895 8.02694 157.469 8.27896C157.043 8.53097 156.786 8.91844 157.013 9.9823C157.241 11.0462 156.604 11.3165 155.621 11.8308C154.966 12.1737 154.661 13.4006 154.708 15.5116Z" fill="#E9A17C"/>
<path d="M152.824 44.0894L167.611 42.5408L183.518 43.7927C183.84 43.818 184.158 43.8744 184.468 43.961C187.131 44.7036 188.688 47.4677 187.947 50.1347L183.009 67.9003L178.05 67.5048L179.288 51.1649L165.08 54.9788C159.032 56.6023 152.815 53.0066 151.194 46.9476L152.824 44.0894Z" fill="url(#paint16_linear)"/>
<path d="M178.203 69.2258L182.108 69.568L184.509 70.6119C185.717 71.1634 186.751 71.4359 186.63 72.8213C186.599 73.1771 186.338 73.445 186.048 73.4196L178.724 72.7777C178.269 72.7377 177.932 72.3353 177.972 71.8788L178.203 69.2258Z" fill="#211D41"/>
<path d="M149.321 13.9559C148.842 13.8913 148.524 13.6735 148.369 13.3025C148.136 12.7461 148.411 12.3995 146.999 11.4709C145.587 10.5422 144.312 9.17839 144.405 6.27051C144.499 3.36264 146.089 2.76023 147.695 2.24234C149.3 1.72445 150.008 1.76224 152.089 0.505528C154.17 -0.751184 155.639 0.454278 155.662 2.80707C155.685 5.15985 152.283 5.85583 151.67 5.90958C151.056 5.96333 151.555 6.79006 151.826 7.69575C152.096 8.60144 151.554 8.93512 151.31 8.85435C151.066 8.77357 150.575 8.72643 150.276 9.32817C149.977 9.9299 150.566 10.6437 150.903 10.6142C151.24 10.5847 151.653 10.3903 151.753 10.7594C151.853 11.1284 151.917 12.32 151.673 13.0129C151.511 13.4748 150.726 13.7892 149.321 13.9559Z" fill="url(#paint17_linear)"/>
<path d="M165.166 11.0922L167.35 19.2568L161.551 20.8135L167.399 42.6804L151.131 47.0472L144.975 24.0282C143.939 20.1553 146.233 16.1744 150.099 15.1367C150.83 14.9403 151.562 14.7439 152.294 14.5475C153.801 14.1428 158.092 12.991 165.166 11.0922Z" fill="url(#paint18_linear)"/>
<path fill-rule="evenodd" clip-rule="evenodd" d="M159.224 46.2064L159.342 46.0804L160.222 46.9084L160.104 47.0344L159.224 46.2064ZM161.362 48.2173L161.48 48.0912L161.815 48.4058C161.995 48.5751 162.185 48.7329 162.383 48.8788L162.281 49.0181C162.077 48.8682 161.882 48.7059 161.697 48.5318L161.362 48.2173ZM163.88 49.6857L163.82 49.8478C164.203 49.99 164.6 50.0946 165.004 50.1599L165.031 49.9893C164.638 49.9258 164.253 49.824 163.88 49.6857ZM166.752 50.196L166.732 50.0244L166.77 50.0196L167.93 49.8736L167.951 50.0451L166.792 50.1911L166.752 50.196ZM169.642 49.6579L169.663 49.8294L170.862 49.6785L170.84 49.507L169.642 49.6579ZM172.574 49.4628L172.552 49.2913L173.75 49.1404L173.772 49.3119L172.574 49.4628ZM175.462 48.9247L175.484 49.0962L176.682 48.9453L176.661 48.7737L175.462 48.9247ZM178.394 48.7296L178.373 48.5581L179.571 48.4071L179.593 48.5786L178.394 48.7296ZM181.317 48.358L181.275 48.5258C181.661 48.622 182.012 48.8141 182.299 49.0827L182.416 48.9563C182.108 48.6678 181.732 48.4614 181.317 48.358ZM183.027 50.5432L183.199 50.5251C183.22 50.7296 183.216 50.9372 183.187 51.1447L183.097 51.7585L182.926 51.7335L183.016 51.12C183.044 50.9269 183.047 50.7336 183.027 50.5432ZM182.847 53.4688L182.676 53.4437L182.501 54.6409L182.672 54.666L182.847 53.4688ZM182.251 56.3512L182.422 56.3763L182.246 57.5735L182.076 57.5484L182.251 56.3512ZM181.996 59.2838L181.826 59.2587L181.65 60.4559L181.821 60.481L181.996 59.2838ZM181.4 62.1662L181.571 62.1912L181.396 63.3884L181.225 63.3634L181.4 62.1662ZM181.146 65.0987L180.975 65.0737L180.8 66.2709L180.97 66.2959L181.146 65.0987Z" fill="white"/>
<defs>
<linearGradient id="paint0_linear" x1="197.389" y1="18.5693" x2="197.389" y2="35.3342" gradientUnits="userSpaceOnUse">
<stop stop-color="#FF9485"/>
<stop offset="1" stop-color="#FF676E"/>
</linearGradient>
<linearGradient id="paint1_linear" x1="172.557" y1="28.8089" x2="172.557" y2="77.5256" gradientUnits="userSpaceOnUse">
<stop stop-color="#D0F6FF"/>
<stop offset="1" stop-color="#8BE2F7"/>
</linearGradient>
<linearGradient id="paint2_linear" x1="72.0257" y1="12.473" x2="83.0036" y2="31.5188" gradientUnits="userSpaceOnUse">
<stop stop-color="#CFE49F"/>
<stop offset="1" stop-color="#A9D386"/>
</linearGradient>
<linearGradient id="paint3_linear" x1="118.141" y1="97.7371" x2="118.141" y2="150.909" gradientUnits="userSpaceOnUse">
<stop stop-color="#FFC8C0"/>
<stop offset="1" stop-color="#FF676E"/>
</linearGradient>
<linearGradient id="paint4_linear" x1="-3.4505" y1="100.135" x2="8.77667" y2="113.218" gradientUnits="userSpaceOnUse">
<stop stop-color="#CFE49F"/>
<stop offset="1" stop-color="#A9D386"/>
</linearGradient>
<linearGradient id="paint5_linear" x1="17.1929" y1="87.077" x2="30.6608" y2="100.478" gradientUnits="userSpaceOnUse">
<stop stop-color="#77D791"/>
<stop offset="1" stop-color="#4FA67E"/>
</linearGradient>
<linearGradient id="paint6_linear" x1="-4.86319" y1="125.49" x2="19.843" y2="149.891" gradientUnits="userSpaceOnUse">
<stop stop-color="#6EAE7C"/>
<stop offset="1" stop-color="#0F575D"/>
</linearGradient>
<linearGradient id="paint7_linear" x1="6.4583" y1="42.8822" x2="6.4583" y2="185.405" gradientUnits="userSpaceOnUse">
<stop stop-color="#D0F6FF"/>
<stop offset="1" stop-color="#8BE2F7"/>
</linearGradient>
<linearGradient id="paint8_linear" x1="61.0803" y1="84.2543" x2="61.0803" y2="101.54" gradientUnits="userSpaceOnUse">
<stop stop-color="#FF9485"/>
<stop offset="1" stop-color="#FF676E"/>
</linearGradient>
<linearGradient id="paint9_linear" x1="35.1001" y1="39.6576" x2="36.6664" y2="58.1858" gradientUnits="userSpaceOnUse">
<stop stop-color="#0F1752"/>
<stop offset="1" stop-color="#272884"/>
</linearGradient>
<linearGradient id="paint10_linear" x1="11.5604" y1="3.35803" x2="11.5604" y2="63.5117" gradientUnits="userSpaceOnUse">
<stop stop-color="#FF9485"/>
<stop offset="1" stop-color="#FF676E"/>
</linearGradient>
<linearGradient id="paint11_linear" x1="6.56217" y1="12.6159" x2="6.56217" y2="82.9568" gradientUnits="userSpaceOnUse">
<stop stop-color="#D0F6FF"/>
<stop offset="1" stop-color="#8BE2F7"/>
</linearGradient>
<linearGradient id="paint12_linear" x1="22.0787" y1="9.99701" x2="22.0787" y2="54.0688" gradientUnits="userSpaceOnUse">
<stop stop-color="#EAFCFF"/>
<stop offset="1" stop-color="white"/>
</linearGradient>
<linearGradient id="paint13_linear" x1="27.7791" y1="22.7178" x2="27.7791" y2="41.6528" gradientUnits="userSpaceOnUse">
<stop stop-color="#FF9485"/>
<stop offset="1" stop-color="#FF676E"/>
</linearGradient>
<linearGradient id="paint14_linear" x1="113.85" y1="42.9431" x2="113.85" y2="134.71" gradientUnits="userSpaceOnUse">
<stop stop-color="#4DBCFA"/>
<stop offset="1" stop-color="#1486DB"/>
</linearGradient>
<linearGradient id="paint15_linear" x1="148.758" y1="86.1549" x2="148.758" y2="119.859" gradientUnits="userSpaceOnUse">
<stop stop-color="#4DBCFA"/>
<stop offset="1" stop-color="#1486DB"/>
</linearGradient>
<linearGradient id="paint16_linear" x1="137.442" y1="29.1126" x2="137.442" y2="89.8781" gradientUnits="userSpaceOnUse">
<stop stop-color="#1533B6"/>
<stop offset="1" stop-color="#356BE9"/>
</linearGradient>
<linearGradient id="paint17_linear" x1="144.401" y1="0" x2="144.401" y2="13.9559" gradientUnits="userSpaceOnUse">
<stop stop-color="#1D2A78"/>
<stop offset="1" stop-color="#12033B"/>
</linearGradient>
<linearGradient id="paint18_linear" x1="144.726" y1="11.0922" x2="144.726" y2="47.0472" gradientUnits="userSpaceOnUse">
<stop stop-color="#FF9485"/>
<stop offset="1" stop-color="#FF676E"/>
</linearGradient>
</defs>
</svg>
