<svg width="24" height="24" viewBox="0 0 24 24" fill="none" xmlns="http://www.w3.org/2000/svg">
<path fill-rule="evenodd" clip-rule="evenodd" d="M9.35995 11.2802L11.1229 13.0204L14.5528 8.86363C14.9043 8.43764 15.5346 8.37726 15.9606 8.72876C16.3865 9.08026 16.4469 9.71054 16.0954 10.1365L11.9697 15.1365C11.5959 15.5896 10.9139 15.6244 10.4959 15.2118L7.95493 12.7035C7.56188 12.3155 7.55778 11.6824 7.94577 11.2893C8.33376 10.8963 8.96691 10.8922 9.35995 11.2802ZM8.6665 2.66675H15.3332C18.6469 2.66675 21.3332 5.35304 21.3332 8.66675V15.3334C21.3332 18.6471 18.6469 21.3334 15.3332 21.3334H8.6665C5.3528 21.3334 2.6665 18.6471 2.6665 15.3334V8.66675C2.6665 5.35304 5.3528 2.66675 8.6665 2.66675ZM8.6665 4.66675C6.45736 4.66675 4.6665 6.45761 4.6665 8.66675V15.3334C4.6665 17.5426 6.45736 19.3334 8.6665 19.3334H15.3332C17.5423 19.3334 19.3332 17.5426 19.3332 15.3334V8.66675C19.3332 6.45761 17.5423 4.66675 15.3332 4.66675H8.6665Z" fill="#FF9AD5"/>
</svg>
