<svg width="16" height="16" viewBox="0 0 16 16" fill="none" xmlns="http://www.w3.org/2000/svg">
<path d="M15.0782 15.957C15.5634 15.957 15.9569 15.5635 15.9569 15.0782V0.914836C15.9569 0.429461 15.5635 0.0361328 15.0782 0.0361328H0.914836C0.429461 0.0361328 0.0361328 0.429461 0.0361328 0.914836V15.0782C0.0361328 15.5635 0.429399 15.957 0.914836 15.957H15.0782Z" fill="#3C5A99"/>
<path d="M11.0214 15.9572V9.79178H13.0908L13.4007 7.389H11.0214V5.85497C11.0214 5.15931 11.2146 4.68524 12.2121 4.68524L13.4845 4.68469V2.53562C13.2644 2.50634 12.5091 2.44092 11.6304 2.44092C9.79599 2.44092 8.54008 3.56067 8.54008 5.61701V7.389H6.46533V9.79178H8.54008V15.9572H11.0214Z" fill="white"/>
</svg>
