<svg width="37" height="41" viewBox="0 0 37 41" fill="none" xmlns="http://www.w3.org/2000/svg">
<path d="M0.636814 29.6457C0.212271 26.5492 0 23.4704 0 20.4091C0 17.3482 0.212214 14.2697 0.636642 11.1737C0.73113 10.4845 1.08653 9.85963 1.62751 9.43168C4.04382 7.5202 6.56609 5.79487 9.19432 4.25571C11.8233 2.71612 14.5582 1.3628 17.3992 0.195739C18.034 -0.0650389 18.7439 -0.0652536 19.3788 0.195139C22.2044 1.3539 24.9391 2.70742 27.5829 4.25571C30.2264 5.80378 32.749 7.52904 35.1509 9.43148C35.6911 9.85941 36.046 10.4838 36.1404 11.1725C36.565 14.2689 36.7773 17.3478 36.7773 20.4091C36.7773 23.4699 36.5651 26.5484 36.1406 29.6444C36.0461 30.3337 35.6907 30.9585 35.1498 31.3865C32.7334 33.2979 30.2112 35.0233 27.5829 36.5624C24.954 38.102 22.2191 39.4553 19.3781 40.6224C18.7433 40.8832 18.0334 40.8834 17.3984 40.623C14.5728 39.4642 11.8381 38.1107 9.19432 36.5624C6.55087 35.0144 4.02823 33.2891 1.6264 31.3867C1.08614 30.9587 0.731235 30.3343 0.636814 29.6457Z" fill="#50B5FF"/>
<mask id="mask0" mask-type="alpha" maskUnits="userSpaceOnUse" x="0" y="0" width="37" height="41">
<path d="M0.636814 29.6457C0.212271 26.5492 0 23.4704 0 20.4091C0 17.3482 0.212214 14.2697 0.636642 11.1737C0.73113 10.4845 1.08653 9.85963 1.62751 9.43168C4.04382 7.5202 6.56609 5.79487 9.19432 4.25571C11.8233 2.71612 14.5582 1.3628 17.3992 0.195739C18.034 -0.0650389 18.7439 -0.0652536 19.3788 0.195139C22.2044 1.3539 24.9391 2.70742 27.5829 4.25571C30.2264 5.80378 32.749 7.52904 35.1509 9.43148C35.6911 9.85941 36.046 10.4838 36.1404 11.1725C36.565 14.2689 36.7773 17.3478 36.7773 20.4091C36.7773 23.4699 36.5651 26.5484 36.1406 29.6444C36.0461 30.3337 35.6907 30.9585 35.1498 31.3865C32.7334 33.2979 30.2112 35.0233 27.5829 36.5624C24.954 38.102 22.2191 39.4553 19.3781 40.6224C18.7433 40.8832 18.0334 40.8834 17.3984 40.623C14.5728 39.4642 11.8381 38.1107 9.19432 36.5624C6.55087 35.0144 4.02823 33.2891 1.6264 31.3867C1.08614 30.9587 0.731235 30.3343 0.636814 29.6457Z" fill="white"/>
</mask>
<g mask="url(#mask0)">
</g>
<path d="M26.0893 18.9502V23.7771L18.4999 30.262L10.9563 26.8142V18.9502H26.0893Z" fill="#5A5A5A"/>
<path d="M26.0894 18.9502V26.8142L18.5 30.262V18.9502H26.0894Z" fill="#444444"/>
<path d="M28.8325 16.8813V24.4739H27.4609V17.3559L28.8325 16.8813Z" fill="#FFD15C"/>
<path d="M28.8325 16.8813V24.4739H28.1467V17.1186L28.8325 16.8813Z" fill="#F8B64C"/>
<path d="M28.1467 22.3794L26.0894 24.4481V29.6106H30.2041V24.4481L28.1467 22.3794Z" fill="#FFD15C"/>
<path d="M30.2041 24.4481V29.6106H28.1467V22.3794L30.2041 24.4481Z" fill="#F8B64C"/>
<path d="M28.9764 16.2256C29.4996 16.5051 29.4985 17.2556 28.9744 17.5334L18.5 23.0875L8.02555 17.5334C7.50148 17.2556 7.50034 16.5051 8.02355 16.2256L17.4529 11.1887C18.1072 10.8392 18.8927 10.8392 19.547 11.1887L28.9764 16.2256Z" fill="#6E6E6E"/>
<path d="M28.9764 16.2256C29.4996 16.5051 29.4985 17.2556 28.9744 17.5334L18.5 23.0875V11.8649C18.5 11.3055 19.0963 10.9479 19.5898 11.2115L28.9764 16.2256Z" fill="#5A5A5A"/>
<path d="M18.5 14.8125C16.9637 14.8125 15.7568 15.7228 15.7568 16.8812C15.7568 18.0396 16.9637 18.9499 18.5 18.9499C20.0362 18.9499 21.2431 18.0396 21.2431 16.8812C21.2431 15.7228 20.0362 14.8125 18.5 14.8125Z" fill="#FFD15C"/>
<path d="M21.2431 16.8812C21.2431 18.0396 20.0362 18.9499 18.5 18.9499V14.8125C20.0362 14.8125 21.2431 15.7228 21.2431 16.8812Z" fill="#F8B64C"/>
</svg>
