<svg width="167" height="43" viewBox="0 0 167 43" fill="none" xmlns="http://www.w3.org/2000/svg">
<path d="M66.0298 12.15C65.1898 12.15 64.4998 12.37 63.9598 12.81C63.4398 13.23 63.1798 13.82 63.1798 14.58C63.1798 15.34 63.3698 15.94 63.7498 16.38C64.1498 16.8 64.6698 17.13 65.3098 17.37C65.9498 17.59 66.6498 17.79 67.4098 17.97C68.1698 18.15 68.9298 18.37 69.6898 18.63C70.4498 18.89 71.1498 19.21 71.7898 19.59C72.4298 19.97 72.9398 20.53 73.3198 21.27C73.7198 21.99 73.9198 22.87 73.9198 23.91C73.9198 25.63 73.2298 27.11 71.8498 28.35C70.4898 29.59 68.6698 30.21 66.3898 30.21C64.1298 30.21 62.2998 29.68 60.8998 28.62C59.4998 27.54 58.7998 26.03 58.7998 24.09H63.2998C63.4598 25.93 64.5098 26.85 66.4498 26.85C67.4098 26.85 68.1698 26.6 68.7298 26.1C69.2898 25.6 69.5698 24.94 69.5698 24.12C69.5698 23.28 69.1998 22.62 68.4598 22.14C67.7198 21.66 66.8198 21.3 65.7598 21.06C64.7198 20.82 63.6698 20.53 62.6098 20.19C61.5498 19.85 60.6498 19.26 59.9098 18.42C59.1698 17.56 58.7998 16.43 58.7998 15.03C58.7998 13.13 59.4898 11.61 60.8698 10.47C62.2498 9.33001 64.0198 8.76001 66.1798 8.76001C68.3598 8.76001 70.1098 9.26001 71.4298 10.26C72.7498 11.24 73.4698 12.74 73.5898 14.76H68.9698C68.8898 13.96 68.5898 13.33 68.0698 12.87C67.5498 12.39 66.8698 12.15 66.0298 12.15Z" fill="white"/>
<path d="M88.5605 25.29C89.4405 24.41 89.8805 23.21 89.8805 21.69C89.8805 20.17 89.4405 18.98 88.5605 18.12C87.6805 17.24 86.6505 16.8 85.4705 16.8C84.2905 16.8 83.2605 17.23 82.3805 18.09C81.5205 18.95 81.0905 20.14 81.0905 21.66C81.0905 23.18 81.5305 24.38 82.4105 25.26C83.2905 26.14 84.3105 26.58 85.4705 26.58C86.6505 26.58 87.6805 26.15 88.5605 25.29ZM79.0205 27.84C77.5405 26.22 76.8005 24.16 76.8005 21.66C76.8005 19.16 77.5405 17.12 79.0205 15.54C80.5005 13.94 82.3805 13.14 84.6605 13.14C86.9405 13.14 88.6805 14.08 89.8805 15.96V13.38H94.0805V37.92H89.8805V27.21C88.6205 29.23 86.8705 30.24 84.6305 30.24C82.3905 30.24 80.5205 29.44 79.0205 27.84Z" fill="white"/>
<path d="M110.026 13.38H114.256V30H110.026V27.48C108.966 29.3 107.236 30.21 104.836 30.21C102.956 30.21 101.416 29.59 100.216 28.35C99.0162 27.09 98.4162 25.35 98.4162 23.13V13.38H102.616V22.53C102.616 23.83 102.946 24.83 103.606 25.53C104.266 26.23 105.166 26.58 106.306 26.58C107.446 26.58 108.346 26.23 109.006 25.53C109.686 24.83 110.026 23.83 110.026 22.53V13.38Z" fill="white"/>
<path d="M129.342 25.29C130.222 24.41 130.662 23.21 130.662 21.69C130.662 20.17 130.222 18.98 129.342 18.12C128.462 17.24 127.432 16.8 126.252 16.8C125.072 16.8 124.042 17.23 123.162 18.09C122.302 18.95 121.872 20.14 121.872 21.66C121.872 23.18 122.312 24.38 123.192 25.26C124.072 26.14 125.092 26.58 126.252 26.58C127.432 26.58 128.462 26.15 129.342 25.29ZM119.802 27.84C118.322 26.22 117.582 24.16 117.582 21.66C117.582 19.16 118.322 17.12 119.802 15.54C121.282 13.94 123.162 13.14 125.442 13.14C127.722 13.14 129.462 14.08 130.662 15.96V13.38H134.862V30H130.662V27.21C129.402 29.23 127.652 30.24 125.412 30.24C123.172 30.24 121.302 29.44 119.802 27.84Z" fill="white"/>
<path d="M143.577 13.38V16.32C144.697 14.2 146.317 13.14 148.437 13.14V17.46H147.387C146.127 17.46 145.177 17.78 144.537 18.42C143.897 19.04 143.577 20.12 143.577 21.66V30H139.347V13.38H143.577Z" fill="white"/>
<path d="M158.467 30.24C156.047 30.24 154.077 29.46 152.557 27.9C151.037 26.32 150.277 24.24 150.277 21.66C150.277 19.08 151.037 17.02 152.557 15.48C154.097 13.92 156.077 13.14 158.497 13.14C160.937 13.14 162.937 13.9 164.497 15.42C166.057 16.92 166.837 18.93 166.837 21.45C166.837 22.03 166.797 22.57 166.717 23.07H154.597C154.697 24.15 155.097 25.02 155.797 25.68C156.497 26.34 157.387 26.67 158.467 26.67C159.927 26.67 161.007 26.07 161.707 24.87H166.267C165.787 26.45 164.857 27.74 163.477 28.74C162.097 29.74 160.427 30.24 158.467 30.24ZM162.457 20.34C162.397 19.24 161.987 18.36 161.227 17.7C160.487 17.04 159.587 16.71 158.527 16.71C157.467 16.71 156.577 17.04 155.857 17.7C155.157 18.36 154.737 19.24 154.597 20.34H162.457Z" fill="white"/>
<rect x="3" y="3.5" width="36" height="36" rx="12" stroke="white" stroke-width="6"/>
<rect x="19.5" y="5" width="18" height="18" rx="9" stroke="white" stroke-width="6"/>
</svg>
