<svg width="22" height="22" viewBox="0 0 22 22" fill="none" xmlns="http://www.w3.org/2000/svg">
<path fill-rule="evenodd" clip-rule="evenodd" d="M0 11C0 4.92487 4.92487 0 11 0C17.0751 0 22 4.92487 22 11C22 17.0751 17.0751 22 11 22C4.92487 22 0 17.0751 0 11ZM11 2C6.02944 2 2 6.02944 2 11C2 15.9706 6.02944 20 11 20C15.9706 20 20 15.9706 20 11C20 6.02944 15.9706 2 11 2Z" fill="#D5D5DC"/>
<path fill-rule="evenodd" clip-rule="evenodd" d="M11 0C17.0752 0 22 4.92487 22 11C22 17.0751 17.0752 22 11 22C8.17702 22 5.60032 20.9353 3.65332 19.187L4.98952 17.6989C6.58375 19.1304 8.68915 20 11 20C15.9706 20 20 15.9706 20 11C20 6.02944 15.9706 2 11 2V0Z" fill="#0062FF"/>
</svg>
