<svg width="210" height="145" viewBox="0 0 210 145" fill="none" xmlns="http://www.w3.org/2000/svg">
<path d="M-3.43323e-05 144.84C13.5191 144.84 30.6109 144.84 39.4398 144.84C39.4398 133.857 30.6109 124.954 19.7199 124.954C8.82888 124.954 -3.43323e-05 133.857 -3.43323e-05 144.84Z" fill="url(#paint0_linear)"/>
<path d="M180.036 27.5388C184.035 11.9856 193.755 6.51934 209.195 11.1399C207.881 18.1728 204.754 23.5921 199.815 27.3978C194.875 31.2036 188.282 31.2506 180.036 27.5388Z" fill="url(#paint1_linear)"/>
<path d="M191.956 20.6007L192.503 15.2375C192.525 15.016 192.857 15.0499 192.835 15.2715L192.312 20.3993C196.364 18.1078 201.427 15.2643 207.5 11.8687C207.58 11.8237 207.682 11.8525 207.727 11.933C207.772 12.0136 207.743 12.1153 207.662 12.1603C204.336 14.0201 201.313 15.7142 198.594 17.2426L203.297 18.3657C203.387 18.3871 203.442 18.4772 203.421 18.567C203.399 18.6567 203.309 18.7121 203.22 18.6907L198.165 17.4837C195.986 18.7088 194.006 19.8249 192.225 20.8321C192.209 20.8458 192.191 20.8559 192.172 20.8624C190.158 22.0013 188.401 23.0003 186.9 23.8595L191.276 25.4586C191.362 25.4903 191.407 25.5862 191.375 25.6729C191.344 25.7595 191.248 25.8041 191.161 25.7725L186.542 24.0842C186.535 24.0818 186.529 24.0789 186.522 24.0758C184.174 25.4217 182.49 26.4045 181.47 27.0241C181.391 27.072 181.289 27.0469 181.241 26.968C181.193 26.8891 181.218 26.7864 181.297 26.7385C183 25.7031 186.553 23.6573 191.956 20.6007Z" fill="white"/>
<path d="M181.837 32.2291C173.676 18.4013 176.686 7.65827 190.869 0C194.909 5.90254 196.528 11.947 195.724 18.1333C194.92 24.3196 190.292 29.0182 181.837 32.2291Z" fill="url(#paint2_linear)"/>
<path d="M185.364 18.8882L181.961 14.7089C181.82 14.5362 182.079 14.3252 182.22 14.4978L185.473 18.4937C186.719 14.0061 188.29 8.41317 190.185 1.71473C190.21 1.62596 190.302 1.57437 190.391 1.5995C190.48 1.62463 190.531 1.71696 190.506 1.80573C189.468 5.47433 188.528 8.81131 187.685 11.8166L191.804 9.28246C191.883 9.23415 191.985 9.2587 192.034 9.33729C192.082 9.41589 192.058 9.51877 191.979 9.56709L187.552 12.2906C186.876 14.6989 186.265 16.8891 185.718 18.8613C185.716 18.8821 185.71 18.9021 185.701 18.9204C185.083 21.1503 184.546 23.1002 184.091 24.77L188.316 22.8044C188.399 22.7655 188.498 22.8018 188.537 22.8854C188.576 22.9691 188.54 23.0685 188.456 23.1074L183.997 25.1825C183.99 25.1855 183.984 25.188 183.977 25.1902C183.268 27.8039 182.771 29.6905 182.488 30.8499C182.466 30.9395 182.376 30.9944 182.286 30.9726C182.197 30.9507 182.142 30.8603 182.164 30.7706C182.637 28.833 183.703 24.8724 185.364 18.8882Z" fill="white"/>
<path d="M173.442 37.9747C181.328 23.9874 192.13 21.2248 205.849 29.687C202.761 36.1399 198.339 40.5647 192.584 42.9615C186.828 45.3582 180.448 43.696 173.442 37.9747Z" fill="url(#paint3_linear)"/>
<path d="M186.751 34.3604L188.666 29.3216C188.745 29.1134 189.057 29.2322 188.978 29.4404L187.147 34.258C191.653 33.0942 197.279 31.6588 204.023 29.9518C204.113 29.9291 204.203 29.9833 204.226 30.0728C204.248 30.1622 204.194 30.253 204.105 30.2757C200.411 31.2106 197.053 32.064 194.031 32.836L198.284 35.139C198.365 35.1829 198.395 35.2843 198.351 35.3654C198.307 35.4466 198.206 35.4767 198.125 35.4328L193.554 32.9577C191.132 33.5766 188.931 34.1419 186.951 34.6537C186.932 34.6628 186.912 34.6678 186.891 34.669C184.652 35.2477 182.697 35.7576 181.024 36.1987L184.837 38.8767C184.913 38.9297 184.931 39.0338 184.878 39.1094C184.825 39.1849 184.721 39.2031 184.646 39.1501L180.62 36.3229C180.614 36.3188 180.609 36.3144 180.604 36.3097C177.987 37.0015 176.106 37.5146 174.961 37.8491C174.872 37.8749 174.78 37.8241 174.754 37.7355C174.728 37.6469 174.779 37.5542 174.867 37.5283C176.781 36.9695 180.742 35.9135 186.751 34.3604Z" fill="white"/>
<path d="M81.1288 14.5334H175.959C179.278 14.5334 181.968 17.2259 181.968 20.5473V138.88C181.968 142.201 179.278 144.894 175.959 144.894H81.1288C77.8098 144.894 75.1193 142.201 75.1193 138.88V20.5473C75.1193 17.2259 77.8098 14.5334 81.1288 14.5334Z" fill="url(#paint4_linear)"/>
<path fill-rule="evenodd" clip-rule="evenodd" d="M94.1494 104.24H140.223V111.59H94.1494V104.24ZM94.1494 117.103H175.278V124.453H94.1494V117.103ZM175.278 129.965H94.1494V137.316H175.278V129.965Z" fill="url(#paint5_linear)"/>
<path d="M94.1494 36.9182H175.278V97.0565H94.1494V36.9182Z" fill="url(#paint6_linear)"/>
<path d="M81.1288 14.5334H175.959C179.278 14.5334 181.968 17.2259 181.968 20.5473V26.7281H75.1193V20.5473C75.1193 17.2259 77.8098 14.5334 81.1288 14.5334Z" fill="url(#paint7_linear)"/>
<path d="M34.0541 104.073H84.4674C86.3113 104.073 87.8061 105.568 87.8061 107.414V141.492C87.8061 143.337 86.3113 144.833 84.4674 144.833H34.0541C32.2102 144.833 30.7155 143.337 30.7155 141.492V107.414C30.7155 105.568 32.2102 104.073 34.0541 104.073Z" fill="url(#paint8_linear)"/>
<path d="M48.0763 113.26L70.6121 124.536L48.0763 135.812V113.26Z" fill="white"/>
<path d="M15.9041 117.673H19.8713V121.645H15.9041V117.673Z" fill="#F4B696"/>
<path d="M38.6028 96.959H42.57V100.93H38.6028V96.959Z" fill="#F4B696"/>
<path d="M20.5867 120.086H15.427L13.1624 69.0208L27.7106 71.2217L20.5867 120.086Z" fill="#121958"/>
<path d="M43.7547 99.2545H37.9729L36.6835 82.6225L24.2257 81.9997C18.0756 81.6922 13.2192 76.6617 13.1243 70.5002H39.3198C43.0076 70.5002 45.9971 73.4919 45.9971 77.1823C45.9971 77.4115 45.9853 77.6407 45.9618 77.8687L43.7547 99.2545Z" fill="url(#paint9_linear)"/>
<path d="M23.0687 40.4649L17.6354 39.7001L17.9276 37.6177C16.9492 35.5317 16.9613 32.8277 17.964 29.5059C18.9667 26.1841 21.7739 25.6544 26.3857 27.9168C26.2425 29.895 26.5817 31.2048 27.4032 31.8462C28.6355 32.8081 28.1571 33.4769 27.6558 33.6359C27.1545 33.7949 26.7959 34.1347 26.7772 35.2909C26.7585 36.447 26.0348 36.5746 24.8936 36.8718C24.1328 37.0699 23.5245 38.2676 23.0687 40.4649Z" fill="#F4B696"/>
<path d="M17.8315 37.4822C17.3502 37.3005 17.0734 36.9989 17.0011 36.5775C16.8927 35.9455 17.2598 35.6523 16.0191 34.3524C14.7784 33.0524 13.7829 31.3345 14.5742 28.3455C15.3654 25.3564 17.1566 25.1134 18.9429 24.9616C20.7292 24.8097 21.4542 25.0186 23.9095 24.2154C26.3648 23.4123 27.5993 25.0128 27.0613 27.4549C26.5233 29.897 22.8332 29.8029 22.185 29.7117C21.5369 29.6204 21.8565 30.5962 21.9202 31.5989C21.984 32.6016 21.3435 32.8175 21.1096 32.6753C20.8758 32.5331 20.3788 32.3668 19.9253 32.9183C19.4718 33.4698 19.9119 34.3503 20.2679 34.4004C20.6239 34.4505 21.0981 34.3482 21.1137 34.7544C21.1294 35.1606 20.9114 36.41 20.4931 37.0691C20.2143 37.5085 19.327 37.6462 17.8315 37.4822Z" fill="url(#paint10_linear)"/>
<path d="M38.3796 31.6423C39.2274 31.4191 39.8165 31.0533 40.147 30.5449C40.6429 29.7824 42.5606 28.0803 43.6211 28.5006C44.6816 28.9209 45.5332 29.8516 45.2307 31.1508C44.9282 32.45 43.5691 32.9798 42.4006 33.1771C41.2321 33.3745 40.5265 33.8281 39.8308 34.3738C39.367 34.7376 38.8833 33.8271 38.3796 31.6423Z" fill="#F4B696"/>
<path d="M39.9438 30.9238C40.0303 29.7635 40.2388 29.0844 40.5693 28.8866C40.8999 28.6888 41.4551 29.0947 42.235 30.1043L39.9438 30.9238Z" fill="#FE9F9F"/>
<path d="M38.3824 100.489H42.5494L45.189 101.372C46.519 101.843 47.6393 102.036 47.6393 103.514C47.6393 103.894 47.3881 104.202 47.0783 104.202H39.2638C38.7771 104.202 38.3824 103.807 38.3824 103.32V100.489Z" fill="#021038"/>
<path d="M15.6837 121.203H19.8506L22.4902 122.086C23.8203 122.558 24.9406 122.75 24.9406 124.228C24.9406 124.608 24.6894 124.916 24.3795 124.916H16.5651C16.0783 124.916 15.6837 124.521 15.6837 124.034V121.203Z" fill="#021038"/>
<path d="M36.6945 27.0869L41.0981 24.8416L45.2253 32.0681C45.3664 32.3152 45.2785 32.631 45.0289 32.7734C45.0217 32.7775 45.0145 32.7814 45.0071 32.7851L43.6126 33.4962C43.4113 33.5988 43.1675 33.561 43.0092 33.4027L36.6945 27.0869Z" fill="#0737A3"/>
<path d="M49.8273 10.0458L56.4206 22.9951L39.1964 28.6081C37.6588 29.1091 35.9757 28.5648 35.028 27.2599C34.1221 26.0127 34.2984 24.2828 35.4378 23.2382L49.8273 10.0458Z" fill="#00ADFF"/>
<path d="M56.5652 22.9285C57.6331 22.384 57.0228 19.0438 55.2021 15.4679C53.3814 11.892 51.0398 9.43464 49.9719 9.97915C48.904 10.5237 49.5143 13.8639 51.3349 17.4397C53.1556 21.0156 55.4973 23.473 56.5652 22.9285Z" fill="#0737A3"/>
<path d="M39.9099 60.312C41.071 60.6076 41.7901 60.6076 42.0675 60.312C42.3449 60.0163 42.6317 59.5892 42.9279 59.0306C43.5976 59.418 43.815 59.8804 43.58 60.4179C44.4966 60.4449 45.1334 60.6022 45.4904 60.8898C46.0259 61.3212 45.9366 63.452 44.842 64.1813C43.7474 64.9106 42.3411 64.0497 41.5119 63.948C40.9591 63.8803 40.2307 63.7446 39.3267 63.5411L39.9099 60.312Z" fill="#F4B696"/>
<path d="M21.4143 40.5348L38.6046 31.0714L40.742 34.1377L26.8779 47.2137L21.4143 40.5348Z" fill="url(#paint11_linear)"/>
<path fill-rule="evenodd" clip-rule="evenodd" d="M21.2625 72.4151L21.3911 72.2839L22.3084 73.185L22.1798 73.3161L21.2625 72.4151ZM23.4902 74.6033L23.6188 74.4721C23.9222 74.77 24.2476 75.0436 24.5921 75.2907L24.4852 75.44C24.133 75.1875 23.8003 74.9078 23.4902 74.6033ZM26.1753 76.1802L26.1035 76.3493C26.5027 76.5189 26.9145 76.6575 27.3353 76.7638L27.3803 76.5856C26.9686 76.4816 26.5658 76.346 26.1753 76.1802ZM29.1661 77.0299L29.1811 76.8467L30.4622 76.9524L30.4471 77.1355L29.1661 77.0299ZM32.2922 77.1034L32.2771 77.2865L33.5582 77.3922L33.5732 77.209L32.2922 77.1034ZM35.3882 77.5431L35.4033 77.36L36.6843 77.4656L36.6692 77.6488L35.3882 77.5431ZM38.5144 77.6166L38.4993 77.7997L38.7745 77.8224C39.1007 77.8494 39.4048 77.9752 39.6521 78.1807L39.7694 78.0393C39.4934 77.8099 39.1537 77.6693 38.7896 77.6393L38.5144 77.6166ZM40.2305 79.772L40.4141 79.7681L40.4408 81.0542L40.2572 81.058L40.2305 79.772ZM40.4788 82.8913L40.2952 82.8951L40.3219 84.1811L40.5055 84.1773L40.4788 82.8913ZM40.36 86.0183L40.5435 86.0145L40.5702 87.3005L40.3866 87.3043L40.36 86.0183ZM40.6083 89.1377L40.4247 89.1415L40.4513 90.4275L40.6349 90.4237L40.6083 89.1377ZM40.4894 92.2647L40.673 92.2608L40.6996 93.5469L40.516 93.5507L40.4894 92.2647ZM40.7377 95.384L40.5541 95.3878L40.5808 96.6738L40.7643 96.67L40.7377 95.384Z" fill="#A587FF"/>
<path d="M30.8823 70.5044L13.1617 70.8147L12.6478 45.8779C12.8457 41.5028 14.8002 39.3152 18.5111 39.3152C24.0776 39.3152 29.8302 39.8658 29.8302 48.05L30.3169 56.4987L40.7078 59.9376L40.4233 64.1475L30.3169 63.2388L30.8823 70.5044Z" fill="url(#paint12_linear)"/>
<path d="M30.3164 63.2388L30.4468 64.8351L24.6413 63.1121L24.5509 52.4978L26.0017 60.1962C26.1879 61.1846 26.8827 62.0006 27.8283 62.3416L30.3164 63.2388Z" fill="#221E41"/>
<path d="M42.1071 28.6498C42.5509 28.2743 42.989 28.1232 43.4214 28.1966C44.07 28.3065 44.7665 28.8685 45.1314 29.8517C45.4964 30.8348 45.1879 31.3901 44.9468 31.7502C44.7058 32.1103 44.0355 32.2531 43.8693 31.7502C43.7586 31.4149 43.9142 31.1061 44.3363 30.8238C43.7276 31.12 43.2939 31.1941 43.035 31.046C42.6467 30.8238 43.1396 30.3525 43.4214 30.1273C42.8683 30.5023 42.511 30.596 42.3494 30.4085C42.1071 30.1273 42.3216 29.6185 42.7519 29.3227C42.2567 29.6757 41.9142 29.7639 41.7242 29.5874C41.5342 29.411 41.6618 29.0984 42.1071 28.6498Z" fill="#FE9F9F"/>
<path d="M157.333 54.6255C164.201 54.6255 169.769 49.0536 169.769 42.1803C169.769 35.3069 164.201 29.735 157.333 29.735C150.465 29.735 144.897 35.3069 144.897 42.1803C144.897 49.0536 150.465 54.6255 157.333 54.6255Z" fill="url(#paint13_linear)"/>
<path d="M162.804 42.9551L157.294 48.4502L151.783 42.9551C150.169 41.3448 150.169 38.734 151.783 37.1236C153.29 35.6212 155.67 35.5205 157.294 36.8217C158.917 35.5205 161.297 35.6212 162.804 37.1236C164.418 38.734 164.418 41.3448 162.804 42.9551Z" fill="white"/>
<path d="M1.33545 84.8617H25.3743C29.9839 84.8617 33.7208 88.6013 33.7208 93.2142V102.903H9.68203C5.07234 102.903 1.33545 99.1636 1.33545 94.5506L1.33545 84.8617Z" fill="url(#paint14_linear)"/>
<path fill-rule="evenodd" clip-rule="evenodd" d="M10.3432 95.0942C9.45796 95.0942 8.74036 94.3759 8.74036 93.4898C8.74036 92.6037 9.45796 91.8854 10.3432 91.8854C11.2284 91.8854 11.946 92.6037 11.946 93.4898C11.946 94.3759 11.2284 95.0942 10.3432 95.0942ZM17.5558 95.0942C16.6706 95.0942 15.953 94.3759 15.953 93.4898C15.953 92.6037 16.6706 91.8854 17.5558 91.8854C18.441 91.8854 19.1586 92.6037 19.1586 93.4898C19.1586 94.3759 18.441 95.0942 17.5558 95.0942ZM23.1656 93.4898C23.1656 94.3759 23.8832 95.0942 24.7684 95.0942C25.6536 95.0942 26.3712 94.3759 26.3712 93.4898C26.3712 92.6037 25.6536 91.8854 24.7684 91.8854C23.8832 91.8854 23.1656 92.6037 23.1656 93.4898Z" fill="white"/>
<path d="M121.86 104.407H145.899C150.509 104.407 154.245 108.146 154.245 112.759V122.448H130.207C125.597 122.448 121.86 118.709 121.86 114.096V104.407Z" fill="url(#paint15_linear)"/>
<path fill-rule="evenodd" clip-rule="evenodd" d="M130.868 114.639C129.982 114.639 129.265 113.921 129.265 113.035C129.265 112.149 129.982 111.43 130.868 111.43C131.753 111.43 132.47 112.149 132.47 113.035C132.47 113.921 131.753 114.639 130.868 114.639ZM138.08 114.639C137.195 114.639 136.478 113.921 136.478 113.035C136.478 112.149 137.195 111.43 138.08 111.43C138.966 111.43 139.683 112.149 139.683 113.035C139.683 113.921 138.966 114.639 138.08 114.639ZM143.69 113.035C143.69 113.921 144.408 114.639 145.293 114.639C146.178 114.639 146.896 113.921 146.896 113.035C146.896 112.149 146.178 111.43 145.293 111.43C144.408 111.43 143.69 112.149 143.69 113.035Z" fill="white"/>
<path d="M181.955 73.6011V67.4158L189.134 66.8203V74.1842L181.955 73.6011Z" fill="#211D41"/>
<path d="M174.367 142.468C175.103 142.033 175.79 141.698 176.429 141.466C177.387 141.117 177.448 141.476 177.448 141.887C177.448 142.299 177.448 143.223 177.448 143.97C177.448 144.716 177.217 144.799 175.904 144.709C174.59 144.619 174.43 144.497 173.052 144.709C171.674 144.92 168.893 144.88 168.286 143.91C167.68 142.941 169.636 142.543 171.346 142.311C172.486 142.156 173.493 142.209 174.367 142.468Z" fill="#021038"/>
<path d="M178.203 137.984L177.448 141.98L176.582 142.319C175.009 142.935 173.252 142.88 171.72 142.166L173.838 141.709V137.984H178.203Z" fill="#F4B696"/>
<path d="M196.069 142.468C196.804 142.033 197.491 141.698 198.13 141.466C199.088 141.117 199.149 141.476 199.149 141.887C199.149 142.299 199.149 143.223 199.149 143.97C199.149 144.716 198.918 144.799 197.605 144.709C196.291 144.619 196.131 144.497 194.753 144.709C193.375 144.92 190.594 144.88 189.987 143.91C189.381 142.941 191.337 142.543 193.047 142.311C194.187 142.156 195.194 142.209 196.069 142.468Z" fill="#021038"/>
<path d="M199.149 137.984V141.98L198.284 142.319C196.71 142.935 194.953 142.88 193.422 142.166L195.539 141.709V137.984H199.149Z" fill="#F4B696"/>
<path d="M195.03 140.185L187.365 92.1706L201.82 91.8778L199.726 140.185H195.03Z" fill="#211D41"/>
<path d="M173.129 139.857L177.278 111.834C177.319 111.552 177.399 111.277 177.514 111.017L185.815 92.2014L201.82 92.0449L201.661 95.3709C201.443 99.9351 199.366 104.211 195.914 107.201L185.815 115.951L178.095 139.857H173.129Z" fill="url(#paint16_linear)"/>
<path d="M165.994 49.6695C166.321 49.4151 166.824 49.2852 167.5 49.28C167.512 49.8621 167.568 50.4006 167.67 50.8956C167.771 51.3906 168.081 52.043 168.601 52.8528L168.479 53.001C168.574 53.0847 168.671 53.1646 168.768 53.2408L166.459 55.954C163.649 53.8658 162.358 52.1297 162.585 50.7455C162.813 49.3614 163.667 48.4831 165.147 48.1106C165.445 48.6828 165.728 49.2025 165.994 49.6695Z" fill="#F4B696"/>
<path d="M191.958 63.5011C191.363 61.0536 190.645 59.8298 189.806 59.8298C188.548 59.8298 187.927 59.0963 187.736 58.0147C187.697 57.7904 187.619 57.3239 187.504 56.6151L186.531 56.4462L186.863 51.656C191.522 49.7253 194.412 50.2347 195.532 53.1839C196.653 56.1332 196.653 58.593 195.532 60.5633L195.93 62.4335L191.958 63.5011Z" fill="#F4B696"/>
<path d="M192.945 62.1748H195.143C199.015 62.1748 202.154 65.3161 202.154 69.191V92.2217H185.86L186.76 77.3089C185.418 76.3079 184.636 75.0095 184.412 73.4136C184.189 71.8177 184.672 70.4678 185.86 69.3637L172.919 63.2585C172.527 63.0734 172.174 62.8137 171.881 62.4937L165.416 55.4335L168.49 52.2869L174.714 57.3847C186.066 60.5781 192.143 62.1748 192.945 62.1748Z" fill="url(#paint17_linear)"/>
<path fill-rule="evenodd" clip-rule="evenodd" d="M194.836 93.6018L194.973 93.698L195.044 93.5965L194.908 93.5002L194.836 93.6018ZM193.338 96.0193L193.202 95.9231L193.875 94.9673L194.011 95.0635L193.338 96.0193ZM191.567 98.2444L191.703 98.3406L192.376 97.3848L192.24 97.2886L191.567 98.2444ZM190.068 100.662L189.932 100.566L190.605 99.6099L190.742 99.7061L190.068 100.662ZM188.297 102.887L188.434 102.983L189.107 102.027L188.97 101.931L188.297 102.887ZM186.799 105.305L186.662 105.208L187.336 104.252L187.472 104.349L186.799 105.305ZM185.028 107.53L185.164 107.626L185.837 106.67L185.701 106.574L185.028 107.53ZM183.529 109.947L183.393 109.851L184.066 108.895L184.202 108.991L183.529 109.947ZM181.794 112.209L181.942 112.285C182.047 112.08 182.167 111.882 182.299 111.693L182.568 111.313L182.431 111.216L182.163 111.597C182.026 111.792 181.902 111.996 181.794 112.209ZM181.181 114.992L181.018 114.956L181.269 113.814L181.432 113.85L181.181 114.992ZM180.407 117.73L180.57 117.765L180.821 116.624L180.658 116.588L180.407 117.73ZM179.959 120.539L179.796 120.503L180.047 119.361L180.21 119.397L179.959 120.539ZM179.185 123.276L179.348 123.312L179.599 122.17L179.436 122.134L179.185 123.276ZM178.737 126.085L178.574 126.049L178.826 124.907L178.989 124.943L178.737 126.085ZM177.963 128.823L178.126 128.859L178.378 127.717L178.215 127.681L177.963 128.823ZM177.515 131.632L177.352 131.596L177.604 130.454L177.767 130.49L177.515 131.632ZM176.741 134.369L176.904 134.405L177.156 133.263L176.993 133.227L176.741 134.369ZM176.13 137.142L176.293 137.178L176.545 136.036L176.382 136.001L176.13 137.142Z" fill="#A587FF"/>
<path d="M187.629 53.4904C184.708 53.0212 185.49 48.7425 188.207 48.1085C190.925 47.4745 198.672 45.3053 198.672 54.7978C198.672 64.2903 205.99 59.2793 208.979 66.6745C210.972 71.6046 208.63 75.5981 201.953 78.655C201.953 73.9102 203.102 70.2387 197.625 66.2204C192.148 62.2021 192.789 58.6292 192.789 56.3536C192.789 54.0779 190.551 53.9596 187.629 53.4904Z" fill="url(#paint18_linear)"/>
<path d="M52.0826 36.7511H132.21C133.132 36.7511 133.879 37.499 133.879 38.4216V95.2188C133.879 96.1414 133.132 96.8893 132.21 96.8893H52.0826C51.1607 96.8893 50.4133 96.1414 50.4133 95.2188V38.4216C50.4133 37.499 51.1607 36.7511 52.0826 36.7511Z" fill="url(#paint19_linear)"/>
<path d="M55.4213 85.1958H72.1144V87.7016H55.4213V85.1958Z" fill="white"/>
<path d="M55.4213 90.2073H88.8076V92.713H55.4213V90.2073Z" fill="white"/>
<path d="M55.4213 41.7626H128.871V81.8547H55.4213V41.7626Z" fill="white"/>
<path d="M128.788 55.1267C128.788 52.0858 128.788 47.6589 128.788 41.8462C122.295 41.8462 117.871 41.8462 115.517 41.8462C115.517 49.1808 121.458 55.1267 128.788 55.1267Z" fill="url(#paint20_linear)"/>
<path d="M92.2297 56.9642L104.666 81.8548H79.7933L92.2297 56.9642Z" fill="url(#paint21_linear)"/>
<path d="M72.6152 47.4424L89.8092 81.8548H55.4213L72.6152 47.4424Z" fill="url(#paint22_linear)"/>
<defs>
<linearGradient id="paint0_linear" x1="39.4398" y1="124.954" x2="-3.43323e-05" y2="124.954" gradientUnits="userSpaceOnUse">
<stop stop-color="#4DBCFA"/>
<stop offset="1" stop-color="#1486DB"/>
</linearGradient>
<linearGradient id="paint1_linear" x1="173.282" y1="24.5193" x2="195.494" y2="42.8391" gradientUnits="userSpaceOnUse">
<stop stop-color="#6EAE7C"/>
<stop offset="1" stop-color="#0F575D"/>
</linearGradient>
<linearGradient id="paint2_linear" x1="175.501" y1="11.9997" x2="187.373" y2="17.2293" gradientUnits="userSpaceOnUse">
<stop stop-color="#CFE49F"/>
<stop offset="1" stop-color="#A9D386"/>
</linearGradient>
<linearGradient id="paint3_linear" x1="175.903" y1="28.5813" x2="180.047" y2="40.7089" gradientUnits="userSpaceOnUse">
<stop stop-color="#77D791"/>
<stop offset="1" stop-color="#4FA67E"/>
</linearGradient>
<linearGradient id="paint4_linear" x1="79.4743" y1="14.5334" x2="79.4743" y2="134.267" gradientUnits="userSpaceOnUse">
<stop stop-color="#EAFCFF"/>
<stop offset="1" stop-color="white"/>
</linearGradient>
<linearGradient id="paint5_linear" x1="76.3849" y1="106.642" x2="76.3849" y2="154.204" gradientUnits="userSpaceOnUse">
<stop stop-color="#D0F6FF"/>
<stop offset="1" stop-color="#8BE2F7"/>
</linearGradient>
<linearGradient id="paint6_linear" x1="76.3849" y1="41.2869" x2="76.3849" y2="127.762" gradientUnits="userSpaceOnUse">
<stop stop-color="#D0F6FF"/>
<stop offset="1" stop-color="#8BE2F7"/>
</linearGradient>
<linearGradient id="paint7_linear" x1="175.618" y1="28.4943" x2="175.631" y2="17.7479" gradientUnits="userSpaceOnUse">
<stop stop-color="#2B3389"/>
<stop offset="1" stop-color="#444FB7"/>
</linearGradient>
<linearGradient id="paint8_linear" x1="84.4129" y1="150.736" x2="84.6851" y2="114.819" gradientUnits="userSpaceOnUse">
<stop stop-color="#2B3389"/>
<stop offset="1" stop-color="#444FB7"/>
</linearGradient>
<linearGradient id="paint9_linear" x1="0.88526" y1="55.2745" x2="0.88526" y2="124.174" gradientUnits="userSpaceOnUse">
<stop stop-color="#1533B6"/>
<stop offset="1" stop-color="#356BE9"/>
</linearGradient>
<linearGradient id="paint10_linear" x1="14.2916" y1="24.0062" x2="14.2916" y2="37.5491" gradientUnits="userSpaceOnUse">
<stop stop-color="#1D2A78"/>
<stop offset="1" stop-color="#12033B"/>
</linearGradient>
<linearGradient id="paint11_linear" x1="18.7699" y1="26.6542" x2="18.7699" y2="47.2137" gradientUnits="userSpaceOnUse">
<stop stop-color="#C0E4FD"/>
<stop offset="1" stop-color="#72B9FE"/>
</linearGradient>
<linearGradient id="paint12_linear" x1="8.80864" y1="30.6956" x2="8.80864" y2="70.8147" gradientUnits="userSpaceOnUse">
<stop stop-color="#C0E4FD"/>
<stop offset="1" stop-color="#72B9FE"/>
</linearGradient>
<linearGradient id="paint13_linear" x1="144.897" y1="29.735" x2="144.897" y2="54.6255" gradientUnits="userSpaceOnUse">
<stop stop-color="#FF9485"/>
<stop offset="1" stop-color="#FF676E"/>
</linearGradient>
<linearGradient id="paint14_linear" x1="1.33545" y1="84.8617" x2="1.33545" y2="102.903" gradientUnits="userSpaceOnUse">
<stop stop-color="#FF9485"/>
<stop offset="1" stop-color="#FF676E"/>
</linearGradient>
<linearGradient id="paint15_linear" x1="121.86" y1="104.407" x2="121.86" y2="122.448" gradientUnits="userSpaceOnUse">
<stop stop-color="#FF9485"/>
<stop offset="1" stop-color="#FF676E"/>
</linearGradient>
<linearGradient id="paint16_linear" x1="162.447" y1="66.7279" x2="162.447" y2="181.293" gradientUnits="userSpaceOnUse">
<stop stop-color="#1533B6"/>
<stop offset="1" stop-color="#356BE9"/>
</linearGradient>
<linearGradient id="paint17_linear" x1="165.416" y1="52.2869" x2="165.416" y2="92.2217" gradientUnits="userSpaceOnUse">
<stop stop-color="#FF9485"/>
<stop offset="1" stop-color="#FF676E"/>
</linearGradient>
<linearGradient id="paint18_linear" x1="185.773" y1="47.4424" x2="185.773" y2="78.655" gradientUnits="userSpaceOnUse">
<stop stop-color="#1D2A78"/>
<stop offset="1" stop-color="#12033B"/>
</linearGradient>
<linearGradient id="paint19_linear" x1="128.918" y1="105.599" x2="129.324" y2="52.6064" gradientUnits="userSpaceOnUse">
<stop stop-color="#2B3389"/>
<stop offset="1" stop-color="#444FB7"/>
</linearGradient>
<linearGradient id="paint20_linear" x1="115.517" y1="41.8462" x2="115.517" y2="55.1267" gradientUnits="userSpaceOnUse">
<stop stop-color="#FF9485"/>
<stop offset="1" stop-color="#FF676E"/>
</linearGradient>
<linearGradient id="paint21_linear" x1="79.7933" y1="56.9642" x2="79.7933" y2="81.8548" gradientUnits="userSpaceOnUse">
<stop stop-color="#4DBCFA"/>
<stop offset="1" stop-color="#1486DB"/>
</linearGradient>
<linearGradient id="paint22_linear" x1="55.4213" y1="47.4424" x2="55.4213" y2="81.8548" gradientUnits="userSpaceOnUse">
<stop stop-color="#4DBCFA"/>
<stop offset="1" stop-color="#1486DB"/>
</linearGradient>
</defs>
</svg>
