<?xml version="1.0" encoding="UTF-8"?><!DOCTYPE svg PUBLIC "-//W3C//DTD SVG 1.1//EN" "http://www.w3.org/Graphics/SVG/1.1/DTD/svg11.dtd"><svg xmlns="http://www.w3.org/2000/svg"><symbol id="icon-activity" viewBox="0 0 24 24">
    <path d="M12 5a1 1 0 0 1 1 1v5.51l4.114 3.2a1 1 0 0 1-1.228 1.58l-4.5-3.5A1 1 0 0 1 11 12V6a1 1 0 0 1 1-1z"/>
    <path fill-rule="evenodd" clip-rule="evenodd" d="M12 1c6.075 0 11 4.925 11 11s-4.925 11-11 11S1 18.075 1 12 5.925 1 12 1zm0 2a9 9 0 1 0 0 18 9 9 0 0 0 0-18z"/>
</symbol><symbol id="icon-add" viewBox="0 0 13 14">
    <path fill-rule="evenodd" clip-rule="evenodd" d="M3.956 10.044a.833.833 0 0 0 1.178 0l3.772-3.771 1.414-1.415a2.167 2.167 0 1 0-3.064-3.064L2.071 6.98H2.07a3.5 3.5 0 0 0 4.95 4.95l4.243-4.243a.5.5 0 1 1 .707.707l-4.243 4.243a4.5 4.5 0 0 1-6.398-6.33l.034-.034L6.55 1.087a3.167 3.167 0 1 1 4.478 4.479L9.613 6.98 5.842 10.75l-.035.035a1.833 1.833 0 0 1-2.558-2.628l5.185-5.185a.5.5 0 1 1 .708.707L3.956 8.865a.833.833 0 0 0 0 1.179z"/>
</symbol><symbol id="icon-archive" viewBox="0 0 24 24">
    <path fill-rule="evenodd" clip-rule="evenodd" d="M11 4H6a2 2 0 0 0-2 2v12a2 2 0 0 0 2 2h12a2 2 0 0 0 2-2V6a2 2 0 0 0-1.6-1.96V12a1 1 0 0 1-1.399.917l-2.28-.992-2.328.994A1 1 0 0 1 11 12V4zM6 2h12a4 4 0 0 1 4 4v12a4 4 0 0 1-4 4H6a4 4 0 0 1-4-4V6a4 4 0 0 1 4-4zm5.1 13.5a1 1 0 1 1 0 2H6.6a1 1 0 1 1 0-2h4.5zm-2.7-3.6a1 1 0 1 1 0 2H6.6a1 1 0 1 1 0-2h1.8zM13 4v6.485l1.33-.569a1 1 0 0 1 .793.003l1.277.555V4H13z"/>
</symbol><symbol id="icon-arrow-bottom" viewBox="0 0 26 26">
    <path fill-rule="evenodd" clip-rule="evenodd" d="M12.995 22.333a1.032 1.032 0 0 1-.786-.354l-7.25-8.297a1.037 1.037 0 1 1 1.563-1.364l5.44 6.227V4.704a1.037 1.037 0 1 1 2.075 0v13.823l5.442-6.21a1.037 1.037 0 1 1 1.56 1.367l-7.18 8.195a1.036 1.036 0 0 1-.86.454h-.004z"/>
</symbol><symbol id="icon-arrow-circle" viewBox="0 0 16 16">
    <path fill-rule="evenodd" clip-rule="evenodd" d="M3.9 12.333l1.517 1.214a.667.667 0 1 1-.833 1.041l-3-2.4a.663.663 0 0 1-.213-.744.649.649 0 0 1 .23-.311l2.983-2.387a.667.667 0 0 1 .833 1.041L3.9 11h5.6a3.833 3.833 0 1 0 0-7.667H5A.667.667 0 1 1 5 2h4.5a5.167 5.167 0 0 1 0 10.333H3.9z"/>
</symbol><symbol id="icon-arrow-down" viewBox="0 0 12 7">
    <path fill-rule="evenodd" d="M6 4.586L10.293.293a1 1 0 0 1 1.414 1.414l-5 5a1 1 0 0 1-1.414 0l-5-5A1 1 0 0 1 1.707.293L6 4.586z"/>
</symbol><symbol id="icon-arrow-next" viewBox="0 0 24 24">
    <path fill-rule="evenodd" clip-rule="evenodd" d="M13.586 12L9.293 7.707a1 1 0 0 1 1.414-1.414l5 5a1 1 0 0 1 0 1.414l-5 5a1 1 0 0 1-1.414-1.414L13.586 12z"/>
</symbol><symbol id="icon-arrow-prev" viewBox="0 0 24 24">
    <path fill-rule="evenodd" clip-rule="evenodd" d="M10.414 12l4.293 4.293a1 1 0 0 1-1.414 1.414l-5-5a1 1 0 0 1 0-1.414l5-5a1 1 0 1 1 1.414 1.414L10.414 12z"/>
</symbol><symbol id="icon-arrow-right" viewBox="0 0 5 8">
    <path fill-rule="evenodd" clip-rule="evenodd" d="M3.057 4L.195 1.138a.667.667 0 1 1 .943-.943L4.471 3.53c.26.26.26.682 0 .942L1.138 7.805a.667.667 0 1 1-.943-.943L3.057 4z"/>
</symbol><symbol id="icon-arrow-top" viewBox="0 0 26 26">
    <path d="M14.037 21.296V4.704a1.037 1.037 0 0 0-2.074 0v16.592a1.037 1.037 0 0 0 2.074 0z"/>
    <path d="M12.99 6.279l6.49 7.404a1.037 1.037 0 0 0 1.56-1.366L13.77 4.02a1.037 1.037 0 0 0-1.561.001l-7.25 8.297a1.037 1.037 0 1 0 1.563 1.364L12.99 6.28z"/>
</symbol><symbol id="icon-arrow-up" viewBox="0 0 12 7">
    <path fill-rule="evenodd" d="M6 2.414L1.707 6.707A1 1 0 0 1 .293 5.293l5-5a1 1 0 0 1 1.414 0l5 5a1 1 0 0 1-1.414 1.414L6 2.414z"/>
</symbol><symbol id="icon-arrows" viewBox="0 0 24 24">
    <path fill-rule="evenodd" clip-rule="evenodd" d="M15.5 15a.5.5 0 0 1 .4.8l-3.5 4.667a.5.5 0 0 1-.8 0L8.1 15.8a.5.5 0 0 1 .4-.8h7z"/>
    <path fill-rule="evenodd" clip-rule="evenodd" d="M15.5 9a.5.5 0 0 0 .4-.8l-3.5-4.667a.5.5 0 0 0-.8 0L8.1 8.2a.5.5 0 0 0 .4.8h7z"/>
</symbol><symbol id="icon-attachment-thin" viewBox="0 0 24 24">
    <path fill-rule="evenodd" clip-rule="evenodd" d="M11.533 17.501a2.5 2.5 0 0 1-3.483-3.587l7.778-7.778a.5.5 0 1 1 .707.707l-7.778 7.778a1.5 1.5 0 1 0 2.122 2.122l7.778-7.779a3.5 3.5 0 0 0-4.95-4.95l-7.778 7.779a5.5 5.5 0 0 0 7.778 7.778l6.364-6.364a.5.5 0 1 1 .707.707l-6.364 6.364a6.5 6.5 0 0 1-9.244-9.14L13 3.308a4.5 4.5 0 1 1 6.364 6.364l-7.83 7.83h-.001z"/>
</symbol><symbol id="icon-attachment" viewBox="0 0 24 24">
    <path fill-rule="evenodd" clip-rule="evenodd" d="M5.714 10.794l6.525-6.525a4.333 4.333 0 1 1 6.128 6.129l-6.525 6.525a2.668 2.668 0 0 1-3.728-3.815l6.482-6.482A1 1 0 1 1 16.01 8.04L9.53 14.522a.667.667 0 1 0 .942.943l6.482-6.482a2.333 2.333 0 0 0-3.3-3.3l-6.481 6.482a4 4 0 0 0 5.656 5.657l5.304-5.303a1 1 0 0 1 1.414 1.414l-5.303 5.303a6 6 0 0 1-8.529-8.441z"/>
</symbol><symbol id="icon-audio" viewBox="0 0 24 24">
    <path fill-rule="evenodd" clip-rule="evenodd" d="M5.969 16.422H4.8a2.8 2.8 0 0 1-2.8-2.8v-2.544a2.8 2.8 0 0 1 2.8-2.8h1.058a2 2 0 0 0 1.211-.41l4.52-3.44a2 2 0 0 1 3.211 1.59v12.123a2 2 0 0 1-3.102 1.669L7.07 16.753a2 2 0 0 0-1.102-.33zM5.6 10.278h-.665a.935.935 0 0 0-.935.935v2.274c0 .517.419.935.935.935H5.6v-4.144zm1.964-.382c.023.123.036.251.036.382v4.144c0 .114-.01.227-.028.336.208.09.41.2.601.327L12.8 18.14V6.019L8.281 9.46a4 4 0 0 1-.717.436zM16.5 15a1 1 0 1 1 0-2c.417 0 .8-.426.8-1 0-.574-.383-1-.8-1a1 1 0 1 1 0-2c1.571 0 2.8 1.365 2.8 3s-1.229 3-2.8 3zm0 3a1 1 0 1 1 0-2c1.908 0 3.5-1.769 3.5-4s-1.592-4-3.5-4a1 1 0 1 1 0-2c3.062 0 5.5 2.708 5.5 6s-2.438 6-5.5 6z"/>
</symbol><symbol id="icon-bell" viewBox="0 0 19 21">
    <path fill-rule="evenodd" clip-rule="evenodd" d="M11.98 2.64a3 3 0 0 0-5.957 0 7.224 7.224 0 0 0-4.244 6.582v5.018L.11 17.55A1 1 0 0 0 1 19h5.171a3.001 3.001 0 0 0 5.659 0H17a1 1 0 0 0 .893-1.45l-1.67-3.31V9.222a7.224 7.224 0 0 0-4.244-6.581zm2.35 12.289L15.377 17H2.626l1.046-2.071a1 1 0 0 0 .107-.451V9.222a5.222 5.222 0 0 1 10.444 0v5.256a1 1 0 0 0 .108.45z"/>
</symbol><symbol id="icon-block" viewBox="0 0 16 16">
    <path fill-rule="evenodd" clip-rule="evenodd" d="M12.43 10.971a5.333 5.333 0 0 0-7.403-7.4l7.403 7.4zm-.878 1.008L4.02 4.45a5.333 5.333 0 0 0 7.532 7.529zM8 1.333a6.667 6.667 0 1 1 0 13.334A6.667 6.667 0 0 1 8 1.333z"/>
</symbol><symbol id="icon-book" viewBox="0 0 16 16">
    <path fill-rule="evenodd" clip-rule="evenodd" d="M12.204 2c.365 0 .66.293.66.654v1.129c1.001.031 1.803.843 1.803 1.84v7.723a.66.66 0 0 1-.834.63 50.9 50.9 0 0 1-1.283-.372l-.061-.018-.96-.29a25.425 25.425 0 0 0-.552-.163c-.877-.232-1.68-.32-2.963-.321h-.028c-1.283 0-2.086.09-2.963.32-.066.018-.236.069-.552.164l-.96.29-.061.018a50.93 50.93 0 0 1-1.283.373.66.66 0 0 1-.834-.63V5.623c0-.998.802-1.81 1.802-1.841v-1.13c0-.36.296-.653.66-.653 1.58 0 2.986.357 4.207 1.07C9.235 2.358 10.639 2 12.204 2zM4.456 4.457a.642.642 0 0 0 0-.043V3.332c1.078.083 2.037.372 2.883.87v6.844a8.196 8.196 0 0 0-2.883-.708V4.457zm-1.321.635a.537.537 0 0 0-.48.532v6.852l.44-.131.057-.017.846-.255.105-.032a10.67 10.67 0 0 1 1.107-.296c-.45-.081-.92-.121-1.414-.121a.657.657 0 0 1-.661-.654V5.092zm7.659 6.653a10.753 10.753 0 0 1 1.103.296l.105.032.846.255.057.017.44.131V5.624a.537.537 0 0 0-.48-.532v5.878c0 .361-.296.654-.66.654-.492 0-.962.04-1.412.121zm.75-1.406a8.23 8.23 0 0 0-2.883.71V4.204c.856-.498 1.815-.788 2.882-.872v7.007zm2.402 3.007a.06.06 0 0 1 .076-.057l-.076-.02v.077zm-11.892 0a.06.06 0 0 0-.067-.059l-.006.001.073-.02v.078z"/>
</symbol><symbol id="icon-briefcase-1" viewBox="0 0 24 24">
    <path fill-rule="evenodd" clip-rule="evenodd" d="M21 8H3v3a1 1 0 0 0 1 1h16a1 1 0 0 0 1-1V8zM7 6a3 3 0 0 1 3-3h4a3 3 0 0 1 3 3h4a2 2 0 0 1 2 2v10a4 4 0 0 1-4 4H5a4 4 0 0 1-4-4V8a2 2 0 0 1 2-2h4zm2 0h6a1 1 0 0 0-1-1h-4a1 1 0 0 0-1 1zm0 8H4c-.35 0-.687-.06-1-.17V18a2 2 0 0 0 2 2h14a2 2 0 0 0 2-2v-4.17c-.313.11-.65.17-1 .17h-5v1.6a1.4 1.4 0 0 1-1.4 1.4h-3.2A1.4 1.4 0 0 1 9 15.6V14zm2 1h2v-1h-2v1z"/>
</symbol><symbol id="icon-briefcase" viewBox="0 0 16 16">
    <path fill-rule="evenodd" clip-rule="evenodd" d="M11.333 4h2a2 2 0 0 1 2 2v6.667a2 2 0 0 1-2 2H2.667a2 2 0 0 1-2-2V6a2 2 0 0 1 2-2h2a2 2 0 0 1 2-2h2.666a2 2 0 0 1 2 2zm-7 1.333v8h7.334v-8H4.333zm8.667 0v8h.333a.667.667 0 0 0 .667-.666V6a.667.667 0 0 0-.667-.667H13zm-10.333 0H3v8h-.333A.667.667 0 0 1 2 12.667V6c0-.368.299-.667.667-.667zM10 4a.667.667 0 0 0-.667-.667H6.667A.667.667 0 0 0 6 4h4z"/>
</symbol><symbol id="icon-burger" viewBox="0 0 24 24">
    <path d="M19 9H5a1 1 0 0 1 0-2h14a1 1 0 1 1 0 2z"/>
    <path d="M19 17H5a1 1 0 1 1 0-2h14a1 1 0 1 1 0 2z"/>
</symbol><symbol id="icon-calendar-1" viewBox="0 0 24 24">
    <path fill-rule="evenodd" clip-rule="evenodd" d="M8.495 5.8a1 1 0 0 1-1.99 0H4v1.6h16V5.8h-1.605a1 1 0 0 1-1.99 0h-7.91zM6.5 3.8V3a1 1 0 0 1 2 0v.8h7.9V3a1 1 0 1 1 2 0v.8h1.7c1.05 0 1.9.85 1.9 1.9V19a3 3 0 0 1-3 3H5a3 3 0 0 1-3-3V5.7c0-1.05.85-1.9 1.9-1.9h2.6zM20 9.4H4V19a1 1 0 0 0 1 1h14a1 1 0 0 0 1-1V9.4zM6.6 13a1 1 0 1 1 0-2h3.6a1 1 0 1 1 0 2H6.6zm0 3.6a1 1 0 1 1 0-2h7.2a1 1 0 1 1 0 2H6.6z"/>
</symbol><symbol id="icon-calendar" viewBox="0 0 16 15">
    <path fill-rule="evenodd" clip-rule="evenodd" d="M12.12.25a.75.75 0 0 1 .75.75v.583h.597a2.09 2.09 0 0 1 2.096 2.084v6.666c0 2.262-1.85 4.084-4.116 4.084H4.713c-2.266 0-4.116-1.822-4.116-4.084V3.667a2.09 2.09 0 0 1 2.096-2.084h1.27V1a.75.75 0 0 1 1.5 0v.583h5.907V1a.75.75 0 0 1 .75-.75zM3.968 3.083a.75.75 0 0 0 1.49 0h5.917a.75.75 0 0 0 1.49 0h.602a.59.59 0 0 1 .596.584v1.916H2.097V3.667a.59.59 0 0 1 .596-.584h1.275zm-1.871 4v3.25c0 1.42 1.164 2.584 2.616 2.584h6.734c1.452 0 2.616-1.164 2.616-2.584v-3.25H2.097z"/>
</symbol><symbol id="icon-case" viewBox="0 0 24 24">
    <path fill-rule="evenodd" clip-rule="evenodd" d="M17 6h3a3 3 0 0 1 3 3v10a3 3 0 0 1-3 3H4a3 3 0 0 1-3-3V9a3 3 0 0 1 3-3h3a3 3 0 0 1 3-3h4a3 3 0 0 1 3 3zM6.5 8v12h11V8h-11zm13 0v12h.5a1 1 0 0 0 1-1V9a1 1 0 0 0-1-1h-.5zM4 8h.5v12H4a1 1 0 0 1-1-1V9a1 1 0 0 1 1-1zm11-2a1 1 0 0 0-1-1h-4a1 1 0 0 0-1 1h6z"/>
</symbol><symbol id="icon-chart-1" viewBox="0 0 24 24">
    <path fill-rule="evenodd" clip-rule="evenodd" d="M15.617 20.26v-5.217c0-.96.762-1.739 1.702-1.739h1.277c.94 0 1.702.779 1.702 1.74v5.217h.85c.471 0 .852.39.852.87a.86.86 0 0 1-.851.869H4.553C3.143 22 2 20.832 2 19.391V2.87c0-.48.381-.87.851-.87s.851.39.851.87V19.39c0 .48.381.87.851.87V6.348c0-.96.762-1.74 1.702-1.74h1.277c.94 0 1.702.78 1.702 1.74V20.26h.851v-9.565c0-.96.762-1.74 1.702-1.74h1.277c.94 0 1.702.78 1.702 1.74v9.565h.851zm1.702 0h1.277v-5.217h-1.277v5.218zm-4.255 0v-9.564h-1.277v9.565h1.277zm-6.809 0h1.277V6.349H6.255V20.26z"/>
</symbol><symbol id="icon-chart" viewBox="0 0 22 22">
    <path fill-rule="evenodd" clip-rule="evenodd" d="M18 5.5h2A1.5 1.5 0 0 1 21.5 7v13a1.5 1.5 0 0 1-1.5 1.5h-2a1.5 1.5 0 0 1-1.5-1.5V7A1.5 1.5 0 0 1 18 5.5zm0 1a.5.5 0 0 0-.5.5v13a.5.5 0 0 0 .5.5h2a.5.5 0 0 0 .5-.5V7a.5.5 0 0 0-.5-.5h-2zm-16 6h2A1.5 1.5 0 0 1 5.5 14v6A1.5 1.5 0 0 1 4 21.5H2A1.5 1.5 0 0 1 .5 20v-6A1.5 1.5 0 0 1 2 12.5zm0 1a.5.5 0 0 0-.5.5v6a.5.5 0 0 0 .5.5h2a.5.5 0 0 0 .5-.5v-6a.5.5 0 0 0-.5-.5H2zm8-13h2A1.5 1.5 0 0 1 13.5 2v18a1.5 1.5 0 0 1-1.5 1.5h-2A1.5 1.5 0 0 1 8.5 20V2A1.5 1.5 0 0 1 10 .5zm0 1a.5.5 0 0 0-.5.5v18a.5.5 0 0 0 .5.5h2a.5.5 0 0 0 .5-.5V2a.5.5 0 0 0-.5-.5h-2z"/>
</symbol><symbol id="icon-chat" viewBox="0 0 24 24">
    <path fill-rule="evenodd" clip-rule="evenodd" d="M21.117 22.635a2 2 0 0 0 1.518-2.386l-.756-3.405A10.959 10.959 0 0 0 23 12c0-6.075-4.925-11-11-11S1 5.925 1 12s4.925 11 11 11c1.702 0 3.35-.388 4.844-1.121l3.405.756a2 2 0 0 0 .868 0zM21 12c0 1.5-.366 2.945-1.058 4.237a1 1 0 0 0-.094.689l.835 3.757-3.757-.835a1 1 0 0 0-.689.094A8.955 8.955 0 0 1 12 21a9 9 0 1 1 9-9zM9 14a2 2 0 1 0 0-4 2 2 0 0 0 0 4zm8-2a2 2 0 1 1-4 0 2 2 0 0 1 4 0z"/>
</symbol><symbol id="icon-check-circle" viewBox="0 0 16 16">
    <path fill-rule="evenodd" clip-rule="evenodd" d="M7.321 9.26L5.677 7.638a.5.5 0 0 0-.702.711l2.033 2.007a.5.5 0 0 0 .737-.038l3.3-4a.5.5 0 0 0-.771-.636L7.32 9.26z"/>
    <path fill-rule="evenodd" clip-rule="evenodd" d="M6.333.833h3.334a5.5 5.5 0 0 1 5.5 5.5v3.334a5.5 5.5 0 0 1-5.5 5.5H6.334a5.5 5.5 0 0 1-5.5-5.5V6.333a5.5 5.5 0 0 1 5.5-5.5zm0 1a4.5 4.5 0 0 0-4.5 4.5v3.334a4.5 4.5 0 0 0 4.5 4.5h3.334a4.5 4.5 0 0 0 4.5-4.5V6.333a4.5 4.5 0 0 0-4.5-4.5H6.334z"/>
</symbol><symbol id="icon-check-sm-thick" viewBox="0 0 10 8">
    <path d="M1.692 3.278l2.27 2.242L8.219.364A1 1 0 0 1 9.76 1.636l-4.95 6a1 1 0 0 1-1.474.076l-3.05-3.01a1 1 0 0 1 1.406-1.424z"/>
</symbol><symbol id="icon-check-sm" viewBox="0 0 8 6">
    <path fill-rule="evenodd" clip-rule="evenodd" d="M3.321 4.26L1.677 2.638a.5.5 0 0 0-.702.711l2.033 2.007a.5.5 0 0 0 .737-.038l3.3-4a.5.5 0 0 0-.771-.636L3.32 4.26z"/>
</symbol><symbol id="icon-check-square" viewBox="0 0 16 16">
    <path fill-rule="evenodd" clip-rule="evenodd" d="M8.172 8.983l5.304-6.73a.667.667 0 0 1 1.047.826l-5.781 7.334a.667.667 0 0 1-1.007.046L4.85 7.423a.667.667 0 1 1 .967-.919l2.355 2.479zM13.333 7.4a.667.667 0 1 1 1.334 0v4.8a2.467 2.467 0 0 1-2.467 2.467H3.8A2.467 2.467 0 0 1 1.333 12.2V3.8A2.467 2.467 0 0 1 3.8 1.333h7.133a.667.667 0 0 1 0 1.334H3.8c-.626 0-1.133.507-1.133 1.133v8.4c0 .626.507 1.133 1.133 1.133h8.4c.626 0 1.133-.507 1.133-1.133V7.4z"/>
</symbol><symbol id="icon-check" viewBox="0 0 14 11">
    <path fill-rule="evenodd" clip-rule="evenodd" d="M13.636.229a1 1 0 0 1 .135 1.407l-7.426 9a1 1 0 0 1-1.474.076L.297 6.197a1 1 0 1 1 1.406-1.424L5.498 8.52l6.73-8.156a1 1 0 0 1 1.408-.135z"/>
</symbol><symbol id="icon-clock" viewBox="0 0 14 14">
    <path d="M7 0a7 7 0 1 1 0 14A7 7 0 0 1 7 0zm0 1a6 6 0 1 0 0 12A6 6 0 0 0 7 1zm0 1.353a.5.5 0 0 1 .492.41l.008.09V7a.5.5 0 0 1-.109.312l-.058.061-1.984 1.769a.5.5 0 0 1-.727-.68l.062-.066L6.5 6.775V2.853a.5.5 0 0 1 .41-.492L7 2.353z"/>
</symbol><symbol id="icon-close-circle" viewBox="0 0 16 16">
    <path fill-rule="evenodd" clip-rule="evenodd" d="M8 .667a7.333 7.333 0 1 1 0 14.666A7.333 7.333 0 0 1 8 .667zM8 2a6 6 0 1 0 0 12A6 6 0 0 0 8 2zM6.943 7.886L5.529 6.47a.667.667 0 1 1 .942-.942l1.415 1.414L9.3 5.529a.667.667 0 0 1 .943.942L8.829 7.886 10.243 9.3a.667.667 0 1 1-.943.943L7.886 8.828 6.47 10.243A.667.667 0 0 1 5.53 9.3l1.414-1.414z"/>
</symbol><symbol id="icon-close-sm" viewBox="0 0 8 8">
    <path fill-rule="evenodd" d="M2.414 3.828L.293 1.708A1 1 0 0 1 1.707.292l2.121 2.121L5.95.293a1 1 0 0 1 1.414 1.414L5.243 3.828 7.364 5.95A1 1 0 0 1 5.95 7.364L3.828 5.243l-2.12 2.121A1 1 0 0 1 .292 5.95l2.121-2.122z"/>
</symbol><symbol id="icon-close-square" viewBox="0 0 24 24">
    <path fill-rule="evenodd" clip-rule="evenodd" d="M16 1H8a7 7 0 0 0-7 7v8a7 7 0 0 0 7 7h8a7 7 0 0 0 7-7V8a7 7 0 0 0-7-7zM3 8a5 5 0 0 1 5-5h8a5 5 0 0 1 5 5v8a5 5 0 0 1-5 5H8a5 5 0 0 1-5-5V8z"/>
    <path fill-rule="evenodd" clip-rule="evenodd" d="M10.414 11.828l-2.121-2.12a1 1 0 0 1 1.414-1.415l2.121 2.121 2.122-2.121a1 1 0 0 1 1.414 1.414l-2.121 2.121 2.121 2.122a1 1 0 0 1-1.414 1.414l-2.122-2.121-2.12 2.121a1 1 0 0 1-1.415-1.414l2.121-2.122z"/>
</symbol><symbol id="icon-close" viewBox="0 0 10 10">
    <path fill-rule="evenodd" clip-rule="evenodd" d="M5.94 5L9.46 8.521a.667.667 0 0 1-.943.943L4.997 5.942 1.471 9.464a.667.667 0 0 1-.942-.944L4.055 5 .53 1.47A.667.667 0 1 1 1.473.53l3.525 3.528L8.516.545a.667.667 0 0 1 .942.943L5.94 5z"/>
</symbol><symbol id="icon-comment" viewBox="0 0 24 24">
    <path fill-rule="evenodd" clip-rule="evenodd" d="M12.514 17.553l-4.449 3.264c-1.006.74-2.455.05-2.457-1.166l-.004-2.223C3.533 16.95 2 15.154 2 13.02v-5.61C2 4.91 4.106 2.88 6.706 2.88h10.588c2.6 0 4.706 2.03 4.706 4.531v5.61c0 2.502-2.106 4.532-4.706 4.532h-4.78zm-4.908 1.185l3.962-2.908c.175-.128.388-.197.607-.197h5.12c1.493 0 2.705-1.168 2.705-2.611v-5.61C20 5.967 18.788 4.8 17.294 4.8H6.706C5.212 4.8 4 5.968 4 7.411v5.61c0 1.416 1.17 2.572 2.63 2.61.54.015.972.44.973.959l.003 2.148z"/>
</symbol><symbol id="icon-content" viewBox="0 0 24 24">
    <path fill-rule="evenodd" clip-rule="evenodd" d="M4 5h16a1 1 0 1 0 0-2H4a1 1 0 0 0 0 2z"/>
    <path fill-rule="evenodd" clip-rule="evenodd" d="M4 10h16a1 1 0 1 0 0-2H4a1 1 0 0 0 0 2z"/>
    <path fill-rule="evenodd" clip-rule="evenodd" d="M4 15h16a1 1 0 1 0 0-2H4a1 1 0 1 0 0 2z"/>
    <path fill-rule="evenodd" clip-rule="evenodd" d="M4 20h10a1 1 0 1 0 0-2H4a1 1 0 1 0 0 2z"/>
</symbol><symbol id="icon-dashboard" viewBox="0 0 24 24">
    <path fill-rule="evenodd" clip-rule="evenodd" d="M7 12H6a4 4 0 0 0-4 4v2a4 4 0 0 0 4 4h1a4 4 0 0 0 4-4v-2a4 4 0 0 0-4-4zm-3 4a2 2 0 0 1 2-2h1a2 2 0 0 1 2 2v2a2 2 0 0 1-2 2H6a2 2 0 0 1-2-2v-2z"/>
    <path fill-rule="evenodd" clip-rule="evenodd" d="M9 5.5a3.5 3.5 0 1 0-7 0v1a3.5 3.5 0 1 0 7 0v-1zm-5 0a1.5 1.5 0 1 1 3 0v1a1.5 1.5 0 1 1-3 0v-1z"/>
    <path fill-rule="evenodd" clip-rule="evenodd" d="M18 11h-1a4 4 0 0 0-4 4v3a4 4 0 0 0 4 4h1a4 4 0 0 0 4-4v-3a4 4 0 0 0-4-4zm-3 4a2 2 0 0 1 2-2h1a2 2 0 0 1 2 2v3a2 2 0 0 1-2 2h-1a2 2 0 0 1-2-2v-3z"/>
    <path fill-rule="evenodd" clip-rule="evenodd" d="M18.5 2h-4a3.5 3.5 0 1 0 0 7h4a3.5 3.5 0 1 0 0-7zM13 5.5A1.5 1.5 0 0 1 14.5 4h4a1.5 1.5 0 0 1 0 3h-4A1.5 1.5 0 0 1 13 5.5z"/>
</symbol><symbol id="icon-date" viewBox="0 0 24 24">
    <path fill-rule="evenodd" clip-rule="evenodd" d="M8.495 5.8a1 1 0 0 1-1.99 0H4v1.6h16V5.8h-1.605a1 1 0 0 1-1.99 0h-7.91zM6.5 3.8V3a1 1 0 0 1 2 0v.8h7.9V3a1 1 0 1 1 2 0v.8h1.7c1.05 0 1.9.85 1.9 1.9V19a3 3 0 0 1-3 3H5a3 3 0 0 1-3-3V5.7c0-1.05.85-1.9 1.9-1.9h2.6zM20 9.4H4V19a1 1 0 0 0 1 1h14a1 1 0 0 0 1-1V9.4zM6.6 13a1 1 0 1 1 0-2h3.6a1 1 0 1 1 0 2H6.6zm0 3.6a1 1 0 1 1 0-2h7.2a1 1 0 1 1 0 2H6.6z"/>
</symbol><symbol id="icon-delivery" viewBox="0 0 16 16">
    <path d="M11.334 4h-6a.667.667 0 0 1 0-1.333h6c1.851 0 3.333 1.587 3.333 3.523v4.286c0 1.936-1.482 3.524-3.333 3.524h-4a.667.667 0 0 1 0-1.333h4c1.093 0 2-.971 2-2.19V6.19c0-1.22-.907-2.19-2-2.19z"/>
    <path d="M2 7.333h9.334a.667.667 0 1 0 0-1.333H2a.667.667 0 0 0 0 1.333z"/>
    <path d="M11.334 10.667H4a.667.667 0 0 1 0-1.334h7.334a.667.667 0 1 1 0 1.334z"/>
</symbol><symbol id="icon-doc-1" viewBox="0 0 10 12">
    <path fill-rule="evenodd" clip-rule="evenodd" d="M2 1.417c-.598 0-1.083.485-1.083 1.083v7c0 .598.485 1.083 1.083 1.083h6c.598 0 1.083-.485 1.083-1.083v-5A.083.083 0 0 0 9 4.417H7.5a.917.917 0 0 1-.917-.917v-2a.083.083 0 0 0-.083-.083H2zM9.917 9.5V4.181a.917.917 0 0 0-.213-.587L7.47.914a.917.917 0 0 0-.704-.33H2A1.917 1.917 0 0 0 .083 2.5v7c0 1.059.858 1.917 1.917 1.917h6A1.917 1.917 0 0 0 9.917 9.5zM8.61 3.583L7.417 2.151V3.5c0 .046.037.083.083.083h1.11zM2.333 8.667v-.25h5.334v.25H2.333zM1.7 7.583h6.6c.11 0 .2.115.2.256v1.405c0 .142-.09.256-.2.256H1.7c-.11 0-.2-.114-.2-.256V7.84c0-.141.09-.256.2-.256z"/>
</symbol><symbol id="icon-doc-2" viewBox="0 0 24 24">
    <path d="M7.516 10.198a.98.98 0 0 0 .968.991h7.033a.98.98 0 0 0 .966-.99.98.98 0 0 0-.966-.992H8.483a.98.98 0 0 0-.968.991z"/>
    <path d="M7.516 13.802a.98.98 0 0 0 .968.99h7.033a.98.98 0 0 0 .966-.99.98.98 0 0 0-.966-.991H8.483a.98.98 0 0 0-.968.99z"/>
    <path d="M8.484 18.396a.98.98 0 0 1-.968-.99.98.98 0 0 1 .968-.992h7.033a.98.98 0 0 1 .966.991.98.98 0 0 1-.966.991H8.483z"/>
    <path fill-rule="evenodd" clip-rule="evenodd" d="M20 7.495c0-2.04-1.614-3.693-3.604-3.693h-.089C15.913 2.737 14.91 2 13.758 2h-3.516c-1.152 0-2.155.737-2.549 1.802h-.089C5.614 3.802 4 5.456 4 7.495v10.811C4 20.346 5.614 22 7.604 22h8.792C18.386 22 20 20.346 20 18.306V7.496zM7.604 5.784h.089c.394 1.064 1.397 1.802 2.549 1.802h3.516c1.152 0 2.155-.738 2.549-1.802h.089c.922 0 1.67.766 1.67 1.712v10.81c0 .946-.748 1.712-1.67 1.712H7.604c-.922 0-1.67-.766-1.67-1.712V7.496c0-.946.748-1.712 1.67-1.712zm2.638-1.802a.801.801 0 0 0-.791.81c0 .449.354.812.79.812h3.517a.801.801 0 0 0 .792-.811.801.801 0 0 0-.792-.811h-3.516z"/>
</symbol><symbol id="icon-doc-empty" viewBox="0 0 24 24">
    <path fill-rule="evenodd" clip-rule="evenodd" d="M7 1h8.148a2 2 0 0 1 1.554.741l3.852 4.754A2 2 0 0 1 21 7.755V19a4 4 0 0 1-4 4H7a4 4 0 0 1-4-4V5a4 4 0 0 1 4-4zm8.625 2.589V6.4h2.278l-2.278-2.811zM7 3a2 2 0 0 0-2 2v14a2 2 0 0 0 2 2h10a2 2 0 0 0 2-2V8.4h-3.375a2 2 0 0 1-2-2V3H7z"/>
</symbol><symbol id="icon-doc" viewBox="0 0 24 24">
    <path fill-rule="evenodd" clip-rule="evenodd" d="M18.065 7.4L16.7 5.762V7.4h1.365zM21.2 8.726V18.3a3.7 3.7 0 0 1-3.7 3.7H6.7A3.7 3.7 0 0 1 3 18.3V5.7A3.7 3.7 0 0 1 6.7 2h8.578a1.9 1.9 0 0 1 1.46.684l4.022 4.825a1.9 1.9 0 0 1 .44 1.217zm-2 .674h-2.6a1.9 1.9 0 0 1-1.9-1.9V4h-8A1.7 1.7 0 0 0 5 5.7v12.6A1.7 1.7 0 0 0 6.7 20h10.8a1.7 1.7 0 0 0 1.7-1.7V9.4zM7.103 15.6h9.994c.167 0 .303.12.303.267v1.466c0 .148-.136.267-.303.267H7.103c-.167 0-.303-.12-.303-.267v-1.466c0-.148.136-.267.303-.267z"/>
</symbol><symbol id="icon-dots" viewBox="0 0 18 4">
    <path fill-rule="evenodd" clip-rule="evenodd" d="M4 2a2 2 0 1 0-4 0 2 2 0 0 0 4 0z"/>
    <path fill-rule="evenodd" clip-rule="evenodd" d="M11 2a2 2 0 1 0-4 0 2 2 0 0 0 4 0z"/>
    <path fill-rule="evenodd" clip-rule="evenodd" d="M18 2a2 2 0 1 0-4 0 2 2 0 0 0 4 0z"/>
</symbol><symbol id="icon-download-doc" viewBox="0 0 24 24">
    <path fill-rule="evenodd" clip-rule="evenodd" d="M8 2a4 4 0 0 0-4 4v12a4 4 0 0 0 4 4h8a4 4 0 0 0 4-4V8.754a2 2 0 0 0-.446-1.259l-3.852-4.754A2 2 0 0 0 14.148 2H8zm7.625 3.823V7.4h1.278l-1.278-1.577zM8 4a2 2 0 0 0-2 2v12a2 2 0 0 0 2 2h8a2 2 0 0 0 2-2V9.4h-2.375a2 2 0 0 1-2-2V4H8zm5 10.5l.4-.3a1 1 0 0 1 1.2 1.6l-1.992 1.494a.995.995 0 0 1-1.216 0L9.4 15.8a1 1 0 0 1 1.2-1.6l.4.3v-3.889a1 1 0 1 1 2 0V14.5z"/>
</symbol><symbol id="icon-download" viewBox="0 0 16 16">
    <path fill-rule="evenodd" clip-rule="evenodd" d="M8.667 12.644l.259-.2a.667.667 0 0 1 .814 1.055l-1.322 1.02a.66.66 0 0 1-.45.147.661.661 0 0 1-.387-.147L6.26 13.5a.667.667 0 1 1 .815-1.056l.26.2V5.639a.667.667 0 0 1 1.333 0v7.006zm-.334-11.31a3.67 3.67 0 0 1 3.558 2.78 3.674 3.674 0 0 1 2.776 3.565 3.671 3.671 0 0 1-3.26 3.65.667.667 0 0 1-.147-1.325 2.338 2.338 0 0 0 2.073-2.325c0-1.2-.906-2.203-2.086-2.327a.667.667 0 0 1-.593-.594 2.336 2.336 0 0 0-2.32-2.091c-1.198 0-2.199.91-2.321 2.094a.667.667 0 0 1-.74.594 2.337 2.337 0 0 0-2.606 2.324c0 1.195.899 2.195 2.073 2.325a.667.667 0 0 1-.147 1.325 3.671 3.671 0 0 1-3.26-3.65 3.67 3.67 0 0 1 3.47-3.668 3.67 3.67 0 0 1 3.53-2.678z"/>
</symbol><symbol id="icon-draft" viewBox="0 0 24 24">
    <path fill-rule="evenodd" clip-rule="evenodd" d="M7 1h8.148a2 2 0 0 1 1.554.741l3.852 4.754A2 2 0 0 1 21 7.755V19a4 4 0 0 1-4 4H7a4 4 0 0 1-4-4V5a4 4 0 0 1 4-4zm8.625 2.589V6.4h2.278l-2.278-2.811zM7 3a2 2 0 0 0-2 2v14a2 2 0 0 0 2 2h10a2 2 0 0 0 2-2V8.4h-3.375a2 2 0 0 1-2-2V3H7z"/>
</symbol><symbol id="icon-dropbox" viewBox="0 0 24 24">
    <path fill-rule="evenodd" clip-rule="evenodd" d="M7.878 17.179L2 13.352l4.055-3.251 5.926 3.659-4.103 3.419zm4.103-3.42l5.926-3.658 4.054 3.25-5.866 3.828-4.114-3.42zm.024.745l4.114 3.406 1.764-1.151v1.295l-5.878 3.515v.012l-.012-.012-.012.012v-.012l-5.866-3.515V16.76l1.763 1.151 4.103-3.406v-.024l.012.011.012-.011v.024zM2 6.862l5.878-3.827 4.103 3.42L6.055 10.1 2 6.862zm14.095-3.827l5.866 3.827-4.054 3.239-5.926-3.647 4.114-3.419z"/>
</symbol><symbol id="icon-edit" viewBox="0 0 16 16">
    <path fill-rule="evenodd" clip-rule="evenodd" d="M11.907 5.064l.743-.743-1.638-1.638-.743.743 1.638 1.638zm-.938.938L9.331 4.364l-6.127 6.128-.377 2.015 2.015-.377 6.127-6.128zm2.659-2.58a1.27 1.27 0 0 1 0 1.797l-7.994 7.994a.664.664 0 0 1-.347.183l-3.168.592a.663.663 0 0 1-.774-.774l.593-3.168a.663.663 0 0 1 .183-.347l7.993-7.994a1.27 1.27 0 0 1 1.797 0l1.717 1.718zM13.34 14H7.993c-.88 0-.88-1.333 0-1.333h5.347c.88 0 .88 1.333 0 1.333z"/>
</symbol><symbol id="icon-email" viewBox="0 0 24 24">
    <path fill-rule="evenodd" clip-rule="evenodd" d="M4 4h16a3 3 0 0 1 3 3v11a3 3 0 0 1-3 3H4a3 3 0 0 1-3-3V7.454 7a3 3 0 0 1 3-3zM3 9.362V18a1 1 0 0 0 1 1h16a1 1 0 0 0 1-1V9.362l-7.28 5.096a3 3 0 0 1-3.44 0L3 9.362zm17.997-2.44l-8.424 5.897a1 1 0 0 1-1.146 0L3.003 6.923A1 1 0 0 1 4 6h16a1 1 0 0 1 .997.923z"/>
</symbol><symbol id="icon-emoticon" viewBox="0 0 24 24">
    <path d="M7.707 16.42a.5.5 0 0 1 .6-.801c2 1.497 5.447 1.507 7.39.005a.5.5 0 1 1 .612.79c-2.302 1.78-6.244 1.77-8.602.006z"/>
    <path d="M9 11a1 1 0 1 0 0-2 1 1 0 0 0 0 2z"/>
    <path d="M15 11a1 1 0 1 0 0-2 1 1 0 0 0 0 2z"/>
    <path fill-rule="evenodd" clip-rule="evenodd" d="M1.5 12c0 5.799 4.701 10.5 10.5 10.5S22.5 17.799 22.5 12 17.799 1.5 12 1.5 1.5 6.201 1.5 12zm20 0a9.5 9.5 0 1 1-19 0 9.5 9.5 0 0 1 19 0z"/>
</symbol><symbol id="icon-event" viewBox="0 0 24 24">
    <path fill-rule="evenodd" clip-rule="evenodd" d="M17 4V3a1 1 0 1 1 2 0v1h1a3 3 0 0 1 3 3v10a6 6 0 0 1-6 6H7a6 6 0 0 1-6-6V7a3 3 0 0 1 3-3h2V3a1 1 0 0 1 2 0v1h9zM3 10h18V7a1 1 0 0 0-1-1h-1a1 1 0 1 1-2 0H8a1 1 0 0 1-2 0H4a1 1 0 0 0-1 1v3zm0 2v5a4 4 0 0 0 4 4h10a4 4 0 0 0 4-4v-5H3z"/>
</symbol><symbol id="icon-eye" viewBox="0 0 14 12">
    <path fill-rule="evenodd" clip-rule="evenodd" d="M.407 5.625C1.637 2.605 4.173.667 7 .667s5.364 1.939 6.594 4.958c.097.24.097.51 0 .75-1.23 3.02-3.767 4.958-6.594 4.958-2.827 0-5.364-1.938-6.593-4.958a.996.996 0 0 1 0-.75zM7 10.1c2.28 0 4.37-1.575 5.433-4.1C11.37 3.476 9.28 1.9 7 1.9S2.631 3.476 1.567 6C2.63 8.525 4.72 10.1 7 10.1zm0-1.67C5.681 8.43 4.612 7.344 4.612 6 4.612 4.658 5.68 3.57 7 3.57 8.32 3.57 9.39 4.657 9.39 6c0 1.343-1.07 2.43-2.389 2.43zm0-1.233c.65 0 1.177-.536 1.177-1.197S7.65 4.803 7 4.803 5.824 5.339 5.824 6 6.35 7.197 7 7.197z"/>
</symbol><symbol id="icon-favorite" viewBox="0 0 24 24">
    <path fill-rule="evenodd" clip-rule="evenodd" d="M12 18.224l-5.1 2.663a1 1 0 0 1-1.448-1.057l.973-5.63-4.12-3.988a1 1 0 0 1 .552-1.708l5.7-.823 2.548-5.126a1 1 0 0 1 1.79 0l2.548 5.126 5.7.823a1 1 0 0 1 .553 1.708l-4.12 3.988.972 5.63a1 1 0 0 1-1.448 1.057L12 18.224zm-.463-2.014a1 1 0 0 1 .926 0l3.77 1.968-.718-4.159a1 1 0 0 1 .29-.888l3.035-2.939-4.201-.606a1 1 0 0 1-.753-.545L12 5.247 10.114 9.04a1 1 0 0 1-.752.545l-4.202.606 3.036 2.939a1 1 0 0 1 .29.889l-.719 4.158 3.77-1.968z"/>
</symbol><symbol id="icon-file" viewBox="0 0 24 24">
    <path fill-rule="evenodd" clip-rule="evenodd" d="M6 1h9.532a2 2 0 0 1 1.536.72l4.468 5.362A2 2 0 0 1 22 8.362V19a4 4 0 0 1-4 4H6a4 4 0 0 1-4-4V5a4 4 0 0 1 4-4zm14 18V9h-3a2 2 0 0 1-2-2V3H6a2 2 0 0 0-2 2v14a2 2 0 0 0 2 2h12a2 2 0 0 0 2-2zM18.865 7L17 4.762V7h1.865zM8 14a1 1 0 1 1 0-2h8a1 1 0 1 1 0 2H8zm0 4a1 1 0 1 1 0-2h6a1 1 0 1 1 0 2H8zm0-8a1 1 0 1 1 0-2h3a1 1 0 1 1 0 2H8z"/>
</symbol><symbol id="icon-filter" viewBox="0 0 16 16">
    <path d="M2.667 4.667h10.666a.667.667 0 1 0 0-1.334H2.667a.667.667 0 0 0 0 1.334z"/>
    <path d="M6 12.667h4a.667.667 0 0 0 0-1.334H6a.667.667 0 0 0 0 1.334z"/>
    <path d="M11.333 8.667H4.667a.667.667 0 0 1 0-1.334h6.666a.667.667 0 1 1 0 1.334z"/>
</symbol><symbol id="icon-filters-1" viewBox="0 0 12 10">
    <path d="M.667 1.667h10.666a.667.667 0 1 0 0-1.334H.667a.667.667 0 0 0 0 1.334z"/>
    <path d="M4 9.667h4a.667.667 0 0 0 0-1.334H4a.667.667 0 0 0 0 1.334z"/>
    <path d="M9.333 5.667H2.667a.667.667 0 0 1 0-1.334h6.666a.667.667 0 0 1 0 1.334z"/>
</symbol><symbol id="icon-filters" viewBox="0 0 22 19">
    <path fill-rule="evenodd" clip-rule="evenodd" d="M14 9.913V15a1 1 0 0 1-.553.894l-4 2A1 1 0 0 1 8 17V9.913l-6.774-8.28A1 1 0 0 1 2 0h18a1 1 0 0 1 .774 1.633L14 9.913zm-2 4.469V9.556a1 1 0 0 1 .226-.634L17.89 2H4.11l5.664 6.922a1 1 0 0 1 .226.634v5.826l2-1z"/>
</symbol><symbol id="icon-forward" viewBox="0 0 16 16">
    <path fill-rule="evenodd" clip-rule="evenodd" d="M8.217 5.572l-.002-2.495a.615.615 0 0 1 1.06-.425l4.709 4.927a.615.615 0 0 1 0 .85l-4.7 4.92a.615.615 0 0 1-1.06-.425L8.22 10.16c-2.52.306-4.241 1.33-5.224 3.065-.32.567-1.187.312-1.15-.338.236-4.144 2.4-6.627 6.37-7.316zm4.47 2.432l-3.24-3.39.001 1.487c0 .31-.23.572-.537.611-2.919.375-4.716 1.704-5.46 4.06 1.32-1.112 3.109-1.745 5.342-1.9a.615.615 0 0 1 .658.613l.002 1.905 3.235-3.386z"/>
</symbol><symbol id="icon-friends-request" viewBox="0 0 24 24">
    <path fill-rule="evenodd" clip-rule="evenodd" d="M9 11A5 5 0 1 0 9 1a5 5 0 0 0 0 10zm0-2a3 3 0 1 1 0-6 3 3 0 0 1 0 6z"/>
    <path fill-rule="evenodd" clip-rule="evenodd" d="M9 12a8 8 0 0 1 8 8v2a1 1 0 0 1-1 1H2a1 1 0 0 1-1-1v-2a8 8 0 0 1 8-8zm6 9v-1a6 6 0 0 0-12 0v1h12z"/>
    <path d="M20 12h2c1.333 0 1.333-2 0-2h-2V8c0-1.333-2-1.333-2 0v2h-2c-1.333 0-1.333 2 0 2h2v2c0 1.333 2 1.333 2 0v-2z"/>
</symbol><symbol id="icon-friends" viewBox="0 0 24 24">
    <path fill-rule="evenodd" clip-rule="evenodd" d="M12 7a3 3 0 1 1 0-6 3 3 0 0 1 0 6zm0-2a1 1 0 1 0 0-2 1 1 0 0 0 0 2zm-1 2h2a3 3 0 0 1 3 3v1a3 3 0 0 1-3 3h-2a3 3 0 0 1-3-3v-1a3 3 0 0 1 3-3zm0 2a1 1 0 0 0-1 1v1a1 1 0 0 0 1 1h2a1 1 0 0 0 1-1v-1a1 1 0 0 0-1-1h-2zm8 7a3 3 0 1 1 0-6 3 3 0 0 1 0 6zm0-2a1 1 0 1 0 0-2 1 1 0 0 0 0 2zm-1 2h2a3 3 0 0 1 3 3v1a3 3 0 0 1-3 3h-2a3 3 0 0 1-3-3v-1a3 3 0 0 1 3-3zm0 2a1 1 0 0 0-1 1v1a1 1 0 0 0 1 1h2a1 1 0 0 0 1-1v-1a1 1 0 0 0-1-1h-2zM5 16a3 3 0 1 1 0-6 3 3 0 0 1 0 6zm0-2a1 1 0 1 0 0-2 1 1 0 0 0 0 2zm-1 2h2a3 3 0 0 1 3 3v1a3 3 0 0 1-3 3H4a3 3 0 0 1-3-3v-1a3 3 0 0 1 3-3zm0 2a1 1 0 0 0-1 1v1a1 1 0 0 0 1 1h2a1 1 0 0 0 1-1v-1a1 1 0 0 0-1-1H4z"/>
</symbol><symbol id="icon-full-screen" viewBox="0 0 24 24">
    <path d="M11.524 10.85L5.67 4.997a.476.476 0 1 0-.673.673l5.856 5.856H8.188a.476.476 0 1 0 0 .953H12c.26 0 .472-.21.476-.47V8.19a.476.476 0 1 0-.952 0v2.66z"/>
    <path fill-rule="evenodd" clip-rule="evenodd" d="M18.667 2H5.333A3.333 3.333 0 0 0 2 5.333v13.334A3.333 3.333 0 0 0 5.333 22h13.334A3.333 3.333 0 0 0 22 18.667V5.333A3.333 3.333 0 0 0 18.667 2zM2.952 5.333a2.381 2.381 0 0 1 2.381-2.38h13.334a2.38 2.38 0 0 1 2.38 2.38v8.096H15.43a2 2 0 0 0-2 2v5.619H5.333a2.38 2.38 0 0 1-2.38-2.381V5.333zm11.429 15.715h4.286a2.38 2.38 0 0 0 2.38-2.381V14.38H15.43c-.579 0-1.048.469-1.048 1.048v5.619z"/>
</symbol><symbol id="icon-get-location" viewBox="0 0 16 16">
    <path fill-rule="evenodd" clip-rule="evenodd" d="M11.146 5.62a.606.606 0 0 0-.766-.766L6.523 6.139a.606.606 0 0 0-.384.384L4.854 10.38a.606.606 0 0 0 .766.766l3.857-1.285a.606.606 0 0 0 .384-.384l1.285-3.857zM6.387 9.613l.586-1.76L8.16 9.023l-1.773.591zM9.02 8.167L7.819 6.985l1.794-.598-.593 1.78z"/>
    <path fill-rule="evenodd" clip-rule="evenodd" d="M8 14.667A6.667 6.667 0 1 0 8 1.333a6.667 6.667 0 0 0 0 13.334zm0-1.213A5.454 5.454 0 1 1 8 2.546a5.454 5.454 0 0 1 0 10.909z"/>
</symbol><symbol id="icon-gif" viewBox="0 0 24 24">
    <path fill-rule="evenodd" clip-rule="evenodd" d="M6 1.5h12A4.5 4.5 0 0 1 22.5 6v12a4.5 4.5 0 0 1-4.5 4.5H6A4.5 4.5 0 0 1 1.5 18V6A4.5 4.5 0 0 1 6 1.5zm0 1A3.5 3.5 0 0 0 2.5 6v12A3.5 3.5 0 0 0 6 21.5h12a3.5 3.5 0 0 0 3.5-3.5V6A3.5 3.5 0 0 0 18 2.5H6zM8.306 9c.803 0 1.472.201 2.007.604.535.402.889.95 1.061 1.645h-1.147a1.858 1.858 0 0 0-.721-.886c-.335-.22-.731-.331-1.19-.331-.42 0-.798.1-1.132.302a2.065 2.065 0 0 0-.784.857c-.188.37-.282.804-.282 1.304 0 .526.096.977.287 1.353.19.377.46.664.807.862.348.198.75.297 1.21.297.56 0 1.04-.177 1.442-.53.401-.354.644-.84.726-1.456H8.115v-.818h3.393v1.061a3.327 3.327 0 0 1-.53 1.378 3.05 3.05 0 0 1-1.1.988c-.455.247-.976.37-1.562.37-.656 0-1.236-.15-1.74-.448a3.036 3.036 0 0 1-1.165-1.241C5.137 13.78 5 13.177 5 12.495c0-.681.137-1.287.41-1.816a3.013 3.013 0 0 1 1.162-1.236C7.072 9.148 7.65 9 8.306 9zm5.39.058v6.874h-1.09V9.058h1.09zm5.304 0v.896h-2.896v2.132h2.39v.857h-2.39v2.989h-1.089V9.058H19z"/>
</symbol><symbol id="icon-gift" viewBox="0 0 24 24">
    <path fill-rule="evenodd" clip-rule="evenodd" d="M12 2.05A3.5 3.5 0 0 1 17.965 4H21a2 2 0 0 1 2 2v2a2 2 0 0 1-2 2v11a2 2 0 0 1-2 2H5a2 2 0 0 1-2-2V10a2 2 0 0 1-2-2V6a2 2 0 0 1 2-2h3.035A3.5 3.5 0 0 1 12 2.05zM13.085 4h2.83a1.5 1.5 0 0 0-2.83 0zM9.5 3a1.5 1.5 0 0 0-1.415 1h2.83A1.5 1.5 0 0 0 9.5 3zM11 8H3V6h8v2zm-6 2v11h6V10H5zm8 11V10h6v11h-6zm0-13V6h8v2h-8z"/>
</symbol><symbol id="icon-goal" viewBox="0 0 24 24">
    <path fill-rule="evenodd" clip-rule="evenodd" d="M19.727 5.652A9.959 9.959 0 0 1 22 12c0 5.523-4.477 10-10 10S2 17.523 2 12 6.477 2 12 2c2.392 0 4.589.84 6.31 2.241l.55-.55.262-1.395a1 1 0 0 1 1.966.37l-.057.303.304-.057a1 1 0 1 1 .369 1.966l-1.48.278-.497.496zm-2.84.013a8 8 0 1 0 1.419 1.41l-1.43 1.428a6 6 0 1 1-1.42-1.408l1.43-1.43zM14.01 8.541a4 4 0 1 0 1.423 1.405l-1.508 1.509A2.002 2.002 0 0 1 12 14a2 2 0 1 1 .49-3.94l1.52-1.519z"/>
</symbol><symbol id="icon-google-drive" viewBox="0 0 24 24">
    <path fill-rule="evenodd" clip-rule="evenodd" d="M15.352 2.5h.11a.5.5 0 0 1 .436.256l.055.097v.002l6.483 11.502a.5.5 0 0 1-.434.745l-5.785.026h-.113a.5.5 0 0 1-.434-.252l-.058-.102L9.293 3.561 9.13 3.27a.5.5 0 0 1 .432-.745l.33-.002h.001l5.46-.023zm5.795 11.606L15.17 3.5l-4.752.02 5.977 10.606 4.752-.021z"/>
    <path fill-rule="evenodd" clip-rule="evenodd" d="M8.484 15.515a.5.5 0 0 1 .439-.26H22a.5.5 0 0 1 .436.745l-.164.293-2.71 4.856-.055.097a.5.5 0 0 1-.435.254H5.995a.5.5 0 0 1-.436-.745l.164-.291v-.002l2.708-4.85.053-.097zm.733.74h11.93L18.78 20.5H6.848l2.37-4.245z"/>
    <path fill-rule="evenodd" clip-rule="evenodd" d="M8.975 3.364a.5.5 0 0 0-.871 0L1.622 14.865l-.001.003-.055.096a.5.5 0 0 0 .001.498l.055.095.002.003 2.746 4.828.164.29a.5.5 0 0 0 .87 0l.166-.291v-.002L11.89 9.172l.05-.089a.49.49 0 0 0 .07-.253.497.497 0 0 0-.069-.253l-.05-.091-.002-.003-2.749-4.828v-.001l-.164-.29zm1.96 5.465L4.967 19.417l-2.393-4.206L8.541 4.625l2.393 4.204z"/>
</symbol><symbol id="icon-home" viewBox="0 0 24 24">
    <path fill-rule="evenodd" clip-rule="evenodd" d="M18 10.006l-6-5.4-6 5.4v9.105c0 .368.298.667.667.667h1.555v-2.472c0-1.583 1.296-2.862 2.89-2.862h1.777c1.593 0 2.889 1.28 2.889 2.862v2.472h1.555A.667.667 0 0 0 18 19.11v-9.105zm2.222 9.105A2.889 2.889 0 0 1 17.333 22h-2.666a1.111 1.111 0 0 1-1.111-1.111v-3.583c0-.35-.296-.64-.667-.64H11.11a.654.654 0 0 0-.667.64v3.583c0 .614-.497 1.111-1.11 1.111H6.666a2.889 2.889 0 0 1-2.89-2.889v-7.11a1.111 1.111 0 0 1-1.41-1.716l8.89-8a1.111 1.111 0 0 1 1.486 0l8.89 8A1.111 1.111 0 0 1 20.222 12v7.111z"/>
</symbol><symbol id="icon-image" viewBox="0 0 24 24">
    <path fill-rule="evenodd" clip-rule="evenodd" d="M22.5 18.65c0 1.856-1.573 3.35-3.5 3.35H5c-1.927 0-3.5-1.494-3.5-3.35V5.35C1.5 3.494 3.073 2 5 2h14c1.927 0 3.5 1.494 3.5 3.35v13.3zm-1-3.58l-4.713-4.295-4.714 4.253L17.46 21H19c1.386 0 2.5-1.058 2.5-2.35v-3.58zm0-1.352V5.35C21.5 4.058 20.386 3 19 3H5C3.614 3 2.5 4.058 2.5 5.35v12.095l5.814-5.799a.5.5 0 0 1 .724.02l2.365 2.62 5.05-4.557a.5.5 0 0 1 .672.001l4.375 3.988zM16.113 21l-7.465-8.275-6.14 6.124C2.617 20.049 3.686 21 5 21h11.113zM8.19 8.7a1.927 1.927 0 0 1-1.928-1.925c0-1.063.864-1.925 1.928-1.925 1.065 0 1.929.862 1.929 1.925A1.927 1.927 0 0 1 8.19 8.7zm0-1a.927.927 0 0 0 .93-.925.927.927 0 0 0-.93-.925.927.927 0 0 0-.928.925c0 .51.415.925.928.925z"/>
</symbol><symbol id="icon-inbox" viewBox="0 0 24 24">
    <path fill-rule="evenodd" clip-rule="evenodd" d="M19 15V6a2 2 0 0 0-2-2H7a2 2 0 0 0-2 2v9H9.03a1 1 0 0 1 1 1.016l-.015.985 3.994.002.011-1.014a1 1 0 0 1 1-.989H19zm2 0a1 1 0 0 1 .98 1.196l-.517 2.588A4 4 0 0 1 17.54 22H6.46a4 4 0 0 1-3.923-3.215l-.518-2.589A1 1 0 0 1 3 15V6a4 4 0 0 1 4-4h10a4 4 0 0 1 4 4v9zM4.22 17l.278 1.392A2 2 0 0 0 6.46 20H17.54a2 2 0 0 0 1.962-1.608L19.78 17h-3.77L16 18.015a1 1 0 0 1-1.001.989L8.999 19A1 1 0 0 1 8 17.984L8.015 17H4.22z"/>
</symbol><symbol id="icon-info" viewBox="0 0 14 14">
    <path d="M6.417 4.667v2.916a.583.583 0 1 0 1.167 0V4.667a.583.583 0 1 0-1.167 0z"/>
    <path d="M7.584 9.333a.583.583 0 1 1-1.167 0 .583.583 0 0 1 1.167 0z"/>
    <path fill-rule="evenodd" clip-rule="evenodd" d="M12.834 7A5.833 5.833 0 1 1 1.167 7a5.833 5.833 0 0 1 11.667 0zm-10.5 0a4.667 4.667 0 1 0 9.333 0 4.667 4.667 0 0 0-9.333 0z"/>
</symbol><symbol id="icon-leaderboard" viewBox="0 0 24 24">
    <path fill-rule="evenodd" clip-rule="evenodd" d="M10 2h4a2 2 0 0 1 2 2v7h4a2 2 0 0 1 2 2v8a1 1 0 0 1-1 1H3a1 1 0 0 1-1-1V8.5a2 2 0 0 1 2-2h4V4a2 2 0 0 1 2-2zm0 18h4V4h-4v16zM8 8.5H4V20h4V8.5zM16 20h4v-7h-4v7z"/>
</symbol><symbol id="icon-library" viewBox="0 0 24 24">
    <path fill-rule="evenodd" clip-rule="evenodd" d="M20 16V4H8v12h12zm0 2H5a1 1 0 1 0 0 2h15v-2zm2 2a2 2 0 0 1-2 2H5a3 3 0 0 1-3-3V4a2 2 0 0 1 2-2h16a2 2 0 0 1 2 2v16zM4 16.17c.313-.11.65-.17 1-.17h1V4H4v12.17zm7.487-5.658a1 1 0 1 1 0-2h3a1 1 0 1 1 0 2h-3zm0 3a1 1 0 1 1 0-2h5a1 1 0 1 1 0 2h-5z"/>
</symbol><symbol id="icon-like-thumb" viewBox="0 0 24 24">
    <path fill-rule="evenodd" clip-rule="evenodd" d="M6.702 22.13c.908.563 1.982.862 3.201.89 3.39.027 5.89.027 7.518 0 2.683-.046 3.88-.857 4.532-2.896.604-1.889 1.201-6.945 1.006-9.484-.121-1.582-.882-2.477-2.274-2.56-.48-.028-1.008.037-1.733.189-.26.054-1.043.237-1.552.356l-.438.102c-.442.1-.842.182-1.239.255-.665.123-1.135.15-1.422.102-.137-.023-.157-.035-.169-.054-.112-.178-.12-.577-.017-1.967.05-.676.075-1.12.079-1.623.024-2.768-1.536-4.074-4.13-3.297a.972.972 0 0 0-.694.789c-.35 2.498-1.248 4.684-2.7 6.572A2.02 2.02 0 0 0 5 8.64H3c-1.105 0-2 .86-2 1.92v10.56c0 1.06.895 1.92 2 1.92h2c.719 0 1.35-.364 1.702-.91zM12.12 6.925c.048-.64.07-1.05.074-1.501.01-1.254-.206-1.669-.946-1.582-.571 3.205-1.99 5.97-4.248 8.272v7.737c.728.81 1.688 1.22 2.935 1.247 3.36.028 5.845.028 7.45 0 1.842-.03 2.266-.317 2.656-1.539.532-1.66 1.1-6.478.924-8.779-.054-.699-.112-.767-.404-.784-.252-.015-.624.03-1.183.148-.23.048-.958.218-1.465.336-.236.055-.425.1-.494.115a33.53 33.53 0 0 1-1.32.272c-1.875.345-3.053.148-3.678-.845-.437-.693-.446-1.141-.3-3.097zM5 20.178V21.12H3V10.56h2V20.178z"/>
</symbol><symbol id="icon-like" viewBox="0 0 24 24">
    <path fill-rule="evenodd" clip-rule="evenodd" d="M12 4.13l.222-.229a6.206 6.206 0 0 1 8.94 0c2.45 2.52 2.45 6.594 0 9.113l-7.728 7.946a2 2 0 0 1-2.828.04l-.04-.04-7.728-7.946c-2.45-2.52-2.45-6.593 0-9.113a6.206 6.206 0 0 1 8.94 0L12 4.13zm7.728 7.49c1.696-1.744 1.696-4.581 0-6.324a4.206 4.206 0 0 0-6.073 0l-.938.965a1 1 0 0 1-1.434 0l-.938-.965a4.206 4.206 0 0 0-6.073 0c-1.696 1.743-1.696 4.58 0 6.324L12 19.566l7.728-7.946z"/>
</symbol><symbol id="icon-logout" viewBox="0 0 19 21">
    <path fill-rule="evenodd" clip-rule="evenodd" d="M15.794 11.583H7.375a.875.875 0 1 1 0-1.75h8.84l-1.063-1.077a.875.875 0 1 1 1.246-1.229l2.333 2.365a.875.875 0 0 1-.004 1.233l-2.333 2.333a.875.875 0 1 1-1.238-1.237l.638-.638z"/>
    <path fill-rule="evenodd" clip-rule="evenodd" d="M13.5 17.242v-1.867c0-1.167 1.75-1.167 1.75 0v1.867c0 2.045-1.839 3.675-4.083 3.675H4.75c-2.244 0-4.083-1.63-4.083-3.675V4.175C.667 2.13 2.506.5 4.75.5h6.417c2.244 0 4.083 1.63 4.083 3.675v1.867a.875.875 0 0 1-1.75 0V4.175c0-1.044-1.032-1.925-2.333-1.925H4.75c-1.3 0-2.333.88-2.333 1.925v13.067c0 1.044 1.032 1.925 2.333 1.925h6.417c1.3 0 2.333-.881 2.333-1.925z"/>
</symbol><symbol id="icon-messages" viewBox="0 0 24 24">
    <path fill-rule="evenodd" clip-rule="evenodd" d="M21.783 22.976a1 1 0 0 0 1.193-1.193l-1.097-4.94A10.959 10.959 0 0 0 23 12c0-6.075-4.925-11-11-11S1 5.925 1 12s4.925 11 11 11c1.702 0 3.35-.388 4.844-1.121l4.94 1.097zm-1.84-6.739a1 1 0 0 0-.095.689l.835 3.757-3.757-.835a1 1 0 0 0-.689.094A8.955 8.955 0 0 1 12 21a9 9 0 1 1 9-9c0 1.5-.366 2.945-1.058 4.237z"/>
    <path fill-rule="evenodd" clip-rule="evenodd" d="M9 14a2 2 0 1 0 0-4 2 2 0 0 0 0 4z"/>
    <path fill-rule="evenodd" clip-rule="evenodd" d="M15 14a2 2 0 1 0 0-4 2 2 0 0 0 0 4z"/>
</symbol><symbol id="icon-minimize" viewBox="0 0 24 24">
    <path fill-rule="evenodd" clip-rule="evenodd" d="M13 11h7a1 1 0 1 1 0 2H4a1 1 0 1 1 0-2h9z"/>
</symbol><symbol id="icon-minus" viewBox="0 0 26 26">
    <path fill-rule="evenodd" clip-rule="evenodd" d="M14.037 11.963h7.26a1.037 1.037 0 1 1 0 2.074H4.704a1.037 1.037 0 1 1 0-2.074h9.333z"/>
</symbol><symbol id="icon-moon" viewBox="0 0 24 24">
    <path fill-rule="evenodd" clip-rule="evenodd" d="M12.36.764a1.5 1.5 0 0 1-.1 1.628 6.684 6.684 0 0 0 9.348 9.348 1.5 1.5 0 0 1 2.386 1.344A12.022 12.022 0 1 1 10.916.006a1.5 1.5 0 0 1 1.445.758zm-4.05 2.99A9.022 9.022 0 1 0 20.245 15.69 9.684 9.684 0 0 1 8.31 3.755z"/>
</symbol><symbol id="icon-next" viewBox="0 0 24 24">
    <path d="M11.842 12.052a.095.095 0 0 0-.029-.132L6.91 8.753a.095.095 0 0 0-.147.08v6.334a.095.095 0 0 0 .147.08l4.904-3.167a.096.096 0 0 0 .029-.028z"/>
    <path d="M18.48 11.92a.095.095 0 0 1 0 .16l-4.905 3.167a.095.095 0 0 1-.146-.08V8.833a.095.095 0 0 1 .146-.08l4.905 3.167z"/>
    <path fill-rule="evenodd" clip-rule="evenodd" d="M2 12c0 5.523 4.477 10 10 10s10-4.477 10-10S17.523 2 12 2 2 6.477 2 12zm10.33-.88c.053.034.102.072.146.114V8.832a1.048 1.048 0 0 1 1.616-.88l4.905 3.167a1.048 1.048 0 0 1 0 1.76l-4.905 3.167a1.048 1.048 0 0 1-1.616-.88v-2.4a1.04 1.04 0 0 1-.146.113l-4.905 3.167a1.048 1.048 0 0 1-1.615-.88V8.833a1.048 1.048 0 0 1 1.615-.88l4.905 3.167z"/>
</symbol><symbol id="icon-phone-call" viewBox="0 0 24 24">
    <path fill-rule="evenodd" clip-rule="evenodd" d="M9.63 10.79c-.18-.191-.213-.634.02-1.16.878-2.345.997-2.78.435-3.373l-3.61-3.799c-.693-.73-1.794-.544-2.475.173C1.333 5.438 1.333 9.97 4 12.776l6.742 7.097c2.694 2.836 7.085 2.836 9.78 0 .658-.693.82-1.765.164-2.457l-3.61-3.8c-.605-.636-1.016-.511-3.27.42-.52.255-.877.225-1.035.059l-3.14-3.306zm9.381 7.768c-1.91 1.943-4.933 1.923-6.819-.063L5.45 11.398c-1.89-1.989-1.932-5.206-.128-7.25l3.006 3.164-.007.025c-.094.345-.269.86-.52 1.537-.515 1.15-.418 2.453.38 3.293l3.14 3.305c.82.863 2.122.971 3.31.386a18.35 18.35 0 0 1 1.339-.502l3.041 3.202z"/>
    <path d="M13.7 10.2a.8.8 0 0 0-.8-.8 1 1 0 1 1 0-2 2.8 2.8 0 0 1 2.8 2.8 1 1 0 1 1-2 0z"/>
    <path d="M12.9 6.7a3.5 3.5 0 0 1 3.5 3.5 1 1 0 1 0 2 0 5.5 5.5 0 0 0-5.5-5.5 1 1 0 1 0 0 2z"/>
    <path d="M19.1 10.2A6.2 6.2 0 0 0 12.9 4a1 1 0 1 1 0-2 8.2 8.2 0 0 1 8.2 8.2 1 1 0 1 1-2 0z"/>
</symbol><symbol id="icon-photo" viewBox="0 0 24 24">
    <path fill-rule="evenodd" clip-rule="evenodd" d="M23 15.06V19a4 4 0 0 1-4 4H5a4 4 0 0 1-4-4V5a4 4 0 0 1 4-4h14a4 4 0 0 1 4 4v9.94a.99.99 0 0 1 0 .12zm-2 .352l-4-3.998-3.78 3.78L18.445 21H19a2 2 0 0 0 2-2v-3.588zm0-2.827V5a2 2 0 0 0-2-2H5a2 2 0 0 0-2 2v11.586l5.293-5.293a1 1 0 0 1 1.45.038l2.137 2.375 4.413-4.413a1 1 0 0 1 1.414 0L21 12.585zM15.755 21l-6.793-7.548-5.926 5.926A2 2 0 0 0 5 21h10.755zM8.5 9a2.5 2.5 0 1 1 0-5 2.5 2.5 0 0 1 0 5zm0-2a.5.5 0 1 0 0-1 .5.5 0 0 0 0 1z"/>
</symbol><symbol id="icon-place" viewBox="0 0 24 24">
    <path fill-rule="evenodd" clip-rule="evenodd" d="M12 15a4 4 0 1 0 0-8 4 4 0 0 0 0 8zm0-2a2 2 0 1 1 0-4 2 2 0 0 1 0 4z"/>
    <path fill-rule="evenodd" clip-rule="evenodd" d="M3 10.87C3 5.968 7.033 2 12 2s9 3.968 9 8.87c0 2.422-.99 4.69-2.705 6.34l-5.594 5.503a1 1 0 0 1-1.402 0l-5.602-5.51A8.783 8.783 0 0 1 3 10.87zm13.9 4.906A6.783 6.783 0 0 0 19 10.87C19 7.08 15.87 4 12 4s-7 3.08-7 6.87c0 1.865.76 3.61 2.094 4.9L12 20.598l4.9-4.821z"/>
</symbol><symbol id="icon-play" viewBox="0 0 24 24">
    <path fill-rule="evenodd" clip-rule="evenodd" d="M2 12c0 5.523 4.477 10 10 10s10-4.477 10-10S17.523 2 12 2 2 6.477 2 12zm6.834 4.79c.314.486.963.625 1.449.311l6.537-4.221a1.048 1.048 0 0 0 0-1.76l-6.537-4.221a1.048 1.048 0 0 0-1.616.88v8.442c0 .202.058.4.167.569z"/>
</symbol><symbol id="icon-plus" viewBox="0 0 18 18">
    <path fill-rule="evenodd" clip-rule="evenodd" d="M10 8h7a1 1 0 1 1 0 2h-7v7a1 1 0 1 1-2 0v-7H1a1 1 0 1 1 0-2h7V1a1 1 0 1 1 2 0v7z"/>
</symbol><symbol id="icon-profile" viewBox="0 0 24 24">
    <path fill-rule="evenodd" clip-rule="evenodd" d="M7.77 7.824C7.77 5.16 9.886 3 12.5 3c2.613 0 4.73 2.16 4.73 4.824a4.844 4.844 0 0 1-2.103 4.011C17.974 12.921 20 15.72 20 19v2H5v-2c0-3.28 2.026-6.08 4.873-7.165a4.844 4.844 0 0 1-2.104-4.011zm4.73 2.705c1.466 0 2.654-1.211 2.654-2.705 0-1.495-1.188-2.706-2.654-2.706S9.846 6.329 9.846 7.824c0 1.494 1.188 2.705 2.654 2.705zm0 2.942c-2.957 0-5.36 2.412-5.422 5.411h10.844c-.062-3-2.466-5.411-5.422-5.411z"/>
</symbol><symbol id="icon-project" viewBox="0 0 24 24">
    <path d="M8.692 11.278l2.27 2.242 4.256-5.156a1 1 0 0 1 1.542 1.272l-4.95 6a1 1 0 0 1-1.474.076l-3.05-3.01a1 1 0 0 1 1.406-1.424z"/>
    <path fill-rule="evenodd" clip-rule="evenodd" d="M8 1h8a7 7 0 0 1 7 7v8a7 7 0 0 1-7 7H8a7 7 0 0 1-7-7V8a7 7 0 0 1 7-7zm0 2a5 5 0 0 0-5 5v8a5 5 0 0 0 5 5h8a5 5 0 0 0 5-5V8a5 5 0 0 0-5-5H8z"/>
</symbol><symbol id="icon-refresh" viewBox="0 0 24 24">
    <path fill-rule="evenodd" clip-rule="evenodd" d="M3.768 6.32C6.527 2.31 11.877.814 16.384 3.012c4.964 2.421 7.025 8.408 4.604 13.372-2.421 4.964-8.408 7.025-13.372 4.604a9.958 9.958 0 0 1-4.551-4.497 1 1 0 0 1 1.787-.897 8 8 0 1 0 .213-7.583h1.703a1 1 0 1 1 0 2h-4a1 1 0 0 1-1-1v-4a1 1 0 0 1 2 0v1.31z"/>
</symbol><symbol id="icon-relationship" viewBox="0 0 24 24">
    <path fill-rule="evenodd" clip-rule="evenodd" d="M13 10h2a1 1 0 1 1 0 2h-2v2a1 1 0 1 1-2 0v-2H9a1 1 0 1 1 0-2h2V8a1 1 0 1 1 2 0v2zM9.696 21.06l-6.665-6.867c-2.708-2.79-2.708-7.3 0-10.089A6.84 6.84 0 0 1 12 3.317a6.84 6.84 0 0 1 8.97.787c2.707 2.79 2.707 7.3 0 10.089l-6.666 6.867a3.072 3.072 0 0 1-2.304.939 3.071 3.071 0 0 1-2.304-.94zm2.258-1.061h.092c.303.014.599-.102.823-.332l6.665-6.867c1.954-2.013 1.954-5.29 0-7.303a4.843 4.843 0 0 0-6.847-.155 1 1 0 0 1-1.374 0 4.843 4.843 0 0 0-6.847.155c-1.955 2.014-1.955 5.29 0 7.303l6.665 6.867c.224.23.52.346.823.332z"/>
</symbol><symbol id="icon-repeat" viewBox="0 0 24 24">
    <path d="M4.385 8.28c0-1.157.93-2.094 2.077-2.094h9.401l-1.584 1.6a.701.701 0 0 0 .001.987c.271.272.71.272.98-.001l2.717-2.746a.677.677 0 0 0 .254-.542.698.698 0 0 0-.204-.497l-2.769-2.783a.688.688 0 0 0-.979.001.701.701 0 0 0 .001.987l1.591 1.599h-9.41C4.55 4.79 3 6.352 3 8.279v6.512c0 .385.31.697.692.697a.695.695 0 0 0 .693-.697V8.279z"/>
    <path d="M17.538 17.814H8.135l1.586-1.6a.702.702 0 0 0-.001-.987.689.689 0 0 0-.98.001l-2.73 2.756a.683.683 0 0 0-.24.53c-.002.184.07.362.202.495l2.77 2.787c.27.272.709.272.979 0a.702.702 0 0 0-.001-.987l-1.59-1.6h9.408c1.912 0 3.462-1.561 3.462-3.488V9.209a.695.695 0 0 0-.692-.697.695.695 0 0 0-.693.697v6.512c0 1.156-.93 2.093-2.076 2.093z"/>
</symbol><symbol id="icon-reply-big" viewBox="0 0 20 18">
    <path fill-rule="evenodd" clip-rule="evenodd" d="M9.674 5.358c5.955 1.034 9.202 4.758 9.555 10.974.055.976-1.244 1.357-1.725.507-1.474-2.604-4.056-4.138-7.835-4.597l-.004 4.143c0 .832-1.016 1.239-1.59.637l-7.05-7.378a.923.923 0 0 1 0-1.275L8.087.978c.576-.603 1.591-.195 1.59.638l-.003 3.742zM2.97 9.007l4.852 5.077.002-2.857c0-.535.454-.957.987-.92 3.35.233 6.034 1.182 8.012 2.85-1.114-3.533-3.81-5.527-8.189-6.089a.923.923 0 0 1-.805-.916l.001-2.232-4.86 5.087z"/>
</symbol><symbol id="icon-reply" viewBox="0 0 16 16">
    <path fill-rule="evenodd" clip-rule="evenodd" d="M7.783 5.572l.002-2.495a.615.615 0 0 0-1.06-.425L2.016 7.579a.615.615 0 0 0 0 .85l4.7 4.92a.615.615 0 0 0 1.06-.425l.003-2.763c2.52.306 4.241 1.33 5.224 3.065.32.567 1.187.312 1.15-.338-.236-4.144-2.4-6.627-6.37-7.316zm-4.47 2.432l3.24-3.39L6.552 6.1c0 .31.23.572.537.611 2.919.375 4.716 1.704 5.46 4.06-1.32-1.112-3.109-1.745-5.342-1.9a.615.615 0 0 0-.658.613l-.002 1.905-3.234-3.386z"/>
</symbol><symbol id="icon-salary" viewBox="0 0 16 16">
    <path fill-rule="evenodd" clip-rule="evenodd" d="M14.667 3.333v9.455a1.873 1.873 0 0 1-1.867 1.879H3.2a1.873 1.873 0 0 1-1.867-1.88V3.334a2 2 0 0 1 2-2h9.334a2 2 0 0 1 2 2zm-1.334 8.553a1.997 1.997 0 0 1-.666.114H3.333c-.233 0-.458-.04-.666-.114v.902c0 .303.24.545.533.545h9.6a.54.54 0 0 0 .533-.545v-.902zm0-1.886V3.333a.667.667 0 0 0-.666-.666H3.333a.667.667 0 0 0-.666.666V10c0 .368.298.667.666.667h9.334a.667.667 0 0 0 .666-.667zM8.667 4h.635c.368 0 .667.298.667.667v.303a.667.667 0 0 1-1.226.363h-1.4v.668h1.324C9.403 6 10 6.598 10 7.334V8c0 .736-.597 1.333-1.333 1.333a.667.667 0 0 1-1.334 0h-.666A.667.667 0 0 1 6 8.65l.01-.367A.667.667 0 0 1 7.272 8h1.395v-.666H7.343A1.333 1.333 0 0 1 6.009 6v-.668c0-.733.592-1.328 1.324-1.333a.667.667 0 1 1 1.334 0z"/>
</symbol><symbol id="icon-sale" viewBox="0 0 24 24">
    <path fill-rule="evenodd" clip-rule="evenodd" d="M19.1 10.3h-.388c-.73 0-1.403-.259-1.918-.69-.515.431-1.187.69-1.918.69h-.958c-.731 0-1.403-.259-1.918-.69-.515.431-1.188.69-1.918.69h-.959c-.73 0-1.403-.259-1.918-.69-.514.431-1.187.69-1.917.69H4.9V20H9v-6a1 1 0 0 1 1-1h4.5a1 1 0 0 1 1 1v6h3.6v-9.7zm2-.718V20.1a1.9 1.9 0 0 1-1.9 1.9H4.8a1.9 1.9 0 0 1-1.9-1.9V9.582a2.637 2.637 0 0 1-.9-1.98 2.6 2.6 0 0 1 .113-.757l1.043-3.427A2 2 0 0 1 5.07 2h13.86a2 2 0 0 1 1.913 1.418l1.044 3.427c.31 1.023-.035 2.067-.787 2.737zM13.5 20v-5H11v5h2.5zm6.473-12.572L18.93 4H5.07L4.026 7.428A.6.6 0 0 0 4 7.603c0 .37.348.697.808.697h.48c.52 0 .917-.373.917-.8 0-1.333 2-1.333 2 0 0 .427.398.8.918.8h.959c.52 0 .918-.373.918-.8 0-1.333 2-1.333 2 0 0 .427.397.8.918.8h.958c.52 0 .918-.373.918-.8 0-1.333 2-1.333 2 0 0 .427.397.8.918.8h.48c.08 0 .16-.01.237-.031.426-.114.65-.493.544-.841z"/>
</symbol><symbol id="icon-saved" viewBox="0 0 24 24">
    <path fill-rule="evenodd" clip-rule="evenodd" d="M7.857 1.048h9.286a3.81 3.81 0 0 1 3.81 3.81v15.354a1.905 1.905 0 0 1-3.095 1.487L12.5 17.412 7.143 21.7a1.905 1.905 0 0 1-3.095-1.487V4.857a3.81 3.81 0 0 1 3.81-3.81zm0 1.904a1.905 1.905 0 0 0-1.904 1.905v15.355l5.357-4.287a1.905 1.905 0 0 1 2.38 0l5.358 4.287V4.857a1.905 1.905 0 0 0-1.905-1.905H7.857z"/>
</symbol><symbol id="icon-schedule" viewBox="0 0 24 24">
    <path fill-rule="evenodd" clip-rule="evenodd" d="M17 4V3a1 1 0 1 1 2 0v1h1a3 3 0 0 1 3 3v10a6 6 0 0 1-6 6H7a6 6 0 0 1-6-6V7a3 3 0 0 1 3-3h2V3a1 1 0 0 1 2 0v1h9zM3 10h18V7a1 1 0 0 0-1-1h-1a1 1 0 1 1-2 0H8a1 1 0 0 1-2 0H4a1 1 0 0 0-1 1v3zm0 2v5a4 4 0 0 0 4 4h10a4 4 0 0 0 4-4v-5H3z"/>
</symbol><symbol id="icon-search" viewBox="0 0 21 21">
    <path fill-rule="evenodd" clip-rule="evenodd" d="M2.683 2.683a9.16 9.16 0 1 0 12.954 12.954A9.16 9.16 0 0 0 2.683 2.683zm1.414 1.414a7.16 7.16 0 1 1 10.126 10.126A7.16 7.16 0 0 1 4.097 4.097z"/>
    <path d="M20.094 18.282l-4.13-4.129c-.942-.943-2.356.471-1.413 1.414l4.13 4.13c.942.943 2.356-.472 1.413-1.415z"/>
</symbol><symbol id="icon-sent" viewBox="0 0 24 24">
    <path fill-rule="evenodd" clip-rule="evenodd" d="M9.94 19.493l-1.351-1.09v2.445c-.001.016.008.039.039.068.094.09.267.113.4.064l.913-1.487zm1.57 1.266l-.895 1.458a.998.998 0 0 1-.211.244c-.91.761-2.302.72-3.158-.099-.45-.43-.692-1.025-.655-1.575l-.002-3.849-4.4-3.578a3.22 3.22 0 0 1 .873-5.5l17.572-6.788a.965.965 0 0 1 .906.091 1.002 1.002 0 0 1 .421 1.12L17.17 19.543c-.473 1.703-2.246 2.701-3.958 2.236a3.232 3.232 0 0 1-1.182-.602l-.52-.42zm-2.395-4.5l4.17 3.362c.132.106.286.184.45.229a1.226 1.226 0 0 0 1.507-.84l3.7-13.327-9.827 10.576zm-1.636-1.176L17.317 4.5 3.783 9.726a1.219 1.219 0 0 0-.332 2.082l4.028 3.275z"/>
</symbol><symbol id="icon-settings-player" viewBox="0 0 24 24">
    <path fill-rule="evenodd" clip-rule="evenodd" d="M12 16a4 4 0 1 1 0-8 4 4 0 0 1 0 8zm0-1a3 3 0 1 0 0-6 3 3 0 0 0 0 6z"/>
    <path fill-rule="evenodd" clip-rule="evenodd" d="M3.803 6.616a.5.5 0 0 1 .065-.626L5.99 3.868a.5.5 0 0 1 .626-.065l1.688 1.1a7.953 7.953 0 0 1 1.292-.535l.415-1.971A.5.5 0 0 1 10.5 2h3a.5.5 0 0 1 .49.397l.414 1.97c.447.141.879.32 1.292.536l1.688-1.1a.5.5 0 0 1 .626.065l2.122 2.122a.5.5 0 0 1 .065.626l-1.1 1.688c.215.413.395.845.535 1.292l1.971.415A.5.5 0 0 1 22 10.5v3a.5.5 0 0 1-.397.49l-1.97.414c-.141.447-.32.879-.536 1.292l1.1 1.688a.5.5 0 0 1-.065.626l-2.122 2.122a.5.5 0 0 1-.626.065l-1.688-1.1a7.956 7.956 0 0 1-1.292.535l-.415 1.971A.5.5 0 0 1 13.5 22h-3a.5.5 0 0 1-.49-.397l-.414-1.97a7.954 7.954 0 0 1-1.292-.536l-1.688 1.1a.5.5 0 0 1-.626-.065L3.868 18.01a.5.5 0 0 1-.065-.626l1.1-1.688a7.955 7.955 0 0 1-.535-1.292l-1.971-.415A.5.5 0 0 1 2 13.5v-3a.5.5 0 0 1 .397-.49l1.97-.414c.141-.447.32-.879.536-1.292l-1.1-1.688zm1.06-.206l1.041 1.598a.5.5 0 0 1 .016.521 6.954 6.954 0 0 0-.674 1.626.5.5 0 0 1-.38.358L3 10.906v2.188l1.866.393a.5.5 0 0 1 .38.358c.155.57.381 1.115.674 1.626a.5.5 0 0 1-.016.521L4.862 17.59l1.548 1.548 1.598-1.042a.5.5 0 0 1 .521-.016c.51.293 1.056.52 1.626.674a.5.5 0 0 1 .358.38L10.906 21h2.188l.393-1.866a.5.5 0 0 1 .358-.38 6.955 6.955 0 0 0 1.626-.674.5.5 0 0 1 .521.016l1.598 1.042 1.548-1.548-1.042-1.598a.5.5 0 0 1-.016-.521c.293-.51.52-1.056.674-1.626a.5.5 0 0 1 .38-.358L21 13.094v-2.188l-1.866-.393a.5.5 0 0 1-.38-.358 6.954 6.954 0 0 0-.674-1.626.5.5 0 0 1 .016-.521l1.042-1.598-1.548-1.548-1.598 1.042a.5.5 0 0 1-.521.016 6.955 6.955 0 0 0-1.626-.674.5.5 0 0 1-.358-.38L13.094 3h-2.188l-.393 1.866a.5.5 0 0 1-.358.38 6.954 6.954 0 0 0-1.626.674.5.5 0 0 1-.521-.016L6.41 4.862 4.862 6.41z"/>
</symbol><symbol id="icon-settings" viewBox="0 0 24 24">
    <path fill-rule="evenodd" clip-rule="evenodd" d="M12 15.632c2.022 0 3.66-1.626 3.66-3.632 0-2.006-1.638-3.632-3.66-3.632-2.022 0-3.66 1.626-3.66 3.632 0 2.006 1.638 3.632 3.66 3.632zm0-2c-.908 0-1.645-.73-1.645-1.632 0-.901.737-1.632 1.645-1.632s1.645.73 1.645 1.632c0 .901-.737 1.632-1.645 1.632z"/>
    <path fill-rule="evenodd" clip-rule="evenodd" d="M9.094 3.34A2.964 2.964 0 0 1 12 1c1.404 0 2.616.976 2.906 2.34l.056.265a8.974 8.974 0 0 1 2.888 1.652l.257-.084A2.98 2.98 0 0 1 21.602 6.5a2.93 2.93 0 0 1-.589 3.666l-.202.18a8.817 8.817 0 0 1-.002 3.307l.204.18a2.93 2.93 0 0 1 .59 3.667 2.98 2.98 0 0 1-3.496 1.327l-.258-.084a9.007 9.007 0 0 1-2.887 1.654l-.056.264A2.964 2.964 0 0 1 12 23a2.964 2.964 0 0 1-2.906-2.34l-.056-.265a8.973 8.973 0 0 1-2.888-1.652l-.257.084A2.98 2.98 0 0 1 2.398 17.5a2.93 2.93 0 0 1 .589-3.666l.202-.18a8.817 8.817 0 0 1 .001-3.307l-.203-.18a2.93 2.93 0 0 1-.59-3.667 2.98 2.98 0 0 1 3.496-1.327l.258.084a9.008 9.008 0 0 1 2.887-1.654l.056-.264zM12 3c-.45 0-.84.313-.933.751l-.178.837c-.077.367-.355.66-.72.759A6.992 6.992 0 0 0 7.108 7.1a1.014 1.014 0 0 1-1.022.24l-.82-.266a.957.957 0 0 0-1.122.426.94.94 0 0 0 .189 1.177l.644.573c.28.25.397.636.301.998a6.834 6.834 0 0 0-.001 3.504.995.995 0 0 1-.302 1l-.642.57a.94.94 0 0 0-.19 1.178.957.957 0 0 0 1.123.426l.82-.266c.359-.116.754-.024 1.023.24a6.954 6.954 0 0 0 3.06 1.75c.364.1.642.393.72.76l.178.839A.952.952 0 0 0 12 21c.45 0 .84-.313.933-.751l.178-.837c.077-.367.355-.66.72-.759a6.995 6.995 0 0 0 3.061-1.753 1.014 1.014 0 0 1 1.022-.24l.82.266a.957.957 0 0 0 1.122-.426.94.94 0 0 0-.189-1.177l-.644-.573a.995.995 0 0 1-.301-.998 6.833 6.833 0 0 0 .001-3.504.995.995 0 0 1 .302-1l.642-.57a.94.94 0 0 0 .19-1.178.957.957 0 0 0-1.123-.426l-.82.266c-.359.116-.754.024-1.023-.24a6.954 6.954 0 0 0-3.06-1.75 1.003 1.003 0 0 1-.72-.76l-.178-.839A.952.952 0 0 0 12 3z"/>
</symbol><symbol id="icon-share" viewBox="0 0 24 24">
    <path fill-rule="evenodd" clip-rule="evenodd" d="M15 5a4 4 0 1 1 .707 2.272l-6.939 3.382c.15.42.232.874.232 1.346 0 .44-.07.862-.202 1.258l6.9 3.484a4 4 0 1 1-.681 1.896l-7.312-3.691a4 4 0 1 1-.077-5.962l7.39-3.602A4.034 4.034 0 0 1 15 5zm6 0a2 2 0 1 0-4 0 2 2 0 0 0 4 0zm0 14a2 2 0 1 0-4 0 2 2 0 0 0 4 0zM5 10a2 2 0 1 1 0 4 2 2 0 0 1 0-4z"/>
</symbol><symbol id="icon-sort-1" viewBox="0 0 24 24">
    <path fill-rule="evenodd" clip-rule="evenodd" d="M6 2h12a4 4 0 0 1 4 4v12a4 4 0 0 1-4 4H6a4 4 0 0 1-4-4V6a4 4 0 0 1 4-4zm0 2a2 2 0 0 0-2 2v12a2 2 0 0 0 2 2h12a2 2 0 0 0 2-2V6a2 2 0 0 0-2-2H6zm1 4a1 1 0 0 1 0-2h10a1 1 0 1 1 0 2H7zm0 5a1 1 0 1 1 0-2h10a1 1 0 1 1 0 2H7zm0 5a1 1 0 1 1 0-2h5a1 1 0 1 1 0 2H7z"/>
</symbol><symbol id="icon-sort-2" viewBox="0 0 24 24">
    <path fill-rule="evenodd" clip-rule="evenodd" d="M6 2h12a4 4 0 0 1 4 4v12a4 4 0 0 1-4 4H6a4 4 0 0 1-4-4V6a4 4 0 0 1 4-4zm0 2a2 2 0 0 0-2 2v12a2 2 0 0 0 2 2h12a2 2 0 0 0 2-2V6a2 2 0 0 0-2-2H6zm1.707 2.293L8 6.586l1.293-1.293a1 1 0 0 1 1.414 1.414l-2 2a1 1 0 0 1-1.414 0l-1-1a1 1 0 0 1 1.414-1.414zM13 8A1 1 0 0 1 13 6l3.982.005a1 1 0 0 1-.003 2L13 8zm0 5A1 1 0 0 1 13 11l3.982.005a1 1 0 0 1-.003 2L13 13zm0 5A1 1 0 0 1 13 16l3.982.005a1 1 0 0 1-.003 2L13 18zm-5.292-6.707l.293.293 1.293-1.293a1 1 0 1 1 1.414 1.414l-2 2a1 1 0 0 1-1.414 0l-1-1a1 1 0 1 1 1.414-1.414zm0 5l.293.293 1.293-1.293a1 1 0 0 1 1.414 1.414l-2 2a1 1 0 0 1-1.414 0l-1-1a1 1 0 1 1 1.414-1.414z"/>
</symbol><symbol id="icon-sorting-1" viewBox="0 0 16 16">
    <path d="M2 11V1a1 1 0 0 0-2 0v10a1 1 0 1 0 2 0z"/>
    <path d="M16 8V1a1 1 0 1 0-2 0v7a1 1 0 1 0 2 0z"/>
    <path d="M9 1v14a1 1 0 1 1-2 0V1a1 1 0 0 1 2 0z"/>
</symbol><symbol id="icon-sorting-2" viewBox="0 0 16 16">
    <path d="M1 2h14a1 1 0 1 0 0-2H1a1 1 0 1 0 0 2z"/>
    <path d="M1 16h14a1 1 0 1 0 0-2H1a1 1 0 1 0 0 2z"/>
    <path d="M15 9H1a1 1 0 1 1 0-2h14a1 1 0 1 1 0 2z"/>
</symbol><symbol id="icon-sorting-3" viewBox="0 0 16 16">
    <path d="M6 2h7a1 1 0 1 0 0-2H6a1 1 0 0 0 0 2z"/>
    <path d="M5 16h10a1 1 0 1 0 0-2H5a1 1 0 1 0 0 2z"/>
    <path d="M12 9H1a1 1 0 1 1 0-2h11a1 1 0 1 1 0 2z"/>
</symbol><symbol id="icon-sorting-4" viewBox="0 0 20 20">
    <path fill-rule="evenodd" clip-rule="evenodd" d="M2.208 0h5.195C8.622 0 9.61.988 9.61 2.208v5.195c0 1.219-.988 2.207-2.207 2.207H2.208A2.208 2.208 0 0 1 0 7.403V2.208C0 .988.988 0 2.208 0zm0 1.818a.39.39 0 0 0-.39.39v5.195c0 .215.175.39.39.39h5.195a.39.39 0 0 0 .39-.39V2.208a.39.39 0 0 0-.39-.39H2.208zm10.39 8.572h5.194c1.22 0 2.208.988 2.208 2.207v5.195c0 1.22-.988 2.208-2.208 2.208h-5.195a2.208 2.208 0 0 1-2.207-2.208v-5.195c0-1.219.988-2.207 2.207-2.207zm0 1.818a.39.39 0 0 0-.39.39v5.194c0 .215.174.39.39.39h5.194a.39.39 0 0 0 .39-.39v-5.195a.39.39 0 0 0-.39-.39h-5.195zm0-12.208h5.194C19.012 0 20 .988 20 2.208v5.195c0 1.219-.988 2.207-2.208 2.207h-5.195a2.208 2.208 0 0 1-2.207-2.207V2.208C10.39.988 11.378 0 12.597 0zm0 1.818a.39.39 0 0 0-.39.39v5.195c0 .215.174.39.39.39h5.194a.39.39 0 0 0 .39-.39V2.208a.39.39 0 0 0-.39-.39h-5.195zM2.207 10.39h5.195c1.219 0 2.207.988 2.207 2.207v5.195c0 1.22-.988 2.208-2.207 2.208H2.208A2.208 2.208 0 0 1 0 17.792v-5.195c0-1.219.988-2.207 2.208-2.207zm0 1.818a.39.39 0 0 0-.39.39v5.194c0 .215.175.39.39.39h5.195a.39.39 0 0 0 .39-.39v-5.195a.39.39 0 0 0-.39-.39H2.208z"/>
</symbol><symbol id="icon-spam-1" viewBox="0 0 24 24">
    <path d="M12.5 4.857c2.536 0 4.593 2.066 4.593 4.616a.948.948 0 0 1-.944.952.948.948 0 0 1-.944-.952c0-1.497-1.21-2.711-2.705-2.711a.948.948 0 0 1-.944-.952c0-.526.422-.953.944-.953z"/>
    <path fill-rule="evenodd" clip-rule="evenodd" d="M18.644 12.211c.574-1 .903-2.16.903-3.398C19.547 5.05 16.509 2 12.764 2 9.019 2 5.981 5.05 5.981 8.813c0 1.252.336 2.426.923 3.434L4.862 17.88c-.113.312-.132.65-.055.972a1.662 1.662 0 0 0 2.017 1.232l1.056-.262.684.938c.178.245.42.437.7.554a1.676 1.676 0 0 0 2.191-.907l1.326-3.166 1.325 3.166a1.676 1.676 0 0 0 2.192.907c.28-.117.521-.309.7-.554l.683-.938 1.056.262a1.662 1.662 0 0 0 2.018-1.232c.077-.322.058-.66-.055-.972l-2.056-5.669zm-4.547 3.284l1.601 3.823 1.2-1.647 1.886.467-1.53-4.218a6.751 6.751 0 0 1-3.157 1.575zm-7.32 2.643L8.3 13.942a6.749 6.749 0 0 0 3.163 1.559l-1.599 3.817-1.2-1.647-1.885.467zm5.987-4.416A4.901 4.901 0 0 1 7.87 8.813c0-2.71 2.19-4.908 4.894-4.908s4.894 2.198 4.894 4.908c0 2.71-2.19 4.909-4.894 4.909z"/>
</symbol><symbol id="icon-spam" viewBox="0 0 24 24">
    <path fill-rule="evenodd" clip-rule="evenodd" d="M11.66 1.06a1 1 0 0 1 .68 0l9 3.25a1 1 0 0 1 .66.94V12c0 5.5-3.329 9.198-9.734 10.964a.999.999 0 0 1-.525.002C5.33 21.246 2 17.544 2 12V5.25a1 1 0 0 1 .66-.94l9-3.25zM12 3.062l-8 2.89V12c0 4.497 2.585 7.44 7.996 8.962C17.413 19.4 20 16.454 20 12V5.952l-8-2.889zm-.95 3.867a1 1 0 1 1 2 0v6.613a1 1 0 1 1-2 0V6.93zM12 18a1 1 0 1 1 0-2 1 1 0 0 1 0 2z"/>
</symbol><symbol id="icon-star" viewBox="0 0 16 16">
    <path d="M4.6 13.924L8 12.15l3.4 1.775a.667.667 0 0 0 .965-.704l-.648-3.753 2.747-2.66a.667.667 0 0 0-.369-1.138l-3.8-.548-1.698-3.418a.667.667 0 0 0-1.194 0L5.705 5.121l-3.8.548a.667.667 0 0 0-.369 1.139l2.747 2.659-.648 3.753a.667.667 0 0 0 .965.704z"/>
</symbol><symbol id="icon-student" viewBox="0 0 24 24">
    <path fill-rule="evenodd" clip-rule="evenodd" d="M12.401 2.176l8.337 4.667c.86.481.944 1.653.252 2.269v7.805c.904.967 1.389 1.79 1.389 2.526a2.325 2.325 0 0 1-2.316 2.333 2.325 2.325 0 0 1-2.316-2.333c0-.737.486-1.559 1.39-2.526v-6.73l-.463.259v5.191c0 .34-.124.67-.347.925-1.331 1.523-3.544 2.238-6.601 2.238s-5.27-.715-6.6-2.238a1.406 1.406 0 0 1-.347-.925v-5.191L2.715 9.29c-.953-.533-.953-1.914 0-2.447l8.337-4.667a1.38 1.38 0 0 1 1.35 0zm-8.058 5.89l7.383 4.133 7.383-4.132-7.383-4.133-7.383 4.133zm15.454 10.987c-.142.221-.197.366-.197.39 0 .258.207.467.463.467a.465.465 0 0 0 .463-.467c0-.024-.055-.169-.197-.39a4.54 4.54 0 0 0-.266-.369 4.518 4.518 0 0 0-.266.37zm-8.071-4.9c.392 0 .78-.1 1.125-.293l3.97-2.222v3.816c-.943.968-2.623 1.48-5.095 1.48-2.472 0-4.152-.512-5.095-1.48v-3.816l3.97 2.222a2.3 2.3 0 0 0 1.125.294z"/>
</symbol><symbol id="icon-sun" viewBox="0 0 24 24">
    <path fill-rule="evenodd" clip-rule="evenodd" d="M12 0a1.5 1.5 0 0 1 1.5 1.5v1.91a1.5 1.5 0 0 1-3 0V1.5A1.5 1.5 0 0 1 12 0zm0 8.727a3.273 3.273 0 1 0 0 6.546 3.273 3.273 0 0 0 0-6.546zM5.728 12a6.273 6.273 0 1 1 12.545 0 6.273 6.273 0 0 1-12.545 0zm7.772 8.59a1.5 1.5 0 0 0-3 0v1.91a1.5 1.5 0 0 0 3 0v-1.91zM3.513 3.514a1.5 1.5 0 0 1 2.12 0L6.99 4.868A1.5 1.5 0 0 1 4.868 6.99L3.513 5.634a1.5 1.5 0 0 1 0-2.121zM19.132 17.01a1.5 1.5 0 0 0-2.121 2.121l1.355 1.356a1.5 1.5 0 1 0 2.121-2.121l-1.355-1.356zM0 12a1.5 1.5 0 0 1 1.5-1.5h1.91a1.5 1.5 0 0 1 0 3H1.5A1.5 1.5 0 0 1 0 12zm20.59-1.5a1.5 1.5 0 0 0 0 3h1.91a1.5 1.5 0 0 0 0-3h-1.91zm-13.6 6.51a1.5 1.5 0 0 1 0 2.121l-1.356 1.356a1.5 1.5 0 1 1-2.121-2.121l1.355-1.356a1.5 1.5 0 0 1 2.121 0zM20.486 5.634a1.5 1.5 0 1 0-2.12-2.121L17.01 4.868a1.5 1.5 0 1 0 2.12 2.122l1.356-1.356z"/>
</symbol><symbol id="icon-table" viewBox="0 0 24 24">
    <path fill-rule="evenodd" clip-rule="evenodd" d="M8.3 13.7v-3.4H4v3.4h4.3zm2 0H20v-3.4h-9.7v3.4zM8.3 4H5a1 1 0 0 0-1 1v3.3h4.3V4zm2 0v4.3H20V5a1 1 0 0 0-1-1h-8.7zm-2 16v-4.3H4V19a1 1 0 0 0 1 1h3.3zm2 0H19a1 1 0 0 0 1-1v-3.3h-9.7V20zM2 19V5a3 3 0 0 1 3-3h14a3 3 0 0 1 3 3v14a3 3 0 0 1-3 3H5a3 3 0 0 1-3-3z"/>
</symbol><symbol id="icon-task" viewBox="0 0 24 24">
    <path fill-rule="evenodd" clip-rule="evenodd" d="M12.257 13.474l7.958-10.093a1 1 0 1 1 1.57 1.238l-8.672 11a1 1 0 0 1-1.51.07l-4.328-4.555a1 1 0 0 1 1.45-1.377l3.532 3.717zM20 11.1a1 1 0 1 1 2 0v7.2a3.7 3.7 0 0 1-3.7 3.7H5.7A3.7 3.7 0 0 1 2 18.3V5.7A3.7 3.7 0 0 1 5.7 2h10.7a1 1 0 1 1 0 2H5.7A1.7 1.7 0 0 0 4 5.7v12.6A1.7 1.7 0 0 0 5.7 20h12.6a1.7 1.7 0 0 0 1.7-1.7v-7.2z"/>
</symbol><symbol id="icon-text" viewBox="0 0 24 24">
    <path fill-rule="evenodd" clip-rule="evenodd" d="M12.5 7.5V17a.5.5 0 0 1-1 0V7.5H7a.5.5 0 0 1 0-1h10a.5.5 0 0 1 0 1h-4.5zM5 1.5h14A3.5 3.5 0 0 1 22.5 5v14a3.5 3.5 0 0 1-3.5 3.5H5A3.5 3.5 0 0 1 1.5 19V5A3.5 3.5 0 0 1 5 1.5zm0 1A2.5 2.5 0 0 0 2.5 5v14A2.5 2.5 0 0 0 5 21.5h14a2.5 2.5 0 0 0 2.5-2.5V5A2.5 2.5 0 0 0 19 2.5H5z"/>
</symbol><symbol id="icon-trash" viewBox="0 0 24 24">
    <path fill-rule="evenodd" clip-rule="evenodd" d="M7.663 4.7l.672-2.016A1 1 0 0 1 9.285 2h5.4a1 1 0 0 1 .948.684l.672 2.016h4.679a1 1 0 1 1 0 2h-.857l-.734 12.476A3 3 0 0 1 16.398 22H7.57a3 3 0 0 1-2.995-2.824L3.841 6.7H3a1 1 0 1 1 0-2h4.663zm2.108 0h4.426l-.234-.7h-3.958l-.234.7zm8.352 2H5.845l.727 12.359A1 1 0 0 0 7.57 20h8.828a1 1 0 0 0 .998-.941L18.123 6.7zm-4.437 2.538a1 1 0 0 1 1.996.124l-.45 7.2a1 1 0 1 1-1.996-.124l.45-7.2zm-2.954 7.2a1 1 0 1 1-1.996.124l-.45-7.2a1 1 0 1 1 1.996-.124l.45 7.2z"/>
</symbol><symbol id="icon-triangle-down" viewBox="0 0 16 16">
    <path fill-rule="evenodd" clip-rule="evenodd" d="M12.293 5.333a.5.5 0 0 1 .39.813l-4.292 5.366a.5.5 0 0 1-.781 0L3.317 6.146a.5.5 0 0 1 .39-.813h8.586z"/>
</symbol><symbol id="icon-triangle-right" viewBox="0 0 16 16">
    <path fill-rule="evenodd" clip-rule="evenodd" d="M5.333 3.707a.5.5 0 0 1 .813-.39l5.366 4.293a.5.5 0 0 1 0 .78l-5.366 4.293a.5.5 0 0 1-.813-.39V3.707z"/>
</symbol><symbol id="icon-video" viewBox="0 0 24 24">
    <path fill-rule="evenodd" clip-rule="evenodd" d="M8.255 17.27A1.597 1.597 0 0 1 8 16.403V7.596a1.596 1.596 0 0 1 2.461-1.34l6.81 4.403a1.597 1.597 0 0 1 0 2.681l-6.81 4.404a1.595 1.595 0 0 1-2.206-.475zM10 15.66L15.66 12 10 8.34v7.32z"/>
    <path fill-rule="evenodd" clip-rule="evenodd" d="M5 2h14a4 4 0 0 1 4 4v12a4 4 0 0 1-4 4H5a4 4 0 0 1-4-4V6a4 4 0 0 1 4-4zm0 2a2 2 0 0 0-2 2v12a2 2 0 0 0 2 2h14a2 2 0 0 0 2-2V6a2 2 0 0 0-2-2H5z"/>
</symbol><symbol id="icon-view-border" viewBox="0 0 16 16">
    <path fill-rule="evenodd" clip-rule="evenodd" d="M1.308 9.15a.32.32 0 0 0 0 .26C2.567 12.245 5.135 14.08 8 14.08c2.866 0 5.434-1.835 6.693-4.67a.32.32 0 0 0 0-.26C13.433 6.314 10.866 4.48 8 4.48c-2.865 0-5.433 1.834-6.692 4.67zM8 13.44c-2.557 0-4.869-1.62-6.048-4.16C3.132 6.74 5.442 5.12 8 5.12s4.87 1.62 6.049 4.16c-1.18 2.54-3.491 4.16-6.049 4.16zm0-1.92a2.24 2.24 0 1 1 0-4.48 2.24 2.24 0 0 1 0 4.48zm1.6-2.24a1.6 1.6 0 1 1-3.2 0 1.6 1.6 0 0 1 3.2 0z"/>
    <path fill-rule="evenodd" clip-rule="evenodd" d="M7.68 1.6v1.92a.32.32 0 0 0 .64 0V1.6a.32.32 0 1 0-.64 0zm5.814.462l-1.28 1.92a.32.32 0 0 0 .532.355l1.28-1.92a.32.32 0 0 0-.532-.355zm-9.708 1.92l-1.28-1.92a.32.32 0 0 0-.532.355l1.28 1.92a.32.32 0 0 0 .532-.355z"/>
</symbol><symbol id="icon-view" viewBox="0 0 16 16">
    <path d="M7.428 1.905a.571.571 0 1 1 1.143 0v1.524a.571.571 0 1 1-1.143 0V1.905z"/>
    <path d="M14.499 2.263a.571.571 0 0 0-.808 0l-1.524 1.524a.572.572 0 0 0 .808.808L14.5 3.07a.572.572 0 0 0 0-.808z"/>
    <path d="M2.308 2.263l1.524 1.524a.571.571 0 0 1-.808.808L1.5 3.07a.571.571 0 1 1 .808-.808z"/>
    <path d="M8 10.667A1.143 1.143 0 1 0 8 8.38a1.143 1.143 0 0 0 0 2.286z"/>
    <path fill-rule="evenodd" clip-rule="evenodd" d="M1.552 9.378C2.76 6.463 5.232 4.572 8 4.572c2.767 0 5.24 1.891 6.447 4.806a.38.38 0 0 1 0 .292c-1.208 2.915-3.68 4.806-6.447 4.806-2.768 0-5.24-1.892-6.447-4.806a.381.381 0 0 1 0-.292zM8 11.428A1.905 1.905 0 1 1 8 7.62a1.905 1.905 0 0 1 0 3.81z"/>
</symbol><symbol id="icon-world" viewBox="0 0 20 20">
    <path fill-rule="evenodd" clip-rule="evenodd" d="M10.865 6.646v2.52h2.447a14.223 14.223 0 0 0-.407-2.746c-.655.115-1.339.191-2.04.226zm-1.667.002a16.562 16.562 0 0 1-2.103-.228c-.211.83-.354 1.757-.406 2.747h2.51V6.648zm1.667 6.2c.742.037 1.464.12 2.153.247.15-.7.251-1.46.294-2.262h-2.447v2.016zm-1.667-.002v-2.013h-2.51c.043.801.145 1.561.294 2.262.709-.13 1.452-.214 2.216-.249zm1.667 1.672v2.697c.648-.428 1.245-1.316 1.69-2.51a14.9 14.9 0 0 0-1.69-.187zm-1.667-.003c-.605.03-1.192.095-1.753.19.459 1.233 1.081 2.139 1.753 2.55v-2.74zm1.667-9.538c.514-.028 1.016-.081 1.499-.157-.419-.955-.94-1.666-1.5-2.035v2.192zm-1.667.003V2.745C8.616 3.102 8.07 3.83 7.636 4.82c.503.079 1.026.133 1.562.16zM2.546 9.167h2.473c.052-1.109.207-2.165.45-3.13a11.23 11.23 0 0 1-1.461-.548 7.461 7.461 0 0 0-1.462 3.678zm0 1.666a7.455 7.455 0 0 0 1.195 3.3 10.817 10.817 0 0 1 1.618-.642 16.21 16.21 0 0 1-.34-2.658H2.546zm14.908-1.666a7.461 7.461 0 0 0-1.462-3.678c-.453.21-.943.393-1.462.549.244.964.399 2.02.45 3.129h2.474zm0 1.666h-2.473c-.044.93-.16 1.824-.34 2.658.58.18 1.124.395 1.618.642a7.456 7.456 0 0 0 1.195-3.3zM6.502 16.636a9.898 9.898 0 0 1-.69-1.54c-.34.106-.66.226-.961.357a7.522 7.522 0 0 0 1.651 1.183zm6.996 0a7.525 7.525 0 0 0 1.651-1.183 9.562 9.562 0 0 0-.96-.358 9.89 9.89 0 0 1-.69 1.541zM6.502 3.364c-.449.237-.87.518-1.26.838.237.09.484.173.74.25.157-.388.331-.752.52-1.088zm6.996 0c.19.336.363.7.52 1.088.256-.077.503-.16.74-.25a7.51 7.51 0 0 0-1.26-.838zM10 19.167A9.167 9.167 0 1 1 10 .833a9.167 9.167 0 0 1 0 18.334z"/>
</symbol><symbol id="icon-write" viewBox="0 0 24 24">
    <path fill-rule="evenodd" clip-rule="evenodd" d="M18.957 7.907a.997.997 0 0 1 1.995 0v9.916A4.177 4.177 0 0 1 16.775 22H6.177A4.177 4.177 0 0 1 2 17.823V7.225a4.177 4.177 0 0 1 4.177-4.177h9.6a.998.998 0 0 1 0 1.995h-9.6a2.182 2.182 0 0 0-2.182 2.182v10.598c0 1.205.977 2.182 2.182 2.182h10.598a2.182 2.182 0 0 0 2.182-2.182V7.907zm.88-5.597a.997.997 0 1 1 1.445 1.375l-9.55 10.03a.997.997 0 1 1-1.445-1.376l9.55-10.03z"/>
</symbol><symbol id="icon-zoom" viewBox="0 0 24 24">
    <path d="M17.714 3.714a.857.857 0 1 1 0-1.714h1.143A3.143 3.143 0 0 1 22 5.143v1.143a.857.857 0 0 1-1.714 0V5.143c0-.79-.64-1.429-1.429-1.429h-1.143z"/>
    <path d="M8.571 6.857h6.858c.946 0 1.714.768 1.714 1.714v6.858c0 .946-.768 1.714-1.714 1.714H8.57a1.714 1.714 0 0 1-1.714-1.714V8.57c0-.946.768-1.714 1.714-1.714z"/>
    <path d="M21.143 16.857a.857.857 0 0 0-.857.857v1.143c0 .79-.64 1.429-1.429 1.429h-1.143a.857.857 0 0 0 0 1.714h1.143A3.143 3.143 0 0 0 22 18.857v-1.143a.857.857 0 0 0-.857-.857z"/>
    <path d="M6.275 20.286a.857.857 0 0 1 0 1.714H5.143A3.143 3.143 0 0 1 2 18.857v-1.143a.857.857 0 1 1 1.714 0v1.143c0 .79.64 1.429 1.429 1.429h1.132z"/>
    <path d="M2.857 7.082a.857.857 0 0 0 .857-.857V5.143c0-.79.64-1.429 1.429-1.429h1.114a.857.857 0 0 0 0-1.714H5.143A3.143 3.143 0 0 0 2 5.143v1.082c0 .474.384.857.857.857z"/>
</symbol></svg>