<svg width="36" height="36" viewBox="0 0 36 36" fill="none" xmlns="http://www.w3.org/2000/svg">
<rect x="0.5" y="0.5" width="35" height="35" rx="9.5" stroke="white"/>
<path d="M23.7143 9.71429C23.2409 9.71429 22.8571 9.33053 22.8571 8.85714C22.8571 8.38376 23.2409 8 23.7143 8H24.8571C26.5929 8 28 9.4071 28 11.1429V12.2857C28 12.7591 27.6162 13.1429 27.1429 13.1429C26.6695 13.1429 26.2857 12.7591 26.2857 12.2857V11.1429C26.2857 10.3539 25.6461 9.71429 24.8571 9.71429H23.7143Z" fill="white"/>
<path d="M14.5714 12.8571H21.4286C22.3753 12.8571 23.1429 13.6247 23.1429 14.5714V21.4286C23.1429 22.3753 22.3753 23.1429 21.4286 23.1429H14.5714C13.6247 23.1429 12.8571 22.3753 12.8571 21.4286V14.5714C12.8571 13.6247 13.6247 12.8571 14.5714 12.8571Z" fill="white"/>
<path d="M27.1429 22.8571C26.6695 22.8571 26.2857 23.2409 26.2857 23.7143V24.8571C26.2857 25.6461 25.6461 26.2857 24.8571 26.2857H23.7143C23.2409 26.2857 22.8571 26.6695 22.8571 27.1429C22.8571 27.6162 23.2409 28 23.7143 28H24.8571C26.5929 28 28 26.5929 28 24.8571V23.7143C28 23.2409 27.6162 22.8571 27.1429 22.8571Z" fill="white"/>
<path d="M12.2753 26.2857C12.7486 26.2857 13.1324 26.6695 13.1324 27.1429C13.1324 27.6162 12.7486 28 12.2753 28H11.1429C9.4071 28 8 26.5929 8 24.8571V23.7143C8 23.2409 8.38376 22.8571 8.85714 22.8571C9.33053 22.8571 9.71429 23.2409 9.71429 23.7143V24.8571C9.71429 25.6461 10.3539 26.2857 11.1429 26.2857H12.2753Z" fill="white"/>
<path d="M8.85714 13.0823C9.33053 13.0823 9.71429 12.6986 9.71429 12.2252V11.1429C9.71429 10.3539 10.3539 9.71429 11.1429 9.71429H12.2573C12.7306 9.71429 13.1144 9.33053 13.1144 8.85714C13.1144 8.38376 12.7306 8 12.2573 8H11.1429C9.4071 8 8 9.4071 8 11.1429V12.2252C8 12.6986 8.38376 13.0823 8.85714 13.0823Z" fill="white"/>
</svg>
