<?xml version="1.0" encoding="UTF-8"?>
<svg width="49px" height="35px" viewBox="0 0 49 35" version="1.1" xmlns="http://www.w3.org/2000/svg" xmlns:xlink="http://www.w3.org/1999/xlink">
    <!-- Generator: Sketch 51.1 (57501) - http://www.bohemiancoding.com/sketch -->
    <title>blockquote-2</title>
    <desc>Created with Sketch.</desc>
    <defs></defs>
    <g id="Landing-Pages" stroke="none" stroke-width="1" fill="none" fill-rule="evenodd">
        <g id="03_vApp-v1" transform="translate(-440.000000, -4572.000000)" fill="#4777F4">
            <g id="TESTIMONIAL" transform="translate(405.000000, 3990.000000)">
                <g id="1" transform="translate(0.000000, 582.000000)">
                    <g id="blockquote-2" transform="translate(59.500000, 17.500000) scale(-1, 1) translate(-59.500000, -17.500000) translate(35.000000, 0.000000)">
                        <path d="M21.3771889,21.8632943 C17.2920175,31.9094483 7.24814698,34.6556716 5.89782924,35 C6.76547925,33.7668768 7.88338469,31.8458172 8.55408279,29.2703174 C9.03618586,27.4185316 9.17057393,25.6747986 9.1222394,24.134085 C3.91351603,22.9821215 -4.97379915e-14,18.0743609 -4.97379915e-14,12.1950851 C-4.97379915e-14,5.45991068 5.13565692,0 11.4709814,0 C17.3253322,0 22.1546069,4.66272074 22.8541024,10.6853467 C22.8542153,10.6852266 22.8543283,10.6851065 22.8544412,10.6851065 C22.8561352,10.7005941 22.8577162,10.7164419 22.8594102,10.7321696 C22.8746559,10.868076 22.8886593,11.0045828 22.8997266,11.1418099 C23.120507,13.5900475 23.1177966,17.5827205 21.3771889,21.8632943 Z" id="Fill-7"></path>
                        <path d="M47.3776515,21.8632943 C43.2917573,31.9094483 33.2482273,34.6556716 31.8978946,35 C32.7655542,33.7668768 33.883472,31.8458172 34.5541775,29.2703174 C35.0362859,27.4185316 35.1706755,25.6747986 35.1223404,24.134085 C29.9135594,22.9821215 26,18.0743609 26,12.1950851 C26,5.45991068 31.1358267,0 37.4711085,0 C43.325637,0 48.1546264,4.66272074 48.8548073,10.6853467 L48.8548073,10.6851065 C48.8559366,10.7005941 48.8581952,10.7164419 48.8593246,10.7321696 C48.8751351,10.868076 48.888687,11.0045828 48.8999802,11.1418099 C49.1201984,13.5900475 49.1179398,17.5827205 47.3776515,21.8632943 Z" id="Fill-8"></path>
                    </g>
                </g>
            </g>
        </g>
    </g>
</svg>