<?xml version="1.0" encoding="UTF-8"?>
<svg width="577px" height="599px" viewBox="0 0 577 599" version="1.1" xmlns="http://www.w3.org/2000/svg" xmlns:xlink="http://www.w3.org/1999/xlink">
    <!-- Generator: Sketch 51.1 (57501) - http://www.bohemiancoding.com/sketch -->
    <title>Combined Shape</title>
    <desc>Created with Sketch.</desc>
    <defs>
        <path d="M194.665636,0.771785171 C291.66216,-2.34907493 656.120502,73.1412953 561.642419,332.884374 C467.164336,592.627453 228.94945,632.629434 103.865185,575.70437 C-21.2190806,518.779305 -9.96066056,233.389704 22.4718894,140.500409 C54.9044393,47.6111143 97.669112,3.89264527 194.665636,0.771785171 Z M195.517995,4.96893862 C103.309961,7.93572923 62.6564787,49.4959207 31.8250472,137.79949 C0.993615631,226.10306 -9.70900285,497.40365 109.200148,551.518459 C228.109298,605.633268 454.564078,567.60609 544.378001,320.685913 C634.191924,73.765737 287.72603,2.002148 195.517995,4.96893862 Z" id="path-1"></path>
    </defs>
    <g id="Landing-Pages" stroke="none" stroke-width="1" fill="none" fill-rule="evenodd">
        <g id="03_vApp-v4" transform="translate(-916.000000, -156.000000)">
            <g id="HERO" transform="translate(246.000000, 156.000000)">
                <g id="BG" transform="translate(669.000000, 0.000000)">
                    <mask id="mask-2" fill="white">
                        <use xlink:href="#path-1"></use>
                    </mask>
                    <use id="Combined-Shape" fill="#232930" xlink:href="#path-1"></use>
                </g>
            </g>
        </g>
    </g>
</svg>