<svg width="24" height="24" viewBox="0 0 24 24" fill="none" xmlns="http://www.w3.org/2000/svg">
<path fill-rule="evenodd" clip-rule="evenodd" d="M7.31363 7.9056L7.28382 7.91359L7.08662 7.17765C6.72587 5.83128 7.52486 4.44738 8.87123 4.08662C10.2159 3.72632 11.598 4.52283 11.9609 5.86609C14.3963 5.97362 16.5867 7.63707 17.2512 10.1169L18.226 13.7549L20.0702 15.8188C20.5666 16.3744 20.303 17.2582 19.5833 17.451L15.8026 18.4641C15.6544 19.4224 14.9576 20.2504 13.9608 20.5175C12.9639 20.7846 11.9465 20.416 11.339 19.6601L7.80824 20.6062C7.08859 20.799 6.41835 20.1654 6.57049 19.436L7.13569 16.7265L6.1609 13.0885C5.65661 11.2065 6.14862 9.29217 7.31363 7.9056ZM9.89563 6.15473C9.76762 6.02644 9.57649 5.9682 9.38886 6.01847C9.15018 6.08243 8.99438 6.30132 9.00068 6.53795C9.28352 6.38719 9.58238 6.25851 9.89563 6.15473ZM16.3557 14.5025C16.3962 14.6537 16.4717 14.7932 16.576 14.91L17.4961 15.9397L8.86016 18.2537L9.14217 16.9018C9.17413 16.7486 9.16968 16.59 9.12916 16.4388L8.09275 12.5709C7.55805 10.5753 8.7423 8.52414 10.7379 7.98944C12.7334 7.45473 14.7846 8.63898 15.3193 10.6345L16.3557 14.5025Z" fill="#FFC542"/>
</svg>
