<svg width="210" height="145" viewBox="0 0 210 145" fill="none" xmlns="http://www.w3.org/2000/svg">
<path d="M32.491 126.245C23.3019 130.365 15.9554 130.313 10.4515 126.089C4.94764 121.864 1.4638 115.849 0 108.043C17.2042 102.914 28.0345 108.981 32.491 126.245Z" fill="url(#paint0_linear)"/>
<path d="M18.9681 118.834C18.9464 118.827 18.9261 118.816 18.9086 118.801C16.9245 117.683 14.7184 116.444 12.2902 115.084L6.65768 116.424C6.55776 116.448 6.45743 116.386 6.43358 116.287C6.40974 116.187 6.47142 116.087 6.57134 116.063L11.8123 114.817C8.7818 113.12 5.41346 111.24 1.70737 109.175C1.61769 109.125 1.58561 109.012 1.63572 108.923C1.68583 108.834 1.79915 108.802 1.88883 108.852C8.65573 112.621 14.2966 115.777 18.8118 118.32L18.2292 112.629C18.204 112.383 18.5741 112.345 18.5993 112.591L19.2086 118.544C25.2285 121.937 29.1872 124.207 31.0855 125.357C31.1733 125.41 31.2012 125.524 31.1479 125.611C31.0946 125.699 30.9802 125.727 30.8924 125.674C29.7565 124.986 27.88 123.895 25.2629 122.401C25.256 122.405 25.2488 122.408 25.2414 122.411L20.0939 124.284C19.9974 124.32 19.8906 124.27 19.8554 124.174C19.8202 124.078 19.8698 123.971 19.9663 123.936L24.8421 122.161C23.1693 121.207 21.2113 120.099 18.9681 118.834Z" fill="white"/>
<path d="M30.4831 131.451C21.0631 127.887 15.9053 122.672 15.0099 115.805C14.1145 108.939 15.9179 102.229 20.42 95.6777C36.2232 104.178 39.5776 116.103 30.4831 131.451Z" fill="url(#paint1_linear)"/>
<path d="M26.5538 116.643C28.4039 123.285 29.5924 127.682 30.1194 129.832C30.1438 129.932 30.0827 130.032 29.9829 130.056C29.8831 130.081 29.7824 130.02 29.758 129.92C29.4427 128.633 28.8895 126.539 28.0987 123.638C28.0914 123.636 28.084 123.633 28.0768 123.63L23.1078 121.326C23.0147 121.283 22.9743 121.173 23.0176 121.08C23.0609 120.987 23.1715 120.947 23.2647 120.99L27.9715 123.172C27.4651 121.318 26.8671 119.154 26.1776 116.679C26.1675 116.659 26.161 116.636 26.1594 116.613C25.5495 114.424 24.8683 111.993 24.1159 109.32L19.1827 106.297C19.0952 106.243 19.0679 106.129 19.1217 106.042C19.1755 105.955 19.29 105.927 19.3776 105.981L23.9677 108.794C23.0282 105.458 21.9803 101.754 20.8239 97.682C20.796 97.5835 20.8534 97.481 20.9523 97.4531C21.0511 97.4252 21.1539 97.4825 21.1819 97.581C23.2933 105.016 25.0432 111.224 26.4318 116.205L30.0571 111.77C30.2138 111.578 30.5022 111.813 30.3455 112.004L26.5538 116.643Z" fill="white"/>
<path d="M39.8378 137.829C32.0315 144.179 24.9218 146.024 18.5087 143.364C12.0956 140.703 7.16871 135.792 3.72803 128.629C19.0144 119.237 31.051 122.303 39.8378 137.829Z" fill="url(#paint2_linear)"/>
<path d="M25.0085 133.817C31.7042 135.541 36.1175 136.713 38.2495 137.333C38.3481 137.362 38.4047 137.465 38.3759 137.563C38.3471 137.661 38.2439 137.718 38.1453 137.689C36.8696 137.318 34.7737 136.748 31.858 135.981C31.8522 135.986 31.8461 135.991 31.8396 135.995L27.3541 139.133C27.27 139.192 27.154 139.172 27.095 139.088C27.036 139.004 27.0563 138.889 27.1404 138.83L31.3892 135.857C29.5258 135.368 27.3466 134.802 24.8516 134.159C24.8288 134.158 24.8063 134.153 24.7854 134.142C22.5787 133.574 20.1261 132.947 17.4276 132.26L12.3348 135.007C12.2444 135.056 12.1316 135.023 12.0827 134.932C12.0338 134.842 12.0674 134.73 12.1577 134.681L16.8965 132.125C13.5288 131.268 9.78696 130.321 5.6712 129.283C5.57161 129.258 5.5113 129.157 5.53648 129.058C5.56167 128.958 5.66283 128.898 5.76242 128.923C13.2773 130.818 19.5455 132.411 24.5672 133.703L22.5266 128.356C22.4385 128.125 22.7862 127.993 22.8744 128.224L25.0085 133.817Z" fill="white"/>
<path d="M140.609 24.4872H202V83.7016H140.609V24.4872Z" fill="url(#paint3_linear)"/>
<path d="M8.37024 0H79.555C79.555 19.6619 63.6197 35.601 43.9626 35.601C24.3055 35.601 8.37024 19.6619 8.37024 0Z" fill="url(#paint4_linear)"/>
<path fill-rule="evenodd" clip-rule="evenodd" d="M11.9318 69.4672C12.3756 69.4672 12.7354 69.1084 12.7354 68.6659C12.7354 68.2233 12.3756 67.8645 11.9318 67.8645C11.488 67.8645 11.1282 68.2233 11.1282 68.6659C11.1282 69.1084 11.488 69.4672 11.9318 69.4672ZM12.7354 73.3763C12.7354 73.8189 12.3756 74.1777 11.9318 74.1777C11.488 74.1777 11.1282 73.8189 11.1282 73.3763C11.1282 72.9337 11.488 72.575 11.9318 72.575C12.3756 72.575 12.7354 72.9337 12.7354 73.3763ZM11.9318 78.8881C12.3756 78.8881 12.7354 78.5293 12.7354 78.0868C12.7354 77.6442 12.3756 77.2854 11.9318 77.2854C11.488 77.2854 11.1282 77.6442 11.1282 78.0868C11.1282 78.5293 11.488 78.8881 11.9318 78.8881ZM12.7354 82.7972C12.7354 83.2398 12.3756 83.5986 11.9318 83.5986C11.488 83.5986 11.1282 83.2398 11.1282 82.7972C11.1282 82.3546 11.488 81.9959 11.9318 81.9959C12.3756 81.9959 12.7354 82.3546 12.7354 82.7972ZM11.9318 88.309C12.3756 88.309 12.7354 87.9502 12.7354 87.5077C12.7354 87.0651 12.3756 86.7063 11.9318 86.7063C11.488 86.7063 11.1282 87.0651 11.1282 87.5077C11.1282 87.9502 11.488 88.309 11.9318 88.309ZM11.9318 93.0195C12.3756 93.0195 12.7354 92.6607 12.7354 92.2181C12.7354 91.7755 12.3756 91.4168 11.9318 91.4168C11.488 91.4168 11.1282 91.7755 11.1282 92.2181C11.1282 92.6607 11.488 93.0195 11.9318 93.0195ZM17.4592 92.2181C17.4592 92.6607 17.0994 93.0195 16.6556 93.0195C16.2118 93.0195 15.852 92.6607 15.852 92.2181C15.852 91.7755 16.2118 91.4168 16.6556 91.4168C17.0994 91.4168 17.4592 91.7755 17.4592 92.2181ZM16.6556 88.309C17.0994 88.309 17.4592 87.9502 17.4592 87.5077C17.4592 87.0651 17.0994 86.7063 16.6556 86.7063C16.2118 86.7063 15.852 87.0651 15.852 87.5077C15.852 87.9502 16.2118 88.309 16.6556 88.309ZM17.4592 82.7972C17.4592 83.2398 17.0994 83.5986 16.6556 83.5986C16.2118 83.5986 15.852 83.2398 15.852 82.7972C15.852 82.3546 16.2118 81.9959 16.6556 81.9959C17.0994 81.9959 17.4592 82.3546 17.4592 82.7972ZM16.6556 78.8881C17.0994 78.8881 17.4592 78.5293 17.4592 78.0868C17.4592 77.6442 17.0994 77.2854 16.6556 77.2854C16.2118 77.2854 15.852 77.6442 15.852 78.0868C15.852 78.5293 16.2118 78.8881 16.6556 78.8881ZM17.4592 73.3763C17.4592 73.8189 17.0994 74.1777 16.6556 74.1777C16.2118 74.1777 15.852 73.8189 15.852 73.3763C15.852 72.9337 16.2118 72.575 16.6556 72.575C17.0994 72.575 17.4592 72.9337 17.4592 73.3763ZM16.6556 69.4672C17.0994 69.4672 17.4592 69.1084 17.4592 68.6659C17.4592 68.2233 17.0994 67.8645 16.6556 67.8645C16.2118 67.8645 15.852 68.2233 15.852 68.6659C15.852 69.1084 16.2118 69.4672 16.6556 69.4672ZM22.183 92.2181C22.183 92.6607 21.8233 93.0195 21.3795 93.0195C20.9356 93.0195 20.5759 92.6607 20.5759 92.2181C20.5759 91.7755 20.9356 91.4168 21.3795 91.4168C21.8233 91.4168 22.183 91.7755 22.183 92.2181ZM21.3795 88.309C21.8233 88.309 22.183 87.9502 22.183 87.5077C22.183 87.0651 21.8233 86.7063 21.3795 86.7063C20.9356 86.7063 20.5759 87.0651 20.5759 87.5077C20.5759 87.9502 20.9356 88.309 21.3795 88.309ZM22.183 82.7972C22.183 83.2398 21.8233 83.5986 21.3795 83.5986C20.9356 83.5986 20.5759 83.2398 20.5759 82.7972C20.5759 82.3546 20.9356 81.9959 21.3795 81.9959C21.8233 81.9959 22.183 82.3546 22.183 82.7972ZM21.3795 78.8881C21.8233 78.8881 22.183 78.5293 22.183 78.0868C22.183 77.6442 21.8233 77.2854 21.3795 77.2854C20.9356 77.2854 20.5759 77.6442 20.5759 78.0868C20.5759 78.5293 20.9356 78.8881 21.3795 78.8881ZM22.183 73.3763C22.183 73.8189 21.8233 74.1777 21.3795 74.1777C20.9356 74.1777 20.5759 73.8189 20.5759 73.3763C20.5759 72.9337 20.9356 72.575 21.3795 72.575C21.8233 72.575 22.183 72.9337 22.183 73.3763ZM21.3795 69.4672C21.8233 69.4672 22.183 69.1084 22.183 68.6659C22.183 68.2233 21.8233 67.8645 21.3795 67.8645C20.9356 67.8645 20.5759 68.2233 20.5759 68.6659C20.5759 69.1084 20.9356 69.4672 21.3795 69.4672ZM26.9069 92.2181C26.9069 92.6607 26.5471 93.0195 26.1033 93.0195C25.6595 93.0195 25.2997 92.6607 25.2997 92.2181C25.2997 91.7755 25.6595 91.4168 26.1033 91.4168C26.5471 91.4168 26.9069 91.7755 26.9069 92.2181ZM26.1033 88.309C26.5471 88.309 26.9069 87.9502 26.9069 87.5077C26.9069 87.0651 26.5471 86.7063 26.1033 86.7063C25.6595 86.7063 25.2997 87.0651 25.2997 87.5077C25.2997 87.9502 25.6595 88.309 26.1033 88.309ZM26.9069 82.7972C26.9069 83.2398 26.5471 83.5986 26.1033 83.5986C25.6595 83.5986 25.2997 83.2398 25.2997 82.7972C25.2997 82.3546 25.6595 81.9959 26.1033 81.9959C26.5471 81.9959 26.9069 82.3546 26.9069 82.7972ZM26.1033 78.8881C26.5471 78.8881 26.9069 78.5293 26.9069 78.0868C26.9069 77.6442 26.5471 77.2854 26.1033 77.2854C25.6595 77.2854 25.2997 77.6442 25.2997 78.0868C25.2997 78.5293 25.6595 78.8881 26.1033 78.8881ZM26.9069 73.3763C26.9069 73.8189 26.5471 74.1777 26.1033 74.1777C25.6595 74.1777 25.2997 73.8189 25.2997 73.3763C25.2997 72.9337 25.6595 72.575 26.1033 72.575C26.5471 72.575 26.9069 72.9337 26.9069 73.3763ZM26.1033 69.4672C26.5471 69.4672 26.9069 69.1084 26.9069 68.6659C26.9069 68.2233 26.5471 67.8645 26.1033 67.8645C25.6595 67.8645 25.2997 68.2233 25.2997 68.6659C25.2997 69.1084 25.6595 69.4672 26.1033 69.4672ZM31.6307 92.2181C31.6307 92.6607 31.271 93.0195 30.8271 93.0195C30.3833 93.0195 30.0236 92.6607 30.0236 92.2181C30.0236 91.7755 30.3833 91.4168 30.8271 91.4168C31.271 91.4168 31.6307 91.7755 31.6307 92.2181ZM30.8271 88.309C31.271 88.309 31.6307 87.9502 31.6307 87.5077C31.6307 87.0651 31.271 86.7063 30.8271 86.7063C30.3833 86.7063 30.0236 87.0651 30.0236 87.5077C30.0236 87.9502 30.3833 88.309 30.8271 88.309ZM31.6307 82.7972C31.6307 83.2398 31.271 83.5986 30.8271 83.5986C30.3833 83.5986 30.0236 83.2398 30.0236 82.7972C30.0236 82.3546 30.3833 81.9959 30.8271 81.9959C31.271 81.9959 31.6307 82.3546 31.6307 82.7972ZM30.8271 78.8881C31.271 78.8881 31.6307 78.5293 31.6307 78.0868C31.6307 77.6442 31.271 77.2854 30.8271 77.2854C30.3833 77.2854 30.0236 77.6442 30.0236 78.0868C30.0236 78.5293 30.3833 78.8881 30.8271 78.8881ZM31.6307 73.3763C31.6307 73.8189 31.271 74.1777 30.8271 74.1777C30.3833 74.1777 30.0236 73.8189 30.0236 73.3763C30.0236 72.9337 30.3833 72.575 30.8271 72.575C31.271 72.575 31.6307 72.9337 31.6307 73.3763ZM30.8271 69.4672C31.271 69.4672 31.6307 69.1084 31.6307 68.6659C31.6307 68.2233 31.271 67.8645 30.8271 67.8645C30.3833 67.8645 30.0236 68.2233 30.0236 68.6659C30.0236 69.1084 30.3833 69.4672 30.8271 69.4672ZM36.3546 92.2181C36.3546 92.6607 35.9948 93.0195 35.551 93.0195C35.1072 93.0195 34.7474 92.6607 34.7474 92.2181C34.7474 91.7755 35.1072 91.4168 35.551 91.4168C35.9948 91.4168 36.3546 91.7755 36.3546 92.2181ZM35.551 88.309C35.9948 88.309 36.3546 87.9502 36.3546 87.5077C36.3546 87.0651 35.9948 86.7063 35.551 86.7063C35.1072 86.7063 34.7474 87.0651 34.7474 87.5077C34.7474 87.9502 35.1072 88.309 35.551 88.309ZM36.3546 82.7972C36.3546 83.2398 35.9948 83.5986 35.551 83.5986C35.1072 83.5986 34.7474 83.2398 34.7474 82.7972C34.7474 82.3546 35.1072 81.9959 35.551 81.9959C35.9948 81.9959 36.3546 82.3546 36.3546 82.7972ZM35.551 78.8881C35.9948 78.8881 36.3546 78.5293 36.3546 78.0868C36.3546 77.6442 35.9948 77.2854 35.551 77.2854C35.1072 77.2854 34.7474 77.6442 34.7474 78.0868C34.7474 78.5293 35.1072 78.8881 35.551 78.8881ZM36.3546 73.3763C36.3546 73.8189 35.9948 74.1777 35.551 74.1777C35.1072 74.1777 34.7474 73.8189 34.7474 73.3763C34.7474 72.9337 35.1072 72.575 35.551 72.575C35.9948 72.575 36.3546 72.9337 36.3546 73.3763ZM35.551 69.4672C35.9948 69.4672 36.3546 69.1084 36.3546 68.6659C36.3546 68.2233 35.9948 67.8645 35.551 67.8645C35.1072 67.8645 34.7474 68.2233 34.7474 68.6659C34.7474 69.1084 35.1072 69.4672 35.551 69.4672Z" fill="#8BE1F7"/>
<path d="M53.2405 108.843C33.3903 108.843 17.2985 124.889 17.2985 144.683H64.6851L53.2405 108.843Z" fill="url(#paint5_linear)"/>
<path d="M154.012 10.0128H180.798C185.934 10.0128 190.098 14.1636 190.098 19.2839V30.0384H163.313C158.176 30.0384 154.012 25.8876 154.012 20.7673V10.0128Z" fill="url(#paint6_linear)"/>
<path fill-rule="evenodd" clip-rule="evenodd" d="M164.049 21.3706C163.063 21.3706 162.263 20.5733 162.263 19.5897C162.263 18.6062 163.063 17.8088 164.049 17.8088C165.036 17.8088 165.835 18.6062 165.835 19.5897C165.835 20.5733 165.036 21.3706 164.049 21.3706ZM172.086 21.3706C171.1 21.3706 170.3 20.5733 170.3 19.5897C170.3 18.6062 171.1 17.8088 172.086 17.8088C173.072 17.8088 173.872 18.6062 173.872 19.5897C173.872 20.5733 173.072 21.3706 172.086 21.3706ZM178.337 19.5897C178.337 20.5733 179.136 21.3706 180.123 21.3706C181.109 21.3706 181.909 20.5733 181.909 19.5897C181.909 18.6062 181.109 17.8088 180.123 17.8088C179.136 17.8088 178.337 18.6062 178.337 19.5897Z" fill="white"/>
<path d="M183.029 42.0908H202.378C206.487 42.0908 209.818 45.4115 209.818 49.5077V56.9573H190.47C186.36 56.9573 183.029 53.6366 183.029 49.5404V42.0908Z" fill="url(#paint7_linear)"/>
<path fill-rule="evenodd" clip-rule="evenodd" d="M109.728 77.9137C109.728 95.7792 124.253 110.263 142.172 110.263C160.09 110.263 174.615 95.7792 174.615 77.9137C174.615 60.0482 160.09 45.5645 142.172 45.5645C124.253 45.5645 109.728 60.0482 109.728 77.9137ZM159.734 77.9137C159.734 87.5877 151.871 95.4292 142.172 95.4292C132.472 95.4292 124.609 87.5877 124.609 77.9137C124.609 68.2397 132.472 60.3982 142.172 60.3982C151.871 60.3982 159.734 68.2397 159.734 77.9137Z" fill="white"/>
<path fill-rule="evenodd" clip-rule="evenodd" d="M190.283 50.4348C189.564 50.4348 188.981 49.8537 188.981 49.1368C188.981 48.42 189.564 47.8389 190.283 47.8389C191.003 47.8389 191.586 48.42 191.586 49.1368C191.586 49.8537 191.003 50.4348 190.283 50.4348ZM196.422 50.4348C195.703 50.4348 195.12 49.8537 195.12 49.1368C195.12 48.42 195.703 47.8389 196.422 47.8389C197.141 47.8389 197.724 48.42 197.724 49.1368C197.724 49.8537 197.141 50.4348 196.422 50.4348ZM201.258 49.1368C201.258 49.8537 201.841 50.4348 202.56 50.4348C203.279 50.4348 203.862 49.8537 203.862 49.1368C203.862 48.42 203.279 47.8389 202.56 47.8389C201.841 47.8389 201.258 48.42 201.258 49.1368Z" fill="white"/>
<path d="M59.5707 0H135.475C139.174 0 142.172 2.98859 142.172 6.67519V138.022C142.172 141.708 139.174 144.697 135.475 144.697H59.5707C55.8725 144.697 52.8745 141.708 52.8745 138.022V6.67519C52.8745 2.98859 55.8725 0 59.5707 0Z" fill="url(#paint8_linear)"/>
<path fill-rule="evenodd" clip-rule="evenodd" d="M56.5946 129.114H138.451V8.90442H56.5946V129.114Z" fill="url(#paint9_linear)"/>
<path fill-rule="evenodd" clip-rule="evenodd" d="M127.884 16.4728C127.884 15.9812 127.484 15.5828 126.991 15.5828H113.15C112.657 15.5828 112.257 15.9812 112.257 16.4728V19.1449C112.257 19.6365 112.657 20.035 113.15 20.035H126.991C127.484 20.035 127.884 19.6365 127.884 19.1449V16.4728ZM134.581 25.3772C134.581 24.8857 134.182 24.4872 133.689 24.4872H113.15C112.657 24.4872 112.257 24.8857 112.257 25.3772V28.0494C112.257 28.5409 112.657 28.9394 113.15 28.9394H133.689C134.182 28.9394 134.581 28.5409 134.581 28.0494V25.3772Z" fill="#8FC8F0"/>
<path d="M61.9026 15.5754H103.278C103.771 15.5754 104.171 15.9739 104.171 16.4655V45.8509C104.171 46.3424 103.771 46.7409 103.278 46.7409H61.9026C61.4095 46.7409 61.0098 46.3424 61.0098 45.8509V16.4655C61.0098 15.9739 61.4095 15.5754 61.9026 15.5754Z" fill="url(#paint10_linear)"/>
<path fill-rule="evenodd" clip-rule="evenodd" d="M88.1665 37.8261V29.6675C88.1665 29.5799 88.1354 29.4951 88.0787 29.4282C87.0123 28.1697 86.4806 26.546 86.5968 24.9027L86.6776 23.7601C86.6927 23.5455 86.5222 23.3632 86.3065 23.3632H84.8184C84.613 23.3632 84.4464 23.5292 84.4464 23.734C84.4464 24.7581 83.6137 25.5882 82.5864 25.5882C81.5591 25.5882 80.7263 24.7581 80.7263 23.734C80.7263 23.5292 80.5598 23.3632 80.3543 23.3632H78.8663C78.663 23.3632 78.4974 23.5258 78.4943 23.7284L78.474 25.0649C78.4502 26.6349 77.9623 28.1629 77.0714 29.4578C77.029 29.5195 77.0062 29.5926 77.0062 29.6675V37.8261C77.0062 38.4405 77.5059 38.9386 78.1223 38.9386H87.0505C87.6669 38.9386 88.1665 38.4405 88.1665 37.8261ZM85.9073 24.1048L85.8546 24.8505C85.728 26.6409 86.2897 28.4104 87.4225 29.8011V37.8261C87.4225 38.0309 87.256 38.1969 87.0505 38.1969H78.1223C77.9168 38.1969 77.7502 38.0309 77.7502 37.8261V29.7811C78.6825 28.3867 79.1925 26.7533 79.218 25.0761L79.2327 24.1048H80.0087C80.1892 25.3629 81.2745 26.3299 82.5864 26.3299C83.8983 26.3299 84.9836 25.3629 85.1641 24.1048H85.9073Z" fill="white"/>
<path d="M61.9026 55.6266H103.278C103.771 55.6266 104.171 56.0251 104.171 56.5166V85.902C104.171 86.3936 103.771 86.792 103.278 86.792H61.9026C61.4095 86.792 61.0098 86.3936 61.0098 85.902V56.5166C61.0098 56.0251 61.4095 55.6266 61.9026 55.6266Z" fill="url(#paint11_linear)"/>
<path fill-rule="evenodd" clip-rule="evenodd" d="M86.9347 66.3625C86.8221 66.1858 86.6677 66.0514 86.4925 65.9641V63.9706C86.4925 63.7658 86.326 63.5997 86.1205 63.5997C85.9151 63.5997 85.7485 63.7658 85.7485 63.9706V65.873C85.6274 65.9001 85.5088 65.9479 85.3978 66.0176L82.6794 67.7244L79.961 66.0176C79.9077 65.9841 79.8526 65.9557 79.7963 65.9321V63.9706C79.7963 63.7658 79.6298 63.5997 79.4243 63.5997C79.2189 63.5997 79.0523 63.7658 79.0523 63.9706V65.8913C78.8015 65.9645 78.5752 66.1254 78.4242 66.3625L77.8452 67.2713C77.502 67.81 77.4608 68.4866 77.7361 69.0627L78.7108 71.1028C79.1789 72.0824 79.2362 73.2075 78.87 74.2293L77.7229 77.4303C77.6799 77.5504 77.6579 77.677 77.6579 77.8046C77.6579 78.419 78.1575 78.9171 78.7739 78.9171H86.5849C86.7129 78.9171 86.8399 78.8952 86.9604 78.8523C87.5408 78.6456 87.8433 78.0089 87.6359 77.4303L86.4888 74.2293C86.1227 73.2075 86.1799 72.0824 86.648 71.1028L87.6228 69.0627C87.898 68.4866 87.8568 67.81 87.5136 67.2713L86.9347 66.3625ZM86.8856 67.6689C87.0915 67.9921 87.1162 68.3981 86.951 68.7438L85.9763 70.7839C85.4231 71.9416 85.3554 73.2713 85.7882 74.4788L86.9353 77.6798C87.0044 77.8727 86.9036 78.0849 86.7101 78.1538C86.6699 78.1681 86.6276 78.1754 86.5849 78.1754H78.7739C78.5684 78.1754 78.4019 78.0094 78.4019 77.8046C78.4019 77.7621 78.4092 77.7199 78.4236 77.6798L79.5707 74.4788C80.0034 73.2713 79.9357 71.9416 79.3826 70.7839L78.4078 68.7438C78.2426 68.3981 78.2674 67.9921 78.4733 67.6689L79.0522 66.7601C79.1621 66.5877 79.3911 66.5363 79.5645 66.6452L82.4812 68.4764C82.6023 68.5525 82.7565 68.5525 82.8777 68.4764L85.7943 66.6452C85.9677 66.5363 86.1967 66.5877 86.3066 66.7601L86.8856 67.6689Z" fill="white"/>
<path d="M61.9523 95.7225H103.327C103.821 95.7225 104.22 96.121 104.22 96.6126V121.546C104.22 122.037 103.821 122.436 103.327 122.436H61.9523C61.4592 122.436 61.0594 122.037 61.0594 121.546V96.6126C61.0594 96.121 61.4592 95.7225 61.9523 95.7225Z" fill="url(#paint12_linear)"/>
<path fill-rule="evenodd" clip-rule="evenodd" d="M88.304 115.013L88.266 114.887L90.3303 114.201C90.4922 114.147 90.5967 113.99 90.5836 113.821L89.8395 104.179C89.8356 104.128 89.8214 104.079 89.7976 104.034C88.9386 102.411 87.1774 101.611 85.0045 101.611C84.799 101.611 84.6325 101.777 84.6325 101.982C84.6325 103.006 83.7997 103.836 82.7724 103.836C81.7452 103.836 80.9124 103.006 80.9124 101.982C80.9124 101.777 80.7458 101.611 80.5404 101.611C78.3472 101.611 76.5674 102.412 75.744 104.04C75.7222 104.083 75.7091 104.13 75.7053 104.179L74.9613 113.821C74.9482 113.99 75.0526 114.147 75.2146 114.201L77.278 114.887L77.24 115.013C77.2088 115.117 77.193 115.224 77.193 115.332C77.193 115.947 77.6927 116.445 78.309 116.445H87.2349C87.3434 116.445 87.4513 116.429 87.5553 116.398C88.1457 116.222 88.4809 115.602 88.304 115.013ZM89.8195 113.589L88.0523 114.176L87.3331 111.783C87.1505 111.176 87.1125 110.535 87.222 109.91L87.8207 106.496C87.8561 106.294 87.7207 106.102 87.5183 106.067C87.3159 106.032 87.1231 106.167 87.0878 106.368L86.4891 109.782C86.3596 110.52 86.4046 111.279 86.6204 111.996L87.5913 115.226C87.6502 115.422 87.5385 115.629 87.3417 115.688C87.3071 115.698 87.2711 115.703 87.2349 115.703H78.309C78.1036 115.703 77.937 115.537 77.937 115.332C77.937 115.296 77.9423 115.261 77.9527 115.226L78.9236 111.996C79.1394 111.279 79.1843 110.52 79.0549 109.782L78.4562 106.368C78.4208 106.167 78.2281 106.032 78.0257 106.067C77.8233 106.102 77.6879 106.294 77.7233 106.496L78.322 109.91C78.4315 110.535 78.3934 111.176 78.2109 111.783L77.4917 114.176L75.7254 113.589L76.4414 104.311C77.0917 103.092 78.4521 102.436 80.1958 102.36C80.3795 103.615 81.4631 104.578 82.7724 104.578C84.0817 104.578 85.1653 103.615 85.3491 102.36C87.0747 102.437 88.4225 103.093 89.1038 104.314L89.8195 113.589Z" fill="white"/>
<path fill-rule="evenodd" clip-rule="evenodd" d="M127.884 56.5426C127.884 56.0511 127.484 55.6526 126.991 55.6526H113.15C112.657 55.6526 112.257 56.0511 112.257 56.5426V59.2148C112.257 59.7063 112.657 60.1048 113.15 60.1048H126.991C127.484 60.1048 127.884 59.7063 127.884 59.2148V56.5426ZM134.581 65.447C134.581 64.9555 134.182 64.557 133.689 64.557H113.15C112.657 64.557 112.257 64.9555 112.257 65.447V68.1192C112.257 68.6107 112.657 69.0092 113.15 69.0092H133.689C134.182 69.0092 134.581 68.6107 134.581 68.1192V65.447Z" fill="#8FC8F0"/>
<path opacity="0.5" fill-rule="evenodd" clip-rule="evenodd" d="M134.581 33.8366C134.581 33.5908 134.381 33.3916 134.135 33.3916H112.703C112.457 33.3916 112.257 33.5908 112.257 33.8366V35.1727C112.257 35.4185 112.457 35.6177 112.703 35.6177H134.135C134.381 35.6177 134.581 35.4185 134.581 35.1727V33.8366ZM134.581 40.5149C134.581 40.2692 134.381 40.0699 134.135 40.0699H112.703C112.457 40.0699 112.257 40.2692 112.257 40.5149V41.851C112.257 42.0968 112.457 42.296 112.703 42.296H134.135C134.381 42.296 134.581 42.0968 134.581 41.851V40.5149Z" fill="#8FC8F0"/>
<path opacity="0.5" d="M134.135 73.4614C134.381 73.4614 134.581 73.6607 134.581 73.9064V75.2425C134.581 75.4883 134.381 75.6875 134.135 75.6875H112.703C112.457 75.6875 112.257 75.4883 112.257 75.2425V73.9064C112.257 73.6607 112.457 73.4614 112.703 73.4614H134.135Z" fill="#8FC8F0"/>
<path d="M100.425 77.9137H207.582C208.815 77.9137 209.814 78.9099 209.814 80.1388V142.472C209.814 143.701 208.815 144.697 207.582 144.697H100.425C99.1921 144.697 98.1927 143.701 98.1927 142.472V80.1388C98.1927 78.9099 99.1921 77.9137 100.425 77.9137Z" fill="url(#paint13_linear)"/>
<path d="M98.1927 89.0442H209.814V102.401H98.1927V89.0442Z" fill="url(#paint14_linear)"/>
<path opacity="0.5" fill-rule="evenodd" clip-rule="evenodd" d="M124.982 121.323H107.122V125.775H124.982V121.323ZM120.517 131.34H107.122V135.792H120.517V131.34ZM129.447 121.323H151.771V125.775H129.447V121.323ZM140.609 131.34H124.982V135.792H140.609V131.34Z" fill="white"/>
<path d="M183.248 136.46C187.44 136.46 190.838 133.072 190.838 128.892C190.838 124.711 187.44 121.323 183.248 121.323C179.056 121.323 175.658 124.711 175.658 128.892C175.658 133.072 179.056 136.46 183.248 136.46Z" fill="#23257B"/>
<path opacity="0.5" d="M190.838 136.46C195.03 136.46 198.429 133.072 198.429 128.892C198.429 124.711 195.03 121.323 190.838 121.323C186.646 121.323 183.248 124.711 183.248 128.892C183.248 133.072 186.646 136.46 190.838 136.46Z" fill="white"/>
<path d="M35.0012 53.5613L32.1225 62.3072L27.5391 73.2756L29.7233 76.1492L28.3529 80.8313L23.9478 76.4236C22.2779 74.7526 21.8466 72.2134 22.8717 70.0876L29.0868 57.1989L35.0012 53.5613Z" fill="#FF686E"/>
<path d="M46.4847 142.146C47.4586 141.858 48.5808 141.8 49.851 141.972C51.7565 142.229 53.9364 142.671 53.2608 143.747C52.585 144.823 49.4861 144.868 47.9508 144.633C46.4155 144.399 46.2366 144.534 44.7729 144.633C43.3092 144.733 43.0518 144.641 43.0518 143.813C43.0518 142.984 43.0517 141.958 43.0518 141.501C43.0518 141.044 43.1204 140.646 44.1879 141.034C44.8995 141.292 45.6651 141.663 46.4847 142.146Z" fill="url(#paint15_linear)"/>
<path d="M43.0585 137.281H47.0814V141.416L49.4409 141.923C47.7342 142.716 45.7765 142.777 44.0232 142.093L43.0585 141.717V137.281Z" fill="url(#paint16_linear)"/>
<path d="M34.7664 142.146C35.7404 141.858 36.8625 141.8 38.1328 141.972C40.0382 142.229 42.2182 142.671 41.5425 143.747C40.8668 144.823 37.7678 144.868 36.2326 144.633C34.6973 144.399 34.5183 144.534 33.0546 144.633C31.591 144.733 31.3335 144.641 31.3335 143.813C31.3335 142.984 31.3335 141.958 31.3335 141.501C31.3336 141.044 31.4021 140.646 32.4696 141.034C33.1812 141.292 33.9468 141.663 34.7664 142.146Z" fill="url(#paint17_linear)"/>
<path d="M31.3401 137.281H35.363V141.416L37.7225 141.923C36.0158 142.716 34.0581 142.777 32.3048 142.093L31.3401 141.717V137.281Z" fill="url(#paint18_linear)"/>
<path d="M35.9615 139.717H30.7294L28.3953 86.0969L41.574 86.4219L35.9615 139.717Z" fill="#0C1452"/>
<path d="M47.9045 139.656H42.3707L40.7847 111.166L28.3822 86.1646L46.2165 86.4575L49.9577 104.842C50.3793 106.914 50.5026 109.035 50.3239 111.141L47.9045 139.656Z" fill="url(#paint19_linear)"/>
<path d="M40.0356 54.5588L35.0791 53.3802L35.5217 51.3042C34.2729 49.1173 34.2729 46.387 35.5217 43.1133C36.7706 39.8397 39.7596 39.7665 44.4887 42.8936L45.3506 46.9312C44.5185 47.2177 44.1025 47.7757 44.1025 48.6053C44.1025 49.8496 43.1327 50.3098 41.972 50.5724C41.1982 50.7474 40.5527 52.0762 40.0356 54.5588Z" fill="url(#paint20_linear)"/>
<path d="M48.8682 57.1487L61.6592 57.8879L76.3668 46.5444L74.1036 49.9537C74.3967 51.0282 74.2742 51.8994 73.7361 52.5673C73.198 53.2352 72.5363 53.5399 71.7509 53.4812L64.1343 61.846C63.4133 62.6378 62.3845 63.0809 61.3119 63.0614L49.5701 62.8479L48.8682 57.1487Z" fill="url(#paint21_linear)"/>
<path d="M38.3344 53.14C40.0173 53.14 47.7015 54.6587 61.3871 57.6962L68.1311 52.41L70.5329 55.2992L65.1712 61.731C64.111 63.0028 62.5382 63.7384 60.8795 63.7384H46.5817C47.0045 64.4703 47.2159 65.624 47.2159 67.1996C47.2159 68.7752 46.563 70.0709 45.2574 71.0868L46.2287 86.4913H28.0728V60.9277C28.0728 56.6267 31.5704 53.14 35.885 53.14C36.7015 53.14 37.518 53.14 38.3344 53.14Z" fill="url(#paint22_linear)"/>
<path fill-rule="evenodd" clip-rule="evenodd" d="M38.3273 87.658L38.5016 87.5934L38.9555 88.8099L38.7812 88.8745L38.3273 87.658ZM39.4297 90.6124L39.604 90.5478L40.058 91.7643L39.8836 91.8289L39.4297 90.6124ZM40.7065 93.5022L40.5321 93.5668L40.9861 94.7833L41.1604 94.7187L40.7065 93.5022ZM41.6345 96.5212L41.8089 96.4566L42.2628 97.6731L42.0885 97.7377L41.6345 96.5212ZM42.9113 99.411L42.737 99.4756L43.1909 100.692L43.3652 100.627L42.9113 99.411ZM43.8394 102.43L44.0137 102.365L44.4677 103.582L44.2933 103.647L43.8394 102.43ZM45.1155 105.321L44.9405 105.384C45.0868 105.789 45.2188 106.2 45.3363 106.614L45.5153 106.563C45.3966 106.145 45.2633 105.731 45.1155 105.321ZM45.7504 108.415L45.9336 108.383C46.0096 108.811 46.0706 109.242 46.1164 109.674L45.9314 109.694C45.8861 109.266 45.8257 108.839 45.7504 108.415ZM46.2195 111.538L46.0335 111.539C46.0345 111.738 46.0322 111.937 46.0268 112.136L46.0074 112.836L46.1934 112.841L46.2127 112.141C46.2182 111.94 46.2205 111.739 46.2195 111.538ZM45.9563 114.69L46.1422 114.695L46.1064 115.992L45.9204 115.987L45.9563 114.69ZM46.0552 117.846L45.8693 117.841L45.8335 119.138L46.0194 119.143L46.0552 117.846ZM45.7823 120.992L45.9682 120.997L45.9324 122.294L45.7465 122.289L45.7823 120.992ZM45.8813 124.148L45.6953 124.143L45.6595 125.44L45.8454 125.445L45.8813 124.148ZM45.6083 127.294L45.7943 127.299L45.7585 128.596L45.5725 128.591L45.6083 127.294ZM45.7073 130.45L45.5214 130.445L45.4856 131.742L45.6715 131.747L45.7073 130.45ZM45.4344 133.596L45.6203 133.601L45.5845 134.898L45.3986 134.893L45.4344 133.596ZM45.5333 136.752L45.3474 136.747L45.3116 138.044L45.4975 138.049L45.5333 136.752Z" fill="url(#paint23_linear)"/>
<path d="M33.7858 49.6131C34.9166 51.3205 36.0157 51.7243 37.0831 50.8246C38.6843 49.4751 38.2597 48.4844 37.4742 48.1828C36.6886 47.8812 36.528 46.262 37.4742 46.0156C38.4203 45.7691 39.0032 47.0647 39.2723 46.0156C39.5414 44.9664 39.0987 43.8857 40.3263 43.8857C41.554 43.8857 44.4145 44.3478 44.9808 42.4699C45.5472 40.592 44.0568 38.2682 40.7655 38.2682C37.4742 38.2682 34.3899 39.8846 33.1568 42.7445C32.3347 44.6512 32.5444 46.9407 33.7858 49.6131Z" fill="url(#paint24_linear)"/>
<path d="M34.332 42.6426C32.7286 42.384 31.9719 43.049 32.0621 44.6377C32.1973 47.0207 34.7041 49.3052 30.2328 51.6156C25.7615 53.926 27.219 58.3274 30.3254 59.3522C24.3295 57.6605 21.7995 54.7781 22.7354 50.7051C24.1393 44.5957 29.183 48.0524 29.3581 43.7698C29.4749 40.9148 31.3503 40.2343 34.9844 41.7284L34.332 42.6426Z" fill="url(#paint25_linear)"/>
<defs>
<linearGradient id="paint0_linear" x1="-3.26508" y1="114.85" x2="8.1925" y2="127.223" gradientUnits="userSpaceOnUse">
<stop stop-color="#CFE49F"/>
<stop offset="1" stop-color="#A9D386"/>
</linearGradient>
<linearGradient id="paint1_linear" x1="16.3574" y1="102.561" x2="29.027" y2="115.207" gradientUnits="userSpaceOnUse">
<stop stop-color="#77D791"/>
<stop offset="1" stop-color="#4FA67E"/>
</linearGradient>
<linearGradient id="paint2_linear" x1="-4.6353" y1="138.638" x2="18.5225" y2="161.746" gradientUnits="userSpaceOnUse">
<stop stop-color="#6EAE7C"/>
<stop offset="1" stop-color="#0F575D"/>
</linearGradient>
<linearGradient id="paint3_linear" x1="127.166" y1="28.7887" x2="127.166" y2="113.935" gradientUnits="userSpaceOnUse">
<stop stop-color="#D0F6FF"/>
<stop offset="1" stop-color="#8BE2F7"/>
</linearGradient>
<linearGradient id="paint4_linear" x1="-7.21688" y1="2.5862" x2="-7.21688" y2="53.7781" gradientUnits="userSpaceOnUse">
<stop stop-color="#D0F6FF"/>
<stop offset="1" stop-color="#8BE2F7"/>
</linearGradient>
<linearGradient id="paint5_linear" x1="19.0196" y1="111.446" x2="19.0196" y2="144.683" gradientUnits="userSpaceOnUse">
<stop stop-color="#55D0FF"/>
<stop offset="1" stop-color="#32A2FE"/>
</linearGradient>
<linearGradient id="paint6_linear" x1="154.012" y1="10.0128" x2="154.012" y2="30.0384" gradientUnits="userSpaceOnUse">
<stop stop-color="#FF9485"/>
<stop offset="1" stop-color="#FF676E"/>
</linearGradient>
<linearGradient id="paint7_linear" x1="183.029" y1="42.0908" x2="183.029" y2="56.9573" gradientUnits="userSpaceOnUse">
<stop stop-color="#FF9485"/>
<stop offset="1" stop-color="#FF676E"/>
</linearGradient>
<linearGradient id="paint8_linear" x1="136.864" y1="165.653" x2="139.056" y2="38.1791" gradientUnits="userSpaceOnUse">
<stop stop-color="#2B3389"/>
<stop offset="1" stop-color="#444FB7"/>
</linearGradient>
<linearGradient id="paint9_linear" x1="59.931" y1="8.90442" x2="59.931" y2="119.315" gradientUnits="userSpaceOnUse">
<stop stop-color="#EAFCFF"/>
<stop offset="1" stop-color="white"/>
</linearGradient>
<linearGradient id="paint10_linear" x1="61.0098" y1="15.5754" x2="61.0098" y2="46.7409" gradientUnits="userSpaceOnUse">
<stop stop-color="#FF9485"/>
<stop offset="1" stop-color="#FF676E"/>
</linearGradient>
<linearGradient id="paint11_linear" x1="67.566" y1="55.6266" x2="67.566" y2="77.3239" gradientUnits="userSpaceOnUse">
<stop stop-color="#4DBCFA"/>
<stop offset="1" stop-color="#1486DB"/>
</linearGradient>
<linearGradient id="paint12_linear" x1="67.6156" y1="95.7225" x2="67.6156" y2="114.32" gradientUnits="userSpaceOnUse">
<stop stop-color="#4DBCFA"/>
<stop offset="1" stop-color="#1486DB"/>
</linearGradient>
<linearGradient id="paint13_linear" x1="98.1927" y1="77.9137" x2="98.1927" y2="144.697" gradientUnits="userSpaceOnUse">
<stop stop-color="#4DBCFA"/>
<stop offset="1" stop-color="#1486DB"/>
</linearGradient>
<linearGradient id="paint14_linear" x1="104.127" y1="92.3833" x2="105.171" y2="107.986" gradientUnits="userSpaceOnUse">
<stop stop-color="#0F1752"/>
<stop offset="1" stop-color="#272884"/>
</linearGradient>
<linearGradient id="paint15_linear" x1="43.0518" y1="140.877" x2="43.0518" y2="144.749" gradientUnits="userSpaceOnUse">
<stop stop-color="#052569"/>
<stop offset="1" stop-color="#021038"/>
</linearGradient>
<linearGradient id="paint16_linear" x1="43.0585" y1="137.281" x2="43.0585" y2="142.565" gradientUnits="userSpaceOnUse">
<stop stop-color="#CD8E7C"/>
<stop offset="1" stop-color="#E6B18C"/>
</linearGradient>
<linearGradient id="paint17_linear" x1="31.3335" y1="140.877" x2="31.3335" y2="144.749" gradientUnits="userSpaceOnUse">
<stop stop-color="#052569"/>
<stop offset="1" stop-color="#021038"/>
</linearGradient>
<linearGradient id="paint18_linear" x1="31.3401" y1="137.281" x2="31.3401" y2="142.565" gradientUnits="userSpaceOnUse">
<stop stop-color="#CD8E7C"/>
<stop offset="1" stop-color="#E6B18C"/>
</linearGradient>
<linearGradient id="paint19_linear" x1="29.5529" y1="99.5374" x2="59.5157" y2="121.584" gradientUnits="userSpaceOnUse">
<stop stop-color="#0F1752"/>
<stop offset="1" stop-color="#272884"/>
</linearGradient>
<linearGradient id="paint20_linear" x1="34.5851" y1="40.6019" x2="34.5851" y2="54.5588" gradientUnits="userSpaceOnUse">
<stop stop-color="#CD8E7C"/>
<stop offset="1" stop-color="#E6B18C"/>
</linearGradient>
<linearGradient id="paint21_linear" x1="48.8682" y1="46.5444" x2="48.8682" y2="63.062" gradientUnits="userSpaceOnUse">
<stop stop-color="#CD8E7C"/>
<stop offset="1" stop-color="#E6B18C"/>
</linearGradient>
<linearGradient id="paint22_linear" x1="28.0728" y1="52.41" x2="28.0728" y2="86.4913" gradientUnits="userSpaceOnUse">
<stop stop-color="#FF9485"/>
<stop offset="1" stop-color="#FF676E"/>
</linearGradient>
<linearGradient id="paint23_linear" x1="38.3273" y1="87.5934" x2="38.3273" y2="138.049" gradientUnits="userSpaceOnUse">
<stop stop-color="white"/>
<stop offset="1" stop-color="#A587FF"/>
</linearGradient>
<linearGradient id="paint24_linear" x1="32.6655" y1="38.2682" x2="32.6655" y2="51.2904" gradientUnits="userSpaceOnUse">
<stop stop-color="#48137B"/>
<stop offset="1" stop-color="#300C59"/>
</linearGradient>
<linearGradient id="paint25_linear" x1="22.5459" y1="40.9585" x2="22.5459" y2="59.3522" gradientUnits="userSpaceOnUse">
<stop stop-color="#48137B"/>
<stop offset="1" stop-color="#300C59"/>
</linearGradient>
</defs>
</svg>
