<svg width="37" height="40" viewBox="0 0 37 40" fill="none" xmlns="http://www.w3.org/2000/svg">
<path d="M0.624702 28.9226C0.208234 25.9017 0 22.8979 0 19.9113C0 16.9251 0.208178 13.9217 0.624534 10.9012C0.717224 10.2287 1.06587 9.61915 1.59656 9.20164C3.96691 7.33678 6.44121 5.65353 9.01945 4.15191C11.5984 2.64988 14.2813 1.32956 17.0683 0.190965C17.691 -0.0634525 18.3874 -0.0636621 19.0103 0.19038C21.7821 1.32087 24.4648 2.64138 27.0583 4.15191C29.6515 5.66223 32.1262 7.34541 34.4823 9.20145C35.0123 9.61894 35.3605 10.2281 35.4531 10.9C35.8696 13.9209 36.0778 16.9247 36.0778 19.9113C36.0778 22.8975 35.8696 25.9009 35.4533 28.9214C35.3606 29.5938 35.0119 30.2034 34.4812 30.6209C32.1109 32.4858 29.6366 34.169 27.0583 35.6707C24.4794 37.1727 21.7965 38.493 19.0095 39.6316C18.3868 39.886 17.6904 39.8862 17.0675 39.6322C14.2957 38.5017 11.613 37.1812 9.01945 35.6707C6.42628 34.1603 3.95162 32.4772 1.59546 30.6211C1.06548 30.2036 0.717327 29.5945 0.624702 28.9226Z" fill="#82C43C"/>
<mask id="mask0" mask-type="alpha" maskUnits="userSpaceOnUse" x="0" y="0" width="37" height="40">
<path d="M0.624702 28.9226C0.208234 25.9017 0 22.8979 0 19.9113C0 16.9251 0.208178 13.9217 0.624534 10.9012C0.717224 10.2287 1.06587 9.61915 1.59656 9.20164C3.96691 7.33678 6.44121 5.65353 9.01945 4.15191C11.5984 2.64988 14.2813 1.32956 17.0683 0.190965C17.691 -0.0634525 18.3874 -0.0636621 19.0103 0.19038C21.7821 1.32087 24.4648 2.64138 27.0583 4.15191C29.6515 5.66223 32.1262 7.34541 34.4823 9.20145C35.0123 9.61894 35.3605 10.2281 35.4531 10.9C35.8696 13.9209 36.0778 16.9247 36.0778 19.9113C36.0778 22.8975 35.8696 25.9009 35.4533 28.9214C35.3606 29.5938 35.0119 30.2034 34.4812 30.6209C32.1109 32.4858 29.6366 34.169 27.0583 35.6707C24.4794 37.1727 21.7965 38.493 19.0095 39.6316C18.3868 39.886 17.6904 39.8862 17.0675 39.6322C14.2957 38.5017 11.613 37.1812 9.01945 35.6707C6.42628 34.1603 3.95162 32.4772 1.59546 30.6211C1.06548 30.2036 0.717327 29.5945 0.624702 28.9226Z" fill="white"/>
</mask>
<g mask="url(#mask0)">
</g>
<g clip-path="url(#clip0)">
<path d="M16.8362 20.3701L18.1484 32.2587L23.9677 34.6954C24.9438 35.1041 26.0214 34.3871 26.0214 33.3289V20.3701H16.8362Z" fill="#F1543F"/>
<path d="M10.2751 20.3701V33.3277C10.2751 34.3863 11.3533 35.1033 12.3295 34.6939L18.1482 32.2542V20.3701H10.2751Z" fill="#FF7058"/>
<path d="M16.1799 15.4185L29.6297 16.7389C29.6297 23.1094 24.4787 28.2929 18.1482 28.2929L16.1799 15.4185Z" fill="#FFD15C"/>
<path d="M29.6297 16.739H16.1799L18.1482 5.18506C24.4787 5.18506 29.6297 10.3685 29.6297 16.739Z" fill="#FFD15C"/>
<path d="M18.1482 16.739V28.2929C11.8177 28.2929 6.66675 23.1095 6.66675 16.739L12.4075 14.7583L18.1482 16.739Z" fill="#FFD15C"/>
<path d="M18.1482 5.18506V16.739H6.66675C6.66675 10.3685 11.8177 5.18506 18.1482 5.18506Z" fill="#FFD15C"/>
<path d="M18.1483 8.48633C13.6259 8.48633 9.94727 12.1882 9.94727 16.7391L18.1483 23.6715C24.1843 23.6715 26.3494 16.7391 26.3494 16.7391C26.3494 12.1882 22.6707 8.48633 18.1483 8.48633Z" fill="white"/>
<path d="M24.3811 16.7389C24.3811 20.1972 21.5849 23.0111 18.1483 23.0111V10.4668C14.7118 10.4668 11.9155 13.2807 11.9155 16.7389H9.94727C9.94727 21.2899 13.6259 24.9918 18.1483 24.9918C22.6707 24.9918 26.3494 21.2899 26.3494 16.7389H24.3811Z" fill="white"/>
<path fill-rule="evenodd" clip-rule="evenodd" d="M18.1853 25.2221C22.8899 25.2221 26.7038 21.4082 26.7038 16.7036C26.7038 11.9989 22.8899 8.18506 18.1853 8.18506C13.4806 8.18506 9.66675 11.9989 9.66675 16.7036C9.66675 21.4082 13.4806 25.2221 18.1853 25.2221Z" fill="#F8B64C"/>
<path d="M15.1396 20.1851C15.1396 19.8117 15.1687 19.4757 15.2267 19.1771C15.2848 18.8701 15.3844 18.588 15.5254 18.3308C15.6747 18.0737 15.8739 17.8331 16.1227 17.6091C16.3799 17.3851 16.7035 17.1652 17.0934 16.9495C17.4336 16.767 17.7322 16.6094 17.9894 16.4766C18.2549 16.3356 18.4747 16.207 18.649 16.0908C18.8232 15.9747 18.9559 15.8585 19.0472 15.7424C19.1385 15.6179 19.1841 15.4769 19.1841 15.3193C19.1841 15.0704 19.0845 14.8588 18.8854 14.6846C18.6863 14.5021 18.4001 14.4108 18.0267 14.4108C17.8276 14.4108 17.6451 14.4399 17.4792 14.4979C17.3133 14.5477 17.1556 14.6182 17.0063 14.7095C16.8653 14.8008 16.7325 14.9045 16.6081 15.0206C16.4919 15.1285 16.3841 15.2446 16.2845 15.3691L15.2143 14.1371C15.3222 14.0209 15.4756 13.8965 15.6747 13.7637C15.8739 13.6227 16.1062 13.4941 16.3716 13.3779C16.6454 13.2535 16.9441 13.1539 17.2676 13.0793C17.5995 12.9963 17.9521 12.9548 18.3254 12.9548C18.7485 12.9548 19.126 13.0088 19.4579 13.1166C19.7897 13.2162 20.0676 13.3614 20.2916 13.5522C20.5239 13.7347 20.6982 13.9587 20.8143 14.2242C20.9387 14.4814 21.001 14.7634 21.001 15.0704C21.001 15.3608 20.947 15.6179 20.8392 15.8419C20.7313 16.0659 20.5945 16.2651 20.4285 16.4393C20.2626 16.6135 20.0801 16.767 19.881 16.8997C19.6902 17.0242 19.5035 17.1362 19.321 17.2357C19.1716 17.3187 19.0016 17.4141 18.8107 17.5219C18.6199 17.6298 18.4291 17.7501 18.2383 17.8828C18.0558 18.0073 17.8857 18.14 17.7281 18.2811C17.5705 18.4138 17.4502 18.5465 17.3672 18.6793H21.1379V20.1851H15.1396Z" fill="#FFEFC8"/>
</g>
<defs>
<clipPath id="clip0">
<rect width="23" height="31" fill="white" transform="translate(6.66675 5.18506)"/>
</clipPath>
</defs>
</svg>
